# Created by Kenney (www.kenney.nl)

mtllib balcony-rail.mtl

g balcony-rail

v 0.5 0.4 0.15 1 1 1
v 0.3 0.4 0.15 1 1 1
v 0.5 0.4 -0.35 1 1 1
v 0.3 0.4 -0.35 1 1 1
v 0.5 0.3 -0.35 1 1 1
v 0.45 0.2 -0.35 1 1 1
v 0.5 0.3 0.15 1 1 1
v 0.45 0.2 0.15 1 1 1
v 0.35 0.2 -0.35 1 1 1
v 0.3 0.3 -0.35 1 1 1
v 0.35 0.2 0.15 1 1 1
v 0.3 0.3 0.15 1 1 1
v 0.5 0 0.15 1 1 1
v 0.5 0 -0.35 1 1 1
v 0.3 0 0.15 1 1 1
v 0.3 0 -0.35 1 1 1
v -0.3 0.3 0.15 1 1 1
v -0.35 0.2 0.15 1 1 1
v -0.35 0.2 0.2 1 1 1
v -0.3 0.2 0.2 1 1 1
v -0.5 0.3 0.2700725 1 1 1
v -0.5 0.4 0.2700725 1 1 1
v -0.4765898 0.3 0.3265898 1 1 1
v -0.4765898 0.4 0.3265898 1 1 1
v -0.3900544 0.2 0.3 1 1 1
v -0.4324423 0.2 0.2824423 1 1 1
v -0.4200725 0.3 0.35 1 1 1
v -0.3 0.2 0.3 1 1 1
v -0.3 0.3 0.35 1 1 1
v -0.5 0.3 0.15 1 1 1
v -0.5 0.4 0.15 1 1 1
v -0.3 0.4 0.35 1 1 1
v -0.4200725 0.4 0.35 1 1 1
v -0.3 0.4 0.15 1 1 1
v -0.45 0.2 0.2400544 1 1 1
v -0.45 0.2 0.15 1 1 1
v 0.3 0.3 0.35 1 1 1
v 0.3 0.4 0.35 1 1 1
v 0.3 0.2 0.2 1 1 1
v 0.3 0 0.35 1 1 1
v -0.3 0 0.35 1 1 1
v -0.3 0 0.15 1 1 1
v 0.3 0.2 0.3 1 1 1
v 0.35 0.2 0.2 1 1 1
v 0.4324423 0.2 0.2824423 1 1 1
v 0.3900544 0.2 0.3 1 1 1
v 0.4765898 0.3 0.3265898 1 1 1
v 0.4200725 0.3 0.35 1 1 1
v 0.45 0.2 0.2400544 1 1 1
v 0.5 0.3 0.2700725 1 1 1
v 0.5 0.4 0.2700725 1 1 1
v 0.4765898 0.4 0.3265898 1 1 1
v 0.4200725 0.4 0.35 1 1 1
v -0.3 0.4 -0.35 1 1 1
v -0.5 0.4 -0.35 1 1 1
v -0.3 0.3 -0.35 1 1 1
v -0.35 0.2 -0.35 1 1 1
v -0.45 0.2 -0.35 1 1 1
v -0.5 0.3 -0.35 1 1 1
v -0.45 0.2 0.15 1 1 1
v -0.3 0 -0.35 1 1 1
v -0.5 0 0.15 1 1 1
v -0.5 0 -0.35 1 1 1
v 0.45 0.1 -0.35 1 1 1
v 0.35 0.1 -0.35 1 1 1
v 0.5 0.1 -0.35 1 1 1
v 0.3 0.1 -0.35 1 1 1
v 0.3 0.1 0.2 1 1 1
v 0.3 0.1 0.3 1 1 1
v 0.3 0.1 0.35 1 1 1
v 0.3 0.1 0.15 1 1 1
v -0.35 0.1 -0.35 1 1 1
v -0.45 0.1 -0.35 1 1 1
v -0.3 0.1 -0.35 1 1 1
v -0.5 0.1 -0.35 1 1 1
v 0.35 0.1 0.15 1 1 1
v 0.45 0.1 0.15 1 1 1
v 0.5 0.1 0.15 1 1 1
v -0.3 0.1 0.3 1 1 1
v -0.3900544 0.1 0.3 1 1 1
v -0.4 0 0.35 1 1 1
v -0.3 0.1 0.35 1 1 1
v -0.4 0.1 0.35 1 1 1
v -0.35 0.1 0.15 1 1 1
v -0.35 0.1 0.2 1 1 1
v -0.45 0.1 0.15 1 1 1
v -0.45 0.1 0.2400544 1 1 1
v -0.5 0.1 0.15 1 1 1
v -0.4707107 0.1 0.3207107 1 1 1
v -0.5 0.1 0.25 1 1 1
v -0.4324423 0.1 0.2824423 1 1 1
v -0.3 0.1 0.2 1 1 1
v -0.4707107 0 0.3207107 1 1 1
v -0.3 0.1 0.15 1 1 1
v -0.5 0 0.25 1 1 1
v 0.4 0 0.35 1 1 1
v 0.4 0.1 0.35 1 1 1
v 0.5 0.1 0.25 1 1 1
v 0.5 0 0.25 1 1 1
v 0.35 0.1 0.2 1 1 1
v 0.3900544 0.1 0.3 1 1 1
v 0.4324423 0.1 0.2824423 1 1 1
v 0.45 0.1 0.2400544 1 1 1
v 0.4707107 0.1 0.3207107 1 1 1
v 0.4707107 0 0.3207107 1 1 1
v -0.45 0.1 0.15 1 1 1

vn 0 1 0
vn 0.973249 -0.2297529 0
vn 0.8944272 -0.4472136 0
vn -0.8944272 -0.4472136 0
vn -0.973249 -0.2297529 0
vn -1 0 0
vn 0 -1 0
vn 1 0 0
vn 0 -0.4472136 -0.8944272
vn -0.9497761 -0.2426048 0.1976574
vn -0.9807853 0 0.1950903
vn -0.6829487 -0.2591563 0.6829487
vn -0.7071068 0 0.7071068
vn -0.151278 -0.478022 0.8652225
vn -0.5998034 -0.5295958 0.5998034
vn -0.1976574 -0.2426048 0.9497761
vn 0 -0.4472136 0.8944272
vn 0 -0.2297529 0.973249
vn -0.973249 -0.2297529 0
vn -0.1950903 0 0.9807853
vn -0.8652225 -0.478022 0.151278
vn 0 0 1
vn 0 -0.2297529 -0.973249
vn 0 0 -1
vn 0 -0.4472136 -0.8944272
vn -0.8944272 -0.4472136 0
vn 0.5998034 -0.5295958 0.5998034
vn 0.151278 -0.478022 0.8652225
vn 0.6829487 -0.2591563 0.6829487
vn 0.1976574 -0.2426048 0.9497761
vn 0.8652225 -0.478022 0.151278
vn 0.9497761 -0.2426048 0.1976574
vn 0 -0.2297529 0.973249
vn 0.1950903 0 0.9807853
vn 0.7071068 0 0.7071068
vn 0.9807853 0 0.1950903
vn -0.7071068 0.7071068 0
vn 0.7071068 0.7071068 0
vn 0 0.7071068 0.7071068
vn -0.1282019 0.7537675 0.6445145
vn -0.1950903 0 0.9807853
vn 0.5773503 0.5773503 -0.5773503
vn -0.6445145 0.7537675 0.1282019
vn -0.4202881 0.8041865 0.4202881
vn 0 0.7071068 -0.7071068
vn -0.5773503 0.5773503 -0.5773503
vn 0.1282019 0.7537675 0.6445145
vn 0.4202881 0.8041865 0.4202881
vn 0.6445145 0.7537675 0.1282019

vt 0.34375 0.225
vt 0.34375 0.175
vt 0.34375 0.125
vt 0.34375 0.025
vt 0.21875 0.225
vt 0.21875 0.175
vt 0.21875 0.125
vt 0.21875 0.075
vt 0.21875 0.025
vt 0.21875 0.275
vt 0.21875 0.325
vt 0.21875 0.375
vt 0.46875 0.025

usemtl colormap

f 3/1/1 2/1/1 1/1/1
f 2/1/1 3/1/1 4/1/1
f 7/2/2 6/3/3 5/2/2
f 6/3/3 7/2/2 8/3/3
f 11/3/4 10/2/5 9/3/4
f 10/2/5 11/3/4 12/2/5
f 12/2/5 4/1/6 10/2/5
f 4/1/6 12/2/5 2/1/6
f 15/4/7 14/4/7 13/4/7
f 14/4/7 15/4/7 16/4/7
f 1/1/8 5/2/2 3/1/8
f 5/2/2 1/1/8 7/2/2
f 19/3/3 18/3/3 17/2/3
f 17/2/9 20/3/9 19/3/9
f 23/2/12 22/1/11 21/2/10
f 22/1/11 23/2/12 24/1/13
f 27/2/16 26/3/15 25/3/14
f 26/3/15 27/2/16 23/2/12
f 29/2/18 25/3/14 28/3/17
f 25/3/14 29/2/18 27/2/16
f 21/2/10 31/1/6 30/2/19
f 31/1/6 21/2/10 22/1/11
f 34/1/1 33/1/1 32/1/1
f 33/1/1 34/1/1 31/1/1
f 33/1/1 31/1/1 24/1/1
f 24/1/1 31/1/1 22/1/1
f 33/1/20 23/2/12 27/2/16
f 23/2/12 33/1/20 24/1/13
f 26/3/15 21/2/10 35/3/21
f 21/2/10 26/3/15 23/2/12
f 35/3/21 30/2/19 36/3/4
f 30/2/19 35/3/21 21/2/10
f 32/1/22 27/2/16 29/2/18
f 27/2/16 32/1/22 33/1/20
f 38/1/22 29/2/18 37/2/18
f 29/2/18 38/1/22 32/1/22
f 34/1/24 12/2/23 17/2/23
f 12/2/23 34/1/24 2/1/24
f 17/2/23 39/3/25 20/3/25
f 39/3/25 17/2/23 12/2/23
f 41/4/7 15/4/7 40/4/7
f 15/4/7 41/4/7 42/4/7
f 37/2/18 28/3/17 43/3/17
f 28/3/17 37/2/18 29/2/18
f 34/1/1 38/1/1 2/1/1
f 38/1/1 34/1/1 32/1/1
f 12/2/25 44/3/25 39/3/25
f 44/3/26 12/2/26 11/3/26
f 47/2/29 46/3/28 45/3/27
f 46/3/28 47/2/29 48/2/30
f 50/2/32 45/3/27 49/3/31
f 45/3/27 50/2/32 47/2/29
f 48/2/30 43/3/17 46/3/28
f 43/3/17 48/2/30 37/2/33
f 2/1/1 51/1/1 1/1/1
f 51/1/1 2/1/1 52/1/1
f 52/1/1 2/1/1 53/1/1
f 53/1/1 2/1/1 38/1/1
f 7/2/2 49/3/31 8/3/3
f 49/3/31 7/2/2 50/2/32
f 53/1/34 37/2/33 48/2/30
f 37/2/33 53/1/34 38/1/22
f 52/1/35 48/2/30 47/2/29
f 48/2/30 52/1/35 53/1/34
f 52/1/35 50/2/32 51/1/36
f 50/2/32 52/1/35 47/2/29
f 51/1/36 7/2/2 1/1/8
f 7/2/2 51/1/36 50/2/32
f 54/1/1 31/1/1 34/1/1
f 31/1/1 54/1/1 55/1/1
f 17/2/2 57/3/3 56/2/2
f 57/3/3 17/2/2 18/3/3
f 60/3/4 59/2/5 58/3/4
f 59/2/5 60/3/4 30/2/5
f 62/4/7 61/4/7 42/4/7
f 61/4/7 62/4/7 63/4/7
f 34/1/8 56/2/2 54/1/8
f 56/2/2 34/1/8 17/2/2
f 30/2/5 55/1/6 59/2/5
f 55/1/6 30/2/5 31/1/6
f 5/6/24 4/5/24 3/5/24
f 5/6/24 10/6/24 4/5/24
f 6/7/24 10/6/24 5/6/24
f 6/7/24 9/7/24 10/6/24
f 64/8/24 9/7/24 6/7/24
f 9/7/24 64/8/24 65/8/24
f 66/8/24 65/8/24 64/8/24
f 66/8/24 67/8/24 65/8/24
f 14/9/24 67/8/24 66/8/24
f 67/8/24 14/9/24 16/9/24
f 38/5/8 12/6/8 2/5/8
f 12/6/8 38/5/8 39/7/8
f 39/7/8 38/5/8 68/8/8
f 68/8/8 38/5/8 43/7/8
f 43/7/8 38/5/8 37/6/8
f 69/8/8 68/8/8 43/7/8
f 40/9/8 68/8/8 69/8/8
f 40/9/8 69/8/8 70/8/8
f 15/9/8 68/8/8 40/9/8
f 68/8/8 15/9/8 71/8/8
f 56/6/24 55/5/24 54/5/24
f 56/6/24 59/6/24 55/5/24
f 57/7/24 59/6/24 56/6/24
f 57/7/24 58/7/24 59/6/24
f 72/8/24 58/7/24 57/7/24
f 58/7/24 72/8/24 73/8/24
f 74/8/24 73/8/24 72/8/24
f 74/8/24 75/8/24 73/8/24
f 61/9/24 75/8/24 74/8/24
f 75/8/24 61/9/24 63/9/24
f 15/10/6 67/11/6 16/10/6
f 67/11/6 15/10/6 71/11/6
f 76/11/37 9/12/6 65/11/37
f 9/12/6 76/11/37 11/12/6
f 8/12/8 64/11/38 6/12/8
f 64/11/38 8/12/8 77/11/38
f 78/11/8 14/10/8 66/11/8
f 14/10/8 78/11/8 13/10/8
f 65/11/37 71/11/1 76/11/37
f 71/11/1 65/11/37 67/11/1
f 66/11/1 77/11/38 78/11/1
f 77/11/38 66/11/1 64/11/38
f 28/12/22 80/11/40 79/11/39
f 80/11/40 28/12/22 25/12/41
f 82/11/22 81/10/41 41/10/22
f 81/10/41 82/11/22 83/11/41
f 19/12/8 84/11/38 18/12/8
f 84/11/38 19/12/8 85/11/42
f 88/11/1 87/11/43 86/11/37
f 87/11/43 88/11/1 89/11/1
f 89/11/1 88/11/1 90/11/1
f 89/11/1 91/11/44 87/11/43
f 83/11/1 91/11/44 89/11/1
f 83/11/1 80/11/40 91/11/44
f 82/11/1 80/11/40 83/11/1
f 80/11/40 82/11/1 79/11/39
f 87/11/43 36/12/6 86/11/37
f 36/12/6 87/11/43 35/12/11
f 19/12/24 92/11/45 85/11/42
f 92/11/45 19/12/24 20/12/24
f 83/11/41 93/10/13 81/10/41
f 93/10/13 83/11/41 89/11/13
f 84/11/38 92/11/45 94/11/1
f 92/11/45 84/11/38 85/11/42
f 93/10/13 90/11/11 95/10/11
f 90/11/11 93/10/13 89/11/13
f 25/12/41 91/11/44 80/11/40
f 91/11/44 25/12/41 26/12/13
f 95/10/11 88/11/6 62/10/6
f 88/11/6 95/10/11 90/11/11
f 91/11/44 35/12/11 87/11/43
f 35/12/11 91/11/44 26/12/13
f 20/12/24 68/11/45 92/11/45
f 68/11/45 20/12/24 39/12/24
f 70/11/22 41/10/22 40/10/22
f 41/10/22 70/11/22 82/11/22
f 79/11/39 70/11/1 69/11/39
f 70/11/1 79/11/39 82/11/1
f 43/12/22 79/11/39 69/11/39
f 79/11/39 43/12/22 28/12/22
f 94/11/1 68/11/45 71/11/1
f 68/11/45 94/11/1 92/11/45
f 94/11/24 15/10/24 42/10/24
f 15/10/24 94/11/24 71/11/24
f 97/11/34 40/10/22 96/10/34
f 40/10/22 97/11/34 70/11/22
f 98/11/36 13/10/8 78/11/8
f 13/10/8 98/11/36 99/10/36
f 71/11/1 100/11/46 76/11/37
f 100/11/46 71/11/1 68/11/45
f 100/11/46 11/12/6 76/11/37
f 11/12/6 100/11/46 44/12/6
f 39/12/24 100/11/46 68/11/45
f 100/11/46 39/12/24 44/12/24
f 46/12/34 69/11/39 101/11/47
f 69/11/39 46/12/34 43/12/22
f 45/12/35 101/11/47 102/11/48
f 101/11/47 45/12/35 46/12/34
f 45/12/35 103/11/49 49/12/36
f 103/11/49 45/12/35 102/11/48
f 104/11/35 99/10/36 98/11/36
f 99/10/36 104/11/35 105/10/35
f 77/11/38 98/11/1 78/11/1
f 98/11/1 77/11/38 104/11/1
f 104/11/1 77/11/38 103/11/49
f 104/11/1 103/11/49 102/11/48
f 104/11/1 102/11/48 97/11/1
f 97/11/1 102/11/48 101/11/47
f 97/11/1 101/11/47 70/11/1
f 70/11/1 101/11/47 69/11/39
f 104/11/35 96/10/34 105/10/35
f 96/10/34 104/11/35 97/11/34
f 49/12/36 77/11/38 8/12/8
f 77/11/38 49/12/36 103/11/49
f 62/10/6 75/11/6 63/10/6
f 75/11/6 62/10/6 88/11/6
f 74/11/1 84/11/38 94/11/1
f 84/11/38 74/11/1 72/11/38
f 73/11/37 88/11/1 106/11/37
f 88/11/1 73/11/37 75/11/1
f 106/11/37 58/12/6 73/11/37
f 58/12/6 106/11/37 60/12/6
f 94/11/8 61/10/8 74/11/8
f 61/10/8 94/11/8 42/10/8
f 18/12/8 72/11/38 57/12/8
f 72/11/38 18/12/8 84/11/38
f 81/13/7 42/13/7 41/13/7
f 42/13/7 81/13/7 62/13/7
f 62/13/7 81/13/7 93/13/7
f 62/13/7 93/13/7 95/13/7
f 99/13/7 15/13/7 13/13/7
f 15/13/7 99/13/7 105/13/7
f 15/13/7 105/13/7 96/13/7
f 15/13/7 96/13/7 40/13/7

g balcony-rail




usemtl colormap

f 3/1/1 2/1/1 1/1/1
f 2/1/1 3/1/1 4/1/1
f 7/2/2 6/3/3 5/2/2
f 6/3/3 7/2/2 8/3/3
f 11/3/4 10/2/5 9/3/4
f 10/2/5 11/3/4 12/2/5
f 12/2/5 4/1/6 10/2/5
f 4/1/6 12/2/5 2/1/6
f 15/4/7 14/4/7 13/4/7
f 14/4/7 15/4/7 16/4/7
f 1/1/8 5/2/2 3/1/8
f 5/2/2 1/1/8 7/2/2
f 19/3/3 18/3/3 17/2/3
f 17/2/9 20/3/9 19/3/9
f 23/2/12 22/1/11 21/2/10
f 22/1/11 23/2/12 24/1/13
f 27/2/16 26/3/15 25/3/14
f 26/3/15 27/2/16 23/2/12
f 29/2/18 25/3/14 28/3/17
f 25/3/14 29/2/18 27/2/16
f 21/2/10 31/1/6 30/2/19
f 31/1/6 21/2/10 22/1/11
f 34/1/1 33/1/1 32/1/1
f 33/1/1 34/1/1 31/1/1
f 33/1/1 31/1/1 24/1/1
f 24/1/1 31/1/1 22/1/1
f 33/1/20 23/2/12 27/2/16
f 23/2/12 33/1/20 24/1/13
f 26/3/15 21/2/10 35/3/21
f 21/2/10 26/3/15 23/2/12
f 35/3/21 30/2/19 36/3/4
f 30/2/19 35/3/21 21/2/10
f 32/1/22 27/2/16 29/2/18
f 27/2/16 32/1/22 33/1/20
f 38/1/22 29/2/18 37/2/18
f 29/2/18 38/1/22 32/1/22
f 34/1/24 12/2/23 17/2/23
f 12/2/23 34/1/24 2/1/24
f 17/2/23 39/3/25 20/3/25
f 39/3/25 17/2/23 12/2/23
f 41/4/7 15/4/7 40/4/7
f 15/4/7 41/4/7 42/4/7
f 37/2/18 28/3/17 43/3/17
f 28/3/17 37/2/18 29/2/18
f 34/1/1 38/1/1 2/1/1
f 38/1/1 34/1/1 32/1/1
f 12/2/25 44/3/25 39/3/25
f 44/3/26 12/2/26 11/3/26
f 47/2/29 46/3/28 45/3/27
f 46/3/28 47/2/29 48/2/30
f 50/2/32 45/3/27 49/3/31
f 45/3/27 50/2/32 47/2/29
f 48/2/30 43/3/17 46/3/28
f 43/3/17 48/2/30 37/2/33
f 2/1/1 51/1/1 1/1/1
f 51/1/1 2/1/1 52/1/1
f 52/1/1 2/1/1 53/1/1
f 53/1/1 2/1/1 38/1/1
f 7/2/2 49/3/31 8/3/3
f 49/3/31 7/2/2 50/2/32
f 53/1/34 37/2/33 48/2/30
f 37/2/33 53/1/34 38/1/22
f 52/1/35 48/2/30 47/2/29
f 48/2/30 52/1/35 53/1/34
f 52/1/35 50/2/32 51/1/36
f 50/2/32 52/1/35 47/2/29
f 51/1/36 7/2/2 1/1/8
f 7/2/2 51/1/36 50/2/32
f 54/1/1 31/1/1 34/1/1
f 31/1/1 54/1/1 55/1/1
f 17/2/2 57/3/3 56/2/2
f 57/3/3 17/2/2 18/3/3
f 60/3/4 59/2/5 58/3/4
f 59/2/5 60/3/4 30/2/5
f 62/4/7 61/4/7 42/4/7
f 61/4/7 62/4/7 63/4/7
f 34/1/8 56/2/2 54/1/8
f 56/2/2 34/1/8 17/2/2
f 30/2/5 55/1/6 59/2/5
f 55/1/6 30/2/5 31/1/6
f 5/6/24 4/5/24 3/5/24
f 5/6/24 10/6/24 4/5/24
f 6/7/24 10/6/24 5/6/24
f 6/7/24 9/7/24 10/6/24
f 64/8/24 9/7/24 6/7/24
f 9/7/24 64/8/24 65/8/24
f 66/8/24 65/8/24 64/8/24
f 66/8/24 67/8/24 65/8/24
f 14/9/24 67/8/24 66/8/24
f 67/8/24 14/9/24 16/9/24
f 38/5/8 12/6/8 2/5/8
f 12/6/8 38/5/8 39/7/8
f 39/7/8 38/5/8 68/8/8
f 68/8/8 38/5/8 43/7/8
f 43/7/8 38/5/8 37/6/8
f 69/8/8 68/8/8 43/7/8
f 40/9/8 68/8/8 69/8/8
f 40/9/8 69/8/8 70/8/8
f 15/9/8 68/8/8 40/9/8
f 68/8/8 15/9/8 71/8/8
f 56/6/24 55/5/24 54/5/24
f 56/6/24 59/6/24 55/5/24
f 57/7/24 59/6/24 56/6/24
f 57/7/24 58/7/24 59/6/24
f 72/8/24 58/7/24 57/7/24
f 58/7/24 72/8/24 73/8/24
f 74/8/24 73/8/24 72/8/24
f 74/8/24 75/8/24 73/8/24
f 61/9/24 75/8/24 74/8/24
f 75/8/24 61/9/24 63/9/24
f 15/10/6 67/11/6 16/10/6
f 67/11/6 15/10/6 71/11/6
f 76/11/37 9/12/6 65/11/37
f 9/12/6 76/11/37 11/12/6
f 8/12/8 64/11/38 6/12/8
f 64/11/38 8/12/8 77/11/38
f 78/11/8 14/10/8 66/11/8
f 14/10/8 78/11/8 13/10/8
f 65/11/37 71/11/1 76/11/37
f 71/11/1 65/11/37 67/11/1
f 66/11/1 77/11/38 78/11/1
f 77/11/38 66/11/1 64/11/38
f 28/12/22 80/11/40 79/11/39
f 80/11/40 28/12/22 25/12/41
f 82/11/22 81/10/41 41/10/22
f 81/10/41 82/11/22 83/11/41
f 19/12/8 84/11/38 18/12/8
f 84/11/38 19/12/8 85/11/42
f 88/11/1 87/11/43 86/11/37
f 87/11/43 88/11/1 89/11/1
f 89/11/1 88/11/1 90/11/1
f 89/11/1 91/11/44 87/11/43
f 83/11/1 91/11/44 89/11/1
f 83/11/1 80/11/40 91/11/44
f 82/11/1 80/11/40 83/11/1
f 80/11/40 82/11/1 79/11/39
f 87/11/43 36/12/6 86/11/37
f 36/12/6 87/11/43 35/12/11
f 19/12/24 92/11/45 85/11/42
f 92/11/45 19/12/24 20/12/24
f 83/11/41 93/10/13 81/10/41
f 93/10/13 83/11/41 89/11/13
f 84/11/38 92/11/45 94/11/1
f 92/11/45 84/11/38 85/11/42
f 93/10/13 90/11/11 95/10/11
f 90/11/11 93/10/13 89/11/13
f 25/12/41 91/11/44 80/11/40
f 91/11/44 25/12/41 26/12/13
f 95/10/11 88/11/6 62/10/6
f 88/11/6 95/10/11 90/11/11
f 91/11/44 35/12/11 87/11/43
f 35/12/11 91/11/44 26/12/13
f 20/12/24 68/11/45 92/11/45
f 68/11/45 20/12/24 39/12/24
f 70/11/22 41/10/22 40/10/22
f 41/10/22 70/11/22 82/11/22
f 79/11/39 70/11/1 69/11/39
f 70/11/1 79/11/39 82/11/1
f 43/12/22 79/11/39 69/11/39
f 79/11/39 43/12/22 28/12/22
f 94/11/1 68/11/45 71/11/1
f 68/11/45 94/11/1 92/11/45
f 94/11/24 15/10/24 42/10/24
f 15/10/24 94/11/24 71/11/24
f 97/11/34 40/10/22 96/10/34
f 40/10/22 97/11/34 70/11/22
f 98/11/36 13/10/8 78/11/8
f 13/10/8 98/11/36 99/10/36
f 71/11/1 100/11/46 76/11/37
f 100/11/46 71/11/1 68/11/45
f 100/11/46 11/12/6 76/11/37
f 11/12/6 100/11/46 44/12/6
f 39/12/24 100/11/46 68/11/45
f 100/11/46 39/12/24 44/12/24
f 46/12/34 69/11/39 101/11/47
f 69/11/39 46/12/34 43/12/22
f 45/12/35 101/11/47 102/11/48
f 101/11/47 45/12/35 46/12/34
f 45/12/35 103/11/49 49/12/36
f 103/11/49 45/12/35 102/11/48
f 104/11/35 99/10/36 98/11/36
f 99/10/36 104/11/35 105/10/35
f 77/11/38 98/11/1 78/11/1
f 98/11/1 77/11/38 104/11/1
f 104/11/1 77/11/38 103/11/49
f 104/11/1 103/11/49 102/11/48
f 104/11/1 102/11/48 97/11/1
f 97/11/1 102/11/48 101/11/47
f 97/11/1 101/11/47 70/11/1
f 70/11/1 101/11/47 69/11/39
f 104/11/35 96/10/34 105/10/35
f 96/10/34 104/11/35 97/11/34
f 49/12/36 77/11/38 8/12/8
f 77/11/38 49/12/36 103/11/49
f 62/10/6 75/11/6 63/10/6
f 75/11/6 62/10/6 88/11/6
f 74/11/1 84/11/38 94/11/1
f 84/11/38 74/11/1 72/11/38
f 73/11/37 88/11/1 106/11/37
f 88/11/1 73/11/37 75/11/1
f 106/11/37 58/12/6 73/11/37
f 58/12/6 106/11/37 60/12/6
f 94/11/8 61/10/8 74/11/8
f 61/10/8 94/11/8 42/10/8
f 18/12/8 72/11/38 57/12/8
f 72/11/38 18/12/8 84/11/38
f 81/13/7 42/13/7 41/13/7
f 42/13/7 81/13/7 62/13/7
f 62/13/7 81/13/7 93/13/7
f 62/13/7 93/13/7 95/13/7
f 99/13/7 15/13/7 13/13/7
f 15/13/7 99/13/7 105/13/7
f 15/13/7 105/13/7 96/13/7
f 15/13/7 96/13/7 40/13/7

