# Created by Kenney (www.kenney.nl)

mtllib balcony-floor-corner.mtl

g balcony-floor-corner

v 0.35 1.868253E-15 0.35 1 1 1
v 0.35 0 -0.35 1 1 1
v -0.25 1.868253E-15 0.35 1 1 1
v -0.35 0 -0.35 1 1 1
v -0.3207107 1.845693E-15 0.3207107 1 1 1
v -0.35 1.868253E-15 0.25 1 1 1
v -0.35 0.15 -0.35 1 1 1
v -0.35 0.15 0.25 1 1 1
v -0.15 0.15 -0.35 1 1 1
v -0.15 0.1 -0.35 1 1 1
v -0.15 0.15 0.15 1 1 1
v -0.15 0.1 0.15 1 1 1
v 0.35 0.1 0.15 1 1 1
v 0.35 0.15 0.15 1 1 1
v 0.35 0.15 0.35 1 1 1
v -0.25 0.15 0.35 1 1 1
v -0.3207107 0.15 0.3207107 1 1 1
v 0.35 0.1 -0.35 1 1 1

vn 0 -1 0
vn -1 0 0
vn -0.9807853 0 0.1950903
vn 1 0 0
vn 0 0 -1
vn 0 0 1
vn -0.1950903 0 0.9807853
vn -0.7071068 0 0.7071068
vn 0 1 0

vt 0.21875 0.025
vt 0.21875 0.225
vt 0.21875 0.1583333
vt 0.34375 0.225

usemtl colormap

f 3/1/1 2/1/1 1/1/1
f 2/1/1 3/1/1 4/1/1
f 4/1/1 3/1/1 5/1/1
f 4/1/1 5/1/1 6/1/1
f 6/1/3 7/2/2 4/1/2
f 7/2/2 6/1/3 8/2/3
f 11/2/4 10/3/4 9/2/4
f 10/3/4 11/2/4 12/3/4
f 11/2/5 13/3/5 12/3/5
f 13/3/5 11/2/5 14/2/5
f 15/2/6 3/1/7 1/1/6
f 3/1/7 15/2/6 16/2/7
f 3/1/7 17/2/8 5/1/8
f 17/2/8 3/1/7 16/2/7
f 5/1/8 8/2/3 6/1/3
f 8/2/3 5/1/8 17/2/8
f 10/3/5 7/2/5 9/2/5
f 10/3/5 4/1/5 7/2/5
f 4/1/5 10/3/5 2/1/5
f 18/3/5 2/1/5 10/3/5
f 18/3/9 12/3/9 13/3/9
f 12/3/9 18/3/9 10/3/9
f 15/2/4 13/3/4 14/2/4
f 1/1/4 13/3/4 15/2/4
f 2/1/4 13/3/4 1/1/4
f 13/3/4 2/1/4 18/3/4
f 11/4/9 15/4/9 14/4/9
f 15/4/9 11/4/9 16/4/9
f 16/4/9 11/4/9 9/4/9
f 16/4/9 9/4/9 7/4/9
f 16/4/9 7/4/9 17/4/9
f 17/4/9 7/4/9 8/4/9

g balcony-floor-corner




usemtl colormap

f 3/1/1 2/1/1 1/1/1
f 2/1/1 3/1/1 4/1/1
f 4/1/1 3/1/1 5/1/1
f 4/1/1 5/1/1 6/1/1
f 6/1/3 7/2/2 4/1/2
f 7/2/2 6/1/3 8/2/3
f 11/2/4 10/3/4 9/2/4
f 10/3/4 11/2/4 12/3/4
f 11/2/5 13/3/5 12/3/5
f 13/3/5 11/2/5 14/2/5
f 15/2/6 3/1/7 1/1/6
f 3/1/7 15/2/6 16/2/7
f 3/1/7 17/2/8 5/1/8
f 17/2/8 3/1/7 16/2/7
f 5/1/8 8/2/3 6/1/3
f 8/2/3 5/1/8 17/2/8
f 10/3/5 7/2/5 9/2/5
f 10/3/5 4/1/5 7/2/5
f 4/1/5 10/3/5 2/1/5
f 18/3/5 2/1/5 10/3/5
f 18/3/9 12/3/9 13/3/9
f 12/3/9 18/3/9 10/3/9
f 15/2/4 13/3/4 14/2/4
f 1/1/4 13/3/4 15/2/4
f 2/1/4 13/3/4 1/1/4
f 13/3/4 2/1/4 18/3/4
f 11/4/9 15/4/9 14/4/9
f 15/4/9 11/4/9 16/4/9
f 16/4/9 11/4/9 9/4/9
f 16/4/9 9/4/9 7/4/9
f 16/4/9 7/4/9 17/4/9
f 17/4/9 7/4/9 8/4/9

