# Created by Kenney (www.kenney.nl)

mtllib balcony-rail-corner.mtl

g balcony-rail-corner

v 0.35 0.1 0.3 1 1 1
v -0.15 0.1 0.3 1 1 1
v 0.35 0.2 0.3 1 1 1
v -0.15 0.2 0.3 1 1 1
v 0.35 0.1 0.15 1 1 1
v 0.35 0.1 0.2 1 1 1
v -0.15 0.1 0.15 1 1 1
v -0.15 0.1 0.2 1 1 1
v 0.35 0 0.15 1 1 1
v -0.15 4.007413E-32 0.15 1 1 1
v 0.35 0 0.35 1 1 1
v -0.15 4.007413E-32 0.35 1 1 1
v 0.35 0.1 0.35 1 1 1
v -0.15 0.1 0.35 1 1 1
v -0.15 0.2 0.2 1 1 1
v 0.35 0.2 0.2 1 1 1
v -0.3 0.1 -0.35 1 1 1
v -0.3 0.2 -0.35 1 1 1
v -0.3 0.1 0.15 1 1 1
v -0.3 0.2 0.15 1 1 1
v -0.15 0.1 -0.35 1 1 1
v -0.15 0 -0.35 1 1 1
v -0.35 0.1 0.15 1 1 1
v -0.35 0.1 -0.35 1 1 1
v -0.35 0 -0.35 1 1 1
v -0.35 4.007413E-32 0.15 1 1 1
v -0.2 0.2 -0.35 1 1 1
v -0.2 0.1 -0.35 1 1 1
v -0.2 0.2 0.15 1 1 1
v -0.2 0.1 0.15 1 1 1
v -0.3 0.1 0.2400544 1 1 1
v -0.3 0.2 0.2400544 1 1 1
v -0.2400544 0.1 0.3 1 1 1
v -0.2824423 0.1 0.2824423 1 1 1
v -0.2400544 0.2 0.3 1 1 1
v -0.2824423 0.2 0.2824423 1 1 1
v -0.35 4.007413E-32 0.25 1 1 1
v -0.35 0.1 0.25 1 1 1
v -0.3207107 4.007413E-32 0.3207107 1 1 1
v -0.3207107 0.1 0.3207107 1 1 1
v -0.2 0.2 0.2 1 1 1
v -0.2 0.1 0.2 1 1 1
v -0.25 0.1 0.35 1 1 1
v -0.25 4.007413E-32 0.35 1 1 1
v 0.35 0.4 0.15 1 1 1
v 0.35 0.4 0.35 1 1 1
v -0.15 0.4 0.15 1 1 1
v -0.15 0.4 0.35 1 1 1
v 0.35 0.3 0.35 1 1 1
v -0.15 0.3 0.35 1 1 1
v -0.15 0.3 0.15 1 1 1
v 0.35 0.3 0.15 1 1 1
v -0.15 0.4 -0.35 1 1 1
v -0.15 0.3 -0.35 1 1 1
v -0.35 0.3 -0.35 1 1 1
v -0.35 0.4 -0.35 1 1 1
v -0.35 0.3 0.15 1 1 1
v -0.35 0.4 0.15 1 1 1
v -0.2700725 0.3 0.35 1 1 1
v -0.35 0.3 0.2700725 1 1 1
v -0.35 0.4 0.2700725 1 1 1
v -0.3265898 0.3 0.3265898 1 1 1
v -0.3265898 0.4 0.3265898 1 1 1
v -0.2700725 0.4 0.35 1 1 1

vn 0 0.7071068 0.7071068
vn 0 0 1
vn 0 1 0
vn 0 0.7071068 -0.7071068
vn 0 0 -1
vn -0.7071068 0.7071068 0
vn -1 0 0
vn 1 0 0
vn 0.7071068 0.7071068 0
vn -0.6445145 0.7537675 0.1282019
vn -0.9807853 0 0.1950903
vn -0.1282019 0.7537675 0.6445145
vn -0.4202881 0.8041865 0.4202881
vn -0.1950903 0 0.9807853
vn -0.7071068 0 0.7071068
vn 0.5773503 0.5773503 -0.5773503
vn 0 -0.2297529 0.973249
vn 0 -1 0
vn 0 -0.2297529 -0.973249
vn 0 -0.4472136 -0.8944272
vn 0 -0.4472136 0.8944272
vn 0.973249 -0.2297529 0
vn -0.973249 -0.2297529 0
vn -0.8944272 -0.4472136 0
vn 0.8944272 -0.4472136 0
vn 0 -0.4472136 -0.8944272
vn -0.151278 -0.478022 0.8652225
vn -0.1976574 -0.2426048 0.9497761
vn -0.973249 -0.2297529 0
vn -0.9497761 -0.2426048 0.1976574
vn -0.6829487 -0.2591563 0.6829487
vn -0.1950903 0 0.9807853
vn -0.8652225 -0.478022 0.151278
vn -0.5998034 -0.5295958 0.5998034

vt 0.21875 0.325
vt 0.21875 0.375
vt 0.21875 0.275
vt 0.34375 0.225
vt 0.34375 0.175
vt 0.34375 0.025
vt 0.34375 0.125
vt 0.21875 0.225
vt 0.21875 0.175
vt 0.21875 0.125
vt 0.21875 0.075
vt 0.21875 0.025
vt 0.46875 0.025

usemtl colormap

f 3/2/2 2/1/1 1/1/1
f 2/1/1 3/2/2 4/2/2
f 7/1/3 6/1/4 5/1/3
f 6/1/4 7/1/3 8/1/4
f 10/3/5 5/1/5 9/3/5
f 5/1/5 10/3/5 7/1/5
f 13/1/2 12/3/2 11/3/2
f 12/3/2 13/1/2 14/1/2
f 15/2/5 6/1/4 8/1/4
f 6/1/4 15/2/5 16/2/5
f 2/1/1 13/1/3 1/1/1
f 13/1/3 2/1/1 14/1/3
f 19/1/6 18/2/7 17/1/6
f 18/2/7 19/1/6 20/2/7
f 7/1/8 22/3/8 21/1/8
f 22/3/8 7/1/8 10/3/8
f 17/1/6 23/1/3 19/1/6
f 23/1/3 17/1/6 24/1/3
f 26/3/7 24/1/7 25/3/7
f 24/1/7 26/3/7 23/1/7
f 29/2/8 28/1/9 27/2/8
f 28/1/9 29/2/8 30/1/9
f 21/1/3 30/1/9 7/1/3
f 30/1/9 21/1/3 28/1/9
f 31/1/10 20/2/7 19/1/6
f 20/2/7 31/1/10 32/2/11
f 35/2/14 34/1/13 33/1/12
f 34/1/13 35/2/14 36/2/15
f 34/1/13 32/2/11 31/1/10
f 32/2/11 34/1/13 36/2/15
f 39/3/15 38/1/11 37/3/11
f 38/1/11 39/3/15 40/1/15
f 41/2/8 30/1/9 29/2/8
f 30/1/9 41/2/8 42/1/16
f 4/2/2 33/1/12 2/1/1
f 33/1/12 4/2/2 35/2/14
f 23/1/3 31/1/10 19/1/6
f 31/1/10 23/1/3 40/1/3
f 40/1/3 23/1/3 38/1/3
f 40/1/3 34/1/13 31/1/10
f 43/1/3 34/1/13 40/1/3
f 43/1/3 33/1/12 34/1/13
f 14/1/3 33/1/12 43/1/3
f 33/1/12 14/1/3 2/1/1
f 41/2/5 8/1/4 42/1/16
f 8/1/4 41/2/5 15/2/5
f 43/1/14 39/3/15 44/3/14
f 39/3/15 43/1/14 40/1/15
f 14/1/2 44/3/14 12/3/2
f 44/3/14 14/1/2 43/1/14
f 37/3/11 23/1/7 26/3/7
f 23/1/7 37/3/11 38/1/11
f 30/1/9 8/1/4 7/1/3
f 8/1/4 30/1/9 42/1/16
f 47/4/3 46/4/3 45/4/3
f 46/4/3 47/4/3 48/4/3
f 46/4/2 50/5/17 49/5/17
f 50/5/17 46/4/2 48/4/2
f 12/6/18 9/6/18 11/6/18
f 9/6/18 12/6/18 10/6/18
f 47/4/5 52/5/19 51/5/19
f 52/5/19 47/4/5 45/4/5
f 51/5/19 16/7/20 15/7/20
f 16/7/20 51/5/19 52/5/19
f 49/5/17 4/7/21 3/7/21
f 4/7/21 49/5/17 50/5/17
f 47/4/8 54/5/22 53/4/8
f 54/5/22 47/4/8 51/5/22
f 26/6/18 22/6/18 10/6/18
f 22/6/18 26/6/18 25/6/18
f 57/5/23 56/4/7 55/5/23
f 56/4/7 57/5/23 58/4/7
f 20/7/24 55/5/23 18/7/24
f 55/5/23 20/7/24 57/5/23
f 51/5/22 27/7/25 54/5/22
f 27/7/25 51/5/22 29/7/25
f 53/4/3 58/4/3 47/4/3
f 58/4/3 53/4/3 56/4/3
f 51/5/26 15/7/26 41/7/26
f 41/7/25 29/7/25 51/5/25
f 50/5/17 35/7/27 4/7/21
f 35/7/27 50/5/17 59/5/28
f 60/5/30 58/4/7 57/5/29
f 58/4/7 60/5/30 61/4/11
f 62/5/31 61/4/11 60/5/30
f 61/4/11 62/5/31 63/4/15
f 64/4/32 62/5/31 59/5/28
f 62/5/31 64/4/32 63/4/15
f 47/4/3 64/4/3 48/4/3
f 64/4/3 47/4/3 58/4/3
f 64/4/3 58/4/3 63/4/3
f 63/4/3 58/4/3 61/4/3
f 32/7/33 57/5/29 20/7/24
f 57/5/29 32/7/33 60/5/30
f 36/7/34 60/5/30 32/7/33
f 60/5/30 36/7/34 62/5/31
f 59/5/28 36/7/34 35/7/27
f 36/7/34 59/5/28 62/5/31
f 48/4/2 59/5/28 50/5/17
f 59/5/28 48/4/2 64/4/32
f 46/8/8 52/9/8 45/8/8
f 52/9/8 46/8/8 16/10/8
f 16/10/8 46/8/8 6/11/8
f 6/11/8 46/8/8 3/10/8
f 3/10/8 46/8/8 49/9/8
f 1/11/8 6/11/8 3/10/8
f 11/12/8 6/11/8 1/11/8
f 11/12/8 1/11/8 13/11/8
f 9/12/8 6/11/8 11/12/8
f 6/11/8 9/12/8 5/11/8
f 54/9/5 56/8/5 53/8/5
f 54/9/5 55/9/5 56/8/5
f 27/10/5 55/9/5 54/9/5
f 27/10/5 18/10/5 55/9/5
f 28/11/5 18/10/5 27/10/5
f 18/10/5 28/11/5 17/11/5
f 21/11/5 17/11/5 28/11/5
f 21/11/5 24/11/5 17/11/5
f 22/12/5 24/11/5 21/11/5
f 24/11/5 22/12/5 25/12/5
f 44/13/18 10/13/18 12/13/18
f 10/13/18 44/13/18 26/13/18
f 26/13/18 44/13/18 39/13/18
f 26/13/18 39/13/18 37/13/18

g balcony-rail-corner




usemtl colormap

f 3/2/2 2/1/1 1/1/1
f 2/1/1 3/2/2 4/2/2
f 7/1/3 6/1/4 5/1/3
f 6/1/4 7/1/3 8/1/4
f 10/3/5 5/1/5 9/3/5
f 5/1/5 10/3/5 7/1/5
f 13/1/2 12/3/2 11/3/2
f 12/3/2 13/1/2 14/1/2
f 15/2/5 6/1/4 8/1/4
f 6/1/4 15/2/5 16/2/5
f 2/1/1 13/1/3 1/1/1
f 13/1/3 2/1/1 14/1/3
f 19/1/6 18/2/7 17/1/6
f 18/2/7 19/1/6 20/2/7
f 7/1/8 22/3/8 21/1/8
f 22/3/8 7/1/8 10/3/8
f 17/1/6 23/1/3 19/1/6
f 23/1/3 17/1/6 24/1/3
f 26/3/7 24/1/7 25/3/7
f 24/1/7 26/3/7 23/1/7
f 29/2/8 28/1/9 27/2/8
f 28/1/9 29/2/8 30/1/9
f 21/1/3 30/1/9 7/1/3
f 30/1/9 21/1/3 28/1/9
f 31/1/10 20/2/7 19/1/6
f 20/2/7 31/1/10 32/2/11
f 35/2/14 34/1/13 33/1/12
f 34/1/13 35/2/14 36/2/15
f 34/1/13 32/2/11 31/1/10
f 32/2/11 34/1/13 36/2/15
f 39/3/15 38/1/11 37/3/11
f 38/1/11 39/3/15 40/1/15
f 41/2/8 30/1/9 29/2/8
f 30/1/9 41/2/8 42/1/16
f 4/2/2 33/1/12 2/1/1
f 33/1/12 4/2/2 35/2/14
f 23/1/3 31/1/10 19/1/6
f 31/1/10 23/1/3 40/1/3
f 40/1/3 23/1/3 38/1/3
f 40/1/3 34/1/13 31/1/10
f 43/1/3 34/1/13 40/1/3
f 43/1/3 33/1/12 34/1/13
f 14/1/3 33/1/12 43/1/3
f 33/1/12 14/1/3 2/1/1
f 41/2/5 8/1/4 42/1/16
f 8/1/4 41/2/5 15/2/5
f 43/1/14 39/3/15 44/3/14
f 39/3/15 43/1/14 40/1/15
f 14/1/2 44/3/14 12/3/2
f 44/3/14 14/1/2 43/1/14
f 37/3/11 23/1/7 26/3/7
f 23/1/7 37/3/11 38/1/11
f 30/1/9 8/1/4 7/1/3
f 8/1/4 30/1/9 42/1/16
f 47/4/3 46/4/3 45/4/3
f 46/4/3 47/4/3 48/4/3
f 46/4/2 50/5/17 49/5/17
f 50/5/17 46/4/2 48/4/2
f 12/6/18 9/6/18 11/6/18
f 9/6/18 12/6/18 10/6/18
f 47/4/5 52/5/19 51/5/19
f 52/5/19 47/4/5 45/4/5
f 51/5/19 16/7/20 15/7/20
f 16/7/20 51/5/19 52/5/19
f 49/5/17 4/7/21 3/7/21
f 4/7/21 49/5/17 50/5/17
f 47/4/8 54/5/22 53/4/8
f 54/5/22 47/4/8 51/5/22
f 26/6/18 22/6/18 10/6/18
f 22/6/18 26/6/18 25/6/18
f 57/5/23 56/4/7 55/5/23
f 56/4/7 57/5/23 58/4/7
f 20/7/24 55/5/23 18/7/24
f 55/5/23 20/7/24 57/5/23
f 51/5/22 27/7/25 54/5/22
f 27/7/25 51/5/22 29/7/25
f 53/4/3 58/4/3 47/4/3
f 58/4/3 53/4/3 56/4/3
f 51/5/26 15/7/26 41/7/26
f 41/7/25 29/7/25 51/5/25
f 50/5/17 35/7/27 4/7/21
f 35/7/27 50/5/17 59/5/28
f 60/5/30 58/4/7 57/5/29
f 58/4/7 60/5/30 61/4/11
f 62/5/31 61/4/11 60/5/30
f 61/4/11 62/5/31 63/4/15
f 64/4/32 62/5/31 59/5/28
f 62/5/31 64/4/32 63/4/15
f 47/4/3 64/4/3 48/4/3
f 64/4/3 47/4/3 58/4/3
f 64/4/3 58/4/3 63/4/3
f 63/4/3 58/4/3 61/4/3
f 32/7/33 57/5/29 20/7/24
f 57/5/29 32/7/33 60/5/30
f 36/7/34 60/5/30 32/7/33
f 60/5/30 36/7/34 62/5/31
f 59/5/28 36/7/34 35/7/27
f 36/7/34 59/5/28 62/5/31
f 48/4/2 59/5/28 50/5/17
f 59/5/28 48/4/2 64/4/32
f 46/8/8 52/9/8 45/8/8
f 52/9/8 46/8/8 16/10/8
f 16/10/8 46/8/8 6/11/8
f 6/11/8 46/8/8 3/10/8
f 3/10/8 46/8/8 49/9/8
f 1/11/8 6/11/8 3/10/8
f 11/12/8 6/11/8 1/11/8
f 11/12/8 1/11/8 13/11/8
f 9/12/8 6/11/8 11/12/8
f 6/11/8 9/12/8 5/11/8
f 54/9/5 56/8/5 53/8/5
f 54/9/5 55/9/5 56/8/5
f 27/10/5 55/9/5 54/9/5
f 27/10/5 18/10/5 55/9/5
f 28/11/5 18/10/5 27/10/5
f 18/10/5 28/11/5 17/11/5
f 21/11/5 17/11/5 28/11/5
f 21/11/5 24/11/5 17/11/5
f 22/12/5 24/11/5 21/11/5
f 24/11/5 22/12/5 25/12/5
f 44/13/18 10/13/18 12/13/18
f 10/13/18 44/13/18 26/13/18
f 26/13/18 44/13/18 39/13/18
f 26/13/18 39/13/18 37/13/18

