# Created by Kenney (www.kenney.nl)

mtllib bed-double-cover.mtl

g bed-double-cover

v -0.3 0 -0.25 1 1 1
v -0.3 0.1 -0.25 1 1 1
v -0.3 0 0.25 1 1 1
v -0.3 0.1 0.25 1 1 1
v -0.25 0.15 -0.25 1 1 1
v -0.25 0.15 0.25 1 1 1
v -0.2853553 0.1353553 -0.25 1 1 1
v -0.2853553 0.1353553 0.25 1 1 1
v -0.25 0.1 -0.25 1 1 1
v -0.25 0 -0.25 1 1 1
v -0.25 0.1 0.25 1 1 1
v -0.25 0 0.25 1 1 1
v 0.75 0 -0.25 1 1 1
v 0.75 0.1 -0.25 1 1 1
v 0.75 0 0.25 1 1 1
v 0.75 0.1 0.25 1 1 1
v 0.75 0.15 -0.25 1 1 1
v 0.75 0.15 0.25 1 1 1
v 0.7853553 0.1353553 -0.25 1 1 1
v 0.7853553 0.1353553 0.25 1 1 1
v 0.8 0.1 -0.25 1 1 1
v 0.8 0.1 0.25 1 1 1
v 0.8 0 0.25 1 1 1
v 0.8 0 -0.25 1 1 1

vn -0.7071068 -0.7071068 0
vn -0.9807853 0.1950903 0
vn -0.1950903 0.9807853 0
vn -0.7071068 0.7071068 0
vn 1 0 0
vn 0 -1 0
vn -1 0 0
vn 0.1950903 0.9807853 0
vn 0.7071068 0.7071068 0
vn 0.9807853 0.1950903 0
vn 0.7071068 -0.7071068 0
vn 0 0 -1
vn 0 0 1

vt 0.21875 0.275
vt 0.21875 0.4083333
vt 0.21875 0.475
vt 0.21875 0.4554738

usemtl colormap

f 3/1/1 2/2/2 1/1/1
f 2/2/2 3/1/1 4/2/2
f 7/4/4 6/3/3 5/3/3
f 6/3/3 7/4/4 8/4/4
f 4/2/2 7/4/4 2/2/2
f 7/4/4 4/2/2 8/4/4
f 11/2/5 10/1/5 9/2/5
f 10/1/5 11/2/5 12/1/5
f 3/1/1 10/1/6 12/1/6
f 10/1/6 3/1/1 1/1/1
f 15/1/7 14/2/7 13/1/7
f 14/2/7 15/1/7 16/2/7
f 5/3/3 18/3/8 17/3/8
f 18/3/8 5/3/3 6/3/3
f 11/2/6 14/2/6 16/2/6
f 14/2/6 11/2/6 9/2/6
f 17/3/8 20/4/9 19/4/9
f 20/4/9 17/3/8 18/3/8
f 20/4/9 21/2/10 19/4/9
f 21/2/10 20/4/9 22/2/10
f 15/1/6 24/1/11 23/1/11
f 24/1/11 15/1/6 13/1/6
f 2/2/12 10/1/12 1/1/12
f 10/1/12 2/2/12 9/2/12
f 9/2/12 2/2/12 7/4/12
f 9/2/12 7/4/12 14/2/12
f 14/2/12 7/4/12 21/2/12
f 24/1/12 14/2/12 21/2/12
f 14/2/12 24/1/12 13/1/12
f 21/2/12 7/4/12 19/4/12
f 19/4/12 7/4/12 5/3/12
f 19/4/12 5/3/12 17/3/12
f 22/2/10 24/1/11 21/2/10
f 24/1/11 22/2/10 23/1/11
f 22/2/13 15/1/13 23/1/13
f 15/1/13 22/2/13 16/2/13
f 16/2/13 22/2/13 20/4/13
f 16/2/13 20/4/13 11/2/13
f 11/2/13 20/4/13 4/2/13
f 3/1/13 11/2/13 4/2/13
f 11/2/13 3/1/13 12/1/13
f 4/2/13 20/4/13 8/4/13
f 8/4/13 20/4/13 18/3/13
f 8/4/13 18/3/13 6/3/13

g bed-double-cover




usemtl colormap

f 3/1/1 2/2/2 1/1/1
f 2/2/2 3/1/1 4/2/2
f 7/4/4 6/3/3 5/3/3
f 6/3/3 7/4/4 8/4/4
f 4/2/2 7/4/4 2/2/2
f 7/4/4 4/2/2 8/4/4
f 11/2/5 10/1/5 9/2/5
f 10/1/5 11/2/5 12/1/5
f 3/1/1 10/1/6 12/1/6
f 10/1/6 3/1/1 1/1/1
f 15/1/7 14/2/7 13/1/7
f 14/2/7 15/1/7 16/2/7
f 5/3/3 18/3/8 17/3/8
f 18/3/8 5/3/3 6/3/3
f 11/2/6 14/2/6 16/2/6
f 14/2/6 11/2/6 9/2/6
f 17/3/8 20/4/9 19/4/9
f 20/4/9 17/3/8 18/3/8
f 20/4/9 21/2/10 19/4/9
f 21/2/10 20/4/9 22/2/10
f 15/1/6 24/1/11 23/1/11
f 24/1/11 15/1/6 13/1/6
f 2/2/12 10/1/12 1/1/12
f 10/1/12 2/2/12 9/2/12
f 9/2/12 2/2/12 7/4/12
f 9/2/12 7/4/12 14/2/12
f 14/2/12 7/4/12 21/2/12
f 24/1/12 14/2/12 21/2/12
f 14/2/12 24/1/12 13/1/12
f 21/2/12 7/4/12 19/4/12
f 19/4/12 7/4/12 5/3/12
f 19/4/12 5/3/12 17/3/12
f 22/2/10 24/1/11 21/2/10
f 24/1/11 22/2/10 23/1/11
f 22/2/13 15/1/13 23/1/13
f 15/1/13 22/2/13 16/2/13
f 16/2/13 22/2/13 20/4/13
f 16/2/13 20/4/13 11/2/13
f 11/2/13 20/4/13 4/2/13
f 3/1/13 11/2/13 4/2/13
f 11/2/13 3/1/13 12/1/13
f 4/2/13 20/4/13 8/4/13
f 8/4/13 20/4/13 18/3/13
f 8/4/13 18/3/13 6/3/13

