# Created by Kenney (www.kenney.nl)

mtllib bed-single-cover.mtl

g bed-single-cover

v -0.3 0 -0.25 1 1 1
v -0.3 0.1 -0.25 1 1 1
v -0.3 0 0.25 1 1 1
v -0.3 0.1 0.25 1 1 1
v -0.25 0.15 -0.25 1 1 1
v -0.25 0.15 0.25 1 1 1
v -0.2853553 0.1353553 -0.25 1 1 1
v -0.2853553 0.1353553 0.25 1 1 1
v -0.25 0 -0.25 1 1 1
v -0.25 0.1 -0.25 1 1 1
v 0.25 0.1 -0.25 1 1 1
v 0.3 0.1 -0.25 1 1 1
v 0.3 0 -0.25 1 1 1
v 0.25 0 -0.25 1 1 1
v 0.2853553 0.1353553 -0.25 1 1 1
v 0.25 0.15 -0.25 1 1 1
v 0.2853553 0.1353553 0.25 1 1 1
v 0.3 0.1 0.25 1 1 1
v 0.3 0 0.25 1 1 1
v 0.25 0.15 0.25 1 1 1
v 0.25 0 0.25 1 1 1
v 0.25 0.1 0.25 1 1 1
v -0.25 0.1 0.25 1 1 1
v -0.25 0 0.25 1 1 1

vn -0.7071068 -0.7071068 0
vn -0.9807853 0.1950903 0
vn -0.1950903 0.9807853 0
vn -0.7071068 0.7071068 0
vn 0 0 -1
vn 0.7071068 0.7071068 0
vn 0.9807853 0.1950903 0
vn 0.7071068 -0.7071068 0
vn 0.1950903 0.9807853 0
vn 0 0 1
vn 1 0 0
vn 0 -1 0
vn -1 0 0

vt 0.21875 0.275
vt 0.21875 0.4083333
vt 0.21875 0.475
vt 0.21875 0.4554738

usemtl colormap

f 3/1/1 2/2/2 1/1/1
f 2/2/2 3/1/1 4/2/2
f 7/4/4 6/3/3 5/3/3
f 6/3/3 7/4/4 8/4/4
f 4/2/2 7/4/4 2/2/2
f 7/4/4 4/2/2 8/4/4
f 2/2/5 9/1/5 1/1/5
f 9/1/5 2/2/5 10/2/5
f 10/2/5 2/2/5 7/4/5
f 10/2/5 7/4/5 11/2/5
f 11/2/5 7/4/5 12/2/5
f 13/1/5 11/2/5 12/2/5
f 11/2/5 13/1/5 14/1/5
f 12/2/5 7/4/5 15/4/5
f 15/4/5 7/4/5 5/3/5
f 15/4/5 5/3/5 16/3/5
f 17/4/6 12/2/7 15/4/6
f 12/2/7 17/4/6 18/2/7
f 18/2/7 13/1/8 12/2/7
f 13/1/8 18/2/7 19/1/8
f 16/3/9 17/4/6 15/4/6
f 17/4/6 16/3/9 20/3/9
f 18/2/10 21/1/10 19/1/10
f 21/1/10 18/2/10 22/2/10
f 22/2/10 18/2/10 17/4/10
f 22/2/10 17/4/10 23/2/10
f 23/2/10 17/4/10 4/2/10
f 3/1/10 23/2/10 4/2/10
f 23/2/10 3/1/10 24/1/10
f 4/2/10 17/4/10 8/4/10
f 8/4/10 17/4/10 20/3/10
f 8/4/10 20/3/10 6/3/10
f 23/2/11 9/1/11 10/2/11
f 9/1/11 23/2/11 24/1/11
f 3/1/1 9/1/12 24/1/12
f 9/1/12 3/1/1 1/1/1
f 21/1/13 11/2/13 14/1/13
f 11/2/13 21/1/13 22/2/13
f 21/1/12 13/1/8 19/1/8
f 13/1/8 21/1/12 14/1/12
f 23/2/12 11/2/12 22/2/12
f 11/2/12 23/2/12 10/2/12
f 5/3/3 20/3/9 16/3/9
f 20/3/9 5/3/3 6/3/3

g bed-single-cover




usemtl colormap

f 3/1/1 2/2/2 1/1/1
f 2/2/2 3/1/1 4/2/2
f 7/4/4 6/3/3 5/3/3
f 6/3/3 7/4/4 8/4/4
f 4/2/2 7/4/4 2/2/2
f 7/4/4 4/2/2 8/4/4
f 2/2/5 9/1/5 1/1/5
f 9/1/5 2/2/5 10/2/5
f 10/2/5 2/2/5 7/4/5
f 10/2/5 7/4/5 11/2/5
f 11/2/5 7/4/5 12/2/5
f 13/1/5 11/2/5 12/2/5
f 11/2/5 13/1/5 14/1/5
f 12/2/5 7/4/5 15/4/5
f 15/4/5 7/4/5 5/3/5
f 15/4/5 5/3/5 16/3/5
f 17/4/6 12/2/7 15/4/6
f 12/2/7 17/4/6 18/2/7
f 18/2/7 13/1/8 12/2/7
f 13/1/8 18/2/7 19/1/8
f 16/3/9 17/4/6 15/4/6
f 17/4/6 16/3/9 20/3/9
f 18/2/10 21/1/10 19/1/10
f 21/1/10 18/2/10 22/2/10
f 22/2/10 18/2/10 17/4/10
f 22/2/10 17/4/10 23/2/10
f 23/2/10 17/4/10 4/2/10
f 3/1/10 23/2/10 4/2/10
f 23/2/10 3/1/10 24/1/10
f 4/2/10 17/4/10 8/4/10
f 8/4/10 17/4/10 20/3/10
f 8/4/10 20/3/10 6/3/10
f 23/2/11 9/1/11 10/2/11
f 9/1/11 23/2/11 24/1/11
f 3/1/1 9/1/12 24/1/12
f 9/1/12 3/1/1 1/1/1
f 21/1/13 11/2/13 14/1/13
f 11/2/13 21/1/13 22/2/13
f 21/1/12 13/1/8 19/1/8
f 13/1/8 21/1/12 14/1/12
f 23/2/12 11/2/12 22/2/12
f 11/2/12 23/2/12 10/2/12
f 5/3/3 20/3/9 16/3/9
f 20/3/9 5/3/3 6/3/3

