# Created by Kenney (www.kenney.nl)

mtllib chair-armrest.mtl

g chair-armrest

v 0.1 0 0.175 1 1 1
v -0.1 0 0.175 1 1 1
v 0.1 0.05 0.175 1 1 1
v -0.1 0.05 0.175 1 1 1
v -0.1 0 -0.125 1 1 1
v -0.1 0.05 -0.125 1 1 1
v -0.15 0 -0.075 1 1 1
v -0.15 0.05 -0.075 1 1 1
v -0.15 0 0.125 1 1 1
v -0.15 0.05 0.125 1 1 1
v 0.15 0.05 0.125 1 1 1
v 0.15 0 0.125 1 1 1
v 0.15 0.05 -0.075 1 1 1
v 0.15 0 -0.075 1 1 1
v 0.1 0.05 -0.125 1 1 1
v 0.1 0 -0.125 1 1 1
v 0.0625 0.05 -0.0375 1 1 1
v 0.0625 0.05 0.0875 1 1 1
v -0.0625 0.05 -0.0375 1 1 1
v -0.0625 0.05 0.0875 1 1 1
v 0.15 0.55 -0.175 1 1 1
v 0.15 0.1 -0.125 1 1 1
v 0.15 0.55 -0.075 1 1 1
v 0.15 0.25 -0.025 1 1 1
v 0.15 0.15 0.175 1 1 1
v 0.15 0.25 0.175 1 1 1
v -0.15 0.55 -0.175 1 1 1
v -0.15 0.55 -0.075 1 1 1
v -0.15 0.1 -0.125 1 1 1
v -0.15 0.25 -0.025 1 1 1
v -0.15 0.15 0.175 1 1 1
v -0.15 0.25 0.175 1 1 1
v 0.25 0.25 -0.125 1 1 1
v 0.25 0.25 0.175 1 1 1
v 0.2 0.3 -0.075 1 1 1
v 0.2 0.3 0.175 1 1 1
v 0.15 0.2 -0.125 1 1 1
v 0.15 0.25 -0.125 1 1 1
v 0.15 0.2 0.175 1 1 1
v 0.15 0.3 -0.075 1 1 1
v 0.15 0.3 0.175 1 1 1
v 0.25 0.2 0.175 1 1 1
v 0.25 0.2 -0.125 1 1 1
v -0.2 0.3 -0.075 1 1 1
v -0.2 0.3 0.175 1 1 1
v -0.25 0.25 -0.125 1 1 1
v -0.25 0.25 0.175 1 1 1
v -0.15 0.25 -0.125 1 1 1
v -0.15 0.3 -0.075 1 1 1
v -0.15 0.2 -0.125 1 1 1
v -0.15 0.2 0.175 1 1 1
v -0.15 0.3 0.175 1 1 1
v -0.25 0.2 0.175 1 1 1
v -0.25 0.2 -0.125 1 1 1
v 0.05 0.15 -0.025 1 1 1
v 0.05 0.15 0.075 1 1 1
v -0.05 0.15 -0.025 1 1 1
v -0.05 0.15 0.075 1 1 1

vn 0.3826834 0 0.9238795
vn -0.3826834 0 0.9238795
vn -0.3826834 0 -0.9238795
vn -0.9238795 0 -0.3826834
vn -0.9238795 0 0.3826834
vn 0.9238795 0 0.3826834
vn 0.9238795 0 -0.3826834
vn 0.3826834 0 -0.9238795
vn 0 -1 0
vn 0 1 0
vn 1 0 0
vn -1 0 0
vn 0 -0.986394 0.164399
vn 0 -0.1104315 -0.9938837
vn 0.6507059 0.3913613 -0.6507059
vn 0.9238795 0.3826834 0
vn 0.3001938 0.9054101 -0.3001938
vn 0.3826834 0.9238795 0
vn 0 0.3826834 -0.9238795
vn 0 0.9238795 -0.3826834
vn 0 0 1
vn 0 0 -1
vn -0.3001938 0.9054101 -0.3001938
vn -0.3826834 0.9238795 0
vn -0.6507059 0.3913613 -0.6507059
vn -0.9238795 0.3826834 0
vn 0.6963106 0.1740777 -0.6963106
vn 0.6963106 0.1740777 0.6963106
vn -0.6963106 0.1740777 -0.6963106
vn -0.6963106 0.1740777 0.6963106
vn 0 0.7071068 0.7071068
vn 0 0.76302 0.6463749

vt 0.34375 0.025
vt 0.34375 0.09166666
vt 0.34375 0.225
vt 0.34375 0.09166668
vt 0.34375 0.04722222
vt 0.34375 0.125
vt 0.21875 0.09166666
vt 0.21875 0.225
vt 0.21875 0.2972222
vt 0.21875 0.3416667
vt 0.21875 0.475

usemtl colormap

f 3/2/1 2/1/2 1/1/1
f 2/1/2 3/2/1 4/2/2
f 7/1/4 6/2/3 5/1/3
f 6/2/3 7/1/4 8/2/4
f 9/1/5 8/2/4 7/1/4
f 8/2/4 9/1/5 10/2/5
f 2/1/2 10/2/5 9/1/5
f 10/2/5 2/1/2 4/2/2
f 3/2/1 12/1/6 11/2/6
f 12/1/6 3/2/1 1/1/1
f 11/2/6 14/1/7 13/2/7
f 14/1/7 11/2/6 12/1/6
f 13/2/7 16/1/8 15/2/8
f 16/1/8 13/2/7 14/1/7
f 1/1/9 14/1/9 12/1/9
f 14/1/9 1/1/9 16/1/9
f 16/1/9 1/1/9 2/1/9
f 16/1/9 2/1/9 5/1/9
f 5/1/9 2/1/9 9/1/9
f 5/1/9 9/1/9 7/1/9
f 6/2/3 16/1/8 5/1/3
f 16/1/8 6/2/3 15/2/8
f 15/2/10 11/2/10 13/2/10
f 11/2/10 15/2/10 3/2/10
f 3/2/10 15/2/10 17/2/10
f 17/2/10 15/2/10 6/2/10
f 18/2/10 3/2/10 17/2/10
f 17/2/10 6/2/10 19/2/10
f 3/2/10 18/2/10 4/2/10
f 19/2/10 6/2/10 20/2/10
f 4/2/10 18/2/10 20/2/10
f 4/2/10 20/2/10 6/2/10
f 4/2/10 6/2/10 8/2/10
f 4/2/10 8/2/10 10/2/10
f 23/3/11 22/1/11 21/3/11
f 22/1/11 23/3/11 24/4/11
f 22/1/11 24/4/11 25/5/11
f 25/5/11 24/4/11 26/4/11
f 29/1/12 28/3/12 27/3/12
f 28/3/12 29/1/12 30/4/12
f 30/4/12 29/1/12 31/5/12
f 30/4/12 31/5/12 32/4/12
f 31/5/13 22/1/13 25/5/13
f 22/1/13 31/5/13 29/1/13
f 27/3/14 22/1/14 29/1/14
f 22/1/14 27/3/14 21/3/14
f 35/3/17 34/6/16 33/6/15
f 34/6/16 35/3/17 36/3/18
f 39/1/12 38/6/12 37/1/12
f 38/6/12 39/1/12 40/3/12
f 40/3/12 39/1/12 41/3/12
f 38/6/19 35/3/17 33/6/15
f 35/3/17 38/6/19 40/3/20
f 40/3/20 36/3/18 35/3/17
f 36/3/18 40/3/20 41/3/10
f 34/6/21 39/1/21 42/1/21
f 39/1/21 34/6/21 41/3/21
f 41/3/21 34/6/21 36/3/21
f 34/6/16 43/1/11 33/6/15
f 43/1/11 34/6/16 42/1/11
f 38/6/19 43/1/22 37/1/22
f 43/1/22 38/6/19 33/6/15
f 39/1/9 43/1/9 42/1/9
f 43/1/9 39/1/9 37/1/9
f 46/6/25 45/3/24 44/3/23
f 45/3/24 46/6/25 47/6/26
f 46/6/25 49/3/20 48/6/19
f 49/3/20 46/6/25 44/3/23
f 49/3/11 50/1/11 48/6/11
f 50/1/11 49/3/11 51/1/11
f 51/1/11 49/3/11 52/3/11
f 53/1/9 50/1/9 51/1/9
f 50/1/9 53/1/9 54/1/9
f 44/3/23 52/3/10 49/3/20
f 52/3/10 44/3/23 45/3/24
f 46/6/25 50/1/22 54/1/22
f 50/1/22 46/6/25 48/6/19
f 53/1/12 46/6/25 54/1/12
f 46/6/25 53/1/12 47/6/26
f 52/3/21 53/1/21 51/1/21
f 53/1/21 52/3/21 47/6/21
f 47/6/21 52/3/21 45/3/21
f 55/8/27 18/7/28 17/7/27
f 18/7/28 55/8/27 56/8/28
f 20/7/30 57/8/29 19/7/29
f 57/8/29 20/7/30 58/8/30
f 57/8/29 17/7/27 19/7/29
f 17/7/27 57/8/29 55/8/27
f 56/8/28 20/7/30 18/7/28
f 20/7/30 56/8/28 58/8/30
f 26/10/31 31/9/21 25/9/21
f 31/9/21 26/10/31 32/10/31
f 27/11/10 23/11/32 21/11/10
f 23/11/32 27/11/10 28/11/32
f 23/11/32 30/10/32 24/10/32
f 30/10/32 23/11/32 28/11/32
f 30/10/32 26/10/31 24/10/32
f 26/10/31 30/10/32 32/10/31

g chair-armrest




usemtl colormap

f 3/2/1 2/1/2 1/1/1
f 2/1/2 3/2/1 4/2/2
f 7/1/4 6/2/3 5/1/3
f 6/2/3 7/1/4 8/2/4
f 9/1/5 8/2/4 7/1/4
f 8/2/4 9/1/5 10/2/5
f 2/1/2 10/2/5 9/1/5
f 10/2/5 2/1/2 4/2/2
f 3/2/1 12/1/6 11/2/6
f 12/1/6 3/2/1 1/1/1
f 11/2/6 14/1/7 13/2/7
f 14/1/7 11/2/6 12/1/6
f 13/2/7 16/1/8 15/2/8
f 16/1/8 13/2/7 14/1/7
f 1/1/9 14/1/9 12/1/9
f 14/1/9 1/1/9 16/1/9
f 16/1/9 1/1/9 2/1/9
f 16/1/9 2/1/9 5/1/9
f 5/1/9 2/1/9 9/1/9
f 5/1/9 9/1/9 7/1/9
f 6/2/3 16/1/8 5/1/3
f 16/1/8 6/2/3 15/2/8
f 15/2/10 11/2/10 13/2/10
f 11/2/10 15/2/10 3/2/10
f 3/2/10 15/2/10 17/2/10
f 17/2/10 15/2/10 6/2/10
f 18/2/10 3/2/10 17/2/10
f 17/2/10 6/2/10 19/2/10
f 3/2/10 18/2/10 4/2/10
f 19/2/10 6/2/10 20/2/10
f 4/2/10 18/2/10 20/2/10
f 4/2/10 20/2/10 6/2/10
f 4/2/10 6/2/10 8/2/10
f 4/2/10 8/2/10 10/2/10
f 23/3/11 22/1/11 21/3/11
f 22/1/11 23/3/11 24/4/11
f 22/1/11 24/4/11 25/5/11
f 25/5/11 24/4/11 26/4/11
f 29/1/12 28/3/12 27/3/12
f 28/3/12 29/1/12 30/4/12
f 30/4/12 29/1/12 31/5/12
f 30/4/12 31/5/12 32/4/12
f 31/5/13 22/1/13 25/5/13
f 22/1/13 31/5/13 29/1/13
f 27/3/14 22/1/14 29/1/14
f 22/1/14 27/3/14 21/3/14
f 35/3/17 34/6/16 33/6/15
f 34/6/16 35/3/17 36/3/18
f 39/1/12 38/6/12 37/1/12
f 38/6/12 39/1/12 40/3/12
f 40/3/12 39/1/12 41/3/12
f 38/6/19 35/3/17 33/6/15
f 35/3/17 38/6/19 40/3/20
f 40/3/20 36/3/18 35/3/17
f 36/3/18 40/3/20 41/3/10
f 34/6/21 39/1/21 42/1/21
f 39/1/21 34/6/21 41/3/21
f 41/3/21 34/6/21 36/3/21
f 34/6/16 43/1/11 33/6/15
f 43/1/11 34/6/16 42/1/11
f 38/6/19 43/1/22 37/1/22
f 43/1/22 38/6/19 33/6/15
f 39/1/9 43/1/9 42/1/9
f 43/1/9 39/1/9 37/1/9
f 46/6/25 45/3/24 44/3/23
f 45/3/24 46/6/25 47/6/26
f 46/6/25 49/3/20 48/6/19
f 49/3/20 46/6/25 44/3/23
f 49/3/11 50/1/11 48/6/11
f 50/1/11 49/3/11 51/1/11
f 51/1/11 49/3/11 52/3/11
f 53/1/9 50/1/9 51/1/9
f 50/1/9 53/1/9 54/1/9
f 44/3/23 52/3/10 49/3/20
f 52/3/10 44/3/23 45/3/24
f 46/6/25 50/1/22 54/1/22
f 50/1/22 46/6/25 48/6/19
f 53/1/12 46/6/25 54/1/12
f 46/6/25 53/1/12 47/6/26
f 52/3/21 53/1/21 51/1/21
f 53/1/21 52/3/21 47/6/21
f 47/6/21 52/3/21 45/3/21
f 55/8/27 18/7/28 17/7/27
f 18/7/28 55/8/27 56/8/28
f 20/7/30 57/8/29 19/7/29
f 57/8/29 20/7/30 58/8/30
f 57/8/29 17/7/27 19/7/29
f 17/7/27 57/8/29 55/8/27
f 56/8/28 20/7/30 18/7/28
f 20/7/30 56/8/28 58/8/30
f 26/10/31 31/9/21 25/9/21
f 31/9/21 26/10/31 32/10/31
f 27/11/10 23/11/32 21/11/10
f 23/11/32 27/11/10 28/11/32
f 23/11/32 30/10/32 24/10/32
f 30/10/32 23/11/32 28/11/32
f 30/10/32 26/10/31 24/10/32
f 26/10/31 30/10/32 32/10/31

