# Created by Kenney (www.kenney.nl)

mtllib chair-cushion.mtl

g chair-cushion

v 0.1 0 0.175 1 1 1
v -0.1 0 0.175 1 1 1
v 0.1 0.05 0.175 1 1 1
v -0.1 0.05 0.175 1 1 1
v -0.1 0 -0.125 1 1 1
v -0.1 0.05 -0.125 1 1 1
v -0.15 0 -0.075 1 1 1
v -0.15 0.05 -0.075 1 1 1
v -0.15 0 0.125 1 1 1
v -0.15 0.05 0.125 1 1 1
v 0.15 0.05 0.125 1 1 1
v 0.15 0 0.125 1 1 1
v 0.15 0.05 -0.075 1 1 1
v 0.15 0 -0.075 1 1 1
v 0.1 0.05 -0.125 1 1 1
v 0.1 0 -0.125 1 1 1
v 0.0625 0.05 -0.0375 1 1 1
v 0.0625 0.05 0.0875 1 1 1
v -0.0625 0.05 -0.0375 1 1 1
v -0.0625 0.05 0.0875 1 1 1
v 0.15 0.55 -0.175 1 1 1
v 0.15 0.1 -0.125 1 1 1
v 0.15 0.55 -0.075 1 1 1
v 0.15 0.25 -0.025 1 1 1
v 0.15 0.15 0.175 1 1 1
v 0.15 0.25 0.175 1 1 1
v -0.15 0.15 0.175 1 1 1
v -0.15 0.25 0.175 1 1 1
v -0.15 0.55 -0.175 1 1 1
v -0.15 0.55 -0.075 1 1 1
v -0.15 0.1 -0.125 1 1 1
v -0.15 0.25 -0.025 1 1 1
v 0.1 0.25 -0.025 1 1 1
v 0.1 0.5006803 -0.06678005 1 1 1
v -0.1 0.5006803 -0.06678005 1 1 1
v -0.1 0.25 -0.025 1 1 1
v -0.1 0.25 0.125 1 1 1
v 0.1 0.25 0.125 1 1 1
v 0.05 0.15 -0.025 1 1 1
v 0.05 0.15 0.075 1 1 1
v -0.05 0.15 -0.025 1 1 1
v -0.05 0.15 0.075 1 1 1
v 0.1 0.25 -0.025 1 1 1
v -0.1 0.25 -0.025 1 1 1
v 0.1 0.5006803 -0.06678005 1 1 1
v -0.1 0.5006803 -0.06678005 1 1 1

vn 0.3826834 0 0.9238795
vn -0.3826834 0 0.9238795
vn -0.3826834 0 -0.9238795
vn -0.9238795 0 -0.3826834
vn -0.9238795 0 0.3826834
vn 0.9238795 0 0.3826834
vn 0.9238795 0 -0.3826834
vn 0.3826834 0 -0.9238795
vn 0 -1 0
vn 0 1 0
vn 1 0 0
vn 0 0 1
vn 0 0.7071068 0.7071068
vn -1 0 0
vn 0 0.76302 0.6463749
vn 0 -0.986394 0.164399
vn 0 -0.1104315 -0.9938837
vn 0 0.164399 0.986394
vn 0.6963106 0.1740777 -0.6963106
vn 0.6963106 0.1740777 0.6963106
vn -0.6963106 0.1740777 -0.6963106
vn -0.6963106 0.1740777 0.6963106

vt 0.34375 0.025
vt 0.34375 0.09166666
vt 0.34375 0.225
vt 0.34375 0.09166668
vt 0.34375 0.04722222
vt 0.34375 0.2030801
vt 0.21875 0.09166666
vt 0.21875 0.225
vt 0.21875 0.275
vt 0.21875 0.475

usemtl colormap

f 3/2/1 2/1/2 1/1/1
f 2/1/2 3/2/1 4/2/2
f 7/1/4 6/2/3 5/1/3
f 6/2/3 7/1/4 8/2/4
f 9/1/5 8/2/4 7/1/4
f 8/2/4 9/1/5 10/2/5
f 2/1/2 10/2/5 9/1/5
f 10/2/5 2/1/2 4/2/2
f 3/2/1 12/1/6 11/2/6
f 12/1/6 3/2/1 1/1/1
f 11/2/6 14/1/7 13/2/7
f 14/1/7 11/2/6 12/1/6
f 13/2/7 16/1/8 15/2/8
f 16/1/8 13/2/7 14/1/7
f 1/1/9 14/1/9 12/1/9
f 14/1/9 1/1/9 16/1/9
f 16/1/9 1/1/9 2/1/9
f 16/1/9 2/1/9 5/1/9
f 5/1/9 2/1/9 9/1/9
f 5/1/9 9/1/9 7/1/9
f 6/2/3 16/1/8 5/1/3
f 16/1/8 6/2/3 15/2/8
f 15/2/10 11/2/10 13/2/10
f 11/2/10 15/2/10 3/2/10
f 3/2/10 15/2/10 17/2/10
f 17/2/10 15/2/10 6/2/10
f 18/2/10 3/2/10 17/2/10
f 17/2/10 6/2/10 19/2/10
f 3/2/10 18/2/10 4/2/10
f 19/2/10 6/2/10 20/2/10
f 4/2/10 18/2/10 20/2/10
f 4/2/10 20/2/10 6/2/10
f 4/2/10 6/2/10 8/2/10
f 4/2/10 8/2/10 10/2/10
f 23/3/11 22/1/11 21/3/11
f 22/1/11 23/3/11 24/4/11
f 22/1/11 24/4/11 25/5/11
f 25/5/11 24/4/11 26/4/11
f 26/4/13 27/5/12 25/5/12
f 27/5/12 26/4/13 28/4/13
f 31/1/14 30/3/14 29/3/14
f 30/3/14 31/1/14 32/4/14
f 32/4/14 31/1/14 27/5/14
f 32/4/14 27/5/14 28/4/14
f 29/3/10 23/3/15 21/3/10
f 23/3/15 29/3/10 30/3/15
f 27/5/16 22/1/16 25/5/16
f 22/1/16 27/5/16 31/1/16
f 29/3/17 22/1/17 31/1/17
f 22/1/17 29/3/17 21/3/17
f 24/4/15 34/6/18 33/4/15
f 34/6/18 24/4/15 23/3/15
f 34/6/18 23/3/15 35/6/18
f 30/3/15 35/6/18 23/3/15
f 32/4/15 35/6/18 30/3/15
f 35/6/18 32/4/15 36/4/15
f 32/4/15 37/4/10 36/4/15
f 28/4/13 37/4/10 32/4/15
f 28/4/13 38/4/10 37/4/10
f 26/4/13 38/4/10 28/4/13
f 26/4/13 33/4/15 38/4/10
f 33/4/15 26/4/13 24/4/15
f 39/8/19 18/7/20 17/7/19
f 18/7/20 39/8/19 40/8/20
f 20/7/22 41/8/21 19/7/21
f 41/8/21 20/7/22 42/8/22
f 41/8/21 17/7/19 19/7/21
f 17/7/19 41/8/21 39/8/19
f 40/8/20 20/7/22 18/7/20
f 20/7/22 40/8/20 42/8/22
f 44/9/15 38/9/10 43/9/15
f 38/9/10 44/9/15 37/9/10
f 45/10/18 44/9/15 43/9/15
f 44/9/15 45/10/18 46/10/18

g chair-cushion




usemtl colormap

f 3/2/1 2/1/2 1/1/1
f 2/1/2 3/2/1 4/2/2
f 7/1/4 6/2/3 5/1/3
f 6/2/3 7/1/4 8/2/4
f 9/1/5 8/2/4 7/1/4
f 8/2/4 9/1/5 10/2/5
f 2/1/2 10/2/5 9/1/5
f 10/2/5 2/1/2 4/2/2
f 3/2/1 12/1/6 11/2/6
f 12/1/6 3/2/1 1/1/1
f 11/2/6 14/1/7 13/2/7
f 14/1/7 11/2/6 12/1/6
f 13/2/7 16/1/8 15/2/8
f 16/1/8 13/2/7 14/1/7
f 1/1/9 14/1/9 12/1/9
f 14/1/9 1/1/9 16/1/9
f 16/1/9 1/1/9 2/1/9
f 16/1/9 2/1/9 5/1/9
f 5/1/9 2/1/9 9/1/9
f 5/1/9 9/1/9 7/1/9
f 6/2/3 16/1/8 5/1/3
f 16/1/8 6/2/3 15/2/8
f 15/2/10 11/2/10 13/2/10
f 11/2/10 15/2/10 3/2/10
f 3/2/10 15/2/10 17/2/10
f 17/2/10 15/2/10 6/2/10
f 18/2/10 3/2/10 17/2/10
f 17/2/10 6/2/10 19/2/10
f 3/2/10 18/2/10 4/2/10
f 19/2/10 6/2/10 20/2/10
f 4/2/10 18/2/10 20/2/10
f 4/2/10 20/2/10 6/2/10
f 4/2/10 6/2/10 8/2/10
f 4/2/10 8/2/10 10/2/10
f 23/3/11 22/1/11 21/3/11
f 22/1/11 23/3/11 24/4/11
f 22/1/11 24/4/11 25/5/11
f 25/5/11 24/4/11 26/4/11
f 26/4/13 27/5/12 25/5/12
f 27/5/12 26/4/13 28/4/13
f 31/1/14 30/3/14 29/3/14
f 30/3/14 31/1/14 32/4/14
f 32/4/14 31/1/14 27/5/14
f 32/4/14 27/5/14 28/4/14
f 29/3/10 23/3/15 21/3/10
f 23/3/15 29/3/10 30/3/15
f 27/5/16 22/1/16 25/5/16
f 22/1/16 27/5/16 31/1/16
f 29/3/17 22/1/17 31/1/17
f 22/1/17 29/3/17 21/3/17
f 24/4/15 34/6/18 33/4/15
f 34/6/18 24/4/15 23/3/15
f 34/6/18 23/3/15 35/6/18
f 30/3/15 35/6/18 23/3/15
f 32/4/15 35/6/18 30/3/15
f 35/6/18 32/4/15 36/4/15
f 32/4/15 37/4/10 36/4/15
f 28/4/13 37/4/10 32/4/15
f 28/4/13 38/4/10 37/4/10
f 26/4/13 38/4/10 28/4/13
f 26/4/13 33/4/15 38/4/10
f 33/4/15 26/4/13 24/4/15
f 39/8/19 18/7/20 17/7/19
f 18/7/20 39/8/19 40/8/20
f 20/7/22 41/8/21 19/7/21
f 41/8/21 20/7/22 42/8/22
f 41/8/21 17/7/19 19/7/21
f 17/7/19 41/8/21 39/8/19
f 40/8/20 20/7/22 18/7/20
f 20/7/22 40/8/20 42/8/22
f 44/9/15 38/9/10 43/9/15
f 38/9/10 44/9/15 37/9/10
f 45/10/18 44/9/15 43/9/15
f 44/9/15 45/10/18 46/10/18

