# Created by Kenney (www.kenney.nl)

mtllib chair.mtl

g chair

v 0.1 0 0.175 1 1 1
v -0.1 0 0.175 1 1 1
v 0.1 0.05 0.175 1 1 1
v -0.1 0.05 0.175 1 1 1
v -0.1 0 -0.125 1 1 1
v -0.1 0.05 -0.125 1 1 1
v -0.15 0 -0.075 1 1 1
v -0.15 0.05 -0.075 1 1 1
v -0.15 0 0.125 1 1 1
v -0.15 0.05 0.125 1 1 1
v 0.15 0.05 0.125 1 1 1
v 0.15 0 0.125 1 1 1
v 0.15 0.05 -0.075 1 1 1
v 0.15 0 -0.075 1 1 1
v 0.1 0.05 -0.125 1 1 1
v 0.1 0 -0.125 1 1 1
v 0.0625 0.05 -0.0375 1 1 1
v 0.0625 0.05 0.0875 1 1 1
v -0.0625 0.05 -0.0375 1 1 1
v -0.0625 0.05 0.0875 1 1 1
v 0.15 0.55 -0.175 1 1 1
v 0.15 0.1 -0.125 1 1 1
v 0.15 0.55 -0.075 1 1 1
v 0.15 0.25 -0.025 1 1 1
v 0.15 0.15 0.175 1 1 1
v 0.15 0.25 0.175 1 1 1
v -0.15 0.55 -0.175 1 1 1
v -0.15 0.55 -0.075 1 1 1
v -0.15 0.1 -0.125 1 1 1
v -0.15 0.25 -0.025 1 1 1
v -0.15 0.15 0.175 1 1 1
v -0.15 0.25 0.175 1 1 1
v 0.05 0.15 -0.025 1 1 1
v 0.05 0.15 0.075 1 1 1
v -0.05 0.15 -0.025 1 1 1
v -0.05 0.15 0.075 1 1 1

vn 0.3826834 0 0.9238795
vn -0.3826834 0 0.9238795
vn -0.3826834 0 -0.9238795
vn -0.9238795 0 -0.3826834
vn -0.9238795 0 0.3826834
vn 0.9238795 0 0.3826834
vn 0.9238795 0 -0.3826834
vn 0.3826834 0 -0.9238795
vn 0 -1 0
vn 0 1 0
vn 1 0 0
vn -1 0 0
vn 0 -0.986394 0.164399
vn 0 -0.1104315 -0.9938837
vn 0.6963106 0.1740777 -0.6963106
vn 0.6963106 0.1740777 0.6963106
vn -0.6963106 0.1740777 -0.6963106
vn -0.6963106 0.1740777 0.6963106
vn 0 0 1
vn 0 0.7071068 0.7071068
vn 0 0.76302 0.6463749

vt 0.34375 0.025
vt 0.34375 0.09166666
vt 0.34375 0.225
vt 0.34375 0.09166668
vt 0.34375 0.04722222
vt 0.21875 0.09166666
vt 0.21875 0.225
vt 0.21875 0.2972222
vt 0.21875 0.3416667
vt 0.21875 0.475

usemtl colormap

f 3/2/1 2/1/2 1/1/1
f 2/1/2 3/2/1 4/2/2
f 7/1/4 6/2/3 5/1/3
f 6/2/3 7/1/4 8/2/4
f 9/1/5 8/2/4 7/1/4
f 8/2/4 9/1/5 10/2/5
f 2/1/2 10/2/5 9/1/5
f 10/2/5 2/1/2 4/2/2
f 3/2/1 12/1/6 11/2/6
f 12/1/6 3/2/1 1/1/1
f 11/2/6 14/1/7 13/2/7
f 14/1/7 11/2/6 12/1/6
f 13/2/7 16/1/8 15/2/8
f 16/1/8 13/2/7 14/1/7
f 1/1/9 14/1/9 12/1/9
f 14/1/9 1/1/9 16/1/9
f 16/1/9 1/1/9 2/1/9
f 16/1/9 2/1/9 5/1/9
f 5/1/9 2/1/9 9/1/9
f 5/1/9 9/1/9 7/1/9
f 6/2/3 16/1/8 5/1/3
f 16/1/8 6/2/3 15/2/8
f 15/2/10 11/2/10 13/2/10
f 11/2/10 15/2/10 3/2/10
f 3/2/10 15/2/10 17/2/10
f 17/2/10 15/2/10 6/2/10
f 18/2/10 3/2/10 17/2/10
f 17/2/10 6/2/10 19/2/10
f 3/2/10 18/2/10 4/2/10
f 19/2/10 6/2/10 20/2/10
f 4/2/10 18/2/10 20/2/10
f 4/2/10 20/2/10 6/2/10
f 4/2/10 6/2/10 8/2/10
f 4/2/10 8/2/10 10/2/10
f 23/3/11 22/1/11 21/3/11
f 22/1/11 23/3/11 24/4/11
f 22/1/11 24/4/11 25/5/11
f 25/5/11 24/4/11 26/4/11
f 29/1/12 28/3/12 27/3/12
f 28/3/12 29/1/12 30/4/12
f 30/4/12 29/1/12 31/5/12
f 30/4/12 31/5/12 32/4/12
f 31/5/13 22/1/13 25/5/13
f 22/1/13 31/5/13 29/1/13
f 27/3/14 22/1/14 29/1/14
f 22/1/14 27/3/14 21/3/14
f 33/7/15 18/6/16 17/6/15
f 18/6/16 33/7/15 34/7/16
f 20/6/18 35/7/17 19/6/17
f 35/7/17 20/6/18 36/7/18
f 35/7/17 17/6/15 19/6/17
f 17/6/15 35/7/17 33/7/15
f 34/7/16 20/6/18 18/6/16
f 20/6/18 34/7/16 36/7/18
f 26/9/20 31/8/19 25/8/19
f 31/8/19 26/9/20 32/9/20
f 27/10/10 23/10/21 21/10/10
f 23/10/21 27/10/10 28/10/21
f 23/10/21 30/9/21 24/9/21
f 30/9/21 23/10/21 28/10/21
f 30/9/21 26/9/20 24/9/21
f 26/9/20 30/9/21 32/9/20

g chair




usemtl colormap

f 3/2/1 2/1/2 1/1/1
f 2/1/2 3/2/1 4/2/2
f 7/1/4 6/2/3 5/1/3
f 6/2/3 7/1/4 8/2/4
f 9/1/5 8/2/4 7/1/4
f 8/2/4 9/1/5 10/2/5
f 2/1/2 10/2/5 9/1/5
f 10/2/5 2/1/2 4/2/2
f 3/2/1 12/1/6 11/2/6
f 12/1/6 3/2/1 1/1/1
f 11/2/6 14/1/7 13/2/7
f 14/1/7 11/2/6 12/1/6
f 13/2/7 16/1/8 15/2/8
f 16/1/8 13/2/7 14/1/7
f 1/1/9 14/1/9 12/1/9
f 14/1/9 1/1/9 16/1/9
f 16/1/9 1/1/9 2/1/9
f 16/1/9 2/1/9 5/1/9
f 5/1/9 2/1/9 9/1/9
f 5/1/9 9/1/9 7/1/9
f 6/2/3 16/1/8 5/1/3
f 16/1/8 6/2/3 15/2/8
f 15/2/10 11/2/10 13/2/10
f 11/2/10 15/2/10 3/2/10
f 3/2/10 15/2/10 17/2/10
f 17/2/10 15/2/10 6/2/10
f 18/2/10 3/2/10 17/2/10
f 17/2/10 6/2/10 19/2/10
f 3/2/10 18/2/10 4/2/10
f 19/2/10 6/2/10 20/2/10
f 4/2/10 18/2/10 20/2/10
f 4/2/10 20/2/10 6/2/10
f 4/2/10 6/2/10 8/2/10
f 4/2/10 8/2/10 10/2/10
f 23/3/11 22/1/11 21/3/11
f 22/1/11 23/3/11 24/4/11
f 22/1/11 24/4/11 25/5/11
f 25/5/11 24/4/11 26/4/11
f 29/1/12 28/3/12 27/3/12
f 28/3/12 29/1/12 30/4/12
f 30/4/12 29/1/12 31/5/12
f 30/4/12 31/5/12 32/4/12
f 31/5/13 22/1/13 25/5/13
f 22/1/13 31/5/13 29/1/13
f 27/3/14 22/1/14 29/1/14
f 22/1/14 27/3/14 21/3/14
f 33/7/15 18/6/16 17/6/15
f 18/6/16 33/7/15 34/7/16
f 20/6/18 35/7/17 19/6/17
f 35/7/17 20/6/18 36/7/18
f 35/7/17 17/6/15 19/6/17
f 17/6/15 35/7/17 33/7/15
f 34/7/16 20/6/18 18/6/16
f 20/6/18 34/7/16 36/7/18
f 26/9/20 31/8/19 25/8/19
f 31/8/19 26/9/20 32/9/20
f 27/10/10 23/10/21 21/10/10
f 23/10/21 27/10/10 28/10/21
f 23/10/21 30/9/21 24/9/21
f 30/9/21 23/10/21 28/10/21
f 30/9/21 26/9/20 24/9/21
f 26/9/20 30/9/21 32/9/20

