# Created by Kenney (www.kenney.nl)

mtllib chair-headrest.mtl

g chair-headrest

v 0.1 0 0.175 1 1 1
v -0.1 0 0.175 1 1 1
v 0.1 0.05 0.175 1 1 1
v -0.1 0.05 0.175 1 1 1
v -0.1 0 -0.125 1 1 1
v -0.1 0.05 -0.125 1 1 1
v -0.15 0 -0.075 1 1 1
v -0.15 0.05 -0.075 1 1 1
v -0.15 0 0.125 1 1 1
v -0.15 0.05 0.125 1 1 1
v 0.15 0.05 0.125 1 1 1
v 0.15 0 0.125 1 1 1
v 0.15 0.05 -0.075 1 1 1
v 0.15 0 -0.075 1 1 1
v 0.1 0.05 -0.125 1 1 1
v 0.1 0 -0.125 1 1 1
v 0.0625 0.05 -0.0375 1 1 1
v 0.0625 0.05 0.0875 1 1 1
v -0.0625 0.05 -0.0375 1 1 1
v -0.0625 0.05 0.0875 1 1 1
v 0.15 0.55 -0.175 1 1 1
v 0.15 0.1 -0.125 1 1 1
v 0.15 0.55 -0.075 1 1 1
v 0.15 0.25 -0.025 1 1 1
v 0.15 0.15 0.175 1 1 1
v 0.15 0.25 0.175 1 1 1
v -0.15 0.55 -0.175 1 1 1
v -0.15 0.55 -0.075 1 1 1
v -0.15 0.1 -0.125 1 1 1
v -0.15 0.25 -0.025 1 1 1
v -0.15 0.15 0.175 1 1 1
v -0.15 0.25 0.175 1 1 1
v -0.06 0.565 -0.175 1 1 1
v 0.06 0.565 -0.175 1 1 1
v -0.08 0.585 -0.175 1 1 1
v 0.08 0.585 -0.175 1 1 1
v -0.08 0.665 -0.175 1 1 1
v 0.08 0.665 -0.175 1 1 1
v -0.06 0.685 -0.175 1 1 1
v 0.06 0.685 -0.175 1 1 1
v 0.075 0.7 -0.125 1 1 1
v -0.075 0.7 -0.125 1 1 1
v 0.1 0.675 -0.125 1 1 1
v 0.1 0.575 -0.125 1 1 1
v 0.075 0.55 -0.125 1 1 1
v -0.1 0.575 -0.125 1 1 1
v -0.1 0.675 -0.125 1 1 1
v -0.075 0.55 -0.125 1 1 1
v 0.05 0.15 -0.025 1 1 1
v 0.05 0.15 0.075 1 1 1
v -0.05 0.15 -0.025 1 1 1
v -0.05 0.15 0.075 1 1 1
v 0.075 0.55 -0.075 1 1 1
v -0.075 0.55 -0.075 1 1 1
v 0.1 0.575 -0.075 1 1 1
v -0.1 0.575 -0.075 1 1 1
v 0.1 0.675 -0.075 1 1 1
v -0.1 0.675 -0.075 1 1 1
v 0.075 0.7 -0.075 1 1 1
v -0.075 0.7 -0.075 1 1 1

vn 0.3826834 0 0.9238795
vn -0.3826834 0 0.9238795
vn -0.3826834 0 -0.9238795
vn -0.9238795 0 -0.3826834
vn -0.9238795 0 0.3826834
vn 0.9238795 0 0.3826834
vn 0.9238795 0 -0.3826834
vn 0.3826834 0 -0.9238795
vn 0 -1 0
vn 0 1 0
vn 1 0 0
vn -1 0 0
vn 0 -0.986394 0.164399
vn 0 -0.1104315 -0.9938837
vn 0 0 -1
vn 0.3832537 0.8467339 -0.3689963
vn -0.3832537 0.8467339 -0.3689963
vn 0.3206372 0.8764783 -0.3591346
vn -0.3206372 0.8764783 -0.3591346
vn 0.8466818 0.3425401 -0.4071807
vn 0.8466818 -0.3425401 -0.4071807
vn 0.8415092 0.3546523 -0.4075342
vn 0.8415092 -0.3546523 -0.4075342
vn 0.3206372 -0.8764783 -0.3591346
vn 0.3832537 -0.8467339 -0.3689963
vn -0.8466818 -0.3425401 -0.4071807
vn -0.8466818 0.3425401 -0.4071807
vn -0.8415092 -0.3546523 -0.4075342
vn -0.8415092 0.3546523 -0.4075342
vn -0.3206372 -0.8764783 -0.3591346
vn -0.3832537 -0.8467339 -0.3689963
vn 0.6963106 0.1740777 -0.6963106
vn 0.6963106 0.1740777 0.6963106
vn -0.6963106 0.1740777 -0.6963106
vn -0.6963106 0.1740777 0.6963106
vn 0 0 1
vn 0 0.7071068 0.7071068
vn 0 0.76302 0.6463749
vn 0.3826834 -0.9238795 0
vn -0.3826834 -0.9238795 0
vn 0.9238795 -0.3826834 0
vn 0.9238795 0.3826834 0
vn 0.3826834 0.9238795 0
vn -0.3826834 0.9238795 0
vn -0.9238795 0.3826834 0
vn -0.9238795 -0.3826834 0

vt 0.34375 0.025
vt 0.34375 0.09166666
vt 0.34375 0.225
vt 0.34375 0.09166668
vt 0.34375 0.04722222
vt 0.34375 0.085
vt 0.34375 0.09833334
vt 0.34375 0.1516667
vt 0.34375 0.165
vt 0.34375 0.175
vt 0.34375 0.1583333
vt 0.34375 0.075
vt 0.21875 0.09166666
vt 0.21875 0.225
vt 0.21875 0.2972222
vt 0.21875 0.3416667
vt 0.21875 0.475
vt 0.21875 0.325
vt 0.21875 0.4083333
vt 0.21875 0.425

usemtl colormap

f 3/2/1 2/1/2 1/1/1
f 2/1/2 3/2/1 4/2/2
f 7/1/4 6/2/3 5/1/3
f 6/2/3 7/1/4 8/2/4
f 9/1/5 8/2/4 7/1/4
f 8/2/4 9/1/5 10/2/5
f 2/1/2 10/2/5 9/1/5
f 10/2/5 2/1/2 4/2/2
f 3/2/1 12/1/6 11/2/6
f 12/1/6 3/2/1 1/1/1
f 11/2/6 14/1/7 13/2/7
f 14/1/7 11/2/6 12/1/6
f 13/2/7 16/1/8 15/2/8
f 16/1/8 13/2/7 14/1/7
f 1/1/9 14/1/9 12/1/9
f 14/1/9 1/1/9 16/1/9
f 16/1/9 1/1/9 2/1/9
f 16/1/9 2/1/9 5/1/9
f 5/1/9 2/1/9 9/1/9
f 5/1/9 9/1/9 7/1/9
f 6/2/3 16/1/8 5/1/3
f 16/1/8 6/2/3 15/2/8
f 15/2/10 11/2/10 13/2/10
f 11/2/10 15/2/10 3/2/10
f 3/2/10 15/2/10 17/2/10
f 17/2/10 15/2/10 6/2/10
f 18/2/10 3/2/10 17/2/10
f 17/2/10 6/2/10 19/2/10
f 3/2/10 18/2/10 4/2/10
f 19/2/10 6/2/10 20/2/10
f 4/2/10 18/2/10 20/2/10
f 4/2/10 20/2/10 6/2/10
f 4/2/10 6/2/10 8/2/10
f 4/2/10 8/2/10 10/2/10
f 23/3/11 22/1/11 21/3/11
f 22/1/11 23/3/11 24/4/11
f 22/1/11 24/4/11 25/5/11
f 25/5/11 24/4/11 26/4/11
f 29/1/12 28/3/12 27/3/12
f 28/3/12 29/1/12 30/4/12
f 30/4/12 29/1/12 31/5/12
f 30/4/12 31/5/12 32/4/12
f 31/5/13 22/1/13 25/5/13
f 22/1/13 31/5/13 29/1/13
f 27/3/14 22/1/14 29/1/14
f 22/1/14 27/3/14 21/3/14
f 35/7/15 34/6/15 33/6/15
f 34/6/15 35/7/15 36/7/15
f 36/7/15 35/7/15 37/8/15
f 36/7/15 37/8/15 38/8/15
f 38/8/15 37/8/15 39/9/15
f 38/8/15 39/9/15 40/9/15
f 40/9/18 42/10/17 41/10/16
f 42/10/17 40/9/18 39/9/19
f 43/11/22 36/7/21 38/8/20
f 36/7/21 43/11/22 44/2/23
f 44/2/23 34/6/24 36/7/21
f 34/6/24 44/2/23 45/12/25
f 46/2/28 37/8/27 35/7/26
f 37/8/27 46/2/28 47/11/29
f 48/12/31 35/7/26 33/6/30
f 35/7/26 48/12/31 46/2/28
f 47/11/29 39/9/19 37/8/27
f 39/9/19 47/11/29 42/10/17
f 41/10/16 38/8/20 40/9/18
f 38/8/20 41/10/16 43/11/22
f 48/12/31 34/6/24 45/12/25
f 34/6/24 48/12/31 33/6/30
f 49/14/32 18/13/33 17/13/32
f 18/13/33 49/14/32 50/14/33
f 20/13/35 51/14/34 19/13/34
f 51/14/34 20/13/35 52/14/35
f 51/14/34 17/13/32 19/13/34
f 17/13/32 51/14/34 49/14/32
f 50/14/33 20/13/35 18/13/33
f 20/13/35 50/14/33 52/14/35
f 26/16/37 31/15/36 25/15/36
f 31/15/36 26/16/37 32/16/37
f 27/17/10 23/17/38 21/17/10
f 23/17/38 27/17/10 28/17/38
f 23/17/38 30/16/38 24/16/38
f 30/16/38 23/17/38 28/17/38
f 30/16/38 26/16/37 24/16/38
f 26/16/37 30/16/38 32/16/37
f 55/16/36 54/18/36 53/18/36
f 54/18/36 55/16/36 56/16/36
f 56/16/36 55/16/36 57/19/36
f 56/16/36 57/19/36 58/19/36
f 58/19/36 57/19/36 59/20/36
f 58/19/36 59/20/36 60/20/36
f 54/18/40 45/18/39 53/18/39
f 45/18/39 54/18/40 48/18/40
f 53/18/39 44/16/41 55/16/41
f 44/16/41 53/18/39 45/18/39
f 57/19/42 44/16/41 43/19/42
f 44/16/41 57/19/42 55/16/41
f 41/20/43 57/19/42 43/19/42
f 57/19/42 41/20/43 59/20/43
f 42/20/44 59/20/43 41/20/43
f 59/20/43 42/20/44 60/20/44
f 47/19/45 60/20/44 42/20/44
f 60/20/44 47/19/45 58/19/45
f 56/16/46 47/19/45 46/16/46
f 47/19/45 56/16/46 58/19/45
f 56/16/46 48/18/40 54/18/40
f 48/18/40 56/16/46 46/16/46

g chair-headrest




usemtl colormap

f 3/2/1 2/1/2 1/1/1
f 2/1/2 3/2/1 4/2/2
f 7/1/4 6/2/3 5/1/3
f 6/2/3 7/1/4 8/2/4
f 9/1/5 8/2/4 7/1/4
f 8/2/4 9/1/5 10/2/5
f 2/1/2 10/2/5 9/1/5
f 10/2/5 2/1/2 4/2/2
f 3/2/1 12/1/6 11/2/6
f 12/1/6 3/2/1 1/1/1
f 11/2/6 14/1/7 13/2/7
f 14/1/7 11/2/6 12/1/6
f 13/2/7 16/1/8 15/2/8
f 16/1/8 13/2/7 14/1/7
f 1/1/9 14/1/9 12/1/9
f 14/1/9 1/1/9 16/1/9
f 16/1/9 1/1/9 2/1/9
f 16/1/9 2/1/9 5/1/9
f 5/1/9 2/1/9 9/1/9
f 5/1/9 9/1/9 7/1/9
f 6/2/3 16/1/8 5/1/3
f 16/1/8 6/2/3 15/2/8
f 15/2/10 11/2/10 13/2/10
f 11/2/10 15/2/10 3/2/10
f 3/2/10 15/2/10 17/2/10
f 17/2/10 15/2/10 6/2/10
f 18/2/10 3/2/10 17/2/10
f 17/2/10 6/2/10 19/2/10
f 3/2/10 18/2/10 4/2/10
f 19/2/10 6/2/10 20/2/10
f 4/2/10 18/2/10 20/2/10
f 4/2/10 20/2/10 6/2/10
f 4/2/10 6/2/10 8/2/10
f 4/2/10 8/2/10 10/2/10
f 23/3/11 22/1/11 21/3/11
f 22/1/11 23/3/11 24/4/11
f 22/1/11 24/4/11 25/5/11
f 25/5/11 24/4/11 26/4/11
f 29/1/12 28/3/12 27/3/12
f 28/3/12 29/1/12 30/4/12
f 30/4/12 29/1/12 31/5/12
f 30/4/12 31/5/12 32/4/12
f 31/5/13 22/1/13 25/5/13
f 22/1/13 31/5/13 29/1/13
f 27/3/14 22/1/14 29/1/14
f 22/1/14 27/3/14 21/3/14
f 35/7/15 34/6/15 33/6/15
f 34/6/15 35/7/15 36/7/15
f 36/7/15 35/7/15 37/8/15
f 36/7/15 37/8/15 38/8/15
f 38/8/15 37/8/15 39/9/15
f 38/8/15 39/9/15 40/9/15
f 40/9/18 42/10/17 41/10/16
f 42/10/17 40/9/18 39/9/19
f 43/11/22 36/7/21 38/8/20
f 36/7/21 43/11/22 44/2/23
f 44/2/23 34/6/24 36/7/21
f 34/6/24 44/2/23 45/12/25
f 46/2/28 37/8/27 35/7/26
f 37/8/27 46/2/28 47/11/29
f 48/12/31 35/7/26 33/6/30
f 35/7/26 48/12/31 46/2/28
f 47/11/29 39/9/19 37/8/27
f 39/9/19 47/11/29 42/10/17
f 41/10/16 38/8/20 40/9/18
f 38/8/20 41/10/16 43/11/22
f 48/12/31 34/6/24 45/12/25
f 34/6/24 48/12/31 33/6/30
f 49/14/32 18/13/33 17/13/32
f 18/13/33 49/14/32 50/14/33
f 20/13/35 51/14/34 19/13/34
f 51/14/34 20/13/35 52/14/35
f 51/14/34 17/13/32 19/13/34
f 17/13/32 51/14/34 49/14/32
f 50/14/33 20/13/35 18/13/33
f 20/13/35 50/14/33 52/14/35
f 26/16/37 31/15/36 25/15/36
f 31/15/36 26/16/37 32/16/37
f 27/17/10 23/17/38 21/17/10
f 23/17/38 27/17/10 28/17/38
f 23/17/38 30/16/38 24/16/38
f 30/16/38 23/17/38 28/17/38
f 30/16/38 26/16/37 24/16/38
f 26/16/37 30/16/38 32/16/37
f 55/16/36 54/18/36 53/18/36
f 54/18/36 55/16/36 56/16/36
f 56/16/36 55/16/36 57/19/36
f 56/16/36 57/19/36 58/19/36
f 58/19/36 57/19/36 59/20/36
f 58/19/36 59/20/36 60/20/36
f 54/18/40 45/18/39 53/18/39
f 45/18/39 54/18/40 48/18/40
f 53/18/39 44/16/41 55/16/41
f 44/16/41 53/18/39 45/18/39
f 57/19/42 44/16/41 43/19/42
f 44/16/41 57/19/42 55/16/41
f 41/20/43 57/19/42 43/19/42
f 57/19/42 41/20/43 59/20/43
f 42/20/44 59/20/43 41/20/43
f 59/20/43 42/20/44 60/20/44
f 47/19/45 60/20/44 42/20/44
f 60/20/44 47/19/45 58/19/45
f 56/16/46 47/19/45 46/16/46
f 47/19/45 56/16/46 58/19/45
f 56/16/46 48/18/40 54/18/40
f 48/18/40 56/16/46 46/16/46

