# Created by Kenney (www.kenney.nl)

mtllib chair-cushion-headrest.mtl

g chair-cushion-headrest

v 0.1 0 0.175 1 1 1
v -0.1 0 0.175 1 1 1
v 0.1 0.05 0.175 1 1 1
v -0.1 0.05 0.175 1 1 1
v -0.1 0 -0.125 1 1 1
v -0.1 0.05 -0.125 1 1 1
v -0.15 0 -0.075 1 1 1
v -0.15 0.05 -0.075 1 1 1
v -0.15 0 0.125 1 1 1
v -0.15 0.05 0.125 1 1 1
v 0.15 0.05 0.125 1 1 1
v 0.15 0 0.125 1 1 1
v 0.15 0.05 -0.075 1 1 1
v 0.15 0 -0.075 1 1 1
v 0.1 0.05 -0.125 1 1 1
v 0.1 0 -0.125 1 1 1
v 0.0625 0.05 -0.0375 1 1 1
v 0.0625 0.05 0.0875 1 1 1
v -0.0625 0.05 -0.0375 1 1 1
v -0.0625 0.05 0.0875 1 1 1
v 0.15 0.55 -0.175 1 1 1
v 0.15 0.1 -0.125 1 1 1
v 0.15 0.55 -0.075 1 1 1
v 0.15 0.25 -0.025 1 1 1
v 0.15 0.15 0.175 1 1 1
v 0.15 0.25 0.175 1 1 1
v -0.15 0.15 0.175 1 1 1
v -0.15 0.25 0.175 1 1 1
v -0.15 0.55 -0.175 1 1 1
v -0.15 0.55 -0.075 1 1 1
v -0.15 0.1 -0.125 1 1 1
v -0.15 0.25 -0.025 1 1 1
v 0.1 0.25 -0.025 1 1 1
v 0.1 0.5006803 -0.06678005 1 1 1
v -0.1 0.5006803 -0.06678005 1 1 1
v -0.1 0.25 -0.025 1 1 1
v -0.1 0.25 0.125 1 1 1
v 0.1 0.25 0.125 1 1 1
v -0.06 0.565 -0.175 1 1 1
v 0.06 0.565 -0.175 1 1 1
v -0.08 0.585 -0.175 1 1 1
v 0.08 0.585 -0.175 1 1 1
v -0.08 0.665 -0.175 1 1 1
v 0.08 0.665 -0.175 1 1 1
v -0.06 0.685 -0.175 1 1 1
v 0.06 0.685 -0.175 1 1 1
v 0.075 0.7 -0.125 1 1 1
v -0.075 0.7 -0.125 1 1 1
v 0.1 0.675 -0.125 1 1 1
v 0.1 0.575 -0.125 1 1 1
v 0.075 0.55 -0.125 1 1 1
v -0.1 0.575 -0.125 1 1 1
v -0.1 0.675 -0.125 1 1 1
v -0.075 0.55 -0.125 1 1 1
v 0.05 0.15 -0.025 1 1 1
v 0.05 0.15 0.075 1 1 1
v -0.05 0.15 -0.025 1 1 1
v -0.05 0.15 0.075 1 1 1
v 0.1 0.25 -0.025 1 1 1
v -0.1 0.25 -0.025 1 1 1
v 0.1 0.5006803 -0.06678005 1 1 1
v -0.1 0.5006803 -0.06678005 1 1 1
v 0.075 0.55 -0.075 1 1 1
v -0.075 0.55 -0.075 1 1 1
v 0.1 0.575 -0.075 1 1 1
v -0.1 0.575 -0.075 1 1 1
v 0.1 0.675 -0.075 1 1 1
v -0.1 0.675 -0.075 1 1 1
v 0.075 0.7 -0.075 1 1 1
v -0.075 0.7 -0.075 1 1 1

vn 0.3826834 0 0.9238795
vn -0.3826834 0 0.9238795
vn -0.3826834 0 -0.9238795
vn -0.9238795 0 -0.3826834
vn -0.9238795 0 0.3826834
vn 0.9238795 0 0.3826834
vn 0.9238795 0 -0.3826834
vn 0.3826834 0 -0.9238795
vn 0 -1 0
vn 0 1 0
vn 1 0 0
vn 0 0 1
vn 0 0.7071068 0.7071068
vn -1 0 0
vn 0 0.76302 0.6463749
vn 0 -0.986394 0.164399
vn 0 -0.1104315 -0.9938837
vn 0 0.164399 0.986394
vn 0 0 -1
vn 0.3832537 0.8467339 -0.3689963
vn -0.3832537 0.8467339 -0.3689963
vn 0.3206372 0.8764783 -0.3591346
vn -0.3206372 0.8764783 -0.3591346
vn 0.8466818 0.3425401 -0.4071807
vn 0.8466818 -0.3425401 -0.4071807
vn 0.8415092 0.3546523 -0.4075342
vn 0.8415092 -0.3546523 -0.4075342
vn 0.3206372 -0.8764783 -0.3591346
vn 0.3832537 -0.8467339 -0.3689963
vn -0.8466818 -0.3425401 -0.4071807
vn -0.8466818 0.3425401 -0.4071807
vn -0.8415092 -0.3546523 -0.4075342
vn -0.8415092 0.3546523 -0.4075342
vn -0.3206372 -0.8764783 -0.3591346
vn -0.3832537 -0.8467339 -0.3689963
vn 0.6963106 0.1740777 -0.6963106
vn 0.6963106 0.1740777 0.6963106
vn -0.6963106 0.1740777 -0.6963106
vn -0.6963106 0.1740777 0.6963106
vn 0.3826834 -0.9238795 0
vn -0.3826834 -0.9238795 0
vn 0.9238795 -0.3826834 0
vn 0.9238795 0.3826834 0
vn 0.3826834 0.9238795 0
vn -0.3826834 0.9238795 0
vn -0.9238795 0.3826834 0
vn -0.9238795 -0.3826834 0

vt 0.34375 0.025
vt 0.34375 0.09166666
vt 0.34375 0.225
vt 0.34375 0.09166668
vt 0.34375 0.04722222
vt 0.34375 0.2030801
vt 0.34375 0.085
vt 0.34375 0.09833334
vt 0.34375 0.1516667
vt 0.34375 0.165
vt 0.34375 0.175
vt 0.34375 0.1583333
vt 0.34375 0.075
vt 0.21875 0.09166666
vt 0.21875 0.225
vt 0.21875 0.275
vt 0.21875 0.475
vt 0.21875 0.325
vt 0.21875 0.3416667
vt 0.21875 0.4083333
vt 0.21875 0.425

usemtl colormap

f 3/2/1 2/1/2 1/1/1
f 2/1/2 3/2/1 4/2/2
f 7/1/4 6/2/3 5/1/3
f 6/2/3 7/1/4 8/2/4
f 9/1/5 8/2/4 7/1/4
f 8/2/4 9/1/5 10/2/5
f 2/1/2 10/2/5 9/1/5
f 10/2/5 2/1/2 4/2/2
f 3/2/1 12/1/6 11/2/6
f 12/1/6 3/2/1 1/1/1
f 11/2/6 14/1/7 13/2/7
f 14/1/7 11/2/6 12/1/6
f 13/2/7 16/1/8 15/2/8
f 16/1/8 13/2/7 14/1/7
f 1/1/9 14/1/9 12/1/9
f 14/1/9 1/1/9 16/1/9
f 16/1/9 1/1/9 2/1/9
f 16/1/9 2/1/9 5/1/9
f 5/1/9 2/1/9 9/1/9
f 5/1/9 9/1/9 7/1/9
f 6/2/3 16/1/8 5/1/3
f 16/1/8 6/2/3 15/2/8
f 15/2/10 11/2/10 13/2/10
f 11/2/10 15/2/10 3/2/10
f 3/2/10 15/2/10 17/2/10
f 17/2/10 15/2/10 6/2/10
f 18/2/10 3/2/10 17/2/10
f 17/2/10 6/2/10 19/2/10
f 3/2/10 18/2/10 4/2/10
f 19/2/10 6/2/10 20/2/10
f 4/2/10 18/2/10 20/2/10
f 4/2/10 20/2/10 6/2/10
f 4/2/10 6/2/10 8/2/10
f 4/2/10 8/2/10 10/2/10
f 23/3/11 22/1/11 21/3/11
f 22/1/11 23/3/11 24/4/11
f 22/1/11 24/4/11 25/5/11
f 25/5/11 24/4/11 26/4/11
f 26/4/13 27/5/12 25/5/12
f 27/5/12 26/4/13 28/4/13
f 31/1/14 30/3/14 29/3/14
f 30/3/14 31/1/14 32/4/14
f 32/4/14 31/1/14 27/5/14
f 32/4/14 27/5/14 28/4/14
f 29/3/10 23/3/15 21/3/10
f 23/3/15 29/3/10 30/3/15
f 27/5/16 22/1/16 25/5/16
f 22/1/16 27/5/16 31/1/16
f 29/3/17 22/1/17 31/1/17
f 22/1/17 29/3/17 21/3/17
f 24/4/15 34/6/18 33/4/15
f 34/6/18 24/4/15 23/3/15
f 34/6/18 23/3/15 35/6/18
f 30/3/15 35/6/18 23/3/15
f 32/4/15 35/6/18 30/3/15
f 35/6/18 32/4/15 36/4/15
f 32/4/15 37/4/10 36/4/15
f 28/4/13 37/4/10 32/4/15
f 28/4/13 38/4/10 37/4/10
f 26/4/13 38/4/10 28/4/13
f 26/4/13 33/4/15 38/4/10
f 33/4/15 26/4/13 24/4/15
f 41/8/19 40/7/19 39/7/19
f 40/7/19 41/8/19 42/8/19
f 42/8/19 41/8/19 43/9/19
f 42/8/19 43/9/19 44/9/19
f 44/9/19 43/9/19 45/10/19
f 44/9/19 45/10/19 46/10/19
f 46/10/22 48/11/21 47/11/20
f 48/11/21 46/10/22 45/10/23
f 49/12/26 42/8/25 44/9/24
f 42/8/25 49/12/26 50/2/27
f 50/2/27 40/7/28 42/8/25
f 40/7/28 50/2/27 51/13/29
f 52/2/32 43/9/31 41/8/30
f 43/9/31 52/2/32 53/12/33
f 54/13/35 41/8/30 39/7/34
f 41/8/30 54/13/35 52/2/32
f 53/12/33 45/10/23 43/9/31
f 45/10/23 53/12/33 48/11/21
f 47/11/20 44/9/24 46/10/22
f 44/9/24 47/11/20 49/12/26
f 54/13/35 40/7/28 51/13/29
f 40/7/28 54/13/35 39/7/34
f 55/15/36 18/14/37 17/14/36
f 18/14/37 55/15/36 56/15/37
f 20/14/39 57/15/38 19/14/38
f 57/15/38 20/14/39 58/15/39
f 57/15/38 17/14/36 19/14/38
f 17/14/36 57/15/38 55/15/36
f 56/15/37 20/14/39 18/14/37
f 20/14/39 56/15/37 58/15/39
f 60/16/15 38/16/10 59/16/15
f 38/16/10 60/16/15 37/16/10
f 61/17/18 60/16/15 59/16/15
f 60/16/15 61/17/18 62/17/18
f 65/19/12 64/18/12 63/18/12
f 64/18/12 65/19/12 66/19/12
f 66/19/12 65/19/12 67/20/12
f 66/19/12 67/20/12 68/20/12
f 68/20/12 67/20/12 69/21/12
f 68/20/12 69/21/12 70/21/12
f 64/18/41 51/18/40 63/18/40
f 51/18/40 64/18/41 54/18/41
f 63/18/40 50/19/42 65/19/42
f 50/19/42 63/18/40 51/18/40
f 67/20/43 50/19/42 49/20/43
f 50/19/42 67/20/43 65/19/42
f 47/21/44 67/20/43 49/20/43
f 67/20/43 47/21/44 69/21/44
f 48/21/45 69/21/44 47/21/44
f 69/21/44 48/21/45 70/21/45
f 53/20/46 70/21/45 48/21/45
f 70/21/45 53/20/46 68/20/46
f 66/19/47 53/20/46 52/19/47
f 53/20/46 66/19/47 68/20/46
f 66/19/47 54/18/41 64/18/41
f 54/18/41 66/19/47 52/19/47

g chair-cushion-headrest




usemtl colormap

f 3/2/1 2/1/2 1/1/1
f 2/1/2 3/2/1 4/2/2
f 7/1/4 6/2/3 5/1/3
f 6/2/3 7/1/4 8/2/4
f 9/1/5 8/2/4 7/1/4
f 8/2/4 9/1/5 10/2/5
f 2/1/2 10/2/5 9/1/5
f 10/2/5 2/1/2 4/2/2
f 3/2/1 12/1/6 11/2/6
f 12/1/6 3/2/1 1/1/1
f 11/2/6 14/1/7 13/2/7
f 14/1/7 11/2/6 12/1/6
f 13/2/7 16/1/8 15/2/8
f 16/1/8 13/2/7 14/1/7
f 1/1/9 14/1/9 12/1/9
f 14/1/9 1/1/9 16/1/9
f 16/1/9 1/1/9 2/1/9
f 16/1/9 2/1/9 5/1/9
f 5/1/9 2/1/9 9/1/9
f 5/1/9 9/1/9 7/1/9
f 6/2/3 16/1/8 5/1/3
f 16/1/8 6/2/3 15/2/8
f 15/2/10 11/2/10 13/2/10
f 11/2/10 15/2/10 3/2/10
f 3/2/10 15/2/10 17/2/10
f 17/2/10 15/2/10 6/2/10
f 18/2/10 3/2/10 17/2/10
f 17/2/10 6/2/10 19/2/10
f 3/2/10 18/2/10 4/2/10
f 19/2/10 6/2/10 20/2/10
f 4/2/10 18/2/10 20/2/10
f 4/2/10 20/2/10 6/2/10
f 4/2/10 6/2/10 8/2/10
f 4/2/10 8/2/10 10/2/10
f 23/3/11 22/1/11 21/3/11
f 22/1/11 23/3/11 24/4/11
f 22/1/11 24/4/11 25/5/11
f 25/5/11 24/4/11 26/4/11
f 26/4/13 27/5/12 25/5/12
f 27/5/12 26/4/13 28/4/13
f 31/1/14 30/3/14 29/3/14
f 30/3/14 31/1/14 32/4/14
f 32/4/14 31/1/14 27/5/14
f 32/4/14 27/5/14 28/4/14
f 29/3/10 23/3/15 21/3/10
f 23/3/15 29/3/10 30/3/15
f 27/5/16 22/1/16 25/5/16
f 22/1/16 27/5/16 31/1/16
f 29/3/17 22/1/17 31/1/17
f 22/1/17 29/3/17 21/3/17
f 24/4/15 34/6/18 33/4/15
f 34/6/18 24/4/15 23/3/15
f 34/6/18 23/3/15 35/6/18
f 30/3/15 35/6/18 23/3/15
f 32/4/15 35/6/18 30/3/15
f 35/6/18 32/4/15 36/4/15
f 32/4/15 37/4/10 36/4/15
f 28/4/13 37/4/10 32/4/15
f 28/4/13 38/4/10 37/4/10
f 26/4/13 38/4/10 28/4/13
f 26/4/13 33/4/15 38/4/10
f 33/4/15 26/4/13 24/4/15
f 41/8/19 40/7/19 39/7/19
f 40/7/19 41/8/19 42/8/19
f 42/8/19 41/8/19 43/9/19
f 42/8/19 43/9/19 44/9/19
f 44/9/19 43/9/19 45/10/19
f 44/9/19 45/10/19 46/10/19
f 46/10/22 48/11/21 47/11/20
f 48/11/21 46/10/22 45/10/23
f 49/12/26 42/8/25 44/9/24
f 42/8/25 49/12/26 50/2/27
f 50/2/27 40/7/28 42/8/25
f 40/7/28 50/2/27 51/13/29
f 52/2/32 43/9/31 41/8/30
f 43/9/31 52/2/32 53/12/33
f 54/13/35 41/8/30 39/7/34
f 41/8/30 54/13/35 52/2/32
f 53/12/33 45/10/23 43/9/31
f 45/10/23 53/12/33 48/11/21
f 47/11/20 44/9/24 46/10/22
f 44/9/24 47/11/20 49/12/26
f 54/13/35 40/7/28 51/13/29
f 40/7/28 54/13/35 39/7/34
f 55/15/36 18/14/37 17/14/36
f 18/14/37 55/15/36 56/15/37
f 20/14/39 57/15/38 19/14/38
f 57/15/38 20/14/39 58/15/39
f 57/15/38 17/14/36 19/14/38
f 17/14/36 57/15/38 55/15/36
f 56/15/37 20/14/39 18/14/37
f 20/14/39 56/15/37 58/15/39
f 60/16/15 38/16/10 59/16/15
f 38/16/10 60/16/15 37/16/10
f 61/17/18 60/16/15 59/16/15
f 60/16/15 61/17/18 62/17/18
f 65/19/12 64/18/12 63/18/12
f 64/18/12 65/19/12 66/19/12
f 66/19/12 65/19/12 67/20/12
f 66/19/12 67/20/12 68/20/12
f 68/20/12 67/20/12 69/21/12
f 68/20/12 69/21/12 70/21/12
f 64/18/41 51/18/40 63/18/40
f 51/18/40 64/18/41 54/18/41
f 63/18/40 50/19/42 65/19/42
f 50/19/42 63/18/40 51/18/40
f 67/20/43 50/19/42 49/20/43
f 50/19/42 67/20/43 65/19/42
f 47/21/44 67/20/43 49/20/43
f 67/20/43 47/21/44 69/21/44
f 48/21/45 69/21/44 47/21/44
f 69/21/44 48/21/45 70/21/45
f 53/20/46 70/21/45 48/21/45
f 70/21/45 53/20/46 68/20/46
f 66/19/47 53/20/46 52/19/47
f 53/20/46 66/19/47 68/20/46
f 66/19/47 54/18/41 64/18/41
f 54/18/41 66/19/47 52/19/47

