# Created by Kenney (www.kenney.nl)

mtllib container-flat.mtl

g container-flat

v -0.190503 0.425 -0.4409453 1 1 1
v -0.25 0.425 0.45 1 1 1
v -0.190503 0.175 -0.4409453 1 1 1
v -0.25 0.175 0.45 1 1 1
v 0.184497 0.05 -0.4409453 1 1 1
v 0.159497 0.1 -0.5409453 1 1 1
v -0.06550296 0.05 -0.4409453 1 1 1
v -0.04050296 0.1 -0.5409453 1 1 1
v 0.259497 0.4 -0.5409453 1 1 1
v 0.259497 0.2 -0.5409453 1 1 1
v 0.309497 0.425 -0.4409453 1 1 1
v 0.309497 0.175 -0.4409453 1 1 1
v -0.140503 0.2 -0.5409453 1 1 1
v -0.140503 0.4 -0.5409453 1 1 1
v 0.159497 0.5 -0.5409453 1 1 1
v 0.184497 0.55 -0.4409453 1 1 1
v -0.125 0.05 0.45 1 1 1
v -0.1 0.5 0.55 1 1 1
v -0.2 0.4 0.55 1 1 1
v -0.125 0.55 0.45 1 1 1
v -0.1 0.1 0.55 1 1 1
v -0.2 0.2 0.55 1 1 1
v 0.1 0.1 0.55 1 1 1
v 0.2 0.2 0.55 1 1 1
v 0.2 0.4 0.55 1 1 1
v 0.1 0.5 0.55 1 1 1
v -0.06550296 0.55 -0.4409453 1 1 1
v -0.04050296 0.5 -0.5409453 1 1 1
v 0.25 0.175 0.45 1 1 1
v 0.125 0.05 0.45 1 1 1
v 0.125 0.55 0.45 1 1 1
v 0.25 0.425 0.45 1 1 1
v -0.15 4.03368E-14 0.35 1 1 1
v -0.15 3.023004E-14 0.25 1 1 1
v -0.3 0.15 0.35 1 1 1
v -0.3 0.15 0.25 1 1 1
v 0.3 0.45 0.25 1 1 1
v 0.3 0.15 0.25 1 1 1
v 0.3 0.45 0.35 1 1 1
v 0.3 0.15 0.35 1 1 1
v -0.3 0.45 0.25 1 1 1
v -0.3 0.45 0.35 1 1 1
v 0.15 0.6 0.25 1 1 1
v 0.15 0.6 0.35 1 1 1
v -0.15 0.6 0.25 1 1 1
v -0.15 0.6 0.35 1 1 1
v 0.15 3.023004E-14 0.25 1 1 1
v 0.15 4.03368E-14 0.35 1 1 1
v -0.09050298 2.066471E-14 -0.2409453 1 1 1
v -0.09050298 1.055795E-14 -0.3409453 1 1 1
v -0.240503 0.15 -0.2409453 1 1 1
v -0.240503 0.15 -0.3409453 1 1 1
v 0.359497 0.45 -0.3409453 1 1 1
v 0.359497 0.15 -0.3409453 1 1 1
v 0.359497 0.45 -0.2409453 1 1 1
v 0.359497 0.15 -0.2409453 1 1 1
v -0.240503 0.45 -0.3409453 1 1 1
v -0.240503 0.45 -0.2409453 1 1 1
v 0.209497 0.6 -0.3409453 1 1 1
v 0.209497 0.6 -0.2409453 1 1 1
v -0.09050298 0.6 -0.3409453 1 1 1
v -0.09050298 0.6 -0.2409453 1 1 1
v 0.209497 1.055795E-14 -0.3409453 1 1 1
v 0.209497 2.066471E-14 -0.2409453 1 1 1

vn -0.9196905 0.3878112 -0.06141662
vn -0.9244221 0.376341 -0.06173261
vn -0.9196905 -0.3878112 -0.06141662
vn -0.9244221 -0.376341 -0.06173261
vn 0.3399836 -0.8043962 -0.487194
vn 0.32603 -0.8104342 -0.4867246
vn -0.3399836 -0.8043962 -0.487194
vn -0.32603 -0.8104342 -0.4867246
vn 0.8104342 0.32603 -0.4867246
vn 0.8104342 -0.32603 -0.4867246
vn 0.8043962 0.3399836 -0.487194
vn 0.8043962 -0.3399836 -0.487194
vn -0.8104342 -0.32603 -0.4867246
vn -0.8043962 -0.3399836 -0.487194
vn -0.8104342 0.32603 -0.4867246
vn -0.8043962 0.3399836 -0.487194
vn 0.32603 0.8104342 -0.4867246
vn 0.3399836 0.8043962 -0.487194
vn -0.3685386 -0.9292866 -0.02461089
vn -0.3962387 -0.9177662 -0.02646069
vn -0.32603 0.8104342 0.4867246
vn -0.8104342 0.32603 0.4867246
vn -0.3399836 0.8043962 0.487194
vn -0.8043962 0.3399836 0.487194
vn -0.32603 -0.8104342 0.4867246
vn -0.3399836 -0.8043962 0.487194
vn -0.8104342 -0.32603 0.4867246
vn -0.8043962 -0.3399836 0.487194
vn 0 0 1
vn -0.3399836 0.8043962 -0.487194
vn -0.32603 0.8104342 -0.4867246
vn 0.8043962 -0.3399836 0.487194
vn 0.3399836 -0.8043962 0.487194
vn 0.8104342 -0.32603 0.4867246
vn 0.32603 -0.8104342 0.4867246
vn 0.3962387 0.9177662 0.02646069
vn 0.3685386 0.9292866 0.02461089
vn -0.3685386 0.9292866 -0.02461089
vn -0.3962387 0.9177662 -0.02646069
vn 0.3962387 -0.9177662 0.02646069
vn 0.3685386 -0.9292866 0.02461089
vn 0 0 -1
vn 0.9244221 -0.376341 0.06173261
vn 0.9196905 -0.3878112 0.06141662
vn 0.9244221 0.376341 0.06173261
vn 0.9196905 0.3878112 0.06141662
vn 0.3399836 0.8043962 0.487194
vn 0.8043962 0.3399836 0.487194
vn 0.32603 0.8104342 0.4867246
vn 0.8104342 0.32603 0.4867246
vn -0.3826834 -0.9238795 0
vn -0.9238795 -0.3826834 0
vn 0.9238795 0.3826834 0
vn 0.9238795 -0.3826834 0
vn -0.9238795 0.3826834 0
vn 0.3826834 0.9238795 0
vn -0.3826834 0.9238795 0
vn 0.3826834 -0.9238795 0

vt 0.21875 0.4295454
vt 0.21875 0.3386364
vt 0.21875 0.2931818
vt 0.21875 0.3113636
vt 0.21875 0.4204546
vt 0.21875 0.3477273
vt 0.21875 0.4568182
vt 0.21875 0.475
vt 0.34375 0.025
vt 0.34375 0.075
vt 0.34375 0.175
vt 0.34375 0.225

usemtl colormap

f 3/2/3 2/1/2 1/1/1
f 2/1/2 3/2/3 4/2/4
f 7/3/7 6/4/6 5/3/5
f 6/4/6 7/3/7 8/4/8
f 11/1/11 10/6/10 9/5/9
f 10/6/10 11/1/11 12/2/12
f 7/3/7 13/6/13 8/4/8
f 13/6/13 7/3/7 3/2/14
f 13/6/13 1/1/16 14/5/15
f 1/1/16 13/6/13 3/2/14
f 16/8/18 9/5/9 15/7/17
f 9/5/9 16/8/18 11/1/11
f 17/3/20 3/2/3 7/3/19
f 3/2/3 17/3/20 4/2/4
f 20/8/23 19/5/22 18/7/21
f 19/5/22 20/8/23 2/1/24
f 22/6/27 17/3/26 21/4/25
f 17/3/26 22/6/27 4/2/28
f 24/6/29 21/4/29 23/4/29
f 21/4/29 24/6/29 22/6/29
f 22/6/29 24/6/29 25/5/29
f 22/6/29 25/5/29 19/5/29
f 19/5/29 25/5/29 26/7/29
f 19/5/29 26/7/29 18/7/29
f 15/7/17 27/8/30 16/8/18
f 27/8/30 15/7/17 28/7/31
f 24/6/34 30/3/33 29/2/32
f 30/3/33 24/6/34 23/4/35
f 27/8/38 31/8/37 16/8/36
f 31/8/37 27/8/38 20/8/39
f 23/4/35 17/3/26 30/3/33
f 17/3/26 23/4/35 21/4/25
f 5/3/5 10/6/10 12/2/12
f 10/6/10 5/3/5 6/4/6
f 30/3/41 7/3/19 5/3/40
f 7/3/19 30/3/41 17/3/20
f 14/5/15 27/8/30 28/7/31
f 27/8/30 14/5/15 1/1/16
f 13/6/42 6/4/42 8/4/42
f 6/4/42 13/6/42 10/6/42
f 10/6/42 13/6/42 14/5/42
f 10/6/42 14/5/42 9/5/42
f 9/5/42 14/5/42 28/7/42
f 9/5/42 28/7/42 15/7/42
f 29/2/44 5/3/40 12/2/43
f 5/3/40 29/2/44 30/3/41
f 1/1/1 20/8/39 27/8/38
f 20/8/39 1/1/1 2/1/2
f 32/1/46 12/2/43 11/1/45
f 12/2/43 32/1/46 29/2/44
f 16/8/36 32/1/46 11/1/45
f 32/1/46 16/8/36 31/8/37
f 26/7/49 32/1/48 31/8/47
f 32/1/48 26/7/49 25/5/50
f 20/8/23 26/7/49 31/8/47
f 26/7/49 20/8/23 18/7/21
f 4/2/28 19/5/22 2/1/24
f 19/5/22 4/2/28 22/6/27
f 25/5/50 29/2/32 32/1/48
f 29/2/32 25/5/50 24/6/34
f 35/10/52 34/9/51 33/9/51
f 34/9/51 35/10/52 36/10/52
f 39/11/53 38/10/54 37/11/53
f 38/10/54 39/11/53 40/10/54
f 36/10/52 42/11/55 41/11/55
f 42/11/55 36/10/52 35/10/52
f 45/12/57 44/12/56 43/12/56
f 44/12/56 45/12/57 46/12/57
f 36/10/42 47/9/42 34/9/42
f 47/9/42 36/10/42 38/10/42
f 38/10/42 36/10/42 41/11/42
f 38/10/42 41/11/42 37/11/42
f 37/11/42 41/11/42 45/12/42
f 37/11/42 45/12/42 43/12/42
f 40/10/29 33/9/29 48/9/29
f 33/9/29 40/10/29 35/10/29
f 35/10/29 40/10/29 39/11/29
f 35/10/29 39/11/29 42/11/29
f 42/11/29 39/11/29 44/12/29
f 42/11/29 44/12/29 46/12/29
f 41/11/55 46/12/57 45/12/57
f 46/12/57 41/11/55 42/11/55
f 44/12/56 37/11/53 43/12/56
f 37/11/53 44/12/56 39/11/53
f 48/9/58 38/10/54 40/10/54
f 38/10/54 48/9/58 47/9/58
f 33/9/51 47/9/58 48/9/58
f 47/9/58 33/9/51 34/9/51
f 51/10/52 50/9/51 49/9/51
f 50/9/51 51/10/52 52/10/52
f 55/11/53 54/10/54 53/11/53
f 54/10/54 55/11/53 56/10/54
f 52/10/52 58/11/55 57/11/55
f 58/11/55 52/10/52 51/10/52
f 61/12/57 60/12/56 59/12/56
f 60/12/56 61/12/57 62/12/57
f 52/10/42 63/9/42 50/9/42
f 63/9/42 52/10/42 54/10/42
f 54/10/42 52/10/42 57/11/42
f 54/10/42 57/11/42 53/11/42
f 53/11/42 57/11/42 61/12/42
f 53/11/42 61/12/42 59/12/42
f 56/10/29 49/9/29 64/9/29
f 49/9/29 56/10/29 51/10/29
f 51/10/29 56/10/29 55/11/29
f 51/10/29 55/11/29 58/11/29
f 58/11/29 55/11/29 60/12/29
f 58/11/29 60/12/29 62/12/29
f 57/11/55 62/12/57 61/12/57
f 62/12/57 57/11/55 58/11/55
f 60/12/56 53/11/53 59/12/56
f 53/11/53 60/12/56 55/11/53
f 64/9/58 54/10/54 56/10/54
f 54/10/54 64/9/58 63/9/58
f 49/9/51 63/9/58 64/9/58
f 63/9/58 49/9/51 50/9/51

g container-flat




usemtl colormap

f 3/2/3 2/1/2 1/1/1
f 2/1/2 3/2/3 4/2/4
f 7/3/7 6/4/6 5/3/5
f 6/4/6 7/3/7 8/4/8
f 11/1/11 10/6/10 9/5/9
f 10/6/10 11/1/11 12/2/12
f 7/3/7 13/6/13 8/4/8
f 13/6/13 7/3/7 3/2/14
f 13/6/13 1/1/16 14/5/15
f 1/1/16 13/6/13 3/2/14
f 16/8/18 9/5/9 15/7/17
f 9/5/9 16/8/18 11/1/11
f 17/3/20 3/2/3 7/3/19
f 3/2/3 17/3/20 4/2/4
f 20/8/23 19/5/22 18/7/21
f 19/5/22 20/8/23 2/1/24
f 22/6/27 17/3/26 21/4/25
f 17/3/26 22/6/27 4/2/28
f 24/6/29 21/4/29 23/4/29
f 21/4/29 24/6/29 22/6/29
f 22/6/29 24/6/29 25/5/29
f 22/6/29 25/5/29 19/5/29
f 19/5/29 25/5/29 26/7/29
f 19/5/29 26/7/29 18/7/29
f 15/7/17 27/8/30 16/8/18
f 27/8/30 15/7/17 28/7/31
f 24/6/34 30/3/33 29/2/32
f 30/3/33 24/6/34 23/4/35
f 27/8/38 31/8/37 16/8/36
f 31/8/37 27/8/38 20/8/39
f 23/4/35 17/3/26 30/3/33
f 17/3/26 23/4/35 21/4/25
f 5/3/5 10/6/10 12/2/12
f 10/6/10 5/3/5 6/4/6
f 30/3/41 7/3/19 5/3/40
f 7/3/19 30/3/41 17/3/20
f 14/5/15 27/8/30 28/7/31
f 27/8/30 14/5/15 1/1/16
f 13/6/42 6/4/42 8/4/42
f 6/4/42 13/6/42 10/6/42
f 10/6/42 13/6/42 14/5/42
f 10/6/42 14/5/42 9/5/42
f 9/5/42 14/5/42 28/7/42
f 9/5/42 28/7/42 15/7/42
f 29/2/44 5/3/40 12/2/43
f 5/3/40 29/2/44 30/3/41
f 1/1/1 20/8/39 27/8/38
f 20/8/39 1/1/1 2/1/2
f 32/1/46 12/2/43 11/1/45
f 12/2/43 32/1/46 29/2/44
f 16/8/36 32/1/46 11/1/45
f 32/1/46 16/8/36 31/8/37
f 26/7/49 32/1/48 31/8/47
f 32/1/48 26/7/49 25/5/50
f 20/8/23 26/7/49 31/8/47
f 26/7/49 20/8/23 18/7/21
f 4/2/28 19/5/22 2/1/24
f 19/5/22 4/2/28 22/6/27
f 25/5/50 29/2/32 32/1/48
f 29/2/32 25/5/50 24/6/34
f 35/10/52 34/9/51 33/9/51
f 34/9/51 35/10/52 36/10/52
f 39/11/53 38/10/54 37/11/53
f 38/10/54 39/11/53 40/10/54
f 36/10/52 42/11/55 41/11/55
f 42/11/55 36/10/52 35/10/52
f 45/12/57 44/12/56 43/12/56
f 44/12/56 45/12/57 46/12/57
f 36/10/42 47/9/42 34/9/42
f 47/9/42 36/10/42 38/10/42
f 38/10/42 36/10/42 41/11/42
f 38/10/42 41/11/42 37/11/42
f 37/11/42 41/11/42 45/12/42
f 37/11/42 45/12/42 43/12/42
f 40/10/29 33/9/29 48/9/29
f 33/9/29 40/10/29 35/10/29
f 35/10/29 40/10/29 39/11/29
f 35/10/29 39/11/29 42/11/29
f 42/11/29 39/11/29 44/12/29
f 42/11/29 44/12/29 46/12/29
f 41/11/55 46/12/57 45/12/57
f 46/12/57 41/11/55 42/11/55
f 44/12/56 37/11/53 43/12/56
f 37/11/53 44/12/56 39/11/53
f 48/9/58 38/10/54 40/10/54
f 38/10/54 48/9/58 47/9/58
f 33/9/51 47/9/58 48/9/58
f 47/9/58 33/9/51 34/9/51
f 51/10/52 50/9/51 49/9/51
f 50/9/51 51/10/52 52/10/52
f 55/11/53 54/10/54 53/11/53
f 54/10/54 55/11/53 56/10/54
f 52/10/52 58/11/55 57/11/55
f 58/11/55 52/10/52 51/10/52
f 61/12/57 60/12/56 59/12/56
f 60/12/56 61/12/57 62/12/57
f 52/10/42 63/9/42 50/9/42
f 63/9/42 52/10/42 54/10/42
f 54/10/42 52/10/42 57/11/42
f 54/10/42 57/11/42 53/11/42
f 53/11/42 57/11/42 61/12/42
f 53/11/42 61/12/42 59/12/42
f 56/10/29 49/9/29 64/9/29
f 49/9/29 56/10/29 51/10/29
f 51/10/29 56/10/29 55/11/29
f 51/10/29 55/11/29 58/11/29
f 58/11/29 55/11/29 60/12/29
f 58/11/29 60/12/29 62/12/29
f 57/11/55 62/12/57 61/12/57
f 62/12/57 57/11/55 58/11/55
f 60/12/56 53/11/53 59/12/56
f 53/11/53 60/12/56 55/11/53
f 64/9/58 54/10/54 56/10/54
f 54/10/54 64/9/58 63/9/58
f 49/9/51 63/9/58 64/9/58
f 63/9/58 49/9/51 50/9/51

