# Created by Kenney (www.kenney.nl)

mtllib container-tall.mtl

g container-tall

v -0.212132 0.6 -0.212132 1 1 1
v -0.212132 0.7 -0.212132 1 1 1
v -0.3 0.6 0 1 1 1
v -0.3 0.7 0 1 1 1
v -3.609557E-16 0.6 -0.3 1 1 1
v -3.609557E-16 0.7 -0.3 1 1 1
v 0.3 0.7 0 1 1 1
v 0.212132 0.7 0.212132 1 1 1
v 0.212132 0.7 -0.212132 1 1 1
v -3.609557E-16 0.7 0.3 1 1 1
v -0.212132 0.7 0.212132 1 1 1
v 0.3 0.6 0 1 1 1
v 0.212132 0.6 -0.212132 1 1 1
v 0.212132 0.6 0.212132 1 1 1
v -3.609557E-16 0.6 0.3 1 1 1
v -0.212132 0.6 0.212132 1 1 1
v -0.212132 0.2 -0.212132 1 1 1
v -0.212132 0.3 -0.212132 1 1 1
v -0.3 0.2 0 1 1 1
v -0.3 0.3 0 1 1 1
v -3.609557E-16 0.2 -0.3 1 1 1
v -3.609557E-16 0.3 -0.3 1 1 1
v 0.3 0.3 0 1 1 1
v 0.212132 0.3 0.212132 1 1 1
v 0.212132 0.3 -0.212132 1 1 1
v -3.609557E-16 0.3 0.3 1 1 1
v -0.212132 0.3 0.212132 1 1 1
v 0.3 0.2 0 1 1 1
v 0.212132 0.2 -0.212132 1 1 1
v 0.212132 0.2 0.212132 1 1 1
v -3.609557E-16 0.2 0.3 1 1 1
v -0.212132 0.2 0.212132 1 1 1

vn -0.7071068 0 -0.7071068
vn -1 0 0
vn 0 0 -1
vn 0 1 0
vn 0 -1 0
vn 0.7071068 0 -0.7071068
vn 1 0 0
vn 0.7071068 0 0.7071068
vn 0 0 1
vn -0.7071068 0 0.7071068

vt 0.34375 0.025
vt 0.34375 0.225

usemtl colormap

f 3/1/2 2/2/1 1/1/1
f 2/2/1 3/1/2 4/2/2
f 2/2/1 5/1/3 1/1/1
f 5/1/3 2/2/1 6/2/3
f 9/2/4 8/2/4 7/2/4
f 8/2/4 9/2/4 6/2/4
f 8/2/4 6/2/4 10/2/4
f 10/2/4 6/2/4 2/2/4
f 10/2/4 2/2/4 11/2/4
f 11/2/4 2/2/4 4/2/4
f 14/1/5 13/1/5 12/1/5
f 13/1/5 14/1/5 15/1/5
f 13/1/5 15/1/5 5/1/5
f 5/1/5 15/1/5 16/1/5
f 5/1/5 16/1/5 1/1/5
f 1/1/5 16/1/5 3/1/5
f 6/2/3 13/1/6 5/1/3
f 13/1/6 6/2/3 9/2/6
f 8/2/8 12/1/7 7/2/7
f 12/1/7 8/2/8 14/1/8
f 8/2/8 15/1/9 14/1/8
f 15/1/9 8/2/8 10/2/9
f 10/2/9 16/1/10 15/1/9
f 16/1/10 10/2/9 11/2/10
f 7/2/7 13/1/6 9/2/6
f 13/1/6 7/2/7 12/1/7
f 16/1/10 4/2/2 3/1/2
f 4/2/2 16/1/10 11/2/10
f 19/1/2 18/2/1 17/1/1
f 18/2/1 19/1/2 20/2/2
f 18/2/1 21/1/3 17/1/1
f 21/1/3 18/2/1 22/2/3
f 25/2/4 24/2/4 23/2/4
f 24/2/4 25/2/4 22/2/4
f 24/2/4 22/2/4 26/2/4
f 26/2/4 22/2/4 18/2/4
f 26/2/4 18/2/4 27/2/4
f 27/2/4 18/2/4 20/2/4
f 30/1/5 29/1/5 28/1/5
f 29/1/5 30/1/5 31/1/5
f 29/1/5 31/1/5 21/1/5
f 21/1/5 31/1/5 32/1/5
f 21/1/5 32/1/5 17/1/5
f 17/1/5 32/1/5 19/1/5
f 22/2/3 29/1/6 21/1/3
f 29/1/6 22/2/3 25/2/6
f 24/2/8 28/1/7 23/2/7
f 28/1/7 24/2/8 30/1/8
f 24/2/8 31/1/9 30/1/8
f 31/1/9 24/2/8 26/2/9
f 26/2/9 32/1/10 31/1/9
f 32/1/10 26/2/9 27/2/10
f 23/2/7 29/1/6 25/2/6
f 29/1/6 23/2/7 28/1/7
f 32/1/10 20/2/2 19/1/2
f 20/2/2 32/1/10 27/2/10

g container-tall




usemtl colormap

f 3/1/2 2/2/1 1/1/1
f 2/2/1 3/1/2 4/2/2
f 2/2/1 5/1/3 1/1/1
f 5/1/3 2/2/1 6/2/3
f 9/2/4 8/2/4 7/2/4
f 8/2/4 9/2/4 6/2/4
f 8/2/4 6/2/4 10/2/4
f 10/2/4 6/2/4 2/2/4
f 10/2/4 2/2/4 11/2/4
f 11/2/4 2/2/4 4/2/4
f 14/1/5 13/1/5 12/1/5
f 13/1/5 14/1/5 15/1/5
f 13/1/5 15/1/5 5/1/5
f 5/1/5 15/1/5 16/1/5
f 5/1/5 16/1/5 1/1/5
f 1/1/5 16/1/5 3/1/5
f 6/2/3 13/1/6 5/1/3
f 13/1/6 6/2/3 9/2/6
f 8/2/8 12/1/7 7/2/7
f 12/1/7 8/2/8 14/1/8
f 8/2/8 15/1/9 14/1/8
f 15/1/9 8/2/8 10/2/9
f 10/2/9 16/1/10 15/1/9
f 16/1/10 10/2/9 11/2/10
f 7/2/7 13/1/6 9/2/6
f 13/1/6 7/2/7 12/1/7
f 16/1/10 4/2/2 3/1/2
f 4/2/2 16/1/10 11/2/10
f 19/1/2 18/2/1 17/1/1
f 18/2/1 19/1/2 20/2/2
f 18/2/1 21/1/3 17/1/1
f 21/1/3 18/2/1 22/2/3
f 25/2/4 24/2/4 23/2/4
f 24/2/4 25/2/4 22/2/4
f 24/2/4 22/2/4 26/2/4
f 26/2/4 22/2/4 18/2/4
f 26/2/4 18/2/4 27/2/4
f 27/2/4 18/2/4 20/2/4
f 30/1/5 29/1/5 28/1/5
f 29/1/5 30/1/5 31/1/5
f 29/1/5 31/1/5 21/1/5
f 21/1/5 31/1/5 32/1/5
f 21/1/5 32/1/5 17/1/5
f 17/1/5 32/1/5 19/1/5
f 22/2/3 29/1/6 21/1/3
f 29/1/6 22/2/3 25/2/6
f 24/2/8 28/1/7 23/2/7
f 28/1/7 24/2/8 30/1/8
f 24/2/8 31/1/9 30/1/8
f 31/1/9 24/2/8 26/2/9
f 26/2/9 32/1/10 31/1/9
f 32/1/10 26/2/9 27/2/10
f 23/2/7 29/1/6 25/2/6
f 29/1/6 23/2/7 28/1/7
f 32/1/10 20/2/2 19/1/2
f 20/2/2 32/1/10 27/2/10

g Group

v 0.1414213 0 0.1414213 1 1 1
v 0 0 0.2 1 1 1
v 0.1767767 0.1 0.1767767 1 1 1
v 0 0.1 0.25 1 1 1
v 0.1767767 0.8 0.1767767 1 1 1
v 0.25 0.1 0 1 1 1
v 0.25 0.8 0 1 1 1
v 0.1767767 0.1 -0.1767767 1 1 1
v 0.1767767 0.8 -0.1767767 1 1 1
v -0.1414213 0 -0.1414213 1 1 1
v 0 0 -0.2 1 1 1
v -0.1767767 0.1 -0.1767767 1 1 1
v 0 0.1 -0.25 1 1 1
v -0.1767767 0.8 -0.1767767 1 1 1
v 0 0.8 -0.25 1 1 1
v 0.1414213 0 -0.1414213 1 1 1
v 0.2 0 0 1 1 1
v -0.25 0.1 0 1 1 1
v -0.25 0.8 0 1 1 1
v -0.1767767 0.1 0.1767767 1 1 1
v -0.2 0 0 1 1 1
v -0.1414213 0 0.1414213 1 1 1
v -0.1767767 0.8 0.1767767 1 1 1
v 0 0.8 0.25 1 1 1
v 0.1414213 0.9 0.1414213 1 1 1
v 0 0.9 0.2 1 1 1
v -0.1414213 0.9 -0.1414213 1 1 1
v -0.2 0.9 0 1 1 1
v 0.1414213 0.9 -0.1414213 1 1 1
v 0.2 0.9 0 1 1 1
v 0 0.9 -0.2 1 1 1
v -0.1414213 0.9 0.1414213 1 1 1

vn 0.6324555 -0.4472136 0.6324555
vn 0 -0.4472136 0.8944272
vn -0.6324555 -0.4472136 -0.6324555
vn 0 -0.4472136 -0.8944272
vn 0.6324555 -0.4472136 -0.6324555
vn 0.8944272 -0.4472136 0
vn -0.8944272 -0.4472136 0
vn -0.6324555 -0.4472136 0.6324555
vn 0.6324555 0.4472136 0.6324555
vn 0 0.4472136 0.8944272
vn -0.6324555 0.4472136 -0.6324555
vn -0.8944272 0.4472136 0
vn 0.6324555 0.4472136 -0.6324555
vn 0.8944272 0.4472136 0
vn 0 0.4472136 -0.8944272
vn -0.6324555 0.4472136 0.6324555

vt 0.21875 0.275
vt 0.21875 0.2972222
vt 0.21875 0.4527778
vt 0.21875 0.475

usemtl colormap

f 35/4/11 34/3/12 33/3/11
f 34/3/12 35/4/11 36/4/12
f 38/4/7 37/5/8 35/4/8
f 37/5/8 38/4/7 39/5/7
f 40/4/6 39/5/7 38/4/7
f 39/5/7 40/4/6 41/5/6
f 44/4/13 43/3/14 42/3/13
f 43/3/14 44/4/13 45/4/14
f 46/5/1 45/4/3 44/4/1
f 45/4/3 46/5/1 47/5/3
f 47/5/3 40/4/6 45/4/3
f 40/4/6 47/5/3 41/5/6
f 38/4/16 48/3/15 40/4/15
f 48/3/15 38/4/16 49/3/16
f 45/4/14 48/3/15 43/3/14
f 48/3/15 45/4/14 40/4/15
f 50/4/2 46/5/1 44/4/1
f 46/5/1 50/4/2 51/5/2
f 53/3/17 52/4/18 50/4/17
f 52/4/18 53/3/17 54/3/18
f 36/4/12 54/3/18 34/3/12
f 54/3/18 36/4/12 52/4/18
f 52/4/10 51/5/2 50/4/2
f 51/5/2 52/4/10 55/5/10
f 56/5/9 52/4/10 36/4/9
f 52/4/10 56/5/9 55/5/10
f 42/3/13 50/4/17 44/4/13
f 50/4/17 42/3/13 53/3/17
f 37/5/8 36/4/9 35/4/8
f 36/4/9 37/5/8 56/5/9
f 35/4/11 49/3/16 38/4/16
f 49/3/16 35/4/11 33/3/11
f 57/6/19 56/5/20 37/5/19
f 56/5/20 57/6/19 58/6/20
f 51/5/22 59/6/21 46/5/21
f 59/6/21 51/5/22 60/6/22
f 61/6/23 39/5/24 41/5/23
f 39/5/24 61/6/23 62/6/24
f 61/6/4 57/6/4 62/6/4
f 57/6/4 61/6/4 63/6/4
f 57/6/4 63/6/4 58/6/4
f 58/6/4 63/6/4 59/6/4
f 58/6/4 59/6/4 64/6/4
f 64/6/4 59/6/4 60/6/4
f 59/6/21 47/5/25 46/5/21
f 47/5/25 59/6/21 63/6/25
f 55/5/26 60/6/22 51/5/22
f 60/6/22 55/5/26 64/6/26
f 62/6/24 37/5/19 39/5/24
f 37/5/19 62/6/24 57/6/19
f 63/6/25 41/5/23 47/5/25
f 41/5/23 63/6/25 61/6/23
f 58/6/20 55/5/26 56/5/20
f 55/5/26 58/6/20 64/6/26
f 33/3/5 48/3/5 49/3/5
f 48/3/5 33/3/5 34/3/5
f 48/3/5 34/3/5 43/3/5
f 43/3/5 34/3/5 54/3/5
f 43/3/5 54/3/5 42/3/5
f 42/3/5 54/3/5 53/3/5

