# Created by Kenney (www.kenney.nl)

mtllib display-wall.mtl

g display-wall

v 0.1292893 0.05883484 0.01567968 1 1 1
v 0.1292893 0.04902903 0.06470871 1 1 1
v -0.1292893 0.05883484 0.01567968 1 1 1
v -0.1292893 0.04902903 0.06470871 1 1 1
v 0.1292893 0.3726207 0.2314074 1 1 1
v 0.1292893 0.4020381 0.08432032 1 1 1
v -0.1292893 0.3726207 0.2314074 1 1 1
v -0.1292893 0.4020381 0.08432032 1 1 1
v -0.15 0.3817296 0.08025862 1 1 1
v -0.15 0.3523122 0.2273457 1 1 1
v 0.15 0.07914333 0.01974138 1 1 1
v 0.15 0.3817296 0.08025862 1 1 1
v 0.15 0.06933752 0.06877041 1 1 1
v 0.15 0.2206306 0.09902903 1 1 1
v 0.15 0.3523122 0.2273457 1 1 1
v 0.15 0.2868198 0.2142473 1 1 1
v -0.15 0.07914333 0.01974138 1 1 1
v -0.15 0.06933752 0.06877041 1 1 1
v -0.15 0.2206306 0.09902903 1 1 1
v -0.15 0.2868198 0.2142473 1 1 1
v 0.15 0.4608729 0.0450971 1 1 1
v 0.15 0.4216497 0.2412132 1 1 1
v -0.15 0.4608729 0.0450971 1 1 1
v -0.15 0.4216497 0.2412132 1 1 1
v 0.2 0.4118439 0.03529129 1 1 1
v 0.2 0.3726207 0.2314074 1 1 1
v -0.2 0.06864064 -0.03334935 1 1 1
v -0.2 0.4118439 0.03529129 1 1 1
v -0.2 0.04902903 0.06470871 1 1 1
v -0.2 0.2206306 0.09902903 1 1 1
v -0.2 0.3726207 0.2314074 1 1 1
v -0.2 0.2868198 0.2142473 1 1 1
v -0.15 0.01961161 -0.04315517 1 1 1
v -0.15 0 0.0549029 1 1 1
v 0.15 0 0.0549029 1 1 1
v 0.15 0.01961161 -0.04315517 1 1 1
v 0.2 0.06864064 -0.03334935 1 1 1
v 0.2 0.04902903 0.06470871 1 1 1
v 0.2 0.2206306 0.09902903 1 1 1
v 0.2 0.2868198 0.2142473 1 1 1
v 0.05 0.01961161 -0.04315516 1 1 1
v 0.05 0.01961161 -0.1431552 1 1 1
v -0.05 0.01961161 -0.04315516 1 1 1
v -0.05 0.01961161 -0.1431552 1 1 1
v -0.05 0.4118439 -0.1431552 1 1 1
v -0.05 0.4118439 0.03529129 1 1 1
v 0.05 0.4118439 -0.1431552 1 1 1
v 0.05 0.4118439 0.03529129 1 1 1

vn -0.3826834 0.9059384 0.1811877
vn 0.3826834 0.9059384 0.1811877
vn -0.3826834 -0.9059384 -0.1811877
vn 0.3826834 -0.9059384 -0.1811877
vn 0.9238795 -0.3752519 -0.07505039
vn -0.9238795 0.3752519 0.07505039
vn -0.9238795 -0.3752519 -0.07505039
vn -1 0 0
vn 0.9238795 0.3752519 0.07505039
vn 1 0 0
vn 0 0.1961161 -0.9805807
vn 0 -0.1961161 0.9805807
vn 0 -0.5837817 0.8119106
vn 0 -1 0
vn 0 1 0
vn 0 0 -1

vt 0.09375 0.05053191
vt 0.09375 0.0462766
vt 0.09375 0.1867021
vt 0.09375 0.1994681
vt 0.09375 0.190655
vt 0.09375 0.1778891
vt 0.09375 0.05934497
vt 0.09375 0.05508965
vt 0.09375 0.1207447
vt 0.09375 0.1494681
vt 0.21875 0.225
vt 0.21875 0.2079787
vt 0.21875 0.2037234
vt 0.21875 0.1867021
vt 0.21875 0.05478723
vt 0.21875 0.0462766
vt 0.21875 0.1207447
vt 0.21875 0.1494681
vt 0.21875 0.03351064
vt 0.21875 0.025
vt 0.21875 0.05508965
vt 0.21875 0.1778891
vt 0.21875 0.3005319
vt 0.21875 0.309345
vt 0.21875 0.440655
vt 0.21875 0.4494681
vt 0.34375 0.025
vt 0.34375 0.225

usemtl colormap

f 3/1/2 2/2/1 1/1/1
f 2/2/1 3/1/2 4/2/2
f 7/3/4 6/4/3 5/3/3
f 6/4/3 7/3/4 8/4/4
f 8/4/4 10/6/5 9/5/5
f 10/6/5 8/4/4 7/3/4
f 13/8/6 12/5/7 11/7/6
f 12/5/7 13/8/6 14/9/8
f 12/5/7 14/9/8 15/6/7
f 15/6/7 14/9/8 16/10/8
f 15/6/7 6/4/3 12/5/7
f 6/4/3 15/6/7 5/3/3
f 2/2/1 11/7/6 1/1/1
f 11/7/6 2/2/1 13/8/6
f 17/7/9 4/2/2 3/1/2
f 4/2/2 17/7/9 18/8/9
f 9/5/5 18/8/9 17/7/9
f 18/8/9 9/5/5 19/9/10
f 19/9/10 9/5/5 10/6/5
f 19/9/10 10/6/5 20/10/10
f 23/11/1 22/12/2 21/11/2
f 22/12/2 23/11/1 24/12/1
f 21/11/2 26/14/9 25/13/9
f 26/14/9 21/11/2 22/12/2
f 29/16/7 28/13/6 27/15/7
f 28/13/6 29/16/7 30/17/8
f 28/13/6 30/17/8 31/14/6
f 31/14/6 30/17/8 32/18/8
f 34/20/3 27/15/7 33/19/3
f 27/15/7 34/20/3 29/16/7
f 34/20/3 36/19/4 35/20/4
f 36/19/4 34/20/3 33/19/3
f 31/14/6 23/11/1 28/13/6
f 23/11/1 31/14/6 24/12/1
f 37/15/5 35/20/4 36/19/4
f 35/20/4 37/15/5 38/16/5
f 27/15/11 36/19/11 33/19/11
f 36/19/11 27/15/11 37/15/11
f 37/15/11 27/15/11 28/13/11
f 37/15/11 28/13/11 25/13/11
f 25/13/11 28/13/11 23/11/11
f 25/13/11 23/11/11 21/11/11
f 38/16/12 34/20/12 35/20/12
f 34/20/12 38/16/12 2/16/12
f 2/16/12 38/16/12 13/21/12
f 13/21/12 38/16/12 39/17/13
f 13/21/12 39/17/13 14/17/13
f 4/16/12 34/20/12 2/16/12
f 34/20/12 4/16/12 29/16/12
f 29/16/12 4/16/12 18/21/12
f 29/16/12 18/21/12 30/17/13
f 30/17/13 18/21/12 19/17/13
f 26/14/12 16/18/13 40/18/13
f 16/18/13 26/14/12 15/22/12
f 15/22/12 26/14/12 5/14/12
f 5/14/12 26/14/12 7/14/12
f 31/14/12 7/14/12 26/14/12
f 31/14/12 26/14/12 22/12/12
f 31/14/12 22/12/12 24/12/12
f 31/14/12 10/22/12 7/14/12
f 32/18/13 10/22/12 31/14/12
f 10/22/12 32/18/13 20/18/13
f 25/13/9 38/16/5 37/15/5
f 38/16/5 25/13/9 39/17/10
f 39/17/10 25/13/9 26/14/9
f 39/17/10 26/14/9 40/18/10
f 32/18/13 19/17/13 20/18/13
f 19/17/13 32/18/13 30/17/13
f 16/18/13 39/17/13 40/18/13
f 39/17/13 16/18/13 14/17/13
f 11/24/12 3/23/12 1/23/12
f 3/23/12 11/24/12 17/24/12
f 17/24/12 11/24/12 12/25/12
f 17/24/12 12/25/12 9/25/12
f 9/25/12 12/25/12 6/26/12
f 9/25/12 6/26/12 8/26/12
f 43/27/14 42/27/14 41/27/14
f 42/27/14 43/27/14 44/27/14
f 43/27/8 45/28/8 44/27/8
f 45/28/8 43/27/8 46/28/8
f 45/28/15 48/28/15 47/28/15
f 48/28/15 45/28/15 46/28/15
f 45/28/16 42/27/16 44/27/16
f 42/27/16 45/28/16 47/28/16
f 48/28/10 42/27/10 47/28/10
f 42/27/10 48/28/10 41/27/10

g display-wall




usemtl colormap

f 3/1/2 2/2/1 1/1/1
f 2/2/1 3/1/2 4/2/2
f 7/3/4 6/4/3 5/3/3
f 6/4/3 7/3/4 8/4/4
f 8/4/4 10/6/5 9/5/5
f 10/6/5 8/4/4 7/3/4
f 13/8/6 12/5/7 11/7/6
f 12/5/7 13/8/6 14/9/8
f 12/5/7 14/9/8 15/6/7
f 15/6/7 14/9/8 16/10/8
f 15/6/7 6/4/3 12/5/7
f 6/4/3 15/6/7 5/3/3
f 2/2/1 11/7/6 1/1/1
f 11/7/6 2/2/1 13/8/6
f 17/7/9 4/2/2 3/1/2
f 4/2/2 17/7/9 18/8/9
f 9/5/5 18/8/9 17/7/9
f 18/8/9 9/5/5 19/9/10
f 19/9/10 9/5/5 10/6/5
f 19/9/10 10/6/5 20/10/10
f 23/11/1 22/12/2 21/11/2
f 22/12/2 23/11/1 24/12/1
f 21/11/2 26/14/9 25/13/9
f 26/14/9 21/11/2 22/12/2
f 29/16/7 28/13/6 27/15/7
f 28/13/6 29/16/7 30/17/8
f 28/13/6 30/17/8 31/14/6
f 31/14/6 30/17/8 32/18/8
f 34/20/3 27/15/7 33/19/3
f 27/15/7 34/20/3 29/16/7
f 34/20/3 36/19/4 35/20/4
f 36/19/4 34/20/3 33/19/3
f 31/14/6 23/11/1 28/13/6
f 23/11/1 31/14/6 24/12/1
f 37/15/5 35/20/4 36/19/4
f 35/20/4 37/15/5 38/16/5
f 27/15/11 36/19/11 33/19/11
f 36/19/11 27/15/11 37/15/11
f 37/15/11 27/15/11 28/13/11
f 37/15/11 28/13/11 25/13/11
f 25/13/11 28/13/11 23/11/11
f 25/13/11 23/11/11 21/11/11
f 38/16/12 34/20/12 35/20/12
f 34/20/12 38/16/12 2/16/12
f 2/16/12 38/16/12 13/21/12
f 13/21/12 38/16/12 39/17/13
f 13/21/12 39/17/13 14/17/13
f 4/16/12 34/20/12 2/16/12
f 34/20/12 4/16/12 29/16/12
f 29/16/12 4/16/12 18/21/12
f 29/16/12 18/21/12 30/17/13
f 30/17/13 18/21/12 19/17/13
f 26/14/12 16/18/13 40/18/13
f 16/18/13 26/14/12 15/22/12
f 15/22/12 26/14/12 5/14/12
f 5/14/12 26/14/12 7/14/12
f 31/14/12 7/14/12 26/14/12
f 31/14/12 26/14/12 22/12/12
f 31/14/12 22/12/12 24/12/12
f 31/14/12 10/22/12 7/14/12
f 32/18/13 10/22/12 31/14/12
f 10/22/12 32/18/13 20/18/13
f 25/13/9 38/16/5 37/15/5
f 38/16/5 25/13/9 39/17/10
f 39/17/10 25/13/9 26/14/9
f 39/17/10 26/14/9 40/18/10
f 32/18/13 19/17/13 20/18/13
f 19/17/13 32/18/13 30/17/13
f 16/18/13 39/17/13 40/18/13
f 39/17/13 16/18/13 14/17/13
f 11/24/12 3/23/12 1/23/12
f 3/23/12 11/24/12 17/24/12
f 17/24/12 11/24/12 12/25/12
f 17/24/12 12/25/12 9/25/12
f 9/25/12 12/25/12 6/26/12
f 9/25/12 6/26/12 8/26/12
f 43/27/14 42/27/14 41/27/14
f 42/27/14 43/27/14 44/27/14
f 43/27/8 45/28/8 44/27/8
f 45/28/8 43/27/8 46/28/8
f 45/28/15 48/28/15 47/28/15
f 48/28/15 45/28/15 46/28/15
f 45/28/16 42/27/16 44/27/16
f 42/27/16 45/28/16 47/28/16
f 48/28/10 42/27/10 47/28/10
f 42/27/10 48/28/10 41/27/10

