# Created by Kenney (www.kenney.nl)

mtllib door-single-half.mtl

g door-single-half

v 0.2 0.7 -0.05 1 1 1
v 0.2 0 -0.05 1 1 1
v 0.2 0.7 0.05 1 1 1
v 0.2 0 0.05 1 1 1
v -0.2 0.7 -0.05 1 1 1
v -0.2 0.7 0.05 1 1 1
v -0.2 0 -0.05 1 1 1
v -0.2 0 0.05 1 1 1
v -0.1 0.6 -0.05 1 1 1
v -0.1 0.35 -0.05 1 1 1
v 0.1 0.6 -0.05 1 1 1
v 0.1 0.35 -0.05 1 1 1
v 0.1 0.6 0.05 1 1 1
v 0.1 0.1 0.05 1 1 1
v -0.1 0.6 0.05 1 1 1
v -0.1 0.1 0.05 1 1 1
v 0.1 0.1 0 1 1 1
v 0.1 0.35 0 1 1 1
v -0.1 0.35 0 1 1 1
v -0.1 0.1 0 1 1 1

vn 1 0 0
vn 0 1 0
vn -1 0 0
vn 0 -1 0
vn 0 0 -1
vn 0 0 1
vn -0.7071068 0.7071068 0
vn -0.7071068 -0.7071068 0
vn 0.7071068 -0.7071068 0
vn 0.7071068 0.7071068 0
vn 0 0.7071068 0.7071068

vt 0.34375 0.225
vt 0.34375 0.025
vt 0.34375 0.1964286
vt 0.34375 0.125
vt 0.34375 0.05357143
vt 0.21875 0.05357143
vt 0.21875 0.125
vt 0.21875 0.1964286
vt 0.21875 0.3035714
vt 0.21875 0.375

usemtl colormap

f 3/1/1 2/2/1 1/1/1
f 2/2/1 3/1/1 4/2/1
f 5/1/2 3/1/2 1/1/2
f 3/1/2 5/1/2 6/1/2
f 8/2/3 5/1/3 7/2/3
f 5/1/3 8/2/3 6/1/3
f 8/2/4 2/2/4 4/2/4
f 2/2/4 8/2/4 7/2/4
f 10/4/5 5/1/5 9/3/5
f 9/3/5 5/1/5 11/3/5
f 10/4/5 7/2/5 5/1/5
f 1/1/5 11/3/5 5/1/5
f 7/2/5 10/4/5 2/2/5
f 1/1/5 12/4/5 11/3/5
f 2/2/5 12/4/5 1/1/5
f 12/4/5 2/2/5 10/4/5
f 14/5/6 3/1/6 13/3/6
f 13/3/6 3/1/6 15/3/6
f 14/5/6 4/2/6 3/1/6
f 6/1/6 15/3/6 3/1/6
f 4/2/6 14/5/6 8/2/6
f 6/1/6 16/5/6 15/3/6
f 8/2/6 16/5/6 6/1/6
f 16/5/6 8/2/6 14/5/6
f 14/6/7 18/7/3 17/6/7
f 13/8/8 18/7/3 14/6/7
f 11/8/8 18/7/3 13/8/8
f 18/7/3 11/8/8 12/7/3
f 15/8/9 11/8/8 13/8/8
f 11/8/8 15/8/9 9/8/9
f 15/8/9 10/7/1 9/8/9
f 10/7/1 15/8/9 19/7/1
f 19/7/1 15/8/9 20/6/10
f 20/6/10 15/8/9 16/6/10
f 20/6/10 14/6/7 17/6/7
f 14/6/7 20/6/10 16/6/10
f 18/10/11 20/9/6 17/9/6
f 20/9/6 18/10/11 19/10/11
f 10/10/2 18/10/11 12/10/2
f 18/10/11 10/10/2 19/10/11

g door-single-half




usemtl colormap

f 3/1/1 2/2/1 1/1/1
f 2/2/1 3/1/1 4/2/1
f 5/1/2 3/1/2 1/1/2
f 3/1/2 5/1/2 6/1/2
f 8/2/3 5/1/3 7/2/3
f 5/1/3 8/2/3 6/1/3
f 8/2/4 2/2/4 4/2/4
f 2/2/4 8/2/4 7/2/4
f 10/4/5 5/1/5 9/3/5
f 9/3/5 5/1/5 11/3/5
f 10/4/5 7/2/5 5/1/5
f 1/1/5 11/3/5 5/1/5
f 7/2/5 10/4/5 2/2/5
f 1/1/5 12/4/5 11/3/5
f 2/2/5 12/4/5 1/1/5
f 12/4/5 2/2/5 10/4/5
f 14/5/6 3/1/6 13/3/6
f 13/3/6 3/1/6 15/3/6
f 14/5/6 4/2/6 3/1/6
f 6/1/6 15/3/6 3/1/6
f 4/2/6 14/5/6 8/2/6
f 6/1/6 16/5/6 15/3/6
f 8/2/6 16/5/6 6/1/6
f 16/5/6 8/2/6 14/5/6
f 14/6/7 18/7/3 17/6/7
f 13/8/8 18/7/3 14/6/7
f 11/8/8 18/7/3 13/8/8
f 18/7/3 11/8/8 12/7/3
f 15/8/9 11/8/8 13/8/8
f 11/8/8 15/8/9 9/8/9
f 15/8/9 10/7/1 9/8/9
f 10/7/1 15/8/9 19/7/1
f 19/7/1 15/8/9 20/6/10
f 20/6/10 15/8/9 16/6/10
f 20/6/10 14/6/7 17/6/7
f 14/6/7 20/6/10 16/6/10
f 18/10/11 20/9/6 17/9/6
f 20/9/6 18/10/11 19/10/11
f 10/10/2 18/10/11 12/10/2
f 18/10/11 10/10/2 19/10/11

