# Created by Kenney (www.kenney.nl)

mtllib door-double-closed.mtl

g door-double-closed

v -0.3 0 -0.05 1 1 1
v -0.3 0.7 -0.05 1 1 1
v -0.3 0 0.05 1 1 1
v -0.3 0.7 0.05 1 1 1
v 0.3 0.7 -0.05 1 1 1
v 0.3 0 -0.05 1 1 1
v 0.3 0.7 0.05 1 1 1
v 0.3 0 0.05 1 1 1
v -0.2 0.35 -0.05 1 1 1
v 0.2 0.35 -0.05 1 1 1
v -0.2 0.6 -0.05 1 1 1
v 0.2 0.6 -0.05 1 1 1
v 0.2 0.6 0.05 1 1 1
v 0.2 0.1 0.05 1 1 1
v -0.2 0.6 0.05 1 1 1
v -0.2 0.1 0.05 1 1 1
v 0.2 0.1 0 1 1 1
v 0.2 0.35 0 1 1 1
v -0.2 0.1 0 1 1 1
v -0.2 0.35 0 1 1 1

vn -1 0 0
vn 1 0 0
vn 0 1 0
vn 0 -1 0
vn 0 0 -1
vn 0 0 1
vn -0.7071068 0.7071068 0
vn -0.7071068 -0.7071068 0
vn 0.7071068 0.7071068 0
vn 0.7071068 -0.7071068 0
vn 0 0.7071068 0.7071068

vt 0.34375 0.025
vt 0.34375 0.225
vt 0.34375 0.125
vt 0.34375 0.1964286
vt 0.34375 0.05357143
vt 0.21875 0.05357143
vt 0.21875 0.125
vt 0.21875 0.1964286
vt 0.21875 0.375
vt 0.21875 0.3035714

usemtl colormap

f 3/1/1 2/2/1 1/1/1
f 2/2/1 3/1/1 4/2/1
f 7/2/2 6/1/2 5/2/2
f 6/1/2 7/2/2 8/1/2
f 2/2/3 7/2/3 5/2/3
f 7/2/3 2/2/3 4/2/3
f 3/1/4 6/1/4 8/1/4
f 6/1/4 3/1/4 1/1/4
f 1/1/5 9/3/5 6/1/5
f 9/3/5 1/1/5 2/2/5
f 10/3/5 6/1/5 9/3/5
f 6/1/5 10/3/5 5/2/5
f 9/3/5 2/2/5 11/4/5
f 11/4/5 10/3/5 9/3/5
f 5/2/5 10/3/5 12/4/5
f 5/2/5 12/4/5 2/2/5
f 11/4/5 2/2/5 12/4/5
f 10/3/5 11/4/5 12/4/5
f 14/5/6 7/2/6 13/4/6
f 13/4/6 7/2/6 15/4/6
f 14/5/6 8/1/6 7/2/6
f 4/2/6 15/4/6 7/2/6
f 8/1/6 14/5/6 3/1/6
f 4/2/6 16/5/6 15/4/6
f 3/1/6 16/5/6 4/2/6
f 16/5/6 3/1/6 14/5/6
f 14/6/7 18/7/1 17/6/7
f 13/8/8 18/7/1 14/6/7
f 12/8/8 18/7/1 13/8/8
f 18/7/1 12/8/8 10/7/1
f 19/6/9 14/6/7 17/6/7
f 14/6/7 19/6/9 16/6/9
f 15/8/10 12/8/8 13/8/8
f 12/8/8 15/8/10 11/8/10
f 15/8/10 9/7/2 11/8/10
f 9/7/2 15/8/10 20/7/2
f 20/7/2 15/8/10 19/6/9
f 19/6/9 15/8/10 16/6/9
f 9/7/6 10/7/6 11/8/6
f 12/8/6 11/8/6 10/7/6
f 9/9/3 18/9/11 10/9/3
f 18/9/11 9/9/3 20/9/11
f 18/9/11 19/10/6 17/10/6
f 19/10/6 18/9/11 20/9/11

g door-double-closed




usemtl colormap

f 3/1/1 2/2/1 1/1/1
f 2/2/1 3/1/1 4/2/1
f 7/2/2 6/1/2 5/2/2
f 6/1/2 7/2/2 8/1/2
f 2/2/3 7/2/3 5/2/3
f 7/2/3 2/2/3 4/2/3
f 3/1/4 6/1/4 8/1/4
f 6/1/4 3/1/4 1/1/4
f 1/1/5 9/3/5 6/1/5
f 9/3/5 1/1/5 2/2/5
f 10/3/5 6/1/5 9/3/5
f 6/1/5 10/3/5 5/2/5
f 9/3/5 2/2/5 11/4/5
f 11/4/5 10/3/5 9/3/5
f 5/2/5 10/3/5 12/4/5
f 5/2/5 12/4/5 2/2/5
f 11/4/5 2/2/5 12/4/5
f 10/3/5 11/4/5 12/4/5
f 14/5/6 7/2/6 13/4/6
f 13/4/6 7/2/6 15/4/6
f 14/5/6 8/1/6 7/2/6
f 4/2/6 15/4/6 7/2/6
f 8/1/6 14/5/6 3/1/6
f 4/2/6 16/5/6 15/4/6
f 3/1/6 16/5/6 4/2/6
f 16/5/6 3/1/6 14/5/6
f 14/6/7 18/7/1 17/6/7
f 13/8/8 18/7/1 14/6/7
f 12/8/8 18/7/1 13/8/8
f 18/7/1 12/8/8 10/7/1
f 19/6/9 14/6/7 17/6/7
f 14/6/7 19/6/9 16/6/9
f 15/8/10 12/8/8 13/8/8
f 12/8/8 15/8/10 11/8/10
f 15/8/10 9/7/2 11/8/10
f 9/7/2 15/8/10 20/7/2
f 20/7/2 15/8/10 19/6/9
f 19/6/9 15/8/10 16/6/9
f 9/7/6 10/7/6 11/8/6
f 12/8/6 11/8/6 10/7/6
f 9/9/3 18/9/11 10/9/3
f 18/9/11 9/9/3 20/9/11
f 18/9/11 19/10/6 17/10/6
f 19/10/6 18/9/11 20/9/11

g Group

v 0.2 0.2 0.05 1 1 1
v 0.1 0.3 0.05 1 1 1
v 0.2 0.5 0.05 1 1 1
v 0.1 0.4 0.05 1 1 1
v 0.2 0.2 -0.05 1 1 1
v 0.1 0.3 -0.05 1 1 1
v 0.1 0.4 -0.05 1 1 1
v 0.2 0.5 -0.05 1 1 1

vn -0.9238795 -0.3826834 0
vn -0.9238795 0.3826834 0

vt 0.34375 0.09166666
vt 0.34375 0.1583333

usemtl colormap

f 23/2/6 22/11/6 21/1/6
f 22/11/6 23/2/6 24/12/6
f 22/11/12 25/1/8 21/1/8
f 25/1/8 22/11/12 26/11/12
f 22/11/12 27/12/13 26/11/12
f 27/12/13 22/11/12 24/12/13
f 27/12/13 23/2/7 28/2/7
f 23/2/7 27/12/13 24/12/13

