# Created by Kenney (www.kenney.nl)

mtllib floor.mtl

g floor

v 0.5 0 0.5 1 1 1
v 0.5 0 -0.5 1 1 1
v -0.5 0 0.5 1 1 1
v -0.5 0 -0.5 1 1 1
v -0.5 0.3 -0.5 1 1 1
v -0.5 0.3 0.5 1 1 1
v 0.5 0.3 0.5 1 1 1
v 0.5 0.3 -0.5 1 1 1

vn 0 -1 0
vn -1 0 0
vn 0 0 1
vn 1 0 0
vn 0 0 -1
vn 0 1 0

vt 0.21875 0.025
vt 0.21875 0.225
vt 0.34375 0.225

usemtl colormap

f 3/1/1 2/1/1 1/1/1
f 2/1/1 3/1/1 4/1/1
f 3/1/2 5/2/2 4/1/2
f 5/2/2 3/1/2 6/2/2
f 7/2/3 3/1/3 1/1/3
f 3/1/3 7/2/3 6/2/3
f 7/2/4 2/1/4 8/2/4
f 2/1/4 7/2/4 1/1/4
f 5/2/5 2/1/5 4/1/5
f 2/1/5 5/2/5 8/2/5
f 5/3/6 7/3/6 8/3/6
f 7/3/6 5/3/6 6/3/6

g floor




usemtl colormap

f 3/1/1 2/1/1 1/1/1
f 2/1/1 3/1/1 4/1/1
f 3/1/2 5/2/2 4/1/2
f 5/2/2 3/1/2 6/2/2
f 7/2/3 3/1/3 1/1/3
f 3/1/3 7/2/3 6/2/3
f 7/2/4 2/1/4 8/2/4
f 2/1/4 7/2/4 1/1/4
f 5/2/5 2/1/5 4/1/5
f 2/1/5 5/2/5 8/2/5
f 5/3/6 7/3/6 8/3/6
f 7/3/6 5/3/6 6/3/6

