# Created by Kenney (www.kenney.nl)

mtllib floor-detail.mtl

g floor-detail

v 0.5 0 0.5 1 1 1
v 0.5 0 -0.5 1 1 1
v -0.5 0 0.5 1 1 1
v -0.5 0 -0.5 1 1 1
v -0.5 0.3 -0.5 1 1 1
v -0.5 0.3 0.5 1 1 1
v 0.5 0.3 0.5 1 1 1
v 0.5 0.3 -0.5 1 1 1
v -0.2 0.3 0.4 1 1 1
v 0.4 0.3 0.4 1 1 1
v -0.4 0.3 0.2 1 1 1
v 0.4 0.3 -0.2 1 1 1
v 0.2 0.3 -0.4 1 1 1
v -0.4 0.3 -0.4 1 1 1
v -0.3 0.325 -0.35 1 1 1
v -0.3 0.325 -0.3 1 1 1
v -0.35 0.325 -0.35 1 1 1
v -0.35 0.325 -0.3 1 1 1
v -0.35 0.3 -0.35 1 1 1
v -0.35 0.3 -0.3 1 1 1
v -0.3 0.3 -0.3 1 1 1
v -0.3 0.3 -0.35 1 1 1
v 0.35 0.325 0.3 1 1 1
v 0.35 0.325 0.35 1 1 1
v 0.3 0.325 0.3 1 1 1
v 0.3 0.325 0.35 1 1 1
v 0.3 0.3 0.3 1 1 1
v 0.3 0.3 0.35 1 1 1
v 0.35 0.3 0.35 1 1 1
v 0.35 0.3 0.3 1 1 1

vn 0 -1 0
vn -1 0 0
vn 0 0 1
vn 1 0 0
vn 0 0 -1
vn 0 1 0
vn -0.7071068 0 -0.7071068
vn -0.7071068 0 0.7071068
vn 0.7071068 0 0.7071068
vn 0.7071068 0 -0.7071068

vt 0.21875 0.025
vt 0.21875 0.225
vt 0.34375 0.225
vt 0.34375 0.025
vt 0.34375 0.125

usemtl colormap

f 3/1/1 2/1/1 1/1/1
f 2/1/1 3/1/1 4/1/1
f 3/1/2 5/2/2 4/1/2
f 5/2/2 3/1/2 6/2/2
f 7/2/3 3/1/3 1/1/3
f 3/1/3 7/2/3 6/2/3
f 7/2/4 2/1/4 8/2/4
f 2/1/4 7/2/4 1/1/4
f 5/2/5 2/1/5 4/1/5
f 2/1/5 5/2/5 8/2/5
f 6/3/6 10/3/6 9/3/6
f 6/3/6 9/3/6 11/3/6
f 7/3/6 10/3/6 6/3/6
f 10/3/6 7/3/6 12/3/6
f 8/3/6 12/3/6 7/3/6
f 12/3/6 8/3/6 13/3/6
f 6/3/6 11/3/6 5/3/6
f 13/3/6 8/3/6 5/3/6
f 14/3/6 5/3/6 11/3/6
f 13/3/6 5/3/6 14/3/6
f 17/3/6 16/3/6 15/3/6
f 16/3/6 17/3/6 18/3/6
f 20/4/8 17/3/7 19/4/7
f 17/3/7 20/4/8 18/3/8
f 16/3/9 20/4/8 21/4/9
f 20/4/8 16/3/9 18/3/8
f 16/3/9 22/4/10 15/3/10
f 22/4/10 16/3/9 21/4/9
f 17/3/7 22/4/10 19/4/7
f 22/4/10 17/3/7 15/3/10
f 25/3/6 24/3/6 23/3/6
f 24/3/6 25/3/6 26/3/6
f 28/4/8 25/3/7 27/4/7
f 25/3/7 28/4/8 26/3/8
f 24/3/9 28/4/8 29/4/9
f 28/4/8 24/3/9 26/3/8
f 24/3/9 30/4/10 23/3/10
f 30/4/10 24/3/9 29/4/9
f 25/3/7 30/4/10 27/4/7
f 30/4/10 25/3/7 23/3/10
f 13/5/6 10/5/6 12/5/6
f 10/5/6 13/5/6 9/5/6
f 9/5/6 13/5/6 14/5/6
f 9/5/6 14/5/6 11/5/6

g floor-detail




usemtl colormap

f 3/1/1 2/1/1 1/1/1
f 2/1/1 3/1/1 4/1/1
f 3/1/2 5/2/2 4/1/2
f 5/2/2 3/1/2 6/2/2
f 7/2/3 3/1/3 1/1/3
f 3/1/3 7/2/3 6/2/3
f 7/2/4 2/1/4 8/2/4
f 2/1/4 7/2/4 1/1/4
f 5/2/5 2/1/5 4/1/5
f 2/1/5 5/2/5 8/2/5
f 6/3/6 10/3/6 9/3/6
f 6/3/6 9/3/6 11/3/6
f 7/3/6 10/3/6 6/3/6
f 10/3/6 7/3/6 12/3/6
f 8/3/6 12/3/6 7/3/6
f 12/3/6 8/3/6 13/3/6
f 6/3/6 11/3/6 5/3/6
f 13/3/6 8/3/6 5/3/6
f 14/3/6 5/3/6 11/3/6
f 13/3/6 5/3/6 14/3/6
f 17/3/6 16/3/6 15/3/6
f 16/3/6 17/3/6 18/3/6
f 20/4/8 17/3/7 19/4/7
f 17/3/7 20/4/8 18/3/8
f 16/3/9 20/4/8 21/4/9
f 20/4/8 16/3/9 18/3/8
f 16/3/9 22/4/10 15/3/10
f 22/4/10 16/3/9 21/4/9
f 17/3/7 22/4/10 19/4/7
f 22/4/10 17/3/7 15/3/10
f 25/3/6 24/3/6 23/3/6
f 24/3/6 25/3/6 26/3/6
f 28/4/8 25/3/7 27/4/7
f 25/3/7 28/4/8 26/3/8
f 24/3/9 28/4/8 29/4/9
f 28/4/8 24/3/9 26/3/8
f 24/3/9 30/4/10 23/3/10
f 30/4/10 24/3/9 29/4/9
f 25/3/7 30/4/10 27/4/7
f 30/4/10 25/3/7 23/3/10
f 13/5/6 10/5/6 12/5/6
f 10/5/6 13/5/6 9/5/6
f 9/5/6 13/5/6 14/5/6
f 9/5/6 14/5/6 11/5/6

