# Created by Kenney (www.kenney.nl)

mtllib floor-panel-straight.mtl

g floor-panel-straight

v 0.5 0.3 -0.5 1 1 1
v 0.5 0.3 -0.4 1 1 1
v -0.5 0.3 -0.5 1 1 1
v -0.5 0.3 -0.4 1 1 1
v 0.5 0.3 0.4 1 1 1
v 0.5 0.3 0.5 1 1 1
v -0.5 0.3 0.4 1 1 1
v -0.5 0.3 0.5 1 1 1
v -0.025 0.25 -0.25 1 1 1
v -0.5 0.25 -0.3 1 1 1
v 0.025 0.25 -0.25 1 1 1
v -0.025 0.25 -0.2 1 1 1
v 0.5 0.25 -0.3 1 1 1
v 0.5 0.25 0.3 1 1 1
v 0.025 0.25 0.25 1 1 1
v 0.025 0.25 -0.2 1 1 1
v -0.5 0.25 0.3 1 1 1
v 0.025 0.25 0.2 1 1 1
v -0.025 0.25 0.25 1 1 1
v -0.025 0.25 0.2 1 1 1
v 0.025 0.275 0.2 1 1 1
v 0.025 0.275 0.25 1 1 1
v -0.025 0.275 0.2 1 1 1
v -0.025 0.275 0.25 1 1 1
v -0.025 0.25 0.2 1 1 1
v 0.025 0.25 0.2 1 1 1
v 0.025 0.275 -0.25 1 1 1
v 0.025 0.275 -0.2 1 1 1
v -0.025 0.275 -0.25 1 1 1
v -0.025 0.275 -0.2 1 1 1
v -0.025 0.25 -0.2 1 1 1
v 0.025 0.25 -0.2 1 1 1
v 0.5 0 -0.5 1 1 1
v 0.5 0 0.5 1 1 1
v -0.5 0 -0.5 1 1 1
v -0.5 0 0.5 1 1 1

vn 0 1 0
vn -0.7071068 0 -0.7071068
vn -0.7071068 0 0.7071068
vn 0.7071068 0 0.7071068
vn 0.7071068 0 -0.7071068
vn 1 0 0
vn -1 0 0
vn 0 0 1
vn 0 0.8944272 0.4472136
vn 0 0 -1
vn 0 0.8944272 -0.4472136
vn 0 -1 0

vt 0.34375 0.225
vt 0.34375 0.1916666
vt 0.34375 0.025
vt 0.21875 0.225
vt 0.21875 0.025
vt 0.21875 0.1916666

usemtl colormap

f 3/1/1 2/1/1 1/1/1
f 2/1/1 3/1/1 4/1/1
f 7/1/1 6/1/1 5/1/1
f 6/1/1 7/1/1 8/1/1
f 11/2/1 10/2/1 9/2/1
f 9/2/1 10/2/1 12/2/1
f 11/2/1 13/2/1 10/2/1
f 13/2/1 11/2/1 14/2/1
f 15/2/1 14/2/1 11/2/1
f 15/2/1 11/2/1 16/2/1
f 14/2/1 15/2/1 17/2/1
f 15/2/1 16/2/1 18/2/1
f 12/2/1 18/2/1 16/2/1
f 17/2/1 15/2/1 19/2/1
f 17/2/1 19/2/1 10/2/1
f 18/2/1 12/2/1 20/2/1
f 12/2/1 10/2/1 20/2/1
f 20/2/1 10/2/1 19/2/1
f 23/1/1 22/1/1 21/1/1
f 22/1/1 23/1/1 24/1/1
f 19/3/3 23/1/2 25/3/2
f 23/1/2 19/3/3 24/1/3
f 22/1/4 19/3/3 15/3/4
f 19/3/3 22/1/4 24/1/3
f 22/1/4 26/3/5 21/1/5
f 26/3/5 22/1/4 15/3/4
f 23/1/2 26/3/5 25/3/2
f 26/3/5 23/1/2 21/1/5
f 29/1/1 28/1/1 27/1/1
f 28/1/1 29/1/1 30/1/1
f 31/3/3 29/1/2 9/3/2
f 29/1/2 31/3/3 30/1/3
f 28/1/4 31/3/3 32/3/4
f 31/3/3 28/1/4 30/1/3
f 28/1/4 11/3/5 27/1/5
f 11/3/5 28/1/4 32/3/4
f 29/1/2 11/3/5 9/3/2
f 11/3/5 29/1/2 27/1/5
f 2/4/6 33/5/6 1/4/6
f 33/5/6 2/4/6 13/6/6
f 33/5/6 13/6/6 34/5/6
f 34/5/6 13/6/6 14/6/6
f 34/5/6 14/6/6 5/4/6
f 34/5/6 5/4/6 6/4/6
f 36/5/7 3/4/7 35/5/7
f 3/4/7 36/5/7 10/6/7
f 3/4/7 10/6/7 4/4/7
f 10/6/7 36/5/7 17/6/7
f 17/6/7 36/5/7 7/4/7
f 7/4/7 36/5/7 8/4/7
f 6/4/8 36/5/8 34/5/8
f 36/5/8 6/4/8 8/4/8
f 4/4/9 13/6/9 2/4/9
f 13/6/9 4/4/9 10/6/9
f 3/4/10 33/5/10 35/5/10
f 33/5/10 3/4/10 1/4/10
f 17/6/11 5/4/11 14/6/11
f 5/4/11 17/6/11 7/4/11
f 36/5/12 33/5/12 34/5/12
f 33/5/12 36/5/12 35/5/12

g floor-panel-straight




usemtl colormap

f 3/1/1 2/1/1 1/1/1
f 2/1/1 3/1/1 4/1/1
f 7/1/1 6/1/1 5/1/1
f 6/1/1 7/1/1 8/1/1
f 11/2/1 10/2/1 9/2/1
f 9/2/1 10/2/1 12/2/1
f 11/2/1 13/2/1 10/2/1
f 13/2/1 11/2/1 14/2/1
f 15/2/1 14/2/1 11/2/1
f 15/2/1 11/2/1 16/2/1
f 14/2/1 15/2/1 17/2/1
f 15/2/1 16/2/1 18/2/1
f 12/2/1 18/2/1 16/2/1
f 17/2/1 15/2/1 19/2/1
f 17/2/1 19/2/1 10/2/1
f 18/2/1 12/2/1 20/2/1
f 12/2/1 10/2/1 20/2/1
f 20/2/1 10/2/1 19/2/1
f 23/1/1 22/1/1 21/1/1
f 22/1/1 23/1/1 24/1/1
f 19/3/3 23/1/2 25/3/2
f 23/1/2 19/3/3 24/1/3
f 22/1/4 19/3/3 15/3/4
f 19/3/3 22/1/4 24/1/3
f 22/1/4 26/3/5 21/1/5
f 26/3/5 22/1/4 15/3/4
f 23/1/2 26/3/5 25/3/2
f 26/3/5 23/1/2 21/1/5
f 29/1/1 28/1/1 27/1/1
f 28/1/1 29/1/1 30/1/1
f 31/3/3 29/1/2 9/3/2
f 29/1/2 31/3/3 30/1/3
f 28/1/4 31/3/3 32/3/4
f 31/3/3 28/1/4 30/1/3
f 28/1/4 11/3/5 27/1/5
f 11/3/5 28/1/4 32/3/4
f 29/1/2 11/3/5 9/3/2
f 11/3/5 29/1/2 27/1/5
f 2/4/6 33/5/6 1/4/6
f 33/5/6 2/4/6 13/6/6
f 33/5/6 13/6/6 34/5/6
f 34/5/6 13/6/6 14/6/6
f 34/5/6 14/6/6 5/4/6
f 34/5/6 5/4/6 6/4/6
f 36/5/7 3/4/7 35/5/7
f 3/4/7 36/5/7 10/6/7
f 3/4/7 10/6/7 4/4/7
f 10/6/7 36/5/7 17/6/7
f 17/6/7 36/5/7 7/4/7
f 7/4/7 36/5/7 8/4/7
f 6/4/8 36/5/8 34/5/8
f 36/5/8 6/4/8 8/4/8
f 4/4/9 13/6/9 2/4/9
f 13/6/9 4/4/9 10/6/9
f 3/4/10 33/5/10 35/5/10
f 33/5/10 3/4/10 1/4/10
f 17/6/11 5/4/11 14/6/11
f 5/4/11 17/6/11 7/4/11
f 36/5/12 33/5/12 34/5/12
f 33/5/12 36/5/12 35/5/12

