# Created by Kenney (www.kenney.nl)

mtllib floor-corner.mtl

g floor-corner

v 0.5 0 0.5 1 1 1
v 0.5 0 -0.5 1 1 1
v -1.443823E-15 0 0.5 1 1 1
v -0.5 0 -0.5 1 1 1
v -0.5 0 0 1 1 1
v -0.5 0.3 -0.5 1 1 1
v -0.5 0.3 0 1 1 1
v -1.443823E-15 0.3 0.5 1 1 1
v 0.5 0.3 0.5 1 1 1
v 0.5 0.3 -0.5 1 1 1

vn 0 -1 0
vn -1 0 0
vn -0.7071068 0 0.7071068
vn 0 0 1
vn 1 0 0
vn 0 0 -1
vn 0 1 0

vt 0.21875 0.025
vt 0.21875 0.225
vt 0.34375 0.225

usemtl colormap

f 3/1/1 2/1/1 1/1/1
f 2/1/1 3/1/1 4/1/1
f 4/1/1 3/1/1 5/1/1
f 5/1/2 6/2/2 4/1/2
f 6/2/2 5/1/2 7/2/2
f 3/1/3 7/2/3 5/1/3
f 7/2/3 3/1/3 8/2/3
f 9/2/4 3/1/4 1/1/4
f 3/1/4 9/2/4 8/2/4
f 9/2/5 2/1/5 10/2/5
f 2/1/5 9/2/5 1/1/5
f 6/2/6 2/1/6 4/1/6
f 2/1/6 6/2/6 10/2/6
f 6/3/7 9/3/7 10/3/7
f 9/3/7 6/3/7 8/3/7
f 8/3/7 6/3/7 7/3/7

g floor-corner




usemtl colormap

f 3/1/1 2/1/1 1/1/1
f 2/1/1 3/1/1 4/1/1
f 4/1/1 3/1/1 5/1/1
f 5/1/2 6/2/2 4/1/2
f 6/2/2 5/1/2 7/2/2
f 3/1/3 7/2/3 5/1/3
f 7/2/3 3/1/3 8/2/3
f 9/2/4 3/1/4 1/1/4
f 3/1/4 9/2/4 8/2/4
f 9/2/5 2/1/5 10/2/5
f 2/1/5 9/2/5 1/1/5
f 6/2/6 2/1/6 4/1/6
f 2/1/6 6/2/6 10/2/6
f 6/3/7 9/3/7 10/3/7
f 9/3/7 6/3/7 8/3/7
f 8/3/7 6/3/7 7/3/7

