# Created by Kenney (www.kenney.nl)

mtllib floor-panel.mtl

g floor-panel

v 0.5 0 0.5 1 1 1
v 0.5 0 -0.5 1 1 1
v -0.5 0 0.5 1 1 1
v -0.5 0 -0.5 1 1 1
v -0.5 0.3 -0.5 1 1 1
v -0.5 0.3 0.5 1 1 1
v 0.5 0.3 0.5 1 1 1
v 0.5 0.3 -0.5 1 1 1
v 0.4 0.3 0.4 1 1 1
v -0.4 0.3 0.4 1 1 1
v 0.3 0.25 0.3 1 1 1
v -0.3 0.25 0.3 1 1 1
v 0.4 0.3 -0.4 1 1 1
v 0.3 0.25 -0.3 1 1 1
v -0.4 0.3 -0.4 1 1 1
v -0.3 0.25 -0.3 1 1 1
v -0.25 0.25 -0.25 1 1 1
v -0.2 0.25 -0.25 1 1 1
v -0.25 0.25 -0.2 1 1 1
v -0.25 0.25 0.2 1 1 1
v -0.2 0.25 0.2 1 1 1
v -0.2 0.25 -0.2 1 1 1
v -0.2 0.25 0.25 1 1 1
v -0.25 0.25 0.25 1 1 1
v 0.2 0.25 0.25 1 1 1
v 0.25 0.25 0.25 1 1 1
v 0.2 0.25 0.2 1 1 1
v 0.2 0.25 -0.2 1 1 1
v 0.25 0.25 0.2 1 1 1
v 0.2 0.25 -0.25 1 1 1
v 0.25 0.25 -0.2 1 1 1
v 0.25 0.25 -0.25 1 1 1
v 0.25 0.275 -0.25 1 1 1
v 0.25 0.275 -0.2 1 1 1
v 0.2 0.275 -0.25 1 1 1
v 0.2 0.275 -0.2 1 1 1
v 0.2 0.25 -0.25 1 1 1
v 0.2 0.25 -0.2 1 1 1
v 0.25 0.25 -0.2 1 1 1
v 0.25 0.275 0.2 1 1 1
v 0.25 0.275 0.25 1 1 1
v 0.2 0.275 0.2 1 1 1
v 0.2 0.275 0.25 1 1 1
v 0.2 0.25 0.2 1 1 1
v 0.2 0.25 0.25 1 1 1
v 0.25 0.25 0.2 1 1 1
v -0.2 0.275 -0.25 1 1 1
v -0.2 0.275 -0.2 1 1 1
v -0.25 0.275 -0.25 1 1 1
v -0.25 0.275 -0.2 1 1 1
v -0.25 0.25 -0.2 1 1 1
v -0.2 0.25 -0.2 1 1 1
v -0.2 0.25 -0.25 1 1 1
v -0.2 0.275 0.2 1 1 1
v -0.2 0.275 0.25 1 1 1
v -0.25 0.275 0.2 1 1 1
v -0.25 0.275 0.25 1 1 1
v -0.25 0.25 0.2 1 1 1
v -0.2 0.25 0.25 1 1 1
v -0.2 0.25 0.2 1 1 1

vn 0 -1 0
vn -1 0 0
vn 0 0 1
vn 1 0 0
vn 0 0 -1
vn -0.2357023 0.9428091 -0.2357023
vn 0.2357023 0.9428091 -0.2357023
vn -0.2357023 0.9428091 0.2357023
vn 0.2357023 0.9428091 0.2357023
vn 0 1 0
vn -0.7071068 0 -0.7071068
vn -0.7071068 0 0.7071068
vn 0.7071068 0 0.7071068
vn 0.7071068 0 -0.7071068

vt 0.21875 0.025
vt 0.21875 0.225
vt 0.21875 0.1916666
vt 0.34375 0.225
vt 0.34375 0.1916666
vt 0.34375 0.025

usemtl colormap

f 3/1/1 2/1/1 1/1/1
f 2/1/1 3/1/1 4/1/1
f 3/1/2 5/2/2 4/1/2
f 5/2/2 3/1/2 6/2/2
f 7/2/3 3/1/3 1/1/3
f 3/1/3 7/2/3 6/2/3
f 7/2/4 2/1/4 8/2/4
f 2/1/4 7/2/4 1/1/4
f 5/2/5 2/1/5 4/1/5
f 2/1/5 5/2/5 8/2/5
f 11/3/6 10/2/7 9/2/6
f 10/2/7 11/3/6 12/3/7
f 14/3/8 9/2/6 13/2/8
f 9/2/6 14/3/8 11/3/6
f 15/2/9 14/3/8 13/2/8
f 14/3/8 15/2/9 16/3/9
f 15/2/9 12/3/7 16/3/9
f 12/3/7 15/2/9 10/2/7
f 8/4/10 13/4/10 7/4/10
f 13/4/10 8/4/10 5/4/10
f 9/4/10 7/4/10 13/4/10
f 13/4/10 5/4/10 15/4/10
f 7/4/10 9/4/10 6/4/10
f 15/4/10 5/4/10 10/4/10
f 6/4/10 9/4/10 10/4/10
f 6/4/10 10/4/10 5/4/10
f 18/5/10 16/5/10 17/5/10
f 17/5/10 16/5/10 19/5/10
f 19/5/10 16/5/10 20/5/10
f 21/5/10 19/5/10 20/5/10
f 19/5/10 21/5/10 22/5/10
f 23/5/10 22/5/10 21/5/10
f 23/5/10 18/5/10 22/5/10
f 20/5/10 16/5/10 24/5/10
f 12/5/10 23/5/10 24/5/10
f 12/5/10 24/5/10 16/5/10
f 12/5/10 25/5/10 23/5/10
f 23/5/10 25/5/10 18/5/10
f 12/5/10 26/5/10 25/5/10
f 27/5/10 18/5/10 25/5/10
f 11/5/10 26/5/10 12/5/10
f 28/5/10 18/5/10 27/5/10
f 28/5/10 16/5/10 18/5/10
f 29/5/10 28/5/10 27/5/10
f 30/5/10 16/5/10 28/5/10
f 28/5/10 29/5/10 31/5/10
f 26/5/10 31/5/10 29/5/10
f 32/5/10 16/5/10 30/5/10
f 26/5/10 32/5/10 31/5/10
f 26/5/10 11/5/10 32/5/10
f 32/5/10 14/5/10 16/5/10
f 14/5/10 32/5/10 11/5/10
f 35/4/10 34/4/10 33/4/10
f 34/4/10 35/4/10 36/4/10
f 38/6/12 35/4/11 37/6/11
f 35/4/11 38/6/12 36/4/12
f 34/4/13 38/6/12 39/6/13
f 38/6/12 34/4/13 36/4/12
f 34/4/13 32/6/14 33/4/14
f 32/6/14 34/4/13 39/6/13
f 35/4/11 32/6/14 37/6/11
f 32/6/14 35/4/11 33/4/14
f 42/4/10 41/4/10 40/4/10
f 41/4/10 42/4/10 43/4/10
f 45/6/12 42/4/11 44/6/11
f 42/4/11 45/6/12 43/4/12
f 41/4/13 45/6/12 26/6/13
f 45/6/12 41/4/13 43/4/12
f 41/4/13 46/6/14 40/4/14
f 46/6/14 41/4/13 26/6/13
f 42/4/11 46/6/14 44/6/11
f 46/6/14 42/4/11 40/4/14
f 49/4/10 48/4/10 47/4/10
f 48/4/10 49/4/10 50/4/10
f 51/6/12 49/4/11 17/6/11
f 49/4/11 51/6/12 50/4/12
f 48/4/13 51/6/12 52/6/13
f 51/6/12 48/4/13 50/4/12
f 48/4/13 53/6/14 47/4/14
f 53/6/14 48/4/13 52/6/13
f 49/4/11 53/6/14 17/6/11
f 53/6/14 49/4/11 47/4/14
f 56/4/10 55/4/10 54/4/10
f 55/4/10 56/4/10 57/4/10
f 24/6/12 56/4/11 58/6/11
f 56/4/11 24/6/12 57/4/12
f 55/4/13 24/6/12 59/6/13
f 24/6/12 55/4/13 57/4/12
f 55/4/13 60/6/14 54/4/14
f 60/6/14 55/4/13 59/6/13
f 56/4/11 60/6/14 58/6/11
f 60/6/14 56/4/11 54/4/14

g floor-panel




usemtl colormap

f 3/1/1 2/1/1 1/1/1
f 2/1/1 3/1/1 4/1/1
f 3/1/2 5/2/2 4/1/2
f 5/2/2 3/1/2 6/2/2
f 7/2/3 3/1/3 1/1/3
f 3/1/3 7/2/3 6/2/3
f 7/2/4 2/1/4 8/2/4
f 2/1/4 7/2/4 1/1/4
f 5/2/5 2/1/5 4/1/5
f 2/1/5 5/2/5 8/2/5
f 11/3/6 10/2/7 9/2/6
f 10/2/7 11/3/6 12/3/7
f 14/3/8 9/2/6 13/2/8
f 9/2/6 14/3/8 11/3/6
f 15/2/9 14/3/8 13/2/8
f 14/3/8 15/2/9 16/3/9
f 15/2/9 12/3/7 16/3/9
f 12/3/7 15/2/9 10/2/7
f 8/4/10 13/4/10 7/4/10
f 13/4/10 8/4/10 5/4/10
f 9/4/10 7/4/10 13/4/10
f 13/4/10 5/4/10 15/4/10
f 7/4/10 9/4/10 6/4/10
f 15/4/10 5/4/10 10/4/10
f 6/4/10 9/4/10 10/4/10
f 6/4/10 10/4/10 5/4/10
f 18/5/10 16/5/10 17/5/10
f 17/5/10 16/5/10 19/5/10
f 19/5/10 16/5/10 20/5/10
f 21/5/10 19/5/10 20/5/10
f 19/5/10 21/5/10 22/5/10
f 23/5/10 22/5/10 21/5/10
f 23/5/10 18/5/10 22/5/10
f 20/5/10 16/5/10 24/5/10
f 12/5/10 23/5/10 24/5/10
f 12/5/10 24/5/10 16/5/10
f 12/5/10 25/5/10 23/5/10
f 23/5/10 25/5/10 18/5/10
f 12/5/10 26/5/10 25/5/10
f 27/5/10 18/5/10 25/5/10
f 11/5/10 26/5/10 12/5/10
f 28/5/10 18/5/10 27/5/10
f 28/5/10 16/5/10 18/5/10
f 29/5/10 28/5/10 27/5/10
f 30/5/10 16/5/10 28/5/10
f 28/5/10 29/5/10 31/5/10
f 26/5/10 31/5/10 29/5/10
f 32/5/10 16/5/10 30/5/10
f 26/5/10 32/5/10 31/5/10
f 26/5/10 11/5/10 32/5/10
f 32/5/10 14/5/10 16/5/10
f 14/5/10 32/5/10 11/5/10
f 35/4/10 34/4/10 33/4/10
f 34/4/10 35/4/10 36/4/10
f 38/6/12 35/4/11 37/6/11
f 35/4/11 38/6/12 36/4/12
f 34/4/13 38/6/12 39/6/13
f 38/6/12 34/4/13 36/4/12
f 34/4/13 32/6/14 33/4/14
f 32/6/14 34/4/13 39/6/13
f 35/4/11 32/6/14 37/6/11
f 32/6/14 35/4/11 33/4/14
f 42/4/10 41/4/10 40/4/10
f 41/4/10 42/4/10 43/4/10
f 45/6/12 42/4/11 44/6/11
f 42/4/11 45/6/12 43/4/12
f 41/4/13 45/6/12 26/6/13
f 45/6/12 41/4/13 43/4/12
f 41/4/13 46/6/14 40/4/14
f 46/6/14 41/4/13 26/6/13
f 42/4/11 46/6/14 44/6/11
f 46/6/14 42/4/11 40/4/14
f 49/4/10 48/4/10 47/4/10
f 48/4/10 49/4/10 50/4/10
f 51/6/12 49/4/11 17/6/11
f 49/4/11 51/6/12 50/4/12
f 48/4/13 51/6/12 52/6/13
f 51/6/12 48/4/13 50/4/12
f 48/4/13 53/6/14 47/4/14
f 53/6/14 48/4/13 52/6/13
f 49/4/11 53/6/14 17/6/11
f 53/6/14 49/4/11 47/4/14
f 56/4/10 55/4/10 54/4/10
f 55/4/10 56/4/10 57/4/10
f 24/6/12 56/4/11 58/6/11
f 56/4/11 24/6/12 57/4/12
f 55/4/13 24/6/12 59/6/13
f 24/6/12 55/4/13 57/4/12
f 55/4/13 60/6/14 54/4/14
f 60/6/14 55/4/13 59/6/13
f 56/4/11 60/6/14 58/6/11
f 60/6/14 56/4/11 54/4/14

