# Created by Kenney (www.kenney.nl)

mtllib pipe-ring.mtl

g pipe-ring

v 0.1232051 0.5 -0.07113249 1 1 1
v 0.1232051 0 -0.07113249 1 1 1
v 0.1232051 0.5 0.07113249 1 1 1
v 0.1232051 0 0.07113249 1 1 1
v 0 0 -0.142265 1 1 1
v 0 0.5 -0.142265 1 1 1
v 0 0 0.142265 1 1 1
v 0 0.5 0.142265 1 1 1
v -0.1232051 0 -0.07113249 1 1 1
v -0.1232051 0.5 -0.07113249 1 1 1
v -0.1232051 0 0.07113249 1 1 1
v -0.1232051 0.5 0.07113249 1 1 1
v -0.1732051 0.2 -0.1 1 1 1
v -0.1732051 0.3 -0.1 1 1 1
v -0.1732051 0.2 0.1 1 1 1
v -0.1732051 0.3 0.1 1 1 1
v 0 0.2 0.2 1 1 1
v 0 0.3 0.2 1 1 1
v 0.1732051 0.3 -0.1 1 1 1
v 0.1732051 0.2 -0.1 1 1 1
v 0.1732051 0.3 0.1 1 1 1
v 0.1732051 0.2 0.1 1 1 1
v 0 0.2 -0.2 1 1 1
v 0 0.3 -0.2 1 1 1

vn 0.8660254 0 -0.5
vn 0.8660254 0 0.5
vn 0 0 -1
vn 0 0 1
vn -0.8660254 0 -0.5
vn -0.8660254 0 0.5
vn 0 1 0
vn 0 -1 0

vt 0.34375 0.225
vt 0.34375 0.025
vt 0.21875 0.025
vt 0.21875 0.225

usemtl colormap

f 3/1/2 2/2/1 1/1/1
f 2/2/1 3/1/2 4/2/2
f 6/1/3 2/2/1 5/2/3
f 2/2/1 6/1/3 1/1/1
f 3/1/2 7/2/4 4/2/2
f 7/2/4 3/1/2 8/1/4
f 11/2/6 10/1/5 9/2/5
f 10/1/5 11/2/6 12/1/6
f 6/1/7 3/1/7 1/1/7
f 3/1/7 6/1/7 8/1/7
f 8/1/7 6/1/7 10/1/7
f 8/1/7 10/1/7 12/1/7
f 10/1/5 5/2/3 9/2/5
f 5/2/3 10/1/5 6/1/3
f 8/1/4 11/2/6 7/2/4
f 11/2/6 8/1/4 12/1/6
f 7/2/8 2/2/8 4/2/8
f 2/2/8 7/2/8 5/2/8
f 5/2/8 7/2/8 11/2/8
f 5/2/8 11/2/8 9/2/8
f 15/3/6 14/4/5 13/3/5
f 14/4/5 15/3/6 16/4/6
f 18/4/4 15/3/6 17/3/4
f 15/3/6 18/4/4 16/4/6
f 21/4/2 20/3/1 19/4/1
f 20/3/1 21/4/2 22/3/2
f 21/4/2 17/3/4 22/3/2
f 17/3/4 21/4/2 18/4/4
f 24/4/3 20/3/1 23/3/3
f 20/3/1 24/4/3 19/4/1
f 24/4/7 21/4/7 19/4/7
f 21/4/7 24/4/7 18/4/7
f 18/4/7 24/4/7 14/4/7
f 18/4/7 14/4/7 16/4/7
f 17/3/8 20/3/8 22/3/8
f 20/3/8 17/3/8 23/3/8
f 23/3/8 17/3/8 15/3/8
f 23/3/8 15/3/8 13/3/8
f 14/4/5 23/3/3 13/3/5
f 23/3/3 14/4/5 24/4/3

g pipe-ring




usemtl colormap

f 3/1/2 2/2/1 1/1/1
f 2/2/1 3/1/2 4/2/2
f 6/1/3 2/2/1 5/2/3
f 2/2/1 6/1/3 1/1/1
f 3/1/2 7/2/4 4/2/2
f 7/2/4 3/1/2 8/1/4
f 11/2/6 10/1/5 9/2/5
f 10/1/5 11/2/6 12/1/6
f 6/1/7 3/1/7 1/1/7
f 3/1/7 6/1/7 8/1/7
f 8/1/7 6/1/7 10/1/7
f 8/1/7 10/1/7 12/1/7
f 10/1/5 5/2/3 9/2/5
f 5/2/3 10/1/5 6/1/3
f 8/1/4 11/2/6 7/2/4
f 11/2/6 8/1/4 12/1/6
f 7/2/8 2/2/8 4/2/8
f 2/2/8 7/2/8 5/2/8
f 5/2/8 7/2/8 11/2/8
f 5/2/8 11/2/8 9/2/8
f 15/3/6 14/4/5 13/3/5
f 14/4/5 15/3/6 16/4/6
f 18/4/4 15/3/6 17/3/4
f 15/3/6 18/4/4 16/4/6
f 21/4/2 20/3/1 19/4/1
f 20/3/1 21/4/2 22/3/2
f 21/4/2 17/3/4 22/3/2
f 17/3/4 21/4/2 18/4/4
f 24/4/3 20/3/1 23/3/3
f 20/3/1 24/4/3 19/4/1
f 24/4/7 21/4/7 19/4/7
f 21/4/7 24/4/7 18/4/7
f 18/4/7 24/4/7 14/4/7
f 18/4/7 14/4/7 16/4/7
f 17/3/8 20/3/8 22/3/8
f 20/3/8 17/3/8 23/3/8
f 23/3/8 17/3/8 15/3/8
f 23/3/8 15/3/8 13/3/8
f 14/4/5 23/3/3 13/3/5
f 23/3/3 14/4/5 24/4/3

