# Created by Kenney (www.kenney.nl)

mtllib pipe-bend-diagonal.mtl

g pipe-bend-diagonal

v 0 0.2535898 -0.142265 1 1 1
v 0.1232051 0.2535898 -0.07113249 1 1 1
v 0.03608593 0.340709 -0.142265 1 1 1
v 0.1232051 0.2535898 0.07113249 1 1 1
v 0 0.2535898 0.142265 1 1 1
v 0.03608593 0.340709 0.142265 1 1 1
v -0.1232051 0.2535898 0.07113249 1 1 1
v -0.05103321 0.4278281 0.07113249 1 1 1
v -0.1232051 0.2535898 -0.07113249 1 1 1
v -0.05103321 0.4278281 -0.07113249 1 1 1
v 0.1232051 0 0.07113249 1 1 1
v 0.1232051 0 -0.07113249 1 1 1
v 0 0 0.142265 1 1 1
v 0 0 -0.142265 1 1 1
v -0.1232051 0 0.07113249 1 1 1
v -0.1232051 0 -0.07113249 1 1 1
v 0.3025202 0.4329049 -0.07113249 1 1 1
v 0.3025202 0.4329049 0.07113249 1 1 1
v 0.215401 0.5200241 -0.142265 1 1 1
v 0.215401 0.5200241 0.142265 1 1 1
v 0.1282819 0.6071432 -0.07113249 1 1 1
v 0.1282819 0.6071432 0.07113249 1 1 1

vn -0.1230536 0.05097045 -0.9910902
vn 0.4896098 -0.202803 -0.848029
vn 0.4896098 -0.202803 0.848029
vn -0.1230536 0.05097045 0.9910902
vn -0.8360994 0.3463237 0.4254382
vn -0.8360994 0.3463237 -0.4254382
vn 0 -1 0
vn 0 0 1
vn -0.8660254 0 0.5
vn -0.8660254 0 -0.5
vn 0 0 -1
vn 0.8660254 0 -0.5
vn 0.8660254 0 0.5
vn 0.7071068 0.7071068 0
vn 0.6123725 -0.6123725 0.5
vn 0.6123725 -0.6123725 -0.5
vn -0.6123725 0.6123725 -0.5
vn -0.6123725 0.6123725 0.5

vt 0.34375 0.1085354
vt 0.34375 0.1372335
vt 0.34375 0.1659315
vt 0.34375 0.025
vt 0.34375 0.1676039
vt 0.34375 0.1963019
vt 0.34375 0.225

usemtl colormap

f 3/2/1 2/1/2 1/1/1
f 6/2/4 5/1/4 4/1/3
f 6/2/4 7/1/5 5/1/4
f 7/1/5 6/2/4 8/3/5
f 10/3/6 1/1/1 9/1/6
f 1/1/1 10/3/6 3/2/1
f 7/1/5 10/3/6 9/1/6
f 10/3/6 7/1/5 8/3/5
f 13/4/7 12/4/7 11/4/7
f 12/4/7 13/4/7 14/4/7
f 14/4/7 13/4/7 15/4/7
f 14/4/7 15/4/7 16/4/7
f 5/1/8 15/4/9 13/4/8
f 15/4/9 5/1/8 7/1/9
f 15/4/9 9/1/10 16/4/10
f 9/1/10 15/4/9 7/1/9
f 9/1/10 14/4/11 16/4/10
f 14/4/11 9/1/10 1/1/11
f 1/1/11 12/4/12 14/4/11
f 12/4/12 1/1/11 2/1/12
f 4/1/13 12/4/12 2/1/12
f 12/4/12 4/1/13 11/4/13
f 4/1/13 13/4/8 11/4/13
f 13/4/8 4/1/13 5/1/8
f 19/6/14 18/5/14 17/5/14
f 18/5/14 19/6/14 20/6/14
f 20/6/14 19/6/14 21/7/14
f 20/6/14 21/7/14 22/7/14
f 18/5/15 6/2/8 4/1/15
f 6/2/8 18/5/15 20/6/8
f 18/5/15 2/1/16 17/5/16
f 2/1/16 18/5/15 4/1/15
f 3/2/11 17/5/16 2/1/16
f 17/5/16 3/2/11 19/6/11
f 10/3/17 19/6/11 3/2/11
f 19/6/11 10/3/17 21/7/17
f 8/3/18 21/7/17 10/3/17
f 21/7/17 8/3/18 22/7/18
f 20/6/8 8/3/18 6/2/8
f 8/3/18 20/6/8 22/7/18

g pipe-bend-diagonal




usemtl colormap

f 3/2/1 2/1/2 1/1/1
f 6/2/4 5/1/4 4/1/3
f 6/2/4 7/1/5 5/1/4
f 7/1/5 6/2/4 8/3/5
f 10/3/6 1/1/1 9/1/6
f 1/1/1 10/3/6 3/2/1
f 7/1/5 10/3/6 9/1/6
f 10/3/6 7/1/5 8/3/5
f 13/4/7 12/4/7 11/4/7
f 12/4/7 13/4/7 14/4/7
f 14/4/7 13/4/7 15/4/7
f 14/4/7 15/4/7 16/4/7
f 5/1/8 15/4/9 13/4/8
f 15/4/9 5/1/8 7/1/9
f 15/4/9 9/1/10 16/4/10
f 9/1/10 15/4/9 7/1/9
f 9/1/10 14/4/11 16/4/10
f 14/4/11 9/1/10 1/1/11
f 1/1/11 12/4/12 14/4/11
f 12/4/12 1/1/11 2/1/12
f 4/1/13 12/4/12 2/1/12
f 12/4/12 4/1/13 11/4/13
f 4/1/13 13/4/8 11/4/13
f 13/4/8 4/1/13 5/1/8
f 19/6/14 18/5/14 17/5/14
f 18/5/14 19/6/14 20/6/14
f 20/6/14 19/6/14 21/7/14
f 20/6/14 21/7/14 22/7/14
f 18/5/15 6/2/8 4/1/15
f 6/2/8 18/5/15 20/6/8
f 18/5/15 2/1/16 17/5/16
f 2/1/16 18/5/15 4/1/15
f 3/2/11 17/5/16 2/1/16
f 17/5/16 3/2/11 19/6/11
f 10/3/17 19/6/11 3/2/11
f 19/6/11 10/3/17 21/7/17
f 8/3/18 21/7/17 10/3/17
f 21/7/17 8/3/18 22/7/18
f 20/6/8 8/3/18 6/2/8
f 8/3/18 20/6/8 22/7/18

