# Created by Kenney (www.kenney.nl)

mtllib pipe.mtl

g pipe

v 0.1232051 0.5 -0.07113249 1 1 1
v 0.1232051 0 -0.07113249 1 1 1
v 0.1232051 0.5 0.07113249 1 1 1
v 0.1232051 0 0.07113249 1 1 1
v 0 0 -0.142265 1 1 1
v 0 0.5 -0.142265 1 1 1
v 0 0 0.142265 1 1 1
v 0 0.5 0.142265 1 1 1
v -0.1232051 0 -0.07113249 1 1 1
v -0.1232051 0.5 -0.07113249 1 1 1
v -0.1232051 0 0.07113249 1 1 1
v -0.1232051 0.5 0.07113249 1 1 1

vn 0.8660254 0 -0.5
vn 0.8660254 0 0.5
vn 0 0 -1
vn 0 0 1
vn -0.8660254 0 -0.5
vn -0.8660254 0 0.5
vn 0 1 0
vn 0 -1 0

vt 0.34375 0.225
vt 0.34375 0.025

usemtl colormap

f 3/1/2 2/2/1 1/1/1
f 2/2/1 3/1/2 4/2/2
f 6/1/3 2/2/1 5/2/3
f 2/2/1 6/1/3 1/1/1
f 3/1/2 7/2/4 4/2/2
f 7/2/4 3/1/2 8/1/4
f 11/2/6 10/1/5 9/2/5
f 10/1/5 11/2/6 12/1/6
f 6/1/7 3/1/7 1/1/7
f 3/1/7 6/1/7 8/1/7
f 8/1/7 6/1/7 10/1/7
f 8/1/7 10/1/7 12/1/7
f 10/1/5 5/2/3 9/2/5
f 5/2/3 10/1/5 6/1/3
f 8/1/4 11/2/6 7/2/4
f 11/2/6 8/1/4 12/1/6
f 7/2/8 2/2/8 4/2/8
f 2/2/8 7/2/8 5/2/8
f 5/2/8 7/2/8 11/2/8
f 5/2/8 11/2/8 9/2/8

g pipe




usemtl colormap

f 3/1/2 2/2/1 1/1/1
f 2/2/1 3/1/2 4/2/2
f 6/1/3 2/2/1 5/2/3
f 2/2/1 6/1/3 1/1/1
f 3/1/2 7/2/4 4/2/2
f 7/2/4 3/1/2 8/1/4
f 11/2/6 10/1/5 9/2/5
f 10/1/5 11/2/6 12/1/6
f 6/1/7 3/1/7 1/1/7
f 3/1/7 6/1/7 8/1/7
f 8/1/7 6/1/7 10/1/7
f 8/1/7 10/1/7 12/1/7
f 10/1/5 5/2/3 9/2/5
f 5/2/3 10/1/5 6/1/3
f 8/1/4 11/2/6 7/2/4
f 11/2/6 8/1/4 12/1/6
f 7/2/8 2/2/8 4/2/8
f 2/2/8 7/2/8 5/2/8
f 5/2/8 7/2/8 11/2/8
f 5/2/8 11/2/8 9/2/8

