# Created by Kenney (www.kenney.nl)

mtllib pipe-bend.mtl

g pipe-bend

v 0 0.2535898 -0.142265 1 1 1
v 0.1232051 0.2535898 -0.07113249 1 1 1
v 0.03608593 0.340709 -0.142265 1 1 1
v 0.1232051 0.3767949 -0.142265 1 1 1
v 0.1232051 0.2535898 0.07113249 1 1 1
v 0 0.2535898 0.142265 1 1 1
v 0.03608593 0.340709 0.142265 1 1 1
v 0.1232051 0.3767949 0.142265 1 1 1
v 0.3767949 0.3767949 -0.142265 1 1 1
v 0.1232051 0.5 -0.07113249 1 1 1
v 0.3767949 0.5 -0.07113249 1 1 1
v 0.3767949 0.2535898 0.07113249 1 1 1
v 0.3767949 0.2535898 -0.07113249 1 1 1
v 0.3767949 0.5 0.07113249 1 1 1
v 0.3767949 0.3767949 0.142265 1 1 1
v 0.1232051 0.5 0.07113249 1 1 1
v -0.1232051 0 -0.07113249 1 1 1
v -0.1232051 0.2535898 -0.07113249 1 1 1
v -0.1232051 0 0.07113249 1 1 1
v -0.1232051 0.2535898 0.07113249 1 1 1
v 0 0 -0.142265 1 1 1
v 0.1232051 0 -0.07113249 1 1 1
v 0 0 0.142265 1 1 1
v 0.1232051 0 0.07113249 1 1 1
v -0.05103321 0.4278281 0.07113249 1 1 1
v -0.05103321 0.4278281 -0.07113249 1 1 1

vn -0.1230536 0.05097045 -0.9910902
vn 0.4896098 -0.202803 -0.848029
vn -0.05097045 0.1230536 -0.9910902
vn 0.202803 -0.4896098 -0.848029
vn -0.05097045 0.1230535 -0.9910902
vn 0.4896098 -0.202803 0.848029
vn -0.1230536 0.05097045 0.9910902
vn 0.202803 -0.4896098 0.848029
vn -0.05097045 0.1230536 0.9910902
vn -0.05097045 0.1230535 0.9910902
vn 0 0 -1
vn 0 0.8660254 -0.5
vn 0 -0.8660254 0.5
vn 0 -0.8660254 -0.5
vn 1 0 0
vn 0 0.8660254 0.5
vn 0 0 1
vn -0.8660254 0 -0.5
vn -0.8660254 0 0.5
vn 0.8660254 0 -0.5
vn 0.8660254 0 0.5
vn -0.8360994 0.3463237 0.4254382
vn -0.3463237 0.8360994 -0.4254382
vn -0.3463237 0.8360994 0.4254382
vn -0.8360994 0.3463237 -0.4254382
vn 0 -1 0

vt 0.34375 0.1264359
vt 0.34375 0.1612836
vt 0.34375 0.175718
vt 0.34375 0.225
vt 0.34375 0.025
vt 0.34375 0.1961312

usemtl colormap

f 3/2/1 2/1/2 1/1/1
f 4/3/5 2/1/4 3/2/3
f 7/2/7 6/1/7 5/1/6
f 8/3/10 7/2/9 5/1/8
f 10/4/12 9/3/11 4/3/11
f 9/3/11 10/4/12 11/4/12
f 5/1/13 13/1/14 12/1/13
f 13/1/14 5/1/13 2/1/14
f 11/4/15 13/1/15 9/3/15
f 13/1/15 11/4/15 14/4/15
f 13/1/15 14/4/15 12/1/15
f 12/1/15 14/4/15 15/3/15
f 10/4/12 14/4/16 11/4/12
f 14/4/16 10/4/12 16/4/16
f 12/1/13 8/3/17 5/1/13
f 8/3/17 12/1/13 15/3/17
f 15/3/17 16/4/16 8/3/17
f 16/4/16 15/3/17 14/4/16
f 4/3/11 13/1/14 2/1/14
f 13/1/14 4/3/11 9/3/11
f 19/5/19 18/1/18 17/5/18
f 18/1/18 19/5/19 20/1/19
f 1/1/11 22/5/20 21/5/11
f 22/5/20 1/1/11 2/1/20
f 18/1/18 21/5/11 17/5/18
f 21/5/11 18/1/18 1/1/11
f 6/1/17 19/5/19 23/5/17
f 19/5/19 6/1/17 20/1/19
f 5/1/21 22/5/20 2/1/20
f 22/5/20 5/1/21 24/5/21
f 5/1/21 23/5/17 24/5/21
f 23/5/17 5/1/21 6/1/17
f 7/2/7 20/1/22 6/1/7
f 20/1/22 7/2/7 25/6/22
f 26/6/23 16/4/24 10/4/23
f 16/4/24 26/6/23 25/6/24
f 26/6/25 1/1/1 18/1/25
f 1/1/1 26/6/25 3/2/1
f 8/3/10 25/6/24 7/2/9
f 25/6/24 8/3/10 16/4/24
f 20/1/22 26/6/25 18/1/25
f 26/6/25 20/1/22 25/6/22
f 26/6/23 4/3/5 3/2/3
f 4/3/5 26/6/23 10/4/23
f 23/5/26 22/5/26 24/5/26
f 22/5/26 23/5/26 21/5/26
f 21/5/26 23/5/26 19/5/26
f 21/5/26 19/5/26 17/5/26

g pipe-bend




usemtl colormap

f 3/2/1 2/1/2 1/1/1
f 4/3/5 2/1/4 3/2/3
f 7/2/7 6/1/7 5/1/6
f 8/3/10 7/2/9 5/1/8
f 10/4/12 9/3/11 4/3/11
f 9/3/11 10/4/12 11/4/12
f 5/1/13 13/1/14 12/1/13
f 13/1/14 5/1/13 2/1/14
f 11/4/15 13/1/15 9/3/15
f 13/1/15 11/4/15 14/4/15
f 13/1/15 14/4/15 12/1/15
f 12/1/15 14/4/15 15/3/15
f 10/4/12 14/4/16 11/4/12
f 14/4/16 10/4/12 16/4/16
f 12/1/13 8/3/17 5/1/13
f 8/3/17 12/1/13 15/3/17
f 15/3/17 16/4/16 8/3/17
f 16/4/16 15/3/17 14/4/16
f 4/3/11 13/1/14 2/1/14
f 13/1/14 4/3/11 9/3/11
f 19/5/19 18/1/18 17/5/18
f 18/1/18 19/5/19 20/1/19
f 1/1/11 22/5/20 21/5/11
f 22/5/20 1/1/11 2/1/20
f 18/1/18 21/5/11 17/5/18
f 21/5/11 18/1/18 1/1/11
f 6/1/17 19/5/19 23/5/17
f 19/5/19 6/1/17 20/1/19
f 5/1/21 22/5/20 2/1/20
f 22/5/20 5/1/21 24/5/21
f 5/1/21 23/5/17 24/5/21
f 23/5/17 5/1/21 6/1/17
f 7/2/7 20/1/22 6/1/7
f 20/1/22 7/2/7 25/6/22
f 26/6/23 16/4/24 10/4/23
f 16/4/24 26/6/23 25/6/24
f 26/6/25 1/1/1 18/1/25
f 1/1/1 26/6/25 3/2/1
f 8/3/10 25/6/24 7/2/9
f 25/6/24 8/3/10 16/4/24
f 20/1/22 26/6/25 18/1/25
f 26/6/25 20/1/22 25/6/22
f 26/6/23 4/3/5 3/2/3
f 4/3/5 26/6/23 10/4/23
f 23/5/26 22/5/26 24/5/26
f 22/5/26 23/5/26 21/5/26
f 21/5/26 23/5/26 19/5/26
f 21/5/26 19/5/26 17/5/26

