# Created by Kenney (www.kenney.nl)

mtllib pipe-end-colored.mtl

g pipe-end-colored

v 0.1232051 0.1 0.07113249 1 1 1
v 0 0.1 0.142265 1 1 1
v 0.1232051 0.5 0.07113249 1 1 1
v 0 0.5 0.142265 1 1 1
v -0.1232051 0.1 -0.07113249 1 1 1
v 0 0.1 -0.142265 1 1 1
v -0.1232051 0.5 -0.07113249 1 1 1
v 0 0.5 -0.142265 1 1 1
v -0.1232051 0.1 0.07113249 1 1 1
v -0.1232051 0.5 0.07113249 1 1 1
v 0.1232051 0.5 -0.07113249 1 1 1
v 0.1232051 0.1 -0.07113249 1 1 1
v 0.1732051 0 0.1 1 1 1
v 0.1732051 0 -0.1 1 1 1
v 0 0 0.2 1 1 1
v 0 0 -0.2 1 1 1
v -0.1732051 0 0.1 1 1 1
v -0.1732051 0 -0.1 1 1 1
v 0.1732051 0.1 -0.1 1 1 1
v 0.1732051 0.1 0.1 1 1 1
v 0 0.1 -0.2 1 1 1
v 0 0.1 0.2 1 1 1
v -0.1732051 0.1 -0.1 1 1 1
v -0.1732051 0.1 0.1 1 1 1

vn 0.8660254 0 0.5
vn 0 0 1
vn -0.8660254 0 -0.5
vn 0 0 -1
vn -0.8660254 0 0.5
vn 0.8660254 0 -0.5
vn 0 1 0
vn 0 -1 0

vt 0.34375 0.065
vt 0.34375 0.225
vt 0.21875 0.275
vt 0.21875 0.475

usemtl colormap

f 3/2/1 2/1/2 1/1/1
f 2/1/2 3/2/1 4/2/2
f 7/2/3 6/1/4 5/1/3
f 6/1/4 7/2/3 8/2/4
f 9/1/5 7/2/3 5/1/3
f 7/2/3 9/1/5 10/2/5
f 3/2/1 12/1/6 11/2/6
f 12/1/6 3/2/1 1/1/1
f 4/2/2 9/1/5 2/1/2
f 9/1/5 4/2/2 10/2/5
f 8/2/4 12/1/6 6/1/4
f 12/1/6 8/2/4 11/2/6
f 8/2/7 3/2/7 11/2/7
f 3/2/7 8/2/7 4/2/7
f 4/2/7 8/2/7 7/2/7
f 4/2/7 7/2/7 10/2/7
f 15/3/8 14/3/8 13/3/8
f 14/3/8 15/3/8 16/3/8
f 16/3/8 15/3/8 17/3/8
f 16/3/8 17/3/8 18/3/8
f 21/4/7 20/4/7 19/4/7
f 20/4/7 21/4/7 22/4/7
f 22/4/7 21/4/7 23/4/7
f 22/4/7 23/4/7 24/4/7
f 20/4/1 15/3/2 13/3/1
f 15/3/2 20/4/1 22/4/2
f 22/4/2 17/3/5 15/3/2
f 17/3/5 22/4/2 24/4/5
f 17/3/5 23/4/3 18/3/3
f 23/4/3 17/3/5 24/4/5
f 23/4/3 16/3/4 18/3/3
f 16/3/4 23/4/3 21/4/4
f 21/4/4 14/3/6 16/3/4
f 14/3/6 21/4/4 19/4/6
f 20/4/1 14/3/6 19/4/6
f 14/3/6 20/4/1 13/3/1

g pipe-end-colored




usemtl colormap

f 3/2/1 2/1/2 1/1/1
f 2/1/2 3/2/1 4/2/2
f 7/2/3 6/1/4 5/1/3
f 6/1/4 7/2/3 8/2/4
f 9/1/5 7/2/3 5/1/3
f 7/2/3 9/1/5 10/2/5
f 3/2/1 12/1/6 11/2/6
f 12/1/6 3/2/1 1/1/1
f 4/2/2 9/1/5 2/1/2
f 9/1/5 4/2/2 10/2/5
f 8/2/4 12/1/6 6/1/4
f 12/1/6 8/2/4 11/2/6
f 8/2/7 3/2/7 11/2/7
f 3/2/7 8/2/7 4/2/7
f 4/2/7 8/2/7 7/2/7
f 4/2/7 7/2/7 10/2/7
f 15/3/8 14/3/8 13/3/8
f 14/3/8 15/3/8 16/3/8
f 16/3/8 15/3/8 17/3/8
f 16/3/8 17/3/8 18/3/8
f 21/4/7 20/4/7 19/4/7
f 20/4/7 21/4/7 22/4/7
f 22/4/7 21/4/7 23/4/7
f 22/4/7 23/4/7 24/4/7
f 20/4/1 15/3/2 13/3/1
f 15/3/2 20/4/1 22/4/2
f 22/4/2 17/3/5 15/3/2
f 17/3/5 22/4/2 24/4/5
f 17/3/5 23/4/3 18/3/3
f 23/4/3 17/3/5 24/4/5
f 23/4/3 16/3/4 18/3/3
f 16/3/4 23/4/3 21/4/4
f 21/4/4 14/3/6 16/3/4
f 14/3/6 21/4/4 19/4/6
f 20/4/1 14/3/6 19/4/6
f 14/3/6 20/4/1 13/3/1

