# Created by Kenney (www.kenney.nl)

mtllib rail-narrow.mtl

g rail-narrow

v 0.2103553 0.3853553 -0.025 1 1 1
v 0.225 0.35 -0.025 1 1 1
v 0.2103553 0.3853553 0.025 1 1 1
v 0.225 0.35 0.025 1 1 1
v -0.175 0.35 -0.025 1 1 1
v -0.175 0.05 -0.025 1 1 1
v -0.175 0.35 0.025 1 1 1
v -0.175 0.05 0.025 1 1 1
v 0.175 0.05 -0.025 1 1 1
v 0.175 0.35 -0.025 1 1 1
v 0.175 0.05 0.025 1 1 1
v 0.175 0.35 0.025 1 1 1
v 0.175 0.4 -0.025 1 1 1
v 0.175 0.4 0.025 1 1 1
v 0.225 0.05 -0.025 1 1 1
v 0.225 0.05 0.025 1 1 1
v -0.225 0.35 0.025 1 1 1
v -0.225 0.05 0.025 1 1 1
v -0.2103553 0.3853553 0.025 1 1 1
v -0.175 0.4 0.025 1 1 1
v -0.175 0.4 -0.025 1 1 1
v -0.2103553 0.3853553 -0.025 1 1 1
v -0.225 0.05 -0.025 1 1 1
v -0.225 0.35 -0.025 1 1 1
v -0.175 0 0.05 1 1 1
v -0.225 0 0.05 1 1 1
v -0.175 0.05 0.05 1 1 1
v -0.225 0.05 0.05 1 1 1
v -0.15 0.05 -0.025 1 1 1
v -0.15 0 -0.025 1 1 1
v -0.15 0.05 0.025 1 1 1
v -0.15 0 0.025 1 1 1
v -0.175 0 -0.05 1 1 1
v -0.225 0 -0.05 1 1 1
v -0.25 0 0.025 1 1 1
v -0.25 0 -0.025 1 1 1
v -0.25 0.05 0.025 1 1 1
v -0.175 0.05 -0.05 1 1 1
v -0.225 0.05 -0.05 1 1 1
v -0.25 0.05 -0.025 1 1 1
v 0.175 0 -0.05 1 1 1
v 0.175 0.05 -0.05 1 1 1
v 0.15 0 -0.025 1 1 1
v 0.15 0.05 -0.025 1 1 1
v 0.225 0 0.05 1 1 1
v 0.175 0 0.05 1 1 1
v 0.225 0.05 0.05 1 1 1
v 0.175 0.05 0.05 1 1 1
v 0.225 0.05 -0.05 1 1 1
v 0.225 0 -0.05 1 1 1
v 0.25 0.05 -0.025 1 1 1
v 0.25 0 -0.025 1 1 1
v 0.15 0 0.025 1 1 1
v 0.15 0.05 0.025 1 1 1
v 0.25 0.05 0.025 1 1 1
v 0.25 0 0.025 1 1 1

vn 0.7071068 0.7071068 0
vn 0.9807853 0.1950903 0
vn 1 0 0
vn -1 0 0
vn 0.1950903 0.9807853 0
vn 0 0 1
vn -0.1950903 0.9807853 0
vn -0.7071068 0.7071068 0
vn 0 0 -1
vn -0.9807853 0.1950903 0
vn 0 -1 0
vn 0.3826834 0 0.9238795
vn -0.3826834 0 0.9238795
vn 0.9238795 0 -0.3826834
vn 0.9238795 0 0.3826834
vn -0.9238795 0 0.3826834
vn 0 1 0
vn -0.9238795 0 -0.3826834
vn -0.3826834 0 -0.9238795
vn 0.3826834 0 -0.9238795

vt 0.34375 0.2166316
vt 0.34375 0.1964286
vt 0.34375 0.025
vt 0.34375 0.225
vt 0.46875 0.1964286
vt 0.21875 0.275
vt 0.21875 0.475

usemtl colormap

f 3/1/1 2/2/2 1/1/1
f 2/2/2 3/1/1 4/2/2
f 7/2/3 6/3/3 5/2/3
f 6/3/3 7/2/3 8/3/3
f 11/3/4 10/2/4 9/3/4
f 10/2/4 11/3/4 12/2/4
f 13/4/5 3/1/1 1/1/1
f 3/1/1 13/4/5 14/4/5
f 4/2/2 15/3/3 2/2/2
f 15/3/3 4/2/2 16/3/3
f 4/2/6 11/3/6 16/3/6
f 11/3/6 4/2/6 12/2/6
f 12/2/6 4/2/6 3/1/6
f 12/2/6 3/1/6 7/2/6
f 7/2/6 3/1/6 17/2/6
f 18/3/6 7/2/6 17/2/6
f 7/2/6 18/3/6 8/3/6
f 17/2/6 3/1/6 19/1/6
f 19/1/6 3/1/6 14/4/6
f 19/1/6 14/4/6 20/4/6
f 22/1/8 20/4/7 21/4/7
f 20/4/7 22/1/8 19/1/8
f 24/2/9 6/3/9 23/3/9
f 6/3/9 24/2/9 5/2/9
f 5/2/9 24/2/9 10/2/9
f 1/1/9 10/2/9 24/2/9
f 1/1/9 24/2/9 22/1/9
f 1/1/9 22/1/9 13/4/9
f 13/4/9 22/1/9 21/4/9
f 2/2/9 10/2/9 1/1/9
f 15/3/9 10/2/9 2/2/9
f 10/2/9 15/3/9 9/3/9
f 21/4/7 14/4/5 13/4/5
f 14/4/5 21/4/7 20/4/7
f 17/2/10 22/1/8 24/2/10
f 22/1/8 17/2/10 19/1/8
f 18/3/4 24/2/10 23/3/4
f 24/2/10 18/3/4 17/2/10
f 7/5/11 10/5/11 12/5/11
f 10/5/11 7/5/11 5/5/11
f 27/7/12 26/6/13 25/6/12
f 26/6/13 27/7/12 28/7/13
f 31/7/15 30/6/14 29/7/14
f 30/6/14 31/7/15 32/6/15
f 25/6/11 30/6/11 32/6/11
f 30/6/11 25/6/11 33/6/11
f 33/6/11 25/6/11 26/6/11
f 33/6/11 26/6/11 34/6/11
f 34/6/11 26/6/11 35/6/11
f 34/6/11 35/6/11 36/6/11
f 26/6/13 37/7/16 35/6/16
f 37/7/16 26/6/13 28/7/13
f 27/7/12 32/6/15 31/7/15
f 32/6/15 27/7/12 25/6/12
f 38/7/17 31/7/17 29/7/17
f 31/7/17 38/7/17 27/7/17
f 27/7/17 38/7/17 39/7/17
f 27/7/17 39/7/17 28/7/17
f 28/7/17 39/7/17 40/7/17
f 28/7/17 40/7/17 37/7/17
f 35/6/16 40/7/18 36/6/18
f 40/7/18 35/6/16 37/7/16
f 39/7/19 33/6/20 34/6/19
f 33/6/20 39/7/19 38/7/20
f 29/7/14 33/6/20 38/7/20
f 33/6/20 29/7/14 30/6/14
f 36/6/18 39/7/19 34/6/19
f 39/7/19 36/6/18 40/7/18
f 43/6/18 42/7/19 41/6/19
f 42/7/19 43/6/18 44/7/18
f 47/7/12 46/6/13 45/6/12
f 46/6/13 47/7/12 48/7/13
f 51/7/14 50/6/20 49/7/20
f 50/6/20 51/7/14 52/6/14
f 46/6/13 54/7/16 53/6/16
f 54/7/16 46/6/13 48/7/13
f 49/7/17 55/7/17 51/7/17
f 55/7/17 49/7/17 47/7/17
f 47/7/17 49/7/17 42/7/17
f 47/7/17 42/7/17 48/7/17
f 48/7/17 42/7/17 44/7/17
f 48/7/17 44/7/17 54/7/17
f 45/6/11 52/6/11 56/6/11
f 52/6/11 45/6/11 50/6/11
f 50/6/11 45/6/11 46/6/11
f 50/6/11 46/6/11 41/6/11
f 41/6/11 46/6/11 53/6/11
f 41/6/11 53/6/11 43/6/11
f 47/7/12 56/6/15 55/7/15
f 56/6/15 47/7/12 45/6/12
f 55/7/15 52/6/14 51/7/14
f 52/6/14 55/7/15 56/6/15
f 42/7/19 50/6/20 41/6/19
f 50/6/20 42/7/19 49/7/20
f 53/6/16 44/7/18 43/6/18
f 44/7/18 53/6/16 54/7/16

g rail-narrow




usemtl colormap

f 3/1/1 2/2/2 1/1/1
f 2/2/2 3/1/1 4/2/2
f 7/2/3 6/3/3 5/2/3
f 6/3/3 7/2/3 8/3/3
f 11/3/4 10/2/4 9/3/4
f 10/2/4 11/3/4 12/2/4
f 13/4/5 3/1/1 1/1/1
f 3/1/1 13/4/5 14/4/5
f 4/2/2 15/3/3 2/2/2
f 15/3/3 4/2/2 16/3/3
f 4/2/6 11/3/6 16/3/6
f 11/3/6 4/2/6 12/2/6
f 12/2/6 4/2/6 3/1/6
f 12/2/6 3/1/6 7/2/6
f 7/2/6 3/1/6 17/2/6
f 18/3/6 7/2/6 17/2/6
f 7/2/6 18/3/6 8/3/6
f 17/2/6 3/1/6 19/1/6
f 19/1/6 3/1/6 14/4/6
f 19/1/6 14/4/6 20/4/6
f 22/1/8 20/4/7 21/4/7
f 20/4/7 22/1/8 19/1/8
f 24/2/9 6/3/9 23/3/9
f 6/3/9 24/2/9 5/2/9
f 5/2/9 24/2/9 10/2/9
f 1/1/9 10/2/9 24/2/9
f 1/1/9 24/2/9 22/1/9
f 1/1/9 22/1/9 13/4/9
f 13/4/9 22/1/9 21/4/9
f 2/2/9 10/2/9 1/1/9
f 15/3/9 10/2/9 2/2/9
f 10/2/9 15/3/9 9/3/9
f 21/4/7 14/4/5 13/4/5
f 14/4/5 21/4/7 20/4/7
f 17/2/10 22/1/8 24/2/10
f 22/1/8 17/2/10 19/1/8
f 18/3/4 24/2/10 23/3/4
f 24/2/10 18/3/4 17/2/10
f 7/5/11 10/5/11 12/5/11
f 10/5/11 7/5/11 5/5/11
f 27/7/12 26/6/13 25/6/12
f 26/6/13 27/7/12 28/7/13
f 31/7/15 30/6/14 29/7/14
f 30/6/14 31/7/15 32/6/15
f 25/6/11 30/6/11 32/6/11
f 30/6/11 25/6/11 33/6/11
f 33/6/11 25/6/11 26/6/11
f 33/6/11 26/6/11 34/6/11
f 34/6/11 26/6/11 35/6/11
f 34/6/11 35/6/11 36/6/11
f 26/6/13 37/7/16 35/6/16
f 37/7/16 26/6/13 28/7/13
f 27/7/12 32/6/15 31/7/15
f 32/6/15 27/7/12 25/6/12
f 38/7/17 31/7/17 29/7/17
f 31/7/17 38/7/17 27/7/17
f 27/7/17 38/7/17 39/7/17
f 27/7/17 39/7/17 28/7/17
f 28/7/17 39/7/17 40/7/17
f 28/7/17 40/7/17 37/7/17
f 35/6/16 40/7/18 36/6/18
f 40/7/18 35/6/16 37/7/16
f 39/7/19 33/6/20 34/6/19
f 33/6/20 39/7/19 38/7/20
f 29/7/14 33/6/20 38/7/20
f 33/6/20 29/7/14 30/6/14
f 36/6/18 39/7/19 34/6/19
f 39/7/19 36/6/18 40/7/18
f 43/6/18 42/7/19 41/6/19
f 42/7/19 43/6/18 44/7/18
f 47/7/12 46/6/13 45/6/12
f 46/6/13 47/7/12 48/7/13
f 51/7/14 50/6/20 49/7/20
f 50/6/20 51/7/14 52/6/14
f 46/6/13 54/7/16 53/6/16
f 54/7/16 46/6/13 48/7/13
f 49/7/17 55/7/17 51/7/17
f 55/7/17 49/7/17 47/7/17
f 47/7/17 49/7/17 42/7/17
f 47/7/17 42/7/17 48/7/17
f 48/7/17 42/7/17 44/7/17
f 48/7/17 44/7/17 54/7/17
f 45/6/11 52/6/11 56/6/11
f 52/6/11 45/6/11 50/6/11
f 50/6/11 45/6/11 46/6/11
f 50/6/11 46/6/11 41/6/11
f 41/6/11 46/6/11 53/6/11
f 41/6/11 53/6/11 43/6/11
f 47/7/12 56/6/15 55/7/15
f 56/6/15 47/7/12 45/6/12
f 55/7/15 52/6/14 51/7/14
f 52/6/14 55/7/15 56/6/15
f 42/7/19 50/6/20 41/6/19
f 50/6/20 42/7/19 49/7/20
f 53/6/16 44/7/18 43/6/18
f 44/7/18 53/6/16 54/7/16

