# Created by Kenney (www.kenney.nl)

mtllib skip-rocks.mtl

g skip-rocks

v -0.25 0.4 0.5 1 1 1
v 0.25 0.4 0.5 1 1 1
v -0.25 0.5 0.5 1 1 1
v 0.25 0.5 0.5 1 1 1
v -0.25 0.5 -0.5 1 1 1
v -0.25 0.4 -0.5 1 1 1
v 0.25 0.4 -0.5 1 1 1
v 0.25 0.5 -0.5 1 1 1
v 0.25 0.4 0.6 1 1 1
v -0.25 0.4 0.6 1 1 1
v 0.25 0.5 0.6 1 1 1
v -0.25 0.5 0.6 1 1 1
v -0.35 0.4 0.5 1 1 1
v -0.35 0.5 0.5 1 1 1
v -0.3207107 0.4 0.5707107 1 1 1
v -0.3207107 0.5 0.5707107 1 1 1
v 0.35 0.5 -0.5 1 1 1
v 0.35 0.4 -0.5 1 1 1
v 0.35 0.5 0.5 1 1 1
v 0.35 0.4 0.5 1 1 1
v 0.3207107 0.4 0.5707107 1 1 1
v 0.3207107 0.5 0.5707107 1 1 1
v 0.3207107 0.5 -0.5707107 1 1 1
v 0.3207107 0.4 -0.5707107 1 1 1
v -0.25 0.4 -0.6 1 1 1
v 0.25 0.4 -0.6 1 1 1
v -0.25 0.5 -0.6 1 1 1
v 0.25 0.5 -0.6 1 1 1
v -0.3207107 0.5 -0.5707107 1 1 1
v -0.35 0.5 -0.5 1 1 1
v -0.3207107 0.4 -0.5707107 1 1 1
v -0.35 0.4 -0.5 1 1 1
v -0.1875 0.5 0.1752405 1 1 1
v 0 0.5 0.06698728 1 1 1
v -0.13875 0.65 0.2033863 1 1 1
v 0 0.65 0.1232789 1 1 1
v 0.1875 0.5 0.1752405 1 1 1
v 0.1875 0.5 0.3917468 1 1 1
v 0.13875 0.65 0.2033863 1 1 1
v 0.13875 0.65 0.363601 1 1 1
v 0 0.5 0.5 1 1 1
v -0.1875 0.5 0.3917468 1 1 1
v 0 0.65 0.4437083 1 1 1
v -0.13875 0.65 0.363601 1 1 1
v -0.1875 0.5 -0.3917468 1 1 1
v 0 0.5 -0.5 1 1 1
v -0.13875 0.65 -0.363601 1 1 1
v 0 0.65 -0.4437083 1 1 1
v 0.1875 0.5 -0.3917468 1 1 1
v 0.1875 0.5 -0.1752405 1 1 1
v 0.13875 0.65 -0.363601 1 1 1
v 0.13875 0.65 -0.2033863 1 1 1
v 0 0.5 -0.06698728 1 1 1
v -0.1875 0.5 -0.1752405 1 1 1
v 0 0.65 -0.1232789 1 1 1
v -0.13875 0.65 -0.2033863 1 1 1
v 0.185 0.7 -0.1068098 1 1 1
v 0.185 0.7 0.1068098 1 1 1
v 3.609557E-16 0.7 -0.2136196 1 1 1
v 3.609557E-16 0.7 0.2136196 1 1 1
v -0.185 0.7 -0.1068098 1 1 1
v -0.185 0.7 0.1068098 1 1 1
v 0 0.5 -0.2886751 1 1 1
v 0.25 0.5 -0.1443376 1 1 1
v -0.25 0.5 -0.1443376 1 1 1
v -0.25 0.5 0.1443376 1 1 1
v 0.25 0.5 0.1443376 1 1 1
v 0 0.5 0.2886751 1 1 1
v 0.3 0.3 0.55 1 1 1
v -0.3 0.3 0.55 1 1 1
v 0.3 0.4 0.55 1 1 1
v -0.3 0.4 0.55 1 1 1
v 0.3 0 0.35 1 1 1
v 0.3 0 -0.55 1 1 1
v -0.3 0 0.35 1 1 1
v -0.3 0 -0.55 1 1 1
v 0.3 0.4 -0.55 1 1 1
v -0.3 0.4 -0.55 1 1 1
v -0.25 0.1 -0.5 1 1 1
v -0.25 0.1 0.4 1 1 1
v 0.25 0.1 -0.5 1 1 1
v 0.25 0.1 0.4 1 1 1

vn 0 0 -1
vn 1 0 0
vn 0 0 1
vn -1 0 0
vn 0.1950903 0 0.9807853
vn -0.1950903 0 0.9807853
vn -0.9807853 0 0.1950903
vn -0.7071068 0 0.7071068
vn 0.9807853 0 -0.1950903
vn 0.9807853 0 0.1950903
vn 0.7071068 0 0.7071068
vn 0.7071068 0 -0.7071068
vn -0.1950903 0 -0.9807853
vn 0.1950903 0 -0.9807853
vn 0 1 0
vn 0 -1 0
vn -0.9807853 0 -0.1950903
vn -0.7071068 0 -0.7071068
vn -0.8108108 0.3513514 -0.4681218
vn 0 0.3513513 -0.9362436
vn 0.8108108 0.3513514 -0.4681218
vn 0.8108108 0.3513514 0.4681218
vn 0 0.3513513 0.9362436
vn -0.8108108 0.3513514 0.4681218
vn 0 -0.2897842 0.957092
vn 0 -0.5547002 0.8320503
vn 0 0.3162278 -0.9486833

vt 0.21875 0.275
vt 0.21875 0.475
vt 0.59375 0.025
vt 0.59375 0.225
vt 0.34375 0.075
vt 0.34375 0.025
vt 0.34375 0.225
vt 0.09375 0.025
vt 0.09375 0.175

usemtl colormap

f 3/2/1 2/1/1 1/1/1
f 2/1/1 3/2/1 4/2/1
f 3/2/2 6/1/2 5/2/2
f 6/1/2 3/2/2 1/1/2
f 8/2/3 6/1/3 7/1/3
f 6/1/3 8/2/3 5/2/3
f 2/1/4 8/2/4 7/1/4
f 8/2/4 2/1/4 4/2/4
f 11/2/5 10/1/6 9/1/5
f 10/1/6 11/2/5 12/2/6
f 15/1/8 14/2/7 13/1/7
f 14/2/7 15/1/8 16/2/8
f 12/2/6 15/1/8 10/1/6
f 15/1/8 12/2/6 16/2/8
f 19/2/10 18/1/9 17/2/9
f 18/1/9 19/2/10 20/1/10
f 22/2/11 9/1/5 21/1/11
f 9/1/5 22/2/11 11/2/5
f 22/2/11 20/1/10 19/2/10
f 20/1/10 22/2/11 21/1/11
f 17/2/9 24/1/12 23/2/12
f 24/1/12 17/2/9 18/1/9
f 27/2/13 26/1/14 25/1/13
f 26/1/14 27/2/13 28/2/14
f 28/2/14 24/1/12 26/1/14
f 24/1/12 28/2/14 23/2/12
f 23/2/15 19/2/15 17/2/15
f 19/2/15 23/2/15 22/2/15
f 22/2/15 23/2/15 28/2/15
f 22/2/15 28/2/15 11/2/15
f 11/2/15 28/2/15 8/2/15
f 27/2/15 8/2/15 28/2/15
f 11/2/15 8/2/15 4/2/15
f 8/2/15 27/2/15 5/2/15
f 11/2/15 4/2/15 3/2/15
f 5/2/15 27/2/15 3/2/15
f 11/2/15 3/2/15 12/2/15
f 12/2/15 3/2/15 27/2/15
f 12/2/15 27/2/15 29/2/15
f 12/2/15 29/2/15 16/2/15
f 16/2/15 29/2/15 30/2/15
f 16/2/15 30/2/15 14/2/15
f 21/1/16 18/1/16 20/1/16
f 18/1/16 21/1/16 24/1/16
f 24/1/16 21/1/16 9/1/16
f 24/1/16 9/1/16 26/1/16
f 26/1/16 9/1/16 2/1/16
f 10/1/16 2/1/16 9/1/16
f 26/1/16 2/1/16 7/1/16
f 2/1/16 10/1/16 1/1/16
f 26/1/16 7/1/16 6/1/16
f 1/1/16 10/1/16 6/1/16
f 26/1/16 6/1/16 25/1/16
f 25/1/16 6/1/16 10/1/16
f 25/1/16 10/1/16 15/1/16
f 25/1/16 15/1/16 31/1/16
f 31/1/16 15/1/16 13/1/16
f 31/1/16 13/1/16 32/1/16
f 13/1/7 30/2/17 32/1/17
f 30/2/17 13/1/7 14/2/7
f 32/1/17 29/2/18 31/1/18
f 29/2/18 32/1/17 30/2/17
f 29/2/18 25/1/13 31/1/18
f 25/1/13 29/2/18 27/2/13
f 35/4/19 34/3/20 33/3/19
f 34/3/20 35/4/19 36/4/20
f 39/4/21 38/3/22 37/3/21
f 38/3/22 39/4/21 40/4/22
f 43/4/23 42/3/24 41/3/23
f 42/3/24 43/4/23 44/4/24
f 36/4/15 40/4/15 39/4/15
f 40/4/15 36/4/15 43/4/15
f 43/4/15 36/4/15 35/4/15
f 43/4/15 35/4/15 44/4/15
f 36/4/20 37/3/21 34/3/20
f 37/3/21 36/4/20 39/4/21
f 42/3/24 35/4/19 33/3/19
f 35/4/19 42/3/24 44/4/24
f 40/4/22 41/3/23 38/3/22
f 41/3/23 40/4/22 43/4/23
f 47/4/19 46/3/20 45/3/19
f 46/3/20 47/4/19 48/4/20
f 51/4/21 50/3/22 49/3/21
f 50/3/22 51/4/21 52/4/22
f 55/4/23 54/3/24 53/3/23
f 54/3/24 55/4/23 56/4/24
f 48/4/15 52/4/15 51/4/15
f 52/4/15 48/4/15 55/4/15
f 55/4/15 48/4/15 47/4/15
f 55/4/15 47/4/15 56/4/15
f 48/4/20 49/3/21 46/3/20
f 49/3/21 48/4/20 51/4/21
f 54/3/24 47/4/19 45/3/19
f 47/4/19 54/3/24 56/4/24
f 52/4/22 53/3/23 50/3/22
f 53/3/23 52/4/22 55/4/23
f 5/3/15 4/3/15 8/3/15
f 4/3/15 5/3/15 3/3/15
f 59/4/15 58/4/15 57/4/15
f 58/4/15 59/4/15 60/4/15
f 60/4/15 59/4/15 61/4/15
f 60/4/15 61/4/15 62/4/15
f 59/4/20 64/3/21 63/3/20
f 64/3/21 59/4/20 57/4/21
f 61/4/19 63/3/20 65/3/19
f 63/3/20 61/4/19 59/4/20
f 66/3/24 61/4/19 65/3/19
f 61/4/19 66/3/24 62/4/24
f 58/4/22 68/3/23 67/3/22
f 68/3/23 58/4/22 60/4/23
f 57/4/21 67/3/22 64/3/21
f 67/3/22 57/4/21 58/4/22
f 60/4/23 66/3/24 68/3/23
f 66/3/24 60/4/23 62/4/24
f 71/6/3 70/5/25 69/5/25
f 70/5/25 71/6/3 72/6/3
f 75/7/16 74/7/16 73/7/16
f 74/7/16 75/7/16 76/7/16
f 69/5/25 75/7/26 73/7/26
f 75/7/26 69/5/25 70/5/25
f 71/6/2 74/7/2 77/6/2
f 74/7/2 71/6/2 73/7/2
f 73/7/2 71/6/2 69/5/2
f 78/6/1 74/7/1 76/7/1
f 74/7/1 78/6/1 77/6/1
f 75/7/4 78/6/4 76/7/4
f 78/6/4 75/7/4 72/6/4
f 72/6/4 75/7/4 70/5/4
f 1/8/2 79/9/2 6/8/2
f 79/9/2 1/8/2 80/9/2
f 7/8/3 79/9/3 81/9/3
f 79/9/3 7/8/3 6/8/3
f 79/9/15 82/9/15 81/9/15
f 82/9/15 79/9/15 80/9/15
f 82/9/4 7/8/4 81/9/4
f 7/8/4 82/9/4 2/8/4
f 1/8/27 82/9/27 80/9/27
f 82/9/27 1/8/27 2/8/27

g skip-rocks




usemtl colormap

f 3/2/1 2/1/1 1/1/1
f 2/1/1 3/2/1 4/2/1
f 3/2/2 6/1/2 5/2/2
f 6/1/2 3/2/2 1/1/2
f 8/2/3 6/1/3 7/1/3
f 6/1/3 8/2/3 5/2/3
f 2/1/4 8/2/4 7/1/4
f 8/2/4 2/1/4 4/2/4
f 11/2/5 10/1/6 9/1/5
f 10/1/6 11/2/5 12/2/6
f 15/1/8 14/2/7 13/1/7
f 14/2/7 15/1/8 16/2/8
f 12/2/6 15/1/8 10/1/6
f 15/1/8 12/2/6 16/2/8
f 19/2/10 18/1/9 17/2/9
f 18/1/9 19/2/10 20/1/10
f 22/2/11 9/1/5 21/1/11
f 9/1/5 22/2/11 11/2/5
f 22/2/11 20/1/10 19/2/10
f 20/1/10 22/2/11 21/1/11
f 17/2/9 24/1/12 23/2/12
f 24/1/12 17/2/9 18/1/9
f 27/2/13 26/1/14 25/1/13
f 26/1/14 27/2/13 28/2/14
f 28/2/14 24/1/12 26/1/14
f 24/1/12 28/2/14 23/2/12
f 23/2/15 19/2/15 17/2/15
f 19/2/15 23/2/15 22/2/15
f 22/2/15 23/2/15 28/2/15
f 22/2/15 28/2/15 11/2/15
f 11/2/15 28/2/15 8/2/15
f 27/2/15 8/2/15 28/2/15
f 11/2/15 8/2/15 4/2/15
f 8/2/15 27/2/15 5/2/15
f 11/2/15 4/2/15 3/2/15
f 5/2/15 27/2/15 3/2/15
f 11/2/15 3/2/15 12/2/15
f 12/2/15 3/2/15 27/2/15
f 12/2/15 27/2/15 29/2/15
f 12/2/15 29/2/15 16/2/15
f 16/2/15 29/2/15 30/2/15
f 16/2/15 30/2/15 14/2/15
f 21/1/16 18/1/16 20/1/16
f 18/1/16 21/1/16 24/1/16
f 24/1/16 21/1/16 9/1/16
f 24/1/16 9/1/16 26/1/16
f 26/1/16 9/1/16 2/1/16
f 10/1/16 2/1/16 9/1/16
f 26/1/16 2/1/16 7/1/16
f 2/1/16 10/1/16 1/1/16
f 26/1/16 7/1/16 6/1/16
f 1/1/16 10/1/16 6/1/16
f 26/1/16 6/1/16 25/1/16
f 25/1/16 6/1/16 10/1/16
f 25/1/16 10/1/16 15/1/16
f 25/1/16 15/1/16 31/1/16
f 31/1/16 15/1/16 13/1/16
f 31/1/16 13/1/16 32/1/16
f 13/1/7 30/2/17 32/1/17
f 30/2/17 13/1/7 14/2/7
f 32/1/17 29/2/18 31/1/18
f 29/2/18 32/1/17 30/2/17
f 29/2/18 25/1/13 31/1/18
f 25/1/13 29/2/18 27/2/13
f 35/4/19 34/3/20 33/3/19
f 34/3/20 35/4/19 36/4/20
f 39/4/21 38/3/22 37/3/21
f 38/3/22 39/4/21 40/4/22
f 43/4/23 42/3/24 41/3/23
f 42/3/24 43/4/23 44/4/24
f 36/4/15 40/4/15 39/4/15
f 40/4/15 36/4/15 43/4/15
f 43/4/15 36/4/15 35/4/15
f 43/4/15 35/4/15 44/4/15
f 36/4/20 37/3/21 34/3/20
f 37/3/21 36/4/20 39/4/21
f 42/3/24 35/4/19 33/3/19
f 35/4/19 42/3/24 44/4/24
f 40/4/22 41/3/23 38/3/22
f 41/3/23 40/4/22 43/4/23
f 47/4/19 46/3/20 45/3/19
f 46/3/20 47/4/19 48/4/20
f 51/4/21 50/3/22 49/3/21
f 50/3/22 51/4/21 52/4/22
f 55/4/23 54/3/24 53/3/23
f 54/3/24 55/4/23 56/4/24
f 48/4/15 52/4/15 51/4/15
f 52/4/15 48/4/15 55/4/15
f 55/4/15 48/4/15 47/4/15
f 55/4/15 47/4/15 56/4/15
f 48/4/20 49/3/21 46/3/20
f 49/3/21 48/4/20 51/4/21
f 54/3/24 47/4/19 45/3/19
f 47/4/19 54/3/24 56/4/24
f 52/4/22 53/3/23 50/3/22
f 53/3/23 52/4/22 55/4/23
f 5/3/15 4/3/15 8/3/15
f 4/3/15 5/3/15 3/3/15
f 59/4/15 58/4/15 57/4/15
f 58/4/15 59/4/15 60/4/15
f 60/4/15 59/4/15 61/4/15
f 60/4/15 61/4/15 62/4/15
f 59/4/20 64/3/21 63/3/20
f 64/3/21 59/4/20 57/4/21
f 61/4/19 63/3/20 65/3/19
f 63/3/20 61/4/19 59/4/20
f 66/3/24 61/4/19 65/3/19
f 61/4/19 66/3/24 62/4/24
f 58/4/22 68/3/23 67/3/22
f 68/3/23 58/4/22 60/4/23
f 57/4/21 67/3/22 64/3/21
f 67/3/22 57/4/21 58/4/22
f 60/4/23 66/3/24 68/3/23
f 66/3/24 60/4/23 62/4/24
f 71/6/3 70/5/25 69/5/25
f 70/5/25 71/6/3 72/6/3
f 75/7/16 74/7/16 73/7/16
f 74/7/16 75/7/16 76/7/16
f 69/5/25 75/7/26 73/7/26
f 75/7/26 69/5/25 70/5/25
f 71/6/2 74/7/2 77/6/2
f 74/7/2 71/6/2 73/7/2
f 73/7/2 71/6/2 69/5/2
f 78/6/1 74/7/1 76/7/1
f 74/7/1 78/6/1 77/6/1
f 75/7/4 78/6/4 76/7/4
f 78/6/4 75/7/4 72/6/4
f 72/6/4 75/7/4 70/5/4
f 1/8/2 79/9/2 6/8/2
f 79/9/2 1/8/2 80/9/2
f 7/8/3 79/9/3 81/9/3
f 79/9/3 7/8/3 6/8/3
f 79/9/15 82/9/15 81/9/15
f 82/9/15 79/9/15 80/9/15
f 82/9/4 7/8/4 81/9/4
f 7/8/4 82/9/4 2/8/4
f 1/8/27 82/9/27 80/9/27
f 82/9/27 1/8/27 2/8/27

