# Created by Kenney (www.kenney.nl)

mtllib skip.mtl

g skip

v -0.25 0.4 0.5 1 1 1
v 0.25 0.4 0.5 1 1 1
v -0.25 0.5 0.5 1 1 1
v 0.25 0.5 0.5 1 1 1
v -0.25 0.5 -0.5 1 1 1
v -0.25 0.4 -0.5 1 1 1
v 0.25 0.4 -0.5 1 1 1
v 0.25 0.5 -0.5 1 1 1
v 0.25 0.4 0.6 1 1 1
v -0.25 0.4 0.6 1 1 1
v 0.25 0.5 0.6 1 1 1
v -0.25 0.5 0.6 1 1 1
v -0.35 0.4 0.5 1 1 1
v -0.35 0.5 0.5 1 1 1
v -0.3207107 0.4 0.5707107 1 1 1
v -0.3207107 0.5 0.5707107 1 1 1
v 0.35 0.5 -0.5 1 1 1
v 0.35 0.4 -0.5 1 1 1
v 0.35 0.5 0.5 1 1 1
v 0.35 0.4 0.5 1 1 1
v 0.3207107 0.4 0.5707107 1 1 1
v 0.3207107 0.5 0.5707107 1 1 1
v 0.3207107 0.5 -0.5707107 1 1 1
v 0.3207107 0.4 -0.5707107 1 1 1
v -0.25 0.4 -0.6 1 1 1
v 0.25 0.4 -0.6 1 1 1
v -0.25 0.5 -0.6 1 1 1
v 0.25 0.5 -0.6 1 1 1
v -0.3207107 0.5 -0.5707107 1 1 1
v -0.35 0.5 -0.5 1 1 1
v -0.3207107 0.4 -0.5707107 1 1 1
v -0.35 0.4 -0.5 1 1 1
v 0.3 0.3 0.55 1 1 1
v -0.3 0.3 0.55 1 1 1
v 0.3 0.4 0.55 1 1 1
v -0.3 0.4 0.55 1 1 1
v 0.3 0 0.35 1 1 1
v 0.3 0 -0.55 1 1 1
v -0.3 0 0.35 1 1 1
v -0.3 0 -0.55 1 1 1
v 0.3 0.4 -0.55 1 1 1
v -0.3 0.4 -0.55 1 1 1
v -0.25 0.1 -0.5 1 1 1
v -0.25 0.1 0.4 1 1 1
v 0.25 0.1 -0.5 1 1 1
v 0.25 0.1 0.4 1 1 1

vn 0 0 -1
vn 1 0 0
vn 0 0 1
vn -1 0 0
vn 0.1950903 0 0.9807853
vn -0.1950903 0 0.9807853
vn -0.9807853 0 0.1950903
vn -0.7071068 0 0.7071068
vn 0.9807853 0 -0.1950903
vn 0.9807853 0 0.1950903
vn 0.7071068 0 0.7071068
vn 0.7071068 0 -0.7071068
vn -0.1950903 0 -0.9807853
vn 0.1950903 0 -0.9807853
vn 0 1 0
vn 0 -1 0
vn -0.9807853 0 -0.1950903
vn -0.7071068 0 -0.7071068
vn 0 -0.2897842 0.957092
vn 0 -0.5547002 0.8320503
vn 0 0.3162278 -0.9486833

vt 0.21875 0.275
vt 0.21875 0.475
vt 0.34375 0.075
vt 0.34375 0.025
vt 0.34375 0.225
vt 0.09375 0.025
vt 0.09375 0.175

usemtl colormap

f 3/2/1 2/1/1 1/1/1
f 2/1/1 3/2/1 4/2/1
f 3/2/2 6/1/2 5/2/2
f 6/1/2 3/2/2 1/1/2
f 8/2/3 6/1/3 7/1/3
f 6/1/3 8/2/3 5/2/3
f 2/1/4 8/2/4 7/1/4
f 8/2/4 2/1/4 4/2/4
f 11/2/5 10/1/6 9/1/5
f 10/1/6 11/2/5 12/2/6
f 15/1/8 14/2/7 13/1/7
f 14/2/7 15/1/8 16/2/8
f 12/2/6 15/1/8 10/1/6
f 15/1/8 12/2/6 16/2/8
f 19/2/10 18/1/9 17/2/9
f 18/1/9 19/2/10 20/1/10
f 22/2/11 9/1/5 21/1/11
f 9/1/5 22/2/11 11/2/5
f 22/2/11 20/1/10 19/2/10
f 20/1/10 22/2/11 21/1/11
f 17/2/9 24/1/12 23/2/12
f 24/1/12 17/2/9 18/1/9
f 27/2/13 26/1/14 25/1/13
f 26/1/14 27/2/13 28/2/14
f 28/2/14 24/1/12 26/1/14
f 24/1/12 28/2/14 23/2/12
f 23/2/15 19/2/15 17/2/15
f 19/2/15 23/2/15 22/2/15
f 22/2/15 23/2/15 28/2/15
f 22/2/15 28/2/15 11/2/15
f 11/2/15 28/2/15 8/2/15
f 27/2/15 8/2/15 28/2/15
f 11/2/15 8/2/15 4/2/15
f 8/2/15 27/2/15 5/2/15
f 11/2/15 4/2/15 3/2/15
f 5/2/15 27/2/15 3/2/15
f 11/2/15 3/2/15 12/2/15
f 12/2/15 3/2/15 27/2/15
f 12/2/15 27/2/15 29/2/15
f 12/2/15 29/2/15 16/2/15
f 16/2/15 29/2/15 30/2/15
f 16/2/15 30/2/15 14/2/15
f 21/1/16 18/1/16 20/1/16
f 18/1/16 21/1/16 24/1/16
f 24/1/16 21/1/16 9/1/16
f 24/1/16 9/1/16 26/1/16
f 26/1/16 9/1/16 2/1/16
f 10/1/16 2/1/16 9/1/16
f 26/1/16 2/1/16 7/1/16
f 2/1/16 10/1/16 1/1/16
f 26/1/16 7/1/16 6/1/16
f 1/1/16 10/1/16 6/1/16
f 26/1/16 6/1/16 25/1/16
f 25/1/16 6/1/16 10/1/16
f 25/1/16 10/1/16 15/1/16
f 25/1/16 15/1/16 31/1/16
f 31/1/16 15/1/16 13/1/16
f 31/1/16 13/1/16 32/1/16
f 13/1/7 30/2/17 32/1/17
f 30/2/17 13/1/7 14/2/7
f 32/1/17 29/2/18 31/1/18
f 29/2/18 32/1/17 30/2/17
f 29/2/18 25/1/13 31/1/18
f 25/1/13 29/2/18 27/2/13
f 35/4/3 34/3/19 33/3/19
f 34/3/19 35/4/3 36/4/3
f 39/5/16 38/5/16 37/5/16
f 38/5/16 39/5/16 40/5/16
f 33/3/19 39/5/20 37/5/20
f 39/5/20 33/3/19 34/3/19
f 35/4/2 38/5/2 41/4/2
f 38/5/2 35/4/2 37/5/2
f 37/5/2 35/4/2 33/3/2
f 42/4/1 38/5/1 40/5/1
f 38/5/1 42/4/1 41/4/1
f 39/5/4 42/4/4 40/5/4
f 42/4/4 39/5/4 36/4/4
f 36/4/4 39/5/4 34/3/4
f 1/6/2 43/7/2 6/6/2
f 43/7/2 1/6/2 44/7/2
f 7/6/3 43/7/3 45/7/3
f 43/7/3 7/6/3 6/6/3
f 43/7/15 46/7/15 45/7/15
f 46/7/15 43/7/15 44/7/15
f 46/7/4 7/6/4 45/7/4
f 7/6/4 46/7/4 2/6/4
f 1/6/21 46/7/21 44/7/21
f 46/7/21 1/6/21 2/6/21

g skip




usemtl colormap

f 3/2/1 2/1/1 1/1/1
f 2/1/1 3/2/1 4/2/1
f 3/2/2 6/1/2 5/2/2
f 6/1/2 3/2/2 1/1/2
f 8/2/3 6/1/3 7/1/3
f 6/1/3 8/2/3 5/2/3
f 2/1/4 8/2/4 7/1/4
f 8/2/4 2/1/4 4/2/4
f 11/2/5 10/1/6 9/1/5
f 10/1/6 11/2/5 12/2/6
f 15/1/8 14/2/7 13/1/7
f 14/2/7 15/1/8 16/2/8
f 12/2/6 15/1/8 10/1/6
f 15/1/8 12/2/6 16/2/8
f 19/2/10 18/1/9 17/2/9
f 18/1/9 19/2/10 20/1/10
f 22/2/11 9/1/5 21/1/11
f 9/1/5 22/2/11 11/2/5
f 22/2/11 20/1/10 19/2/10
f 20/1/10 22/2/11 21/1/11
f 17/2/9 24/1/12 23/2/12
f 24/1/12 17/2/9 18/1/9
f 27/2/13 26/1/14 25/1/13
f 26/1/14 27/2/13 28/2/14
f 28/2/14 24/1/12 26/1/14
f 24/1/12 28/2/14 23/2/12
f 23/2/15 19/2/15 17/2/15
f 19/2/15 23/2/15 22/2/15
f 22/2/15 23/2/15 28/2/15
f 22/2/15 28/2/15 11/2/15
f 11/2/15 28/2/15 8/2/15
f 27/2/15 8/2/15 28/2/15
f 11/2/15 8/2/15 4/2/15
f 8/2/15 27/2/15 5/2/15
f 11/2/15 4/2/15 3/2/15
f 5/2/15 27/2/15 3/2/15
f 11/2/15 3/2/15 12/2/15
f 12/2/15 3/2/15 27/2/15
f 12/2/15 27/2/15 29/2/15
f 12/2/15 29/2/15 16/2/15
f 16/2/15 29/2/15 30/2/15
f 16/2/15 30/2/15 14/2/15
f 21/1/16 18/1/16 20/1/16
f 18/1/16 21/1/16 24/1/16
f 24/1/16 21/1/16 9/1/16
f 24/1/16 9/1/16 26/1/16
f 26/1/16 9/1/16 2/1/16
f 10/1/16 2/1/16 9/1/16
f 26/1/16 2/1/16 7/1/16
f 2/1/16 10/1/16 1/1/16
f 26/1/16 7/1/16 6/1/16
f 1/1/16 10/1/16 6/1/16
f 26/1/16 6/1/16 25/1/16
f 25/1/16 6/1/16 10/1/16
f 25/1/16 10/1/16 15/1/16
f 25/1/16 15/1/16 31/1/16
f 31/1/16 15/1/16 13/1/16
f 31/1/16 13/1/16 32/1/16
f 13/1/7 30/2/17 32/1/17
f 30/2/17 13/1/7 14/2/7
f 32/1/17 29/2/18 31/1/18
f 29/2/18 32/1/17 30/2/17
f 29/2/18 25/1/13 31/1/18
f 25/1/13 29/2/18 27/2/13
f 35/4/3 34/3/19 33/3/19
f 34/3/19 35/4/3 36/4/3
f 39/5/16 38/5/16 37/5/16
f 38/5/16 39/5/16 40/5/16
f 33/3/19 39/5/20 37/5/20
f 39/5/20 33/3/19 34/3/19
f 35/4/2 38/5/2 41/4/2
f 38/5/2 35/4/2 37/5/2
f 37/5/2 35/4/2 33/3/2
f 42/4/1 38/5/1 40/5/1
f 38/5/1 42/4/1 41/4/1
f 39/5/4 42/4/4 40/5/4
f 42/4/4 39/5/4 36/4/4
f 36/4/4 39/5/4 34/3/4
f 1/6/2 43/7/2 6/6/2
f 43/7/2 1/6/2 44/7/2
f 7/6/3 43/7/3 45/7/3
f 43/7/3 7/6/3 6/6/3
f 43/7/15 46/7/15 45/7/15
f 46/7/15 43/7/15 44/7/15
f 46/7/4 7/6/4 45/7/4
f 7/6/4 46/7/4 2/6/4
f 1/6/21 46/7/21 44/7/21
f 46/7/21 1/6/21 2/6/21

