# Created by Kenney (www.kenney.nl)

mtllib stairs-small-edges.mtl

g stairs-small-edges

v 0.4 0.3 -0.2 1 1 1
v 0.4 0.3 -0.1 1 1 1
v -0.4 0.3 -0.2 1 1 1
v -0.4 0.3 -0.1 1 1 1
v 0.4 0.1 0 1 1 1
v 0.4 0.1 0.1 1 1 1
v -0.4 0.1 0 1 1 1
v -0.4 0.1 0.1 1 1 1
v 0.4 0.2 -0.1 1 1 1
v 0.4 0.2 0 1 1 1
v -0.4 0.2 -0.1 1 1 1
v -0.4 0.2 0 1 1 1
v -0.4 0 -0.2 1 1 1
v 0.4 0 -0.2 1 1 1
v 0.4 0 0.1 1 1 1
v -0.4 0 0.1 1 1 1
v 0.5 0.4 -0.2 1 1 1
v 0.5 0 -0.2 1 1 1
v 0.5 0.4 -0.1 1 1 1
v 0.5 0 0.2 1 1 1
v 0.5 0.1 0.2 1 1 1
v 0.4 0 0.2 1 1 1
v 0.4 0 -0.2 1 1 1
v 0.4 0.4 -0.2 1 1 1
v 0.4 0.4 -0.1 1 1 1
v 0.4 0.1 0.2 1 1 1
v -0.5 0 -0.2 1 1 1
v -0.4 0 -0.2 1 1 1
v -0.5 0.4 -0.2 1 1 1
v -0.4 0.4 -0.2 1 1 1
v -0.5 0 0.2 1 1 1
v -0.5 0.4 -0.1 1 1 1
v -0.5 0.1 0.2 1 1 1
v -0.4 0 0.2 1 1 1
v -0.4 0.4 -0.1 1 1 1
v -0.4 0.1 0.2 1 1 1

vn 0 1 0
vn 0 0 -1
vn 0 0 1
vn 0 -1 0
vn 1 0 0
vn -1 0 0
vn 0 0.9238795 0.3826834
vn 0 0.3826834 0.9238795

vt 0.34375 0.225
vt 0.34375 0.09166666
vt 0.34375 0.1583333
vt 0.21875 0.025
vt 0.21875 0.225
vt 0.21875 0.09166666
vt 0.21875 0.1583333
vt 0.21875 0.075
vt 0.21875 0.475
vt 0.21875 0.325
vt 0.21875 0.275

usemtl colormap

f 3/1/1 2/1/1 1/1/1
f 2/1/1 3/1/1 4/1/1
f 7/2/1 6/2/1 5/2/1
f 6/2/1 7/2/1 8/2/1
f 11/3/1 10/3/1 9/3/1
f 10/3/1 11/3/1 12/3/1
f 3/5/2 14/4/2 13/4/2
f 14/4/2 3/5/2 1/5/2
f 10/7/3 7/6/3 5/6/3
f 7/6/3 10/7/3 12/7/3
f 2/5/3 11/7/3 9/7/3
f 11/7/3 2/5/3 4/5/3
f 16/4/4 14/4/4 15/4/4
f 14/4/4 16/4/4 13/4/4
f 6/6/3 16/4/3 15/4/3
f 16/4/3 6/6/3 8/6/3
f 19/5/5 18/4/5 17/5/5
f 18/4/5 19/5/5 20/4/5
f 20/4/5 19/5/5 21/8/5
f 22/4/4 18/4/4 20/4/4
f 18/4/4 22/4/4 23/4/4
f 22/4/6 24/5/6 23/4/6
f 24/5/6 22/4/6 25/5/6
f 25/5/6 22/4/6 26/8/6
f 24/5/2 18/4/2 23/4/2
f 18/4/2 24/5/2 17/5/2
f 29/5/2 28/4/2 27/4/2
f 28/4/2 29/5/2 30/5/2
f 31/4/6 29/5/6 27/4/6
f 29/5/6 31/4/6 32/5/6
f 32/5/6 31/4/6 33/8/6
f 31/4/4 28/4/4 34/4/4
f 28/4/4 31/4/4 27/4/4
f 35/5/5 28/4/5 30/5/5
f 28/4/5 35/5/5 34/4/5
f 34/4/5 35/5/5 36/8/5
f 25/9/7 21/10/8 19/9/7
f 21/10/8 25/9/7 26/10/8
f 24/9/1 19/9/7 17/9/1
f 19/9/7 24/9/1 25/9/7
f 21/10/8 22/11/3 20/11/3
f 22/11/3 21/10/8 26/10/8
f 36/10/8 31/11/3 34/11/3
f 31/11/3 36/10/8 33/10/8
f 29/9/1 35/9/7 30/9/1
f 35/9/7 29/9/1 32/9/7
f 32/9/7 36/10/8 35/9/7
f 36/10/8 32/9/7 33/10/8

g stairs-small-edges




usemtl colormap

f 3/1/1 2/1/1 1/1/1
f 2/1/1 3/1/1 4/1/1
f 7/2/1 6/2/1 5/2/1
f 6/2/1 7/2/1 8/2/1
f 11/3/1 10/3/1 9/3/1
f 10/3/1 11/3/1 12/3/1
f 3/5/2 14/4/2 13/4/2
f 14/4/2 3/5/2 1/5/2
f 10/7/3 7/6/3 5/6/3
f 7/6/3 10/7/3 12/7/3
f 2/5/3 11/7/3 9/7/3
f 11/7/3 2/5/3 4/5/3
f 16/4/4 14/4/4 15/4/4
f 14/4/4 16/4/4 13/4/4
f 6/6/3 16/4/3 15/4/3
f 16/4/3 6/6/3 8/6/3
f 19/5/5 18/4/5 17/5/5
f 18/4/5 19/5/5 20/4/5
f 20/4/5 19/5/5 21/8/5
f 22/4/4 18/4/4 20/4/4
f 18/4/4 22/4/4 23/4/4
f 22/4/6 24/5/6 23/4/6
f 24/5/6 22/4/6 25/5/6
f 25/5/6 22/4/6 26/8/6
f 24/5/2 18/4/2 23/4/2
f 18/4/2 24/5/2 17/5/2
f 29/5/2 28/4/2 27/4/2
f 28/4/2 29/5/2 30/5/2
f 31/4/6 29/5/6 27/4/6
f 29/5/6 31/4/6 32/5/6
f 32/5/6 31/4/6 33/8/6
f 31/4/4 28/4/4 34/4/4
f 28/4/4 31/4/4 27/4/4
f 35/5/5 28/4/5 30/5/5
f 28/4/5 35/5/5 34/4/5
f 34/4/5 35/5/5 36/8/5
f 25/9/7 21/10/8 19/9/7
f 21/10/8 25/9/7 26/10/8
f 24/9/1 19/9/7 17/9/1
f 19/9/7 24/9/1 25/9/7
f 21/10/8 22/11/3 20/11/3
f 22/11/3 21/10/8 26/10/8
f 36/10/8 31/11/3 34/11/3
f 31/11/3 36/10/8 33/10/8
f 29/9/1 35/9/7 30/9/1
f 35/9/7 29/9/1 32/9/7
f 32/9/7 36/10/8 35/9/7
f 36/10/8 32/9/7 33/10/8

