# Created by Kenney (www.kenney.nl)

mtllib stairs-small-edge-handrail.mtl

g stairs-small-edge-handrail

v 0.5 0.3 -0.2 1 1 1
v 0.5 0.3 -0.1 1 1 1
v -0.4 0.3 -0.2 1 1 1
v -0.4 0.3 -0.1 1 1 1
v 0.5 0.1 0 1 1 1
v 0.5 0.1 0.1 1 1 1
v -0.4 0.1 0 1 1 1
v -0.4 0.1 0.1 1 1 1
v 0.5 0.2 -0.1 1 1 1
v 0.5 0.2 0 1 1 1
v -0.4 0.2 -0.1 1 1 1
v -0.4 0.2 0 1 1 1
v -0.475 0.4 -0.175 1 1 1
v -0.475 0.65 -0.175 1 1 1
v -0.475 0.4 -0.125 1 1 1
v -0.475 0.65 -0.125 1 1 1
v -0.425 0.4 -0.125 1 1 1
v -0.425 0.65 -0.125 1 1 1
v -0.425 0.65 -0.175 1 1 1
v -0.425 0.4 -0.175 1 1 1
v -0.425 0.1 0.175 1 1 1
v -0.475 0.1 0.175 1 1 1
v -0.425 0.41525 0.175 1 1 1
v -0.475 0.41525 0.175 1 1 1
v -0.475 0.1 0.125 1 1 1
v -0.475 0.41525 0.125 1 1 1
v -0.425 0.41525 0.125 1 1 1
v -0.425 0.1 0.125 1 1 1
v -0.4 0 -0.2 1 1 1
v 0.5 0 -0.2 1 1 1
v 0.5 0 0.1 1 1 1
v -0.4 0 0.1 1 1 1
v -0.5 0 -0.2 1 1 1
v -0.4 0 -0.2 1 1 1
v -0.5 0.4 -0.2 1 1 1
v -0.4 0.4 -0.2 1 1 1
v -0.5 0 0.2 1 1 1
v -0.5 0.4 -0.1 1 1 1
v -0.5 0.1 0.2 1 1 1
v -0.4 0 0.2 1 1 1
v -0.4 0.4 -0.1 1 1 1
v -0.4 0.1 0.2 1 1 1
v -0.4 0.7 -0.2 1 1 1
v -0.4 0.7 -0.1 1 1 1
v -0.5 0.7 -0.2 1 1 1
v -0.5 0.7 -0.1 1 1 1
v -0.4 0.3 0.2 1 1 1
v -0.4 0.3 0.15 1 1 1
v -0.5 0.3 0.2 1 1 1
v -0.5 0.3 0.15 1 1 1
v -0.4 0.4 0.2 1 1 1
v -0.5 0.4 0.2 1 1 1
v -0.5 0.65 -0.2 1 1 1
v -0.4 0.65 -0.2 1 1 1
v -0.5 0.3792893 0.15 1 1 1
v -0.5 0.65 -0.1207107 1 1 1
v -0.4 0.3792893 0.15 1 1 1
v -0.4 0.65 -0.1207107 1 1 1

vn 0 1 0
vn -1 0 0
vn 0 0 1
vn 1 0 0
vn 0 0 -1
vn 0 -1 0
vn 0 0.9238795 0.3826834
vn 0 0.3826834 0.9238795
vn 0 -0.3826834 -0.9238795
vn 0 -0.9238795 -0.3826834

vt 0.34375 0.225
vt 0.34375 0.09166666
vt 0.34375 0.1583333
vt 0.34375 0.025
vt 0.21875 0.025
vt 0.21875 0.225
vt 0.21875 0.09166666
vt 0.21875 0.1583333
vt 0.21875 0.075
vt 0.21875 0.2
vt 0.21875 0.06464466
vt 0.21875 0.275
vt 0.21875 0.325
vt 0.21875 0.475

usemtl colormap

f 3/1/1 2/1/1 1/1/1
f 2/1/1 3/1/1 4/1/1
f 7/2/1 6/2/1 5/2/1
f 6/2/1 7/2/1 8/2/1
f 11/3/1 10/3/1 9/3/1
f 10/3/1 11/3/1 12/3/1
f 15/1/2 14/4/2 13/1/2
f 14/4/2 15/1/2 16/4/2
f 18/4/3 15/1/3 17/1/3
f 15/1/3 18/4/3 16/4/3
f 18/4/4 20/1/4 19/4/4
f 20/1/4 18/4/4 17/1/4
f 14/4/5 20/1/5 13/1/5
f 20/1/5 14/4/5 19/4/5
f 23/4/3 22/1/3 21/1/3
f 22/1/3 23/4/3 24/4/3
f 22/1/2 26/4/2 25/1/2
f 26/4/2 22/1/2 24/4/2
f 23/4/4 28/1/4 27/4/4
f 28/1/4 23/4/4 21/1/4
f 26/4/5 28/1/5 25/1/5
f 28/1/5 26/4/5 27/4/5
f 3/6/5 30/5/5 29/5/5
f 30/5/5 3/6/5 1/6/5
f 10/8/3 7/7/3 5/7/3
f 7/7/3 10/8/3 12/8/3
f 2/6/3 11/8/3 9/8/3
f 11/8/3 2/6/3 4/6/3
f 32/5/6 30/5/6 31/5/6
f 30/5/6 32/5/6 29/5/6
f 6/7/3 32/5/3 31/5/3
f 32/5/3 6/7/3 8/7/3
f 2/6/4 30/5/4 1/6/4
f 30/5/4 2/6/4 9/8/4
f 30/5/4 9/8/4 31/5/4
f 31/5/4 9/8/4 5/7/4
f 5/7/4 9/8/4 10/8/4
f 31/5/4 5/7/4 6/7/4
f 35/6/5 34/5/5 33/5/5
f 34/5/5 35/6/5 36/6/5
f 37/5/2 35/6/2 33/5/2
f 35/6/2 37/5/2 38/6/2
f 38/6/2 37/5/2 39/9/2
f 37/5/6 34/5/6 40/5/6
f 34/5/6 37/5/6 33/5/6
f 41/6/4 34/5/4 36/6/4
f 34/5/4 41/6/4 40/5/4
f 40/5/4 41/6/4 42/9/4
f 45/6/1 44/6/7 43/6/1
f 44/6/7 45/6/1 46/6/7
f 49/5/6 48/5/6 47/5/6
f 48/5/6 49/5/6 50/5/6
f 51/9/8 49/5/3 47/5/3
f 49/5/3 51/9/8 52/9/8
f 45/6/5 54/10/5 53/10/5
f 54/10/5 45/6/5 43/6/5
f 49/5/2 55/11/2 50/5/2
f 52/9/2 55/11/2 49/5/2
f 46/6/2 55/11/2 52/9/2
f 46/6/2 56/10/2 55/11/2
f 45/6/2 56/10/2 46/6/2
f 56/10/2 45/6/2 53/10/2
f 55/11/9 48/5/5 50/5/5
f 48/5/5 55/11/9 57/11/9
f 46/6/7 51/9/8 44/6/7
f 51/9/8 46/6/7 52/9/8
f 44/6/4 54/10/4 43/6/4
f 54/10/4 44/6/4 58/10/4
f 58/10/4 44/6/4 57/11/4
f 57/11/4 44/6/4 51/9/4
f 57/11/4 51/9/4 48/5/4
f 48/5/4 51/9/4 47/5/4
f 56/10/10 54/10/6 58/10/10
f 54/10/6 56/10/10 53/10/6
f 55/11/9 58/10/10 57/11/9
f 58/10/10 55/11/9 56/10/10
f 42/13/8 37/12/3 40/12/3
f 37/12/3 42/13/8 39/13/8
f 35/14/1 41/14/7 36/14/1
f 41/14/7 35/14/1 38/14/7
f 38/14/7 42/13/8 41/14/7
f 42/13/8 38/14/7 39/13/8

g stairs-small-edge-handrail




usemtl colormap

f 3/1/1 2/1/1 1/1/1
f 2/1/1 3/1/1 4/1/1
f 7/2/1 6/2/1 5/2/1
f 6/2/1 7/2/1 8/2/1
f 11/3/1 10/3/1 9/3/1
f 10/3/1 11/3/1 12/3/1
f 15/1/2 14/4/2 13/1/2
f 14/4/2 15/1/2 16/4/2
f 18/4/3 15/1/3 17/1/3
f 15/1/3 18/4/3 16/4/3
f 18/4/4 20/1/4 19/4/4
f 20/1/4 18/4/4 17/1/4
f 14/4/5 20/1/5 13/1/5
f 20/1/5 14/4/5 19/4/5
f 23/4/3 22/1/3 21/1/3
f 22/1/3 23/4/3 24/4/3
f 22/1/2 26/4/2 25/1/2
f 26/4/2 22/1/2 24/4/2
f 23/4/4 28/1/4 27/4/4
f 28/1/4 23/4/4 21/1/4
f 26/4/5 28/1/5 25/1/5
f 28/1/5 26/4/5 27/4/5
f 3/6/5 30/5/5 29/5/5
f 30/5/5 3/6/5 1/6/5
f 10/8/3 7/7/3 5/7/3
f 7/7/3 10/8/3 12/8/3
f 2/6/3 11/8/3 9/8/3
f 11/8/3 2/6/3 4/6/3
f 32/5/6 30/5/6 31/5/6
f 30/5/6 32/5/6 29/5/6
f 6/7/3 32/5/3 31/5/3
f 32/5/3 6/7/3 8/7/3
f 2/6/4 30/5/4 1/6/4
f 30/5/4 2/6/4 9/8/4
f 30/5/4 9/8/4 31/5/4
f 31/5/4 9/8/4 5/7/4
f 5/7/4 9/8/4 10/8/4
f 31/5/4 5/7/4 6/7/4
f 35/6/5 34/5/5 33/5/5
f 34/5/5 35/6/5 36/6/5
f 37/5/2 35/6/2 33/5/2
f 35/6/2 37/5/2 38/6/2
f 38/6/2 37/5/2 39/9/2
f 37/5/6 34/5/6 40/5/6
f 34/5/6 37/5/6 33/5/6
f 41/6/4 34/5/4 36/6/4
f 34/5/4 41/6/4 40/5/4
f 40/5/4 41/6/4 42/9/4
f 45/6/1 44/6/7 43/6/1
f 44/6/7 45/6/1 46/6/7
f 49/5/6 48/5/6 47/5/6
f 48/5/6 49/5/6 50/5/6
f 51/9/8 49/5/3 47/5/3
f 49/5/3 51/9/8 52/9/8
f 45/6/5 54/10/5 53/10/5
f 54/10/5 45/6/5 43/6/5
f 49/5/2 55/11/2 50/5/2
f 52/9/2 55/11/2 49/5/2
f 46/6/2 55/11/2 52/9/2
f 46/6/2 56/10/2 55/11/2
f 45/6/2 56/10/2 46/6/2
f 56/10/2 45/6/2 53/10/2
f 55/11/9 48/5/5 50/5/5
f 48/5/5 55/11/9 57/11/9
f 46/6/7 51/9/8 44/6/7
f 51/9/8 46/6/7 52/9/8
f 44/6/4 54/10/4 43/6/4
f 54/10/4 44/6/4 58/10/4
f 58/10/4 44/6/4 57/11/4
f 57/11/4 44/6/4 51/9/4
f 57/11/4 51/9/4 48/5/4
f 48/5/4 51/9/4 47/5/4
f 56/10/10 54/10/6 58/10/10
f 54/10/6 56/10/10 53/10/6
f 55/11/9 58/10/10 57/11/9
f 58/10/10 55/11/9 56/10/10
f 42/13/8 37/12/3 40/12/3
f 37/12/3 42/13/8 39/13/8
f 35/14/1 41/14/7 36/14/1
f 41/14/7 35/14/1 38/14/7
f 38/14/7 42/13/8 41/14/7
f 42/13/8 38/14/7 39/13/8

