# Created by Kenney (www.kenney.nl)

mtllib stairs-small-center.mtl

g stairs-small-center

v -0.5 0 -0.2 1 1 1
v -0.5 0.3 -0.2 1 1 1
v -0.5 0 0.1 1 1 1
v -0.5 0.2 -0.1 1 1 1
v -0.5 0.3 -0.1 1 1 1
v -0.5 0.1 0 1 1 1
v -0.5 0.1 0.1 1 1 1
v -0.5 0.2 0 1 1 1
v 0.5 0.3 -0.2 1 1 1
v 0.5 0 -0.2 1 1 1
v 0.5 0.3 -0.1 1 1 1
v 0.5 0.2 -0.1 1 1 1
v 0.5 0 0.1 1 1 1
v 0.5 0.1 0 1 1 1
v 0.5 0.2 0 1 1 1
v 0.5 0.1 0.1 1 1 1

vn -1 0 0
vn 1 0 0
vn 0 -1 0
vn 0 0 1
vn 0 0 -1
vn 0 1 0

vt 0.21875 0.025
vt 0.21875 0.225
vt 0.21875 0.1583333
vt 0.21875 0.09166666
vt 0.34375 0.1583333
vt 0.34375 0.225
vt 0.34375 0.09166666

usemtl colormap

f 3/1/1 2/2/1 1/1/1
f 2/2/1 3/1/1 4/3/1
f 5/2/1 2/2/1 4/3/1
f 4/3/1 3/1/1 6/4/1
f 6/4/1 3/1/1 7/4/1
f 8/3/1 4/3/1 6/4/1
f 11/2/2 10/1/2 9/2/2
f 10/1/2 11/2/2 12/3/2
f 10/1/2 12/3/2 13/1/2
f 13/1/2 12/3/2 14/4/2
f 14/4/2 12/3/2 15/3/2
f 13/1/2 14/4/2 16/4/2
f 3/1/3 10/1/3 13/1/3
f 10/1/3 3/1/3 1/1/3
f 11/2/4 4/3/4 12/3/4
f 4/3/4 11/2/4 5/2/4
f 15/3/4 6/4/4 14/4/4
f 6/4/4 15/3/4 8/3/4
f 16/4/4 3/1/4 13/1/4
f 3/1/4 16/4/4 7/4/4
f 2/2/5 10/1/5 1/1/5
f 10/1/5 2/2/5 9/2/5
f 4/5/6 15/5/6 12/5/6
f 15/5/6 4/5/6 8/5/6
f 2/6/6 11/6/6 9/6/6
f 11/6/6 2/6/6 5/6/6
f 6/7/6 16/7/6 14/7/6
f 16/7/6 6/7/6 7/7/6

g stairs-small-center




usemtl colormap

f 3/1/1 2/2/1 1/1/1
f 2/2/1 3/1/1 4/3/1
f 5/2/1 2/2/1 4/3/1
f 4/3/1 3/1/1 6/4/1
f 6/4/1 3/1/1 7/4/1
f 8/3/1 4/3/1 6/4/1
f 11/2/2 10/1/2 9/2/2
f 10/1/2 11/2/2 12/3/2
f 10/1/2 12/3/2 13/1/2
f 13/1/2 12/3/2 14/4/2
f 14/4/2 12/3/2 15/3/2
f 13/1/2 14/4/2 16/4/2
f 3/1/3 10/1/3 13/1/3
f 10/1/3 3/1/3 1/1/3
f 11/2/4 4/3/4 12/3/4
f 4/3/4 11/2/4 5/2/4
f 15/3/4 6/4/4 14/4/4
f 6/4/4 15/3/4 8/3/4
f 16/4/4 3/1/4 13/1/4
f 3/1/4 16/4/4 7/4/4
f 2/2/5 10/1/5 1/1/5
f 10/1/5 2/2/5 9/2/5
f 4/5/6 15/5/6 12/5/6
f 15/5/6 4/5/6 8/5/6
f 2/6/6 11/6/6 9/6/6
f 11/6/6 2/6/6 5/6/6
f 6/7/6 16/7/6 14/7/6
f 16/7/6 6/7/6 7/7/6

