# Created by Kenney (www.kenney.nl)

mtllib stairs-handrail.mtl

g stairs-handrail

v -0.4 0.5363992 -0.5 1 1 1
v -0.4 0.5125 -0.5 1 1 1
v -0.4 0.2363992 0.5 1 1 1
v -0.4 0.2125 0.5 1 1 1
v -0.5 0.5125 -0.5 1 1 1
v -0.5 0.5363992 -0.5 1 1 1
v -0.5 0.2125 0.5 1 1 1
v -0.5 0.2363992 0.5 1 1 1
v -0.475 0.5625 -0.5 1 1 1
v -0.475 0.2625 0.5 1 1 1
v -0.425 0.5625 -0.5 1 1 1
v -0.425 0.2625 0.5 1 1 1
v 0.5 0.5363992 -0.5 1 1 1
v 0.5 0.5125 -0.5 1 1 1
v 0.5 0.2363992 0.5 1 1 1
v 0.5 0.2125 0.5 1 1 1
v 0.4 0.5125 -0.5 1 1 1
v 0.4 0.5363992 -0.5 1 1 1
v 0.4 0.2125 0.5 1 1 1
v 0.4 0.2363992 0.5 1 1 1
v 0.475 0.5625 -0.5 1 1 1
v 0.475 0.2625 0.5 1 1 1
v 0.425 0.5625 -0.5 1 1 1
v 0.425 0.2625 0.5 1 1 1
v -0.475 0 0.35 1 1 1
v -0.475 0.2575 0.35 1 1 1
v -0.475 0 0.4 1 1 1
v -0.475 0.2575 0.4 1 1 1
v -0.425 0 0.4 1 1 1
v -0.425 0.2575 0.4 1 1 1
v -0.425 0.2575 0.35 1 1 1
v -0.425 0 0.35 1 1 1
v -0.475 0.225 -0.4 1 1 1
v -0.475 0.4825 -0.4 1 1 1
v -0.475 0.225 -0.35 1 1 1
v -0.475 0.4825 -0.35 1 1 1
v -0.425 0.225 -0.35 1 1 1
v -0.425 0.4825 -0.35 1 1 1
v -0.425 0.4825 -0.4 1 1 1
v -0.425 0.225 -0.4 1 1 1
v 0.425 0.225 -0.4 1 1 1
v 0.425 0.4825 -0.4 1 1 1
v 0.425 0.225 -0.35 1 1 1
v 0.425 0.4825 -0.35 1 1 1
v 0.475 0.225 -0.35 1 1 1
v 0.475 0.4825 -0.35 1 1 1
v 0.475 0.4825 -0.4 1 1 1
v 0.475 0.225 -0.4 1 1 1
v 0.425 0 0.35 1 1 1
v 0.425 0.2575 0.35 1 1 1
v 0.425 0 0.4 1 1 1
v 0.425 0.2575 0.4 1 1 1
v 0.475 0 0.4 1 1 1
v 0.475 0.2575 0.4 1 1 1
v 0.475 0.2575 0.35 1 1 1
v 0.475 0 0.35 1 1 1

vn 0.8958917 0.4255361 0.1276608
vn 1 0 0
vn 0.946532 0.3090045 0.09270134
vn -1 0 0
vn -0.8958917 0.4255361 0.1276608
vn -0.946532 0.3090045 0.09270134
vn -0.3552509 0.8953483 0.2686045
vn -0.406422 0.8751519 0.2625456
vn 0.3552509 0.8953483 0.2686045
vn 0.406422 0.8751519 0.2625456
vn 0 -0.9578263 -0.2873479
vn 0 0 1
vn 0 0 -1

vt 0.21875 0.4600853
vt 0.21875 0.4464286
vt 0.21875 0.2886567
vt 0.21875 0.275
vt 0.21875 0.475
vt 0.21875 0.3035714
vt 0.21875 0.025
vt 0.21875 0.1964286
vt 0.21875 0.0386567
vt 0.21875 0.05357143
vt 0.21875 0.2100853
vt 0.21875 0.225
vt 0.34375 0.225
vt 0.34375 0.025

usemtl colormap

f 3/3/3 2/2/2 1/1/1
f 2/2/2 3/3/3 4/4/2
f 7/4/4 6/1/5 5/2/4
f 6/1/5 7/4/4 8/3/6
f 8/3/6 9/5/7 6/1/5
f 9/5/7 8/3/6 10/6/8
f 9/5/7 12/6/10 11/5/9
f 12/6/10 9/5/7 10/6/8
f 12/6/10 1/1/1 11/5/9
f 1/1/1 12/6/10 3/3/3
f 15/3/3 14/2/2 13/1/1
f 14/2/2 15/3/3 16/4/2
f 19/4/4 18/1/5 17/2/4
f 18/1/5 19/4/4 20/3/6
f 23/5/7 22/6/10 21/5/9
f 22/6/10 23/5/7 24/6/8
f 22/6/10 13/1/1 21/5/9
f 13/1/1 22/6/10 15/3/3
f 20/3/6 23/5/7 18/1/5
f 23/5/7 20/3/6 24/6/8
f 7/7/11 2/8/11 4/7/11
f 2/8/11 7/7/11 5/8/11
f 3/9/12 7/7/12 4/7/12
f 7/7/12 3/9/12 8/9/12
f 8/9/12 3/9/12 12/10/12
f 8/9/12 12/10/12 10/10/12
f 6/11/13 2/8/13 5/8/13
f 2/8/13 6/11/13 1/11/13
f 1/11/13 6/11/13 9/12/13
f 1/11/13 9/12/13 11/12/13
f 19/7/11 14/8/11 16/7/11
f 14/8/11 19/7/11 17/8/11
f 15/9/12 19/7/12 16/7/12
f 19/7/12 15/9/12 20/9/12
f 20/9/12 15/9/12 22/10/12
f 20/9/12 22/10/12 24/10/12
f 18/11/13 14/8/13 17/8/13
f 14/8/13 18/11/13 13/11/13
f 13/11/13 18/11/13 23/12/13
f 13/11/13 23/12/13 21/12/13
f 27/13/4 26/14/4 25/13/4
f 26/14/4 27/13/4 28/14/4
f 30/14/12 27/13/12 29/13/12
f 27/13/12 30/14/12 28/14/12
f 30/14/2 32/13/2 31/14/2
f 32/13/2 30/14/2 29/13/2
f 26/14/13 32/13/13 25/13/13
f 32/13/13 26/14/13 31/14/13
f 35/13/4 34/14/4 33/13/4
f 34/14/4 35/13/4 36/14/4
f 38/14/12 35/13/12 37/13/12
f 35/13/12 38/14/12 36/14/12
f 38/14/2 40/13/2 39/14/2
f 40/13/2 38/14/2 37/13/2
f 34/14/13 40/13/13 33/13/13
f 40/13/13 34/14/13 39/14/13
f 43/13/4 42/14/4 41/13/4
f 42/14/4 43/13/4 44/14/4
f 46/14/12 43/13/12 45/13/12
f 43/13/12 46/14/12 44/14/12
f 46/14/2 48/13/2 47/14/2
f 48/13/2 46/14/2 45/13/2
f 42/14/13 48/13/13 41/13/13
f 48/13/13 42/14/13 47/14/13
f 51/13/4 50/14/4 49/13/4
f 50/14/4 51/13/4 52/14/4
f 54/14/12 51/13/12 53/13/12
f 51/13/12 54/14/12 52/14/12
f 54/14/2 56/13/2 55/14/2
f 56/13/2 54/14/2 53/13/2
f 50/14/13 56/13/13 49/13/13
f 56/13/13 50/14/13 55/14/13

g stairs-handrail




usemtl colormap

f 3/3/3 2/2/2 1/1/1
f 2/2/2 3/3/3 4/4/2
f 7/4/4 6/1/5 5/2/4
f 6/1/5 7/4/4 8/3/6
f 8/3/6 9/5/7 6/1/5
f 9/5/7 8/3/6 10/6/8
f 9/5/7 12/6/10 11/5/9
f 12/6/10 9/5/7 10/6/8
f 12/6/10 1/1/1 11/5/9
f 1/1/1 12/6/10 3/3/3
f 15/3/3 14/2/2 13/1/1
f 14/2/2 15/3/3 16/4/2
f 19/4/4 18/1/5 17/2/4
f 18/1/5 19/4/4 20/3/6
f 23/5/7 22/6/10 21/5/9
f 22/6/10 23/5/7 24/6/8
f 22/6/10 13/1/1 21/5/9
f 13/1/1 22/6/10 15/3/3
f 20/3/6 23/5/7 18/1/5
f 23/5/7 20/3/6 24/6/8
f 7/7/11 2/8/11 4/7/11
f 2/8/11 7/7/11 5/8/11
f 3/9/12 7/7/12 4/7/12
f 7/7/12 3/9/12 8/9/12
f 8/9/12 3/9/12 12/10/12
f 8/9/12 12/10/12 10/10/12
f 6/11/13 2/8/13 5/8/13
f 2/8/13 6/11/13 1/11/13
f 1/11/13 6/11/13 9/12/13
f 1/11/13 9/12/13 11/12/13
f 19/7/11 14/8/11 16/7/11
f 14/8/11 19/7/11 17/8/11
f 15/9/12 19/7/12 16/7/12
f 19/7/12 15/9/12 20/9/12
f 20/9/12 15/9/12 22/10/12
f 20/9/12 22/10/12 24/10/12
f 18/11/13 14/8/13 17/8/13
f 14/8/13 18/11/13 13/11/13
f 13/11/13 18/11/13 23/12/13
f 13/11/13 23/12/13 21/12/13
f 27/13/4 26/14/4 25/13/4
f 26/14/4 27/13/4 28/14/4
f 30/14/12 27/13/12 29/13/12
f 27/13/12 30/14/12 28/14/12
f 30/14/2 32/13/2 31/14/2
f 32/13/2 30/14/2 29/13/2
f 26/14/13 32/13/13 25/13/13
f 32/13/13 26/14/13 31/14/13
f 35/13/4 34/14/4 33/13/4
f 34/14/4 35/13/4 36/14/4
f 38/14/12 35/13/12 37/13/12
f 35/13/12 38/14/12 36/14/12
f 38/14/2 40/13/2 39/14/2
f 40/13/2 38/14/2 37/13/2
f 34/14/13 40/13/13 33/13/13
f 40/13/13 34/14/13 39/14/13
f 43/13/4 42/14/4 41/13/4
f 42/14/4 43/13/4 44/14/4
f 46/14/12 43/13/12 45/13/12
f 43/13/12 46/14/12 44/14/12
f 46/14/2 48/13/2 47/14/2
f 48/13/2 46/14/2 45/13/2
f 42/14/13 48/13/13 41/13/13
f 48/13/13 42/14/13 47/14/13
f 51/13/4 50/14/4 49/13/4
f 50/14/4 51/13/4 52/14/4
f 54/14/12 51/13/12 53/13/12
f 51/13/12 54/14/12 52/14/12
f 54/14/2 56/13/2 55/14/2
f 56/13/2 54/14/2 53/13/2
f 50/14/13 56/13/13 49/13/13
f 56/13/13 50/14/13 55/14/13

