# Created by Kenney (www.kenney.nl)

mtllib stairs.mtl

g stairs

v 0.5 0.3 -0.5 1 1 1
v 0.5 0 -0.5 1 1 1
v 0.5 0.3 -0.325 1 1 1
v 0.5 0.225 -0.25 1 1 1
v 0.5 0.3 -0.25 1 1 1
v 0.5 0 0.5 1 1 1
v 0.5 0.15 1.155058E-14 1 1 1
v 0.5 0.225 -0.075 1 1 1
v 0.5 0.225 1.155058E-14 1 1 1
v 0.5 0.075 0.25 1 1 1
v 0.5 0.15 0.175 1 1 1
v 0.5 0.15 0.25 1 1 1
v 0.5 0.075 0.425 1 1 1
v 0.5 0.075 0.5 1 1 1
v -0.5 0 0.5 1 1 1
v -0.5 0 -0.5 1 1 1
v -0.5 0.15 1.155058E-14 1 1 1
v -0.5 0.225 1.155058E-14 1 1 1
v -0.5 0.075 0.25 1 1 1
v -0.5 0.15 0.25 1 1 1
v -0.5 0.075 0.5 1 1 1
v -0.5 0.225 -0.25 1 1 1
v -0.5 0.3 -0.25 1 1 1
v -0.5 0.3 -0.5 1 1 1
v -0.5 0.3 -0.325 1 1 1
v -0.5 0.225 -0.075 1 1 1
v -0.5 0.15 0.175 1 1 1
v -0.5 0.075 0.425 1 1 1
v 0.5 0.225 -0.075 1 1 1
v 0.5 0.225 0 1 1 1
v -0.5 0.225 -0.075 1 1 1
v -0.5 0.225 0 1 1 1
v 0.5 0.3 -0.325 1 1 1
v 0.5 0.3 -0.25 1 1 1
v -0.5 0.3 -0.325 1 1 1
v -0.5 0.3 -0.25 1 1 1

vn 1 0 0
vn 0 -1 0
vn 0 0 1
vn 0 0 -1
vn -1 0 0
vn 0 1 0

vt 0.21875 0.225
vt 0.21875 0.025
vt 0.21875 0.175
vt 0.21875 0.125
vt 0.21875 0.075
vt 0.34375 0.125
vt 0.34375 0.175
vt 0.34375 0.075
vt 0.34375 0.225
vt 0.15625 0.375

usemtl colormap

f 3/1/1 2/2/1 1/1/1
f 2/2/1 3/1/1 4/3/1
f 4/3/1 3/1/1 5/1/1
f 2/2/1 4/3/1 6/2/1
f 6/2/1 4/3/1 7/4/1
f 7/4/1 4/3/1 8/3/1
f 7/4/1 8/3/1 9/3/1
f 6/2/1 7/4/1 10/5/1
f 10/5/1 7/4/1 11/4/1
f 10/5/1 11/4/1 12/4/1
f 6/2/1 10/5/1 13/5/1
f 6/2/1 13/5/1 14/5/1
f 15/2/2 2/2/2 6/2/2
f 2/2/2 15/2/2 16/2/2
f 9/3/3 17/4/3 7/4/3
f 17/4/3 9/3/3 18/3/3
f 12/4/3 19/5/3 10/5/3
f 19/5/3 12/4/3 20/4/3
f 14/5/3 15/2/3 6/2/3
f 15/2/3 14/5/3 21/5/3
f 5/1/3 22/3/3 4/3/3
f 22/3/3 5/1/3 23/1/3
f 24/1/4 2/2/4 16/2/4
f 2/2/4 24/1/4 1/1/4
f 15/2/5 24/1/5 16/2/5
f 24/1/5 15/2/5 22/3/5
f 24/1/5 22/3/5 25/1/5
f 23/1/5 25/1/5 22/3/5
f 22/3/5 15/2/5 17/4/5
f 22/3/5 17/4/5 26/3/5
f 18/3/5 26/3/5 17/4/5
f 17/4/5 15/2/5 19/5/5
f 17/4/5 19/5/5 27/4/5
f 20/4/5 27/4/5 19/5/5
f 19/5/5 15/2/5 28/5/5
f 28/5/5 15/2/5 21/5/5
f 17/6/6 11/6/6 7/6/6
f 11/6/6 17/6/6 27/6/6
f 22/7/6 8/7/6 4/7/6
f 8/7/6 22/7/6 26/7/6
f 19/8/6 13/8/6 10/8/6
f 13/8/6 19/8/6 28/8/6
f 24/9/6 3/9/6 1/9/6
f 3/9/6 24/9/6 25/9/6
f 28/10/6 14/10/6 13/10/6
f 14/10/6 28/10/6 21/10/6
f 27/10/6 12/10/6 11/10/6
f 12/10/6 27/10/6 20/10/6
f 31/10/6 30/10/6 29/10/6
f 30/10/6 31/10/6 32/10/6
f 35/10/6 34/10/6 33/10/6
f 34/10/6 35/10/6 36/10/6

g stairs




usemtl colormap

f 3/1/1 2/2/1 1/1/1
f 2/2/1 3/1/1 4/3/1
f 4/3/1 3/1/1 5/1/1
f 2/2/1 4/3/1 6/2/1
f 6/2/1 4/3/1 7/4/1
f 7/4/1 4/3/1 8/3/1
f 7/4/1 8/3/1 9/3/1
f 6/2/1 7/4/1 10/5/1
f 10/5/1 7/4/1 11/4/1
f 10/5/1 11/4/1 12/4/1
f 6/2/1 10/5/1 13/5/1
f 6/2/1 13/5/1 14/5/1
f 15/2/2 2/2/2 6/2/2
f 2/2/2 15/2/2 16/2/2
f 9/3/3 17/4/3 7/4/3
f 17/4/3 9/3/3 18/3/3
f 12/4/3 19/5/3 10/5/3
f 19/5/3 12/4/3 20/4/3
f 14/5/3 15/2/3 6/2/3
f 15/2/3 14/5/3 21/5/3
f 5/1/3 22/3/3 4/3/3
f 22/3/3 5/1/3 23/1/3
f 24/1/4 2/2/4 16/2/4
f 2/2/4 24/1/4 1/1/4
f 15/2/5 24/1/5 16/2/5
f 24/1/5 15/2/5 22/3/5
f 24/1/5 22/3/5 25/1/5
f 23/1/5 25/1/5 22/3/5
f 22/3/5 15/2/5 17/4/5
f 22/3/5 17/4/5 26/3/5
f 18/3/5 26/3/5 17/4/5
f 17/4/5 15/2/5 19/5/5
f 17/4/5 19/5/5 27/4/5
f 20/4/5 27/4/5 19/5/5
f 19/5/5 15/2/5 28/5/5
f 28/5/5 15/2/5 21/5/5
f 17/6/6 11/6/6 7/6/6
f 11/6/6 17/6/6 27/6/6
f 22/7/6 8/7/6 4/7/6
f 8/7/6 22/7/6 26/7/6
f 19/8/6 13/8/6 10/8/6
f 13/8/6 19/8/6 28/8/6
f 24/9/6 3/9/6 1/9/6
f 3/9/6 24/9/6 25/9/6
f 28/10/6 14/10/6 13/10/6
f 14/10/6 28/10/6 21/10/6
f 27/10/6 12/10/6 11/10/6
f 12/10/6 27/10/6 20/10/6
f 31/10/6 30/10/6 29/10/6
f 30/10/6 31/10/6 32/10/6
f 35/10/6 34/10/6 33/10/6
f 34/10/6 35/10/6 36/10/6

