# Created by Kenney (www.kenney.nl)

mtllib structure-panel.mtl

g structure-panel

v 0.35 2.259583E-13 0.35 1 1 1
v 0.35 0 -0.35 1 1 1
v -0.35 0 0.35 1 1 1
v -0.35 1.479918E-14 -0.35 1 1 1
v 0.35 0.1 -0.35 1 1 1
v -0.35 0.1 -0.35 1 1 1
v -0.35 0.1 0.35 1 1 1
v 0.35 0.1 0.35 1 1 1
v 0.4 0.125 0.125 1 1 1
v 0.35 0.125 0.125 1 1 1
v 0.4 0.125 -0.125 1 1 1
v 0.35 0.125 -0.125 1 1 1
v 0.4 0.025 0.125 1 1 1
v 0.4 0.025 -0.125 1 1 1
v 0.35 0.025 0.125 1 1 1
v 0.35 0.025 -0.125 1 1 1
v 0.325 0.05 -0.125 1 1 1
v 0.425 0.05 -0.125 1 1 1
v 0.325 0.1 -0.125 1 1 1
v 0.425 0.1 -0.125 1 1 1
v 0.325 0.1 0.125 1 1 1
v 0.425 0.05 0.125 1 1 1
v 0.425 0.1 0.125 1 1 1
v 0.325 0.05 0.125 1 1 1
v -0.125 0.05 -0.425 1 1 1
v -0.125 0.1 -0.425 1 1 1
v -0.125 0.025 -0.4 1 1 1
v -0.125 0.125 -0.4 1 1 1
v -0.125 0.025 -0.35 1 1 1
v -0.125 0.125 -0.35 1 1 1
v -0.125 0.05 -0.325 1 1 1
v -0.125 0.1 -0.325 1 1 1
v 0.125 0.025 -0.35 1 1 1
v 0.125 0.05 -0.325 1 1 1
v 0.125 0.125 -0.4 1 1 1
v 0.125 0.125 -0.35 1 1 1
v 0.125 0.025 -0.4 1 1 1
v 0.125 0.05 -0.425 1 1 1
v 0.125 0.1 -0.425 1 1 1
v 0.125 0.1 -0.325 1 1 1
v -0.125 0.1 0.325 1 1 1
v 0.125 0.1 0.325 1 1 1
v -0.125 0.125 0.35 1 1 1
v 0.125 0.125 0.35 1 1 1
v -0.125 0.025 0.4 1 1 1
v -0.125 0.05 0.425 1 1 1
v 0.125 0.025 0.4 1 1 1
v 0.125 0.05 0.425 1 1 1
v 0.125 0.05 0.325 1 1 1
v 0.125 0.025 0.35 1 1 1
v 0.125 0.125 0.4 1 1 1
v 0.125 0.1 0.425 1 1 1
v -0.125 0.125 0.4 1 1 1
v -0.125 0.05 0.325 1 1 1
v -0.125 0.025 0.35 1 1 1
v -0.125 0.1 0.425 1 1 1
v -0.4 0.125 -0.125 1 1 1
v -0.4 0.125 0.125 1 1 1
v -0.425 0.1 -0.125 1 1 1
v -0.425 0.1 0.125 1 1 1
v -0.425 0.05 -0.125 1 1 1
v -0.425 0.05 0.125 1 1 1
v -0.325 0.1 -0.125 1 1 1
v -0.325 0.1 0.125 1 1 1
v -0.35 0.125 -0.125 1 1 1
v -0.35 0.125 0.125 1 1 1
v -0.35 0.025 0.125 1 1 1
v -0.4 0.025 0.125 1 1 1
v -0.325 0.05 0.125 1 1 1
v -0.325 0.05 -0.125 1 1 1
v -0.4 0.025 -0.125 1 1 1
v -0.35 0.025 -0.125 1 1 1

vn 0 -1 0
vn 0 0 -1
vn -1 0 0
vn 0 0 1
vn 1 0 0
vn 0.3826834 0.9238795 0
vn -0.3826834 0.9238795 0
vn 0.3826834 -0.9238795 0
vn -0.3826834 -0.9238795 0
vn -0.9238795 0.3826834 0
vn 0.9238795 -0.3826834 0
vn 0.9238795 0.3826834 0
vn -0.9238795 -0.3826834 0
vn 0 -0.9238795 0.3826834
vn 0 -0.3826834 0.9238795
vn 0 0.9238795 -0.3826834
vn 0 0.9238795 0.3826834
vn 0 -0.9238795 -0.3826834
vn 0 -0.3826834 -0.9238795
vn 0 0.3826834 -0.9238795
vn 0 0.3826834 0.9238795
vn 0 1 0

vt 0.21875 0.025
vt 0.21875 0.225
vt 0.21875 0.075
vt 0.21875 0.175
vt 0.34375 0.225

usemtl colormap

f 3/1/1 2/1/1 1/1/1
f 2/1/1 3/1/1 4/1/1
f 4/1/2 5/2/2 2/1/2
f 5/2/2 4/1/2 6/2/2
f 4/1/3 7/2/3 6/2/3
f 7/2/3 4/1/3 3/1/3
f 1/1/4 7/2/4 3/1/4
f 7/2/4 1/1/4 8/2/4
f 8/2/5 2/1/5 5/2/5
f 2/1/5 8/2/5 1/1/5
f 11/2/6 10/2/7 9/2/6
f 10/2/7 11/2/6 12/2/7
f 15/1/9 14/1/8 13/1/8
f 14/1/8 15/1/9 16/1/9
f 17/3/2 14/1/2 16/1/2
f 14/1/2 17/3/2 18/3/2
f 18/3/2 17/3/2 19/4/2
f 18/3/2 19/4/2 20/4/2
f 20/4/2 19/4/2 12/2/2
f 20/4/2 12/2/2 11/2/2
f 19/4/10 10/2/7 12/2/7
f 10/2/7 19/4/10 21/4/10
f 22/3/11 14/1/8 18/3/11
f 14/1/8 22/3/11 13/1/8
f 23/4/12 18/3/11 20/4/12
f 18/3/11 23/4/12 22/3/11
f 11/2/6 23/4/12 20/4/12
f 23/4/12 11/2/6 9/2/6
f 22/3/4 15/1/4 13/1/4
f 15/1/4 22/3/4 24/3/4
f 24/3/4 22/3/4 23/4/4
f 24/3/4 23/4/4 21/4/4
f 21/4/4 23/4/4 9/2/4
f 21/4/4 9/2/4 10/2/4
f 24/3/13 19/4/10 17/3/13
f 19/4/10 24/3/13 21/4/10
f 15/1/9 17/3/13 16/1/9
f 17/3/13 15/1/9 24/3/13
f 27/1/3 26/4/3 25/3/3
f 26/4/3 27/1/3 28/2/3
f 28/2/3 27/1/3 29/1/3
f 28/2/3 29/1/3 30/2/3
f 30/2/3 29/1/3 31/3/3
f 30/2/3 31/3/3 32/4/3
f 33/1/14 31/3/15 29/1/14
f 31/3/15 33/1/14 34/3/15
f 28/2/16 36/2/17 35/2/16
f 36/2/17 28/2/16 30/2/17
f 29/1/14 37/1/18 33/1/14
f 37/1/18 29/1/14 27/1/18
f 25/3/19 37/1/18 27/1/18
f 37/1/18 25/3/19 38/3/19
f 28/2/16 39/4/20 26/4/20
f 39/4/20 28/2/16 35/2/16
f 26/4/20 38/3/19 25/3/19
f 38/3/19 26/4/20 39/4/20
f 35/2/5 38/3/5 39/4/5
f 38/3/5 35/2/5 37/1/5
f 37/1/5 35/2/5 36/2/5
f 37/1/5 36/2/5 33/1/5
f 33/1/5 36/2/5 40/4/5
f 33/1/5 40/4/5 34/3/5
f 34/3/15 32/4/21 31/3/15
f 32/4/21 34/3/15 40/4/21
f 40/4/21 30/2/17 32/4/21
f 30/2/17 40/4/21 36/2/17
f 43/2/16 42/4/20 41/4/20
f 42/4/20 43/2/16 44/2/16
f 47/1/14 46/3/15 45/1/14
f 46/3/15 47/1/14 48/3/15
f 44/2/5 49/3/5 42/4/5
f 49/3/5 44/2/5 50/1/5
f 50/1/5 44/2/5 51/2/5
f 50/1/5 51/2/5 47/1/5
f 47/1/5 51/2/5 52/4/5
f 47/1/5 52/4/5 48/3/5
f 43/2/16 51/2/17 44/2/16
f 51/2/17 43/2/16 53/2/17
f 41/4/20 49/3/19 54/3/19
f 49/3/19 41/4/20 42/4/20
f 55/1/3 41/4/3 54/3/3
f 41/4/3 55/1/3 43/2/3
f 43/2/3 55/1/3 45/1/3
f 43/2/3 45/1/3 53/2/3
f 53/2/3 45/1/3 46/3/3
f 53/2/3 46/3/3 56/4/3
f 52/4/21 53/2/17 56/4/21
f 53/2/17 52/4/21 51/2/17
f 48/3/15 56/4/21 46/3/15
f 56/4/21 48/3/15 52/4/21
f 54/3/19 50/1/18 55/1/18
f 50/1/18 54/3/19 49/3/19
f 45/1/14 50/1/18 47/1/14
f 50/1/18 45/1/14 55/1/18
f 59/4/10 58/2/7 57/2/7
f 58/2/7 59/4/10 60/4/10
f 62/3/13 59/4/10 61/3/13
f 59/4/10 62/3/13 60/4/10
f 65/2/6 64/4/12 63/4/12
f 64/4/12 65/2/6 66/2/6
f 69/3/4 68/1/4 67/1/4
f 68/1/4 69/3/4 62/3/4
f 62/3/4 69/3/4 64/4/4
f 62/3/4 64/4/4 60/4/4
f 60/4/4 64/4/4 66/2/4
f 60/4/4 66/2/4 58/2/4
f 64/4/12 70/3/11 63/4/12
f 70/3/11 64/4/12 69/3/11
f 65/2/6 58/2/7 66/2/6
f 58/2/7 65/2/6 57/2/7
f 68/1/9 61/3/13 71/1/9
f 61/3/13 68/1/9 62/3/13
f 68/1/9 72/1/8 67/1/8
f 72/1/8 68/1/9 71/1/9
f 69/3/11 72/1/8 70/3/11
f 72/1/8 69/3/11 67/1/8
f 61/3/2 72/1/2 71/1/2
f 72/1/2 61/3/2 70/3/2
f 70/3/2 61/3/2 59/4/2
f 70/3/2 59/4/2 63/4/2
f 63/4/2 59/4/2 57/2/2
f 63/4/2 57/2/2 65/2/2
f 6/5/22 8/5/22 5/5/22
f 8/5/22 6/5/22 7/5/22

g structure-panel




usemtl colormap

f 3/1/1 2/1/1 1/1/1
f 2/1/1 3/1/1 4/1/1
f 4/1/2 5/2/2 2/1/2
f 5/2/2 4/1/2 6/2/2
f 4/1/3 7/2/3 6/2/3
f 7/2/3 4/1/3 3/1/3
f 1/1/4 7/2/4 3/1/4
f 7/2/4 1/1/4 8/2/4
f 8/2/5 2/1/5 5/2/5
f 2/1/5 8/2/5 1/1/5
f 11/2/6 10/2/7 9/2/6
f 10/2/7 11/2/6 12/2/7
f 15/1/9 14/1/8 13/1/8
f 14/1/8 15/1/9 16/1/9
f 17/3/2 14/1/2 16/1/2
f 14/1/2 17/3/2 18/3/2
f 18/3/2 17/3/2 19/4/2
f 18/3/2 19/4/2 20/4/2
f 20/4/2 19/4/2 12/2/2
f 20/4/2 12/2/2 11/2/2
f 19/4/10 10/2/7 12/2/7
f 10/2/7 19/4/10 21/4/10
f 22/3/11 14/1/8 18/3/11
f 14/1/8 22/3/11 13/1/8
f 23/4/12 18/3/11 20/4/12
f 18/3/11 23/4/12 22/3/11
f 11/2/6 23/4/12 20/4/12
f 23/4/12 11/2/6 9/2/6
f 22/3/4 15/1/4 13/1/4
f 15/1/4 22/3/4 24/3/4
f 24/3/4 22/3/4 23/4/4
f 24/3/4 23/4/4 21/4/4
f 21/4/4 23/4/4 9/2/4
f 21/4/4 9/2/4 10/2/4
f 24/3/13 19/4/10 17/3/13
f 19/4/10 24/3/13 21/4/10
f 15/1/9 17/3/13 16/1/9
f 17/3/13 15/1/9 24/3/13
f 27/1/3 26/4/3 25/3/3
f 26/4/3 27/1/3 28/2/3
f 28/2/3 27/1/3 29/1/3
f 28/2/3 29/1/3 30/2/3
f 30/2/3 29/1/3 31/3/3
f 30/2/3 31/3/3 32/4/3
f 33/1/14 31/3/15 29/1/14
f 31/3/15 33/1/14 34/3/15
f 28/2/16 36/2/17 35/2/16
f 36/2/17 28/2/16 30/2/17
f 29/1/14 37/1/18 33/1/14
f 37/1/18 29/1/14 27/1/18
f 25/3/19 37/1/18 27/1/18
f 37/1/18 25/3/19 38/3/19
f 28/2/16 39/4/20 26/4/20
f 39/4/20 28/2/16 35/2/16
f 26/4/20 38/3/19 25/3/19
f 38/3/19 26/4/20 39/4/20
f 35/2/5 38/3/5 39/4/5
f 38/3/5 35/2/5 37/1/5
f 37/1/5 35/2/5 36/2/5
f 37/1/5 36/2/5 33/1/5
f 33/1/5 36/2/5 40/4/5
f 33/1/5 40/4/5 34/3/5
f 34/3/15 32/4/21 31/3/15
f 32/4/21 34/3/15 40/4/21
f 40/4/21 30/2/17 32/4/21
f 30/2/17 40/4/21 36/2/17
f 43/2/16 42/4/20 41/4/20
f 42/4/20 43/2/16 44/2/16
f 47/1/14 46/3/15 45/1/14
f 46/3/15 47/1/14 48/3/15
f 44/2/5 49/3/5 42/4/5
f 49/3/5 44/2/5 50/1/5
f 50/1/5 44/2/5 51/2/5
f 50/1/5 51/2/5 47/1/5
f 47/1/5 51/2/5 52/4/5
f 47/1/5 52/4/5 48/3/5
f 43/2/16 51/2/17 44/2/16
f 51/2/17 43/2/16 53/2/17
f 41/4/20 49/3/19 54/3/19
f 49/3/19 41/4/20 42/4/20
f 55/1/3 41/4/3 54/3/3
f 41/4/3 55/1/3 43/2/3
f 43/2/3 55/1/3 45/1/3
f 43/2/3 45/1/3 53/2/3
f 53/2/3 45/1/3 46/3/3
f 53/2/3 46/3/3 56/4/3
f 52/4/21 53/2/17 56/4/21
f 53/2/17 52/4/21 51/2/17
f 48/3/15 56/4/21 46/3/15
f 56/4/21 48/3/15 52/4/21
f 54/3/19 50/1/18 55/1/18
f 50/1/18 54/3/19 49/3/19
f 45/1/14 50/1/18 47/1/14
f 50/1/18 45/1/14 55/1/18
f 59/4/10 58/2/7 57/2/7
f 58/2/7 59/4/10 60/4/10
f 62/3/13 59/4/10 61/3/13
f 59/4/10 62/3/13 60/4/10
f 65/2/6 64/4/12 63/4/12
f 64/4/12 65/2/6 66/2/6
f 69/3/4 68/1/4 67/1/4
f 68/1/4 69/3/4 62/3/4
f 62/3/4 69/3/4 64/4/4
f 62/3/4 64/4/4 60/4/4
f 60/4/4 64/4/4 66/2/4
f 60/4/4 66/2/4 58/2/4
f 64/4/12 70/3/11 63/4/12
f 70/3/11 64/4/12 69/3/11
f 65/2/6 58/2/7 66/2/6
f 58/2/7 65/2/6 57/2/7
f 68/1/9 61/3/13 71/1/9
f 61/3/13 68/1/9 62/3/13
f 68/1/9 72/1/8 67/1/8
f 72/1/8 68/1/9 71/1/9
f 69/3/11 72/1/8 70/3/11
f 72/1/8 69/3/11 67/1/8
f 61/3/2 72/1/2 71/1/2
f 72/1/2 61/3/2 70/3/2
f 70/3/2 61/3/2 59/4/2
f 70/3/2 59/4/2 63/4/2
f 63/4/2 59/4/2 57/2/2
f 63/4/2 57/2/2 65/2/2
f 6/5/22 8/5/22 5/5/22
f 8/5/22 6/5/22 7/5/22

