# Created by Kenney (www.kenney.nl)

mtllib structure.mtl

g Group

v -0.4 0.9 -0.4 1 1 1
v -0.4 0.7 -0.4 1 1 1
v -0.4 0.9 -0.2 1 1 1
v -0.45 0.7 -0.4 1 1 1
v -0.45 0.9 -0.4 1 1 1
v -0.45 0.9 -0.2 1 1 1

vn 1 0 0
vn -1 0 0
vn 0 1 0
vn 0 0 -1
vn 0 -0.7071068 0.7071068

vt 0.34375 0.225
vt 0.34375 0.025

usemtl colormap

f 3/1/1 2/2/1 1/1/1
f 6/1/2 5/1/2 4/2/2
f 5/1/3 3/1/3 1/1/3
f 3/1/3 5/1/3 6/1/3
f 5/1/4 2/2/4 4/2/4
f 2/2/4 5/1/4 1/1/4
f 3/1/5 4/2/5 2/2/5
f 4/2/5 3/1/5 6/1/5

g Group

v -0.2 0.9 -0.4 1 1 1
v -0.4 0.7 -0.4 1 1 1
v -0.4 0.9 -0.4 1 1 1
v -0.4 0.9 -0.45 1 1 1
v -0.4 0.7 -0.45 1 1 1
v -0.2 0.9 -0.45 1 1 1

vn 0 0 1
vn 0.7071068 -0.7071068 0


usemtl colormap

f 9/1/6 8/2/6 7/1/6
f 12/1/4 11/2/4 10/1/4
f 10/1/3 7/1/3 12/1/3
f 7/1/3 10/1/3 9/1/3
f 8/2/2 10/1/2 11/2/2
f 10/1/2 8/2/2 9/1/2
f 8/2/7 12/1/7 7/1/7
f 12/1/7 8/2/7 11/2/7

g Group

v 0.2 0.9 -0.45 1 1 1
v 0.4 0.7 -0.45 1 1 1
v 0.4 0.9 -0.45 1 1 1
v 0.4 0.9 -0.4 1 1 1
v 0.4 0.7 -0.4 1 1 1
v 0.2 0.9 -0.4 1 1 1

vn -0.7071068 -0.7071068 0


usemtl colormap

f 15/1/4 14/2/4 13/1/4
f 18/1/6 17/2/6 16/1/6
f 16/1/1 14/2/1 15/1/1
f 14/2/1 16/1/1 17/2/1
f 13/1/3 16/1/3 15/1/3
f 16/1/3 13/1/3 18/1/3
f 17/2/8 13/1/8 14/2/8
f 13/1/8 17/2/8 18/1/8

g Group

v 0.4 0.7 0.4 1 1 1
v 0.4 0.9 0.2 1 1 1
v 0.4 0.9 0.4 1 1 1
v 0.45 0.9 0.4 1 1 1
v 0.45 0.9 0.2 1 1 1
v 0.45 0.7 0.4 1 1 1

vn 0 -0.7071068 -0.7071068


usemtl colormap

f 21/1/2 20/1/2 19/2/2
f 24/2/1 23/1/1 22/1/1
f 22/1/6 19/2/6 24/2/6
f 19/2/6 22/1/6 21/1/6
f 24/2/9 20/1/9 23/1/9
f 20/1/9 24/2/9 19/2/9
f 20/1/3 22/1/3 23/1/3
f 22/1/3 20/1/3 21/1/3

g Group

v -0.2 0.9 0.45 1 1 1
v -0.4 0.7 0.45 1 1 1
v -0.4 0.9 0.45 1 1 1
v -0.4 0.9 0.4 1 1 1
v -0.4 0.7 0.4 1 1 1
v -0.2 0.9 0.4 1 1 1



usemtl colormap

f 27/1/6 26/2/6 25/1/6
f 30/1/4 29/2/4 28/1/4
f 28/1/3 25/1/3 30/1/3
f 25/1/3 28/1/3 27/1/3
f 26/2/2 28/1/2 29/2/2
f 28/1/2 26/2/2 27/1/2
f 26/2/7 30/1/7 25/1/7
f 30/1/7 26/2/7 29/2/7

g Group

v -0.5 0.9 0.5 1 1 1
v -0.5 1 0.5 1 1 1
v 0.5 0.9 0.5 1 1 1
v 0.5 1 0.5 1 1 1
v -0.4 0.9 0.4 1 1 1
v 0.4 0.9 0.4 1 1 1
v -0.4 1 0.4 1 1 1
v 0.4 1 0.4 1 1 1
v 0.4 0.9 -0.4 1 1 1
v 0.4 1 -0.4 1 1 1
v -0.4 1 -0.4 1 1 1
v -0.5 0.9 -0.5 1 1 1
v -0.5 1 -0.5 1 1 1
v 0.5 0.9 -0.5 1 1 1
v 0.5 1 -0.5 1 1 1

vn 0 -1 0


usemtl colormap

f 33/2/6 32/1/6 31/2/6
f 32/1/6 33/2/6 34/1/6
f 37/1/4 36/2/4 35/2/4
f 36/2/4 37/1/4 38/1/4
f 36/2/2 40/1/2 39/2/2
f 40/1/2 36/2/2 38/1/2
f 37/1/1 1/2/1 41/1/1
f 1/2/1 37/1/1 35/2/1
f 31/2/2 43/1/2 42/2/2
f 43/1/2 31/2/2 32/1/2
f 39/2/6 41/1/6 1/2/6
f 41/1/6 39/2/6 40/1/6
f 43/1/4 44/2/4 42/2/4
f 44/2/4 43/1/4 45/1/4
f 34/1/1 44/2/1 45/1/1
f 44/2/1 34/1/1 33/2/1
f 44/2/10 39/2/10 42/2/10
f 39/2/10 44/2/10 33/2/10
f 42/2/10 39/2/10 1/2/10
f 39/2/10 33/2/10 36/2/10
f 42/2/10 1/2/10 31/2/10
f 31/2/10 36/2/10 33/2/10
f 35/2/10 31/2/10 1/2/10
f 36/2/10 31/2/10 35/2/10
f 32/1/3 38/1/3 37/1/3
f 32/1/3 37/1/3 41/1/3
f 38/1/3 32/1/3 34/1/3
f 32/1/3 41/1/3 43/1/3
f 34/1/3 40/1/3 38/1/3
f 40/1/3 43/1/3 41/1/3
f 45/1/3 40/1/3 34/1/3
f 40/1/3 45/1/3 43/1/3

g Group

v 0.45 0.9 -0.4 1 1 1
v 0.45 0.7 -0.4 1 1 1
v 0.45 0.9 -0.2 1 1 1
v 0.4 0.7 -0.4 1 1 1
v 0.4 0.9 -0.4 1 1 1
v 0.4 0.9 -0.2 1 1 1



usemtl colormap

f 48/1/1 47/2/1 46/1/1
f 51/1/2 50/1/2 49/2/2
f 48/1/5 49/2/5 47/2/5
f 49/2/5 48/1/5 51/1/5
f 50/1/4 47/2/4 49/2/4
f 47/2/4 50/1/4 46/1/4
f 50/1/3 48/1/3 46/1/3
f 48/1/3 50/1/3 51/1/3

g Group

v 0.4 0.9 0.45 1 1 1
v 0.4 0.7 0.45 1 1 1
v 0.2 0.9 0.45 1 1 1
v 0.2 0.9 0.4 1 1 1
v 0.4 0.7 0.4 1 1 1
v 0.4 0.9 0.4 1 1 1



usemtl colormap

f 54/1/6 53/2/6 52/1/6
f 57/1/4 56/2/4 55/1/4
f 52/1/1 56/2/1 57/1/1
f 56/2/1 52/1/1 53/2/1
f 55/1/3 52/1/3 57/1/3
f 52/1/3 55/1/3 54/1/3
f 53/2/8 55/1/8 56/2/8
f 55/1/8 53/2/8 54/1/8

g Group

v -0.45 0.7 0.4 1 1 1
v -0.45 0.9 0.2 1 1 1
v -0.45 0.9 0.4 1 1 1
v -0.4 0.9 0.2 1 1 1



usemtl colormap

f 60/1/2 59/1/2 58/2/2
f 29/2/1 61/1/1 28/1/1
f 59/1/3 28/1/3 61/1/3
f 28/1/3 59/1/3 60/1/3
f 29/2/9 59/1/9 61/1/9
f 59/1/9 29/2/9 58/2/9
f 28/1/6 58/2/6 29/2/6
f 58/2/6 28/1/6 60/1/6

g Group

v 0.5 0 -0.5 1 1 1
v 0.5 0.9 -0.4 1 1 1
v 0.5 0 -0.4 1 1 1
v 0.4 0 -0.4 1 1 1
v 0.4 0 -0.5 1 1 1
v 0.4 0.9 -0.5 1 1 1


vt 0.21875 0.225
vt 0.21875 0.025

usemtl colormap

f 63/3/1 62/4/1 44/3/1
f 62/4/1 63/3/1 64/4/1
f 65/4/10 62/4/10 64/4/10
f 62/4/10 65/4/10 66/4/10
f 65/4/2 67/3/2 66/4/2
f 67/3/2 65/4/2 39/3/2
f 63/3/6 65/4/6 64/4/6
f 65/4/6 63/3/6 39/3/6
f 67/3/3 63/3/3 44/3/3
f 63/3/3 67/3/3 39/3/3
f 67/3/4 62/4/4 66/4/4
f 62/4/4 67/3/4 44/3/4

g Group

v 0.5 0.9 0.4 1 1 1
v 0.4 0.9 0.5 1 1 1
v 0.5 0 0.4 1 1 1
v 0.5 0 0.5 1 1 1
v 0.4 0 0.5 1 1 1
v 0.4 0 0.4 1 1 1



usemtl colormap

f 57/3/3 33/3/3 68/3/3
f 33/3/3 57/3/3 69/3/3
f 33/3/1 70/4/1 68/3/1
f 70/4/1 33/3/1 71/4/1
f 72/4/10 70/4/10 71/4/10
f 70/4/10 72/4/10 73/4/10
f 33/3/6 72/4/6 71/4/6
f 72/4/6 33/3/6 69/3/6
f 72/4/2 57/3/2 73/4/2
f 57/3/2 72/4/2 69/3/2
f 57/3/4 70/4/4 73/4/4
f 70/4/4 57/3/4 68/3/4

g Group

v -0.4 0 -0.4 1 1 1
v -0.5 0 -0.4 1 1 1
v -0.4 0.9 -0.4 1 1 1
v -0.5 0.9 -0.4 1 1 1
v -0.5 0 -0.5 1 1 1
v -0.4 0 -0.5 1 1 1
v -0.4 0.9 -0.5 1 1 1



usemtl colormap

f 76/3/6 75/4/6 74/4/6
f 75/4/6 76/3/6 77/3/6
f 75/4/2 42/3/2 78/4/2
f 42/3/2 75/4/2 77/3/2
f 75/4/10 79/4/10 74/4/10
f 79/4/10 75/4/10 78/4/10
f 42/3/4 79/4/4 78/4/4
f 79/4/4 42/3/4 80/3/4
f 42/3/3 76/3/3 80/3/3
f 76/3/3 42/3/3 77/3/3
f 76/3/1 79/4/1 80/3/1
f 79/4/1 76/3/1 74/4/1

g Group

v -0.4 0.9 0.5 1 1 1
v -0.5 0.9 0.4 1 1 1
v -0.4 0 0.5 1 1 1
v -0.5 0 0.5 1 1 1
v -0.5 0 0.4 1 1 1
v -0.4 0 0.4 1 1 1



usemtl colormap

f 82/3/3 81/3/3 28/3/3
f 81/3/3 82/3/3 31/3/3
f 81/3/6 84/4/6 83/4/6
f 84/4/6 81/3/6 31/3/6
f 84/4/2 82/3/2 85/4/2
f 82/3/2 84/4/2 31/3/2
f 84/4/10 86/4/10 83/4/10
f 86/4/10 84/4/10 85/4/10
f 82/3/4 86/4/4 85/4/4
f 86/4/4 82/3/4 28/3/4
f 81/3/1 86/4/1 28/3/1
f 86/4/1 81/3/1 83/4/1

