# Created by Kenney (www.kenney.nl)

mtllib structure-barrier.mtl

g Group

v -0.4 0.9 -0.4 1 1 1
v -0.4 0.7 -0.4 1 1 1
v -0.4 0.9 -0.2 1 1 1
v -0.45 0.7 -0.4 1 1 1
v -0.45 0.9 -0.4 1 1 1
v -0.45 0.9 -0.2 1 1 1

vn 1 0 0
vn -1 0 0
vn 0 1 0
vn 0 0 -1
vn 0 -0.7071068 0.7071068

vt 0.34375 0.225
vt 0.34375 0.025

usemtl colormap

f 3/1/1 2/2/1 1/1/1
f 6/1/2 5/1/2 4/2/2
f 5/1/3 3/1/3 1/1/3
f 3/1/3 5/1/3 6/1/3
f 5/1/4 2/2/4 4/2/4
f 2/2/4 5/1/4 1/1/4
f 3/1/5 4/2/5 2/2/5
f 4/2/5 3/1/5 6/1/5

g Group

v -0.2 0.9 -0.4 1 1 1
v -0.4 0.7 -0.4 1 1 1
v -0.4 0.9 -0.4 1 1 1
v -0.4 0.9 -0.45 1 1 1
v -0.4 0.7 -0.45 1 1 1
v -0.2 0.9 -0.45 1 1 1

vn 0 0 1
vn 0.7071068 -0.7071068 0


usemtl colormap

f 9/1/6 8/2/6 7/1/6
f 12/1/4 11/2/4 10/1/4
f 10/1/3 7/1/3 12/1/3
f 7/1/3 10/1/3 9/1/3
f 8/2/2 10/1/2 11/2/2
f 10/1/2 8/2/2 9/1/2
f 8/2/7 12/1/7 7/1/7
f 12/1/7 8/2/7 11/2/7

g Group

v 0.2 0.9 -0.45 1 1 1
v 0.4 0.7 -0.45 1 1 1
v 0.4 0.9 -0.45 1 1 1
v 0.4 0.9 -0.4 1 1 1
v 0.4 0.7 -0.4 1 1 1
v 0.2 0.9 -0.4 1 1 1

vn -0.7071068 -0.7071068 0


usemtl colormap

f 15/1/4 14/2/4 13/1/4
f 18/1/6 17/2/6 16/1/6
f 16/1/1 14/2/1 15/1/1
f 14/2/1 16/1/1 17/2/1
f 13/1/3 16/1/3 15/1/3
f 16/1/3 13/1/3 18/1/3
f 17/2/8 13/1/8 14/2/8
f 13/1/8 17/2/8 18/1/8

g Group

v 0.5 0 -0.35 1 1 1
v 0.4 0 -0.35 1 1 1
v 0.5 0.2 -0.35 1 1 1
v 0.4 0.2 -0.35 1 1 1
v 0.55 0 -0.4 1 1 1
v 0.55 0 -0.5 1 1 1
v 0.5 0 -0.55 1 1 1
v 0.4 0 -0.55 1 1 1
v 0.35 0 -0.4 1 1 1
v 0.35 0 -0.5 1 1 1
v 0.55 0.2 -0.5 1 1 1
v 0.55 0.2 -0.4 1 1 1
v 0.5 0.2 -0.55 1 1 1
v 0.4 0.2 -0.55 1 1 1
v 0.35 0.2 -0.5 1 1 1
v 0.35 0.2 -0.4 1 1 1

vn 0.3826834 0 0.9238795
vn -0.3826834 0 0.9238795
vn 0 -1 0
vn 0.3826834 0 -0.9238795
vn 0.9238795 0 -0.3826834
vn -0.9238795 0 -0.3826834
vn -0.9238795 0 0.3826834
vn -0.3826834 0 -0.9238795
vn 0.9238795 0 0.3826834

vt 0.21875 0.275
vt 0.21875 0.475

usemtl colormap

f 21/4/9 20/3/10 19/3/9
f 20/3/10 21/4/9 22/4/10
f 19/3/11 24/3/11 23/3/11
f 24/3/11 19/3/11 25/3/11
f 25/3/11 19/3/11 20/3/11
f 25/3/11 20/3/11 26/3/11
f 26/3/11 20/3/11 27/3/11
f 26/3/11 27/3/11 28/3/11
f 31/4/3 30/4/3 29/4/3
f 30/4/3 31/4/3 21/4/3
f 21/4/3 31/4/3 32/4/3
f 21/4/3 32/4/3 22/4/3
f 22/4/3 32/4/3 33/4/3
f 22/4/3 33/4/3 34/4/3
f 29/4/13 25/3/12 31/4/12
f 25/3/12 29/4/13 24/3/13
f 27/3/15 33/4/14 28/3/14
f 33/4/14 27/3/15 34/4/15
f 20/3/10 34/4/15 27/3/15
f 34/4/15 20/3/10 22/4/10
f 28/3/14 32/4/16 26/3/16
f 32/4/16 28/3/14 33/4/14
f 32/4/16 25/3/12 26/3/16
f 25/3/12 32/4/16 31/4/12
f 30/4/17 24/3/13 29/4/13
f 24/3/13 30/4/17 23/3/17
f 21/4/9 23/3/17 30/4/17
f 23/3/17 21/4/9 19/3/9

g Group

v -0.35 0.2 0.4 1 1 1
v -0.35 0.2 0.5 1 1 1
v -0.4 0.2 0.35 1 1 1
v -0.4 0.2 0.55 1 1 1
v -0.5 0.2 0.35 1 1 1
v -0.5 0.2 0.55 1 1 1
v -0.55 0.2 0.4 1 1 1
v -0.55 0.2 0.5 1 1 1
v -0.35 0 0.5 1 1 1
v -0.35 0 0.4 1 1 1
v -0.4 0 0.55 1 1 1
v -0.4 0 0.35 1 1 1
v -0.5 0 0.55 1 1 1
v -0.5 0 0.35 1 1 1
v -0.55 0 0.5 1 1 1
v -0.55 0 0.4 1 1 1



usemtl colormap

f 37/4/3 36/4/3 35/4/3
f 36/4/3 37/4/3 38/4/3
f 38/4/3 37/4/3 39/4/3
f 38/4/3 39/4/3 40/4/3
f 40/4/3 39/4/3 41/4/3
f 40/4/3 41/4/3 42/4/3
f 45/3/11 44/3/11 43/3/11
f 44/3/11 45/3/11 46/3/11
f 46/3/11 45/3/11 47/3/11
f 46/3/11 47/3/11 48/3/11
f 48/3/11 47/3/11 49/3/11
f 48/3/11 49/3/11 50/3/11
f 47/3/10 42/4/15 49/3/15
f 42/4/15 47/3/10 40/4/10
f 49/3/15 41/4/14 50/3/14
f 41/4/14 49/3/15 42/4/15
f 50/3/14 39/4/16 48/3/16
f 39/4/16 50/3/14 41/4/14
f 35/4/13 46/3/12 37/4/12
f 46/3/12 35/4/13 44/3/13
f 39/4/16 46/3/12 48/3/16
f 46/3/12 39/4/16 37/4/12
f 36/4/17 44/3/13 35/4/13
f 44/3/13 36/4/17 43/3/17
f 38/4/9 47/3/10 45/3/9
f 47/3/10 38/4/9 40/4/10
f 38/4/9 43/3/17 36/4/17
f 43/3/17 38/4/9 45/3/9

g Group

v 0.4 0.7 0.4 1 1 1
v 0.4 0.9 0.2 1 1 1
v 0.4 0.9 0.4 1 1 1
v 0.45 0.9 0.4 1 1 1
v 0.45 0.9 0.2 1 1 1
v 0.45 0.7 0.4 1 1 1

vn 0 -0.7071068 -0.7071068


usemtl colormap

f 53/1/2 52/1/2 51/2/2
f 56/2/1 55/1/1 54/1/1
f 54/1/6 51/2/6 56/2/6
f 51/2/6 54/1/6 53/1/6
f 56/2/18 52/1/18 55/1/18
f 52/1/18 56/2/18 51/2/18
f 52/1/3 54/1/3 55/1/3
f 54/1/3 52/1/3 53/1/3

g Group

v -0.2 0.9 0.45 1 1 1
v -0.4 0.7 0.45 1 1 1
v -0.4 0.9 0.45 1 1 1
v -0.4 0.9 0.4 1 1 1
v -0.4 0.7 0.4 1 1 1
v -0.2 0.9 0.4 1 1 1



usemtl colormap

f 59/1/6 58/2/6 57/1/6
f 62/1/4 61/2/4 60/1/4
f 60/1/3 57/1/3 62/1/3
f 57/1/3 60/1/3 59/1/3
f 58/2/2 60/1/2 61/2/2
f 60/1/2 58/2/2 59/1/2
f 58/2/7 62/1/7 57/1/7
f 62/1/7 58/2/7 61/2/7

g Group

v -0.4 0 -0.35 1 1 1
v -0.5 0 -0.35 1 1 1
v -0.4 0.2 -0.35 1 1 1
v -0.5 0.2 -0.35 1 1 1
v -0.5 0 -0.55 1 1 1
v -0.5 0.2 -0.55 1 1 1
v -0.55 0 -0.5 1 1 1
v -0.55 0.2 -0.5 1 1 1
v -0.4 0 -0.55 1 1 1
v -0.4 0.2 -0.55 1 1 1
v -0.35 0.2 -0.5 1 1 1
v -0.35 0 -0.5 1 1 1
v -0.55 0 -0.4 1 1 1
v -0.55 0.2 -0.4 1 1 1
v -0.35 0 -0.4 1 1 1
v -0.35 0.2 -0.4 1 1 1



usemtl colormap

f 65/4/9 64/3/10 63/3/9
f 64/3/10 65/4/9 66/4/10
f 69/3/14 68/4/16 67/3/16
f 68/4/16 69/3/14 70/4/14
f 68/4/16 71/3/12 67/3/16
f 71/3/12 68/4/16 72/4/12
f 73/4/13 71/3/12 72/4/12
f 71/3/12 73/4/13 74/3/13
f 75/3/15 70/4/14 69/3/14
f 70/4/14 75/3/15 76/4/15
f 63/3/11 74/3/11 77/3/11
f 74/3/11 63/3/11 71/3/11
f 71/3/11 63/3/11 64/3/11
f 71/3/11 64/3/11 67/3/11
f 67/3/11 64/3/11 75/3/11
f 67/3/11 75/3/11 69/3/11
f 72/4/3 78/4/3 73/4/3
f 78/4/3 72/4/3 65/4/3
f 65/4/3 72/4/3 68/4/3
f 65/4/3 68/4/3 66/4/3
f 66/4/3 68/4/3 70/4/3
f 66/4/3 70/4/3 76/4/3
f 65/4/9 77/3/17 78/4/17
f 77/3/17 65/4/9 63/3/9
f 78/4/17 74/3/13 73/4/13
f 74/3/13 78/4/17 77/3/17
f 64/3/10 76/4/15 75/3/15
f 76/4/15 64/3/10 66/4/10

g Group

v 0.55 0.2 0.4 1 1 1
v 0.55 0 0.4 1 1 1
v 0.55 0.2 0.5 1 1 1
v 0.55 0 0.5 1 1 1
v 0.4 0 0.35 1 1 1
v 0.4 0.2 0.35 1 1 1
v 0.35 0 0.4 1 1 1
v 0.35 0.2 0.4 1 1 1
v 0.5 0.2 0.35 1 1 1
v 0.5 0 0.35 1 1 1
v 0.5 0 0.55 1 1 1
v 0.4 0 0.55 1 1 1
v 0.35 0 0.5 1 1 1
v 0.35 0.2 0.5 1 1 1
v 0.4 0.2 0.55 1 1 1
v 0.5 0.2 0.55 1 1 1



usemtl colormap

f 81/4/17 80/3/13 79/4/13
f 80/3/13 81/4/17 82/3/17
f 85/3/14 84/4/16 83/3/16
f 84/4/16 85/3/14 86/4/14
f 79/4/13 88/3/12 87/4/12
f 88/3/12 79/4/13 80/3/13
f 89/3/11 80/3/11 82/3/11
f 80/3/11 89/3/11 88/3/11
f 88/3/11 89/3/11 90/3/11
f 88/3/11 90/3/11 83/3/11
f 83/3/11 90/3/11 91/3/11
f 83/3/11 91/3/11 85/3/11
f 90/3/10 92/4/15 91/3/15
f 92/4/15 90/3/10 93/4/10
f 84/4/16 88/3/12 83/3/16
f 88/3/12 84/4/16 87/4/12
f 91/3/15 86/4/14 85/3/14
f 86/4/14 91/3/15 92/4/15
f 94/4/9 90/3/10 89/3/9
f 90/3/10 94/4/9 93/4/10
f 87/4/3 81/4/3 79/4/3
f 81/4/3 87/4/3 94/4/3
f 94/4/3 87/4/3 84/4/3
f 94/4/3 84/4/3 93/4/3
f 93/4/3 84/4/3 86/4/3
f 93/4/3 86/4/3 92/4/3
f 94/4/9 82/3/17 81/4/17
f 82/3/17 94/4/9 89/3/9

g Group

v -0.5 0.9 0.5 1 1 1
v -0.5 1 0.5 1 1 1
v 0.5 0.9 0.5 1 1 1
v 0.5 1 0.5 1 1 1
v -0.4 0.9 0.4 1 1 1
v 0.4 0.9 0.4 1 1 1
v -0.4 1 0.4 1 1 1
v 0.4 1 0.4 1 1 1
v 0.4 0.9 -0.4 1 1 1
v 0.4 1 -0.4 1 1 1
v -0.4 1 -0.4 1 1 1
v -0.5 0.9 -0.5 1 1 1
v -0.5 1 -0.5 1 1 1
v 0.5 0.9 -0.5 1 1 1
v 0.5 1 -0.5 1 1 1



usemtl colormap

f 97/2/6 96/1/6 95/2/6
f 96/1/6 97/2/6 98/1/6
f 101/1/4 100/2/4 99/2/4
f 100/2/4 101/1/4 102/1/4
f 100/2/2 104/1/2 103/2/2
f 104/1/2 100/2/2 102/1/2
f 101/1/1 1/2/1 105/1/1
f 1/2/1 101/1/1 99/2/1
f 95/2/2 107/1/2 106/2/2
f 107/1/2 95/2/2 96/1/2
f 103/2/6 105/1/6 1/2/6
f 105/1/6 103/2/6 104/1/6
f 107/1/4 108/2/4 106/2/4
f 108/2/4 107/1/4 109/1/4
f 98/1/1 108/2/1 109/1/1
f 108/2/1 98/1/1 97/2/1
f 108/2/11 103/2/11 106/2/11
f 103/2/11 108/2/11 97/2/11
f 106/2/11 103/2/11 1/2/11
f 103/2/11 97/2/11 100/2/11
f 106/2/11 1/2/11 95/2/11
f 95/2/11 100/2/11 97/2/11
f 99/2/11 95/2/11 1/2/11
f 100/2/11 95/2/11 99/2/11
f 96/1/3 102/1/3 101/1/3
f 96/1/3 101/1/3 105/1/3
f 102/1/3 96/1/3 98/1/3
f 96/1/3 105/1/3 107/1/3
f 98/1/3 104/1/3 102/1/3
f 104/1/3 107/1/3 105/1/3
f 109/1/3 104/1/3 98/1/3
f 104/1/3 109/1/3 107/1/3

g Group

v 0.45 0.9 -0.4 1 1 1
v 0.45 0.7 -0.4 1 1 1
v 0.45 0.9 -0.2 1 1 1
v 0.4 0.7 -0.4 1 1 1
v 0.4 0.9 -0.4 1 1 1
v 0.4 0.9 -0.2 1 1 1



usemtl colormap

f 112/1/1 111/2/1 110/1/1
f 115/1/2 114/1/2 113/2/2
f 112/1/5 113/2/5 111/2/5
f 113/2/5 112/1/5 115/1/5
f 114/1/4 111/2/4 113/2/4
f 111/2/4 114/1/4 110/1/4
f 114/1/3 112/1/3 110/1/3
f 112/1/3 114/1/3 115/1/3

g Group

v 0.4 0.9 0.45 1 1 1
v 0.4 0.7 0.45 1 1 1
v 0.2 0.9 0.45 1 1 1
v 0.2 0.9 0.4 1 1 1
v 0.4 0.7 0.4 1 1 1
v 0.4 0.9 0.4 1 1 1



usemtl colormap

f 118/1/6 117/2/6 116/1/6
f 121/1/4 120/2/4 119/1/4
f 116/1/1 120/2/1 121/1/1
f 120/2/1 116/1/1 117/2/1
f 119/1/3 116/1/3 121/1/3
f 116/1/3 119/1/3 118/1/3
f 117/2/8 119/1/8 120/2/8
f 119/1/8 117/2/8 118/1/8

g Group

v -0.45 0.7 0.4 1 1 1
v -0.45 0.9 0.2 1 1 1
v -0.45 0.9 0.4 1 1 1
v -0.4 0.9 0.2 1 1 1



usemtl colormap

f 124/1/2 123/1/2 122/2/2
f 61/2/1 125/1/1 60/1/1
f 123/1/3 60/1/3 125/1/3
f 60/1/3 123/1/3 124/1/3
f 61/2/18 123/1/18 125/1/18
f 123/1/18 61/2/18 122/2/18
f 60/1/6 122/2/6 61/2/6
f 122/2/6 60/1/6 124/1/6

g Group

v 0.5 0 -0.5 1 1 1
v 0.5 0.9 -0.4 1 1 1
v 0.5 0 -0.4 1 1 1
v 0.4 0 -0.4 1 1 1
v 0.4 0 -0.5 1 1 1
v 0.4 0.9 -0.5 1 1 1


vt 0.21875 0.225
vt 0.21875 0.025

usemtl colormap

f 127/5/1 126/6/1 108/5/1
f 126/6/1 127/5/1 128/6/1
f 129/6/11 126/6/11 128/6/11
f 126/6/11 129/6/11 130/6/11
f 129/6/2 131/5/2 130/6/2
f 131/5/2 129/6/2 103/5/2
f 127/5/6 129/6/6 128/6/6
f 129/6/6 127/5/6 103/5/6
f 131/5/3 127/5/3 108/5/3
f 127/5/3 131/5/3 103/5/3
f 131/5/4 126/6/4 130/6/4
f 126/6/4 131/5/4 108/5/4

g Group

v 0.5 0.9 0.4 1 1 1
v 0.4 0.9 0.5 1 1 1
v 0.5 0 0.4 1 1 1
v 0.5 0 0.5 1 1 1
v 0.4 0 0.5 1 1 1
v 0.4 0 0.4 1 1 1



usemtl colormap

f 121/5/3 97/5/3 132/5/3
f 97/5/3 121/5/3 133/5/3
f 97/5/1 134/6/1 132/5/1
f 134/6/1 97/5/1 135/6/1
f 136/6/11 134/6/11 135/6/11
f 134/6/11 136/6/11 137/6/11
f 97/5/6 136/6/6 135/6/6
f 136/6/6 97/5/6 133/5/6
f 136/6/2 121/5/2 137/6/2
f 121/5/2 136/6/2 133/5/2
f 121/5/4 134/6/4 137/6/4
f 134/6/4 121/5/4 132/5/4

g Group

v -0.4 0 -0.4 1 1 1
v -0.5 0 -0.4 1 1 1
v -0.4 0.9 -0.4 1 1 1
v -0.5 0.9 -0.4 1 1 1
v -0.5 0 -0.5 1 1 1
v -0.4 0 -0.5 1 1 1
v -0.4 0.9 -0.5 1 1 1



usemtl colormap

f 140/5/6 139/6/6 138/6/6
f 139/6/6 140/5/6 141/5/6
f 139/6/2 106/5/2 142/6/2
f 106/5/2 139/6/2 141/5/2
f 139/6/11 143/6/11 138/6/11
f 143/6/11 139/6/11 142/6/11
f 106/5/4 143/6/4 142/6/4
f 143/6/4 106/5/4 144/5/4
f 106/5/3 140/5/3 144/5/3
f 140/5/3 106/5/3 141/5/3
f 140/5/1 143/6/1 144/5/1
f 143/6/1 140/5/1 138/6/1

g Group

v -0.4 0.9 0.5 1 1 1
v -0.5 0.9 0.4 1 1 1
v -0.4 0 0.5 1 1 1
v -0.5 0 0.5 1 1 1
v -0.5 0 0.4 1 1 1
v -0.4 0 0.4 1 1 1



usemtl colormap

f 146/5/3 145/5/3 60/5/3
f 145/5/3 146/5/3 95/5/3
f 145/5/6 148/6/6 147/6/6
f 148/6/6 145/5/6 95/5/6
f 148/6/2 146/5/2 149/6/2
f 146/5/2 148/6/2 95/5/2
f 148/6/11 150/6/11 147/6/11
f 150/6/11 148/6/11 149/6/11
f 146/5/4 150/6/4 149/6/4
f 150/6/4 146/5/4 60/5/4
f 145/5/1 150/6/1 60/5/1
f 150/6/1 145/5/1 147/6/1

