# Created by Kenney (www.kenney.nl)

mtllib table-large.mtl

g table-large

v -0.5585787 0.1 -0.35 1 1 1
v -0.5585787 0.3 -0.35 1 1 1
v -0.6 0.1 -0.3085786 1 1 1
v -0.6 0.3 -0.3085786 1 1 1
v -0.6 0.1 0.3085786 1 1 1
v -0.6 0.3 0.3085786 1 1 1
v -0.5585787 0.1 0.35 1 1 1
v -0.5585787 0.3 0.35 1 1 1
v 0.5585787 0.1 -0.35 1 1 1
v 0.6 0.1 -0.3085786 1 1 1
v 0.5585787 0.3 -0.35 1 1 1
v 0.6 0.3 -0.3085786 1 1 1
v 0.6 0.3 0.3085786 1 1 1
v 0.6 0.1 0.3085786 1 1 1
v 0.5585787 0.1 0.35 1 1 1
v 0.5585787 0.3 0.35 1 1 1
v -0.5792893 0 -0.4 1 1 1
v -0.5792893 0.1 -0.4 1 1 1
v -0.65 0 -0.3292893 1 1 1
v -0.65 0.1 -0.3292893 1 1 1
v -0.65 0 0.3292893 1 1 1
v -0.65 0.1 0.3292893 1 1 1
v -0.5792893 0 0.4 1 1 1
v -0.5792893 0.1 0.4 1 1 1
v 0.65 0 0.3292893 1 1 1
v 0.65 0 -0.3292893 1 1 1
v 0.5792893 0 0.4 1 1 1
v 0.5792893 0 -0.4 1 1 1
v 0.65 0.1 -0.3292893 1 1 1
v 0.65 0.1 0.3292893 1 1 1
v 0.5792893 0.1 -0.4 1 1 1
v 0.5792893 0.1 0.4 1 1 1
v -0.6 0.3 -0.45 1 1 1
v -0.6 0.4 -0.45 1 1 1
v -0.7 0.3 -0.35 1 1 1
v -0.7 0.4 -0.35 1 1 1
v -0.7 0.3 0.35 1 1 1
v -0.7 0.4 0.35 1 1 1
v -0.6 0.3 0.45 1 1 1
v -0.6 0.4 0.45 1 1 1
v 0.7 0.4 -0.35 1 1 1
v 0.7 0.3 -0.35 1 1 1
v 0.7 0.4 0.35 1 1 1
v 0.7 0.3 0.35 1 1 1
v 0.6 0.4 0.45 1 1 1
v 0.6 0.3 0.45 1 1 1
v 0.6 0.4 -0.45 1 1 1
v 0.6 0.3 -0.45 1 1 1
v -0.6 0.4 0.3085786 1 1 1
v -0.5585787 0.4 0.35 1 1 1
v -0.6 0.4 -0.3085786 1 1 1
v 0.5585787 0.4 0.35 1 1 1
v -0.5585787 0.4 -0.35 1 1 1
v 0.5585787 0.4 -0.35 1 1 1
v 0.6 0.4 0.3085786 1 1 1
v 0.6 0.4 -0.3085786 1 1 1
v 0.6 0.4 -0.3085787 1 1 1
v 0.5585786 0.4 -0.35 1 1 1
v 0.5585786 0.4 0.35 1 1 1
v -0.5585786 0.4 -0.35 1 1 1
v -0.5585786 0.4 0.35 1 1 1
v -0.6 0.4 -0.3085787 1 1 1

vn -0.3826834 0 -0.9238795
vn -0.9238795 0 -0.3826834
vn -0.9238795 0 0.3826834
vn -0.3826834 0 0.9238795
vn 0.3826834 0 -0.9238795
vn 0.9238795 0 -0.3826834
vn 0.9238795 0 0.3826834
vn 0.3826834 0 0.9238795
vn 0 -1 0
vn 0 1 0

vt 0.21875 0.075
vt 0.21875 0.175
vt 0.21875 0.025
vt 0.21875 0.225
vt 0.21875 0.425
vt 0.21875 0.475
vt 0.34375 0.225
vt 0.34375 0.175
vt 0.28125 0.125

usemtl colormap

f 3/1/2 2/2/1 1/1/1
f 2/2/1 3/1/2 4/2/2
f 7/1/4 6/2/3 5/1/3
f 6/2/3 7/1/4 8/2/4
f 5/1/3 4/2/2 3/1/2
f 4/2/2 5/1/3 6/2/3
f 11/2/5 10/1/6 9/1/5
f 10/1/6 11/2/5 12/2/6
f 2/2/1 9/1/5 1/1/1
f 9/1/5 2/2/1 11/2/5
f 13/2/7 10/1/6 12/2/6
f 10/1/6 13/2/7 14/1/7
f 13/2/7 15/1/8 14/1/7
f 15/1/8 13/2/7 16/2/8
f 15/1/9 10/1/9 14/1/9
f 10/1/9 15/1/9 9/1/9
f 9/1/9 15/1/9 7/1/9
f 9/1/9 7/1/9 1/1/9
f 1/1/9 7/1/9 5/1/9
f 1/1/9 5/1/9 3/1/9
f 16/2/8 7/1/4 15/1/8
f 7/1/4 16/2/8 8/2/4
f 19/3/2 18/4/1 17/3/1
f 18/4/1 19/3/2 20/4/2
f 23/3/4 22/4/3 21/3/3
f 22/4/3 23/3/4 24/4/4
f 21/3/3 20/4/2 19/3/2
f 20/4/2 21/3/3 22/4/3
f 27/3/9 26/3/9 25/3/9
f 26/3/9 27/3/9 28/3/9
f 28/3/9 27/3/9 23/3/9
f 28/3/9 23/3/9 17/3/9
f 17/3/9 23/3/9 21/3/9
f 17/3/9 21/3/9 19/3/9
f 31/4/10 30/4/10 29/4/10
f 30/4/10 31/4/10 32/4/10
f 32/4/10 31/4/10 18/4/10
f 32/4/10 18/4/10 24/4/10
f 24/4/10 18/4/10 20/4/10
f 24/4/10 20/4/10 22/4/10
f 32/4/8 23/3/4 27/3/8
f 23/3/4 32/4/8 24/4/4
f 30/4/7 26/3/6 29/4/6
f 26/3/6 30/4/7 25/3/7
f 30/4/7 27/3/8 25/3/7
f 27/3/8 30/4/7 32/4/8
f 31/4/5 26/3/6 28/3/5
f 26/3/6 31/4/5 29/4/6
f 18/4/1 28/3/5 17/3/1
f 28/3/5 18/4/1 31/4/5
f 35/5/2 34/6/1 33/5/1
f 34/6/1 35/5/2 36/6/2
f 37/5/3 36/6/2 35/5/2
f 36/6/2 37/5/3 38/6/3
f 39/5/4 38/6/3 37/5/3
f 38/6/3 39/5/4 40/6/4
f 43/6/7 42/5/6 41/6/6
f 42/5/6 43/6/7 44/5/7
f 45/6/8 44/5/7 43/6/7
f 44/5/7 45/6/8 46/5/8
f 45/6/8 39/5/4 46/5/8
f 39/5/4 45/6/8 40/6/4
f 41/6/6 48/5/5 47/6/5
f 48/5/5 41/6/6 42/5/6
f 34/6/1 48/5/5 33/5/1
f 48/5/5 34/6/1 47/6/5
f 40/7/10 36/7/10 38/7/10
f 49/7/10 36/7/10 40/7/10
f 40/7/10 50/7/10 49/7/10
f 51/7/10 36/7/10 49/7/10
f 40/7/10 52/7/10 50/7/10
f 51/7/10 34/7/10 36/7/10
f 53/7/10 34/7/10 51/7/10
f 54/7/10 34/7/10 53/7/10
f 45/7/10 52/7/10 40/7/10
f 54/7/10 47/7/10 34/7/10
f 45/7/10 55/7/10 52/7/10
f 45/7/10 56/7/10 55/7/10
f 47/7/10 54/7/10 56/7/10
f 45/7/10 47/7/10 56/7/10
f 43/7/10 47/7/10 45/7/10
f 47/7/10 43/7/10 41/7/10
f 33/8/9 37/8/9 35/8/9
f 4/8/9 37/8/9 33/8/9
f 33/8/9 2/8/9 4/8/9
f 6/8/9 37/8/9 4/8/9
f 33/8/9 11/8/9 2/8/9
f 6/8/9 39/8/9 37/8/9
f 8/8/9 39/8/9 6/8/9
f 16/8/9 39/8/9 8/8/9
f 48/8/9 11/8/9 33/8/9
f 16/8/9 46/8/9 39/8/9
f 48/8/9 12/8/9 11/8/9
f 48/8/9 13/8/9 12/8/9
f 46/8/9 16/8/9 13/8/9
f 48/8/9 46/8/9 13/8/9
f 42/8/9 46/8/9 48/8/9
f 46/8/9 42/8/9 44/8/9
f 58/9/10 55/9/10 57/9/10
f 55/9/10 58/9/10 59/9/10
f 59/9/10 58/9/10 60/9/10
f 59/9/10 60/9/10 61/9/10
f 61/9/10 60/9/10 62/9/10
f 61/9/10 62/9/10 49/9/10

g table-large




usemtl colormap

f 3/1/2 2/2/1 1/1/1
f 2/2/1 3/1/2 4/2/2
f 7/1/4 6/2/3 5/1/3
f 6/2/3 7/1/4 8/2/4
f 5/1/3 4/2/2 3/1/2
f 4/2/2 5/1/3 6/2/3
f 11/2/5 10/1/6 9/1/5
f 10/1/6 11/2/5 12/2/6
f 2/2/1 9/1/5 1/1/1
f 9/1/5 2/2/1 11/2/5
f 13/2/7 10/1/6 12/2/6
f 10/1/6 13/2/7 14/1/7
f 13/2/7 15/1/8 14/1/7
f 15/1/8 13/2/7 16/2/8
f 15/1/9 10/1/9 14/1/9
f 10/1/9 15/1/9 9/1/9
f 9/1/9 15/1/9 7/1/9
f 9/1/9 7/1/9 1/1/9
f 1/1/9 7/1/9 5/1/9
f 1/1/9 5/1/9 3/1/9
f 16/2/8 7/1/4 15/1/8
f 7/1/4 16/2/8 8/2/4
f 19/3/2 18/4/1 17/3/1
f 18/4/1 19/3/2 20/4/2
f 23/3/4 22/4/3 21/3/3
f 22/4/3 23/3/4 24/4/4
f 21/3/3 20/4/2 19/3/2
f 20/4/2 21/3/3 22/4/3
f 27/3/9 26/3/9 25/3/9
f 26/3/9 27/3/9 28/3/9
f 28/3/9 27/3/9 23/3/9
f 28/3/9 23/3/9 17/3/9
f 17/3/9 23/3/9 21/3/9
f 17/3/9 21/3/9 19/3/9
f 31/4/10 30/4/10 29/4/10
f 30/4/10 31/4/10 32/4/10
f 32/4/10 31/4/10 18/4/10
f 32/4/10 18/4/10 24/4/10
f 24/4/10 18/4/10 20/4/10
f 24/4/10 20/4/10 22/4/10
f 32/4/8 23/3/4 27/3/8
f 23/3/4 32/4/8 24/4/4
f 30/4/7 26/3/6 29/4/6
f 26/3/6 30/4/7 25/3/7
f 30/4/7 27/3/8 25/3/7
f 27/3/8 30/4/7 32/4/8
f 31/4/5 26/3/6 28/3/5
f 26/3/6 31/4/5 29/4/6
f 18/4/1 28/3/5 17/3/1
f 28/3/5 18/4/1 31/4/5
f 35/5/2 34/6/1 33/5/1
f 34/6/1 35/5/2 36/6/2
f 37/5/3 36/6/2 35/5/2
f 36/6/2 37/5/3 38/6/3
f 39/5/4 38/6/3 37/5/3
f 38/6/3 39/5/4 40/6/4
f 43/6/7 42/5/6 41/6/6
f 42/5/6 43/6/7 44/5/7
f 45/6/8 44/5/7 43/6/7
f 44/5/7 45/6/8 46/5/8
f 45/6/8 39/5/4 46/5/8
f 39/5/4 45/6/8 40/6/4
f 41/6/6 48/5/5 47/6/5
f 48/5/5 41/6/6 42/5/6
f 34/6/1 48/5/5 33/5/1
f 48/5/5 34/6/1 47/6/5
f 40/7/10 36/7/10 38/7/10
f 49/7/10 36/7/10 40/7/10
f 40/7/10 50/7/10 49/7/10
f 51/7/10 36/7/10 49/7/10
f 40/7/10 52/7/10 50/7/10
f 51/7/10 34/7/10 36/7/10
f 53/7/10 34/7/10 51/7/10
f 54/7/10 34/7/10 53/7/10
f 45/7/10 52/7/10 40/7/10
f 54/7/10 47/7/10 34/7/10
f 45/7/10 55/7/10 52/7/10
f 45/7/10 56/7/10 55/7/10
f 47/7/10 54/7/10 56/7/10
f 45/7/10 47/7/10 56/7/10
f 43/7/10 47/7/10 45/7/10
f 47/7/10 43/7/10 41/7/10
f 33/8/9 37/8/9 35/8/9
f 4/8/9 37/8/9 33/8/9
f 33/8/9 2/8/9 4/8/9
f 6/8/9 37/8/9 4/8/9
f 33/8/9 11/8/9 2/8/9
f 6/8/9 39/8/9 37/8/9
f 8/8/9 39/8/9 6/8/9
f 16/8/9 39/8/9 8/8/9
f 48/8/9 11/8/9 33/8/9
f 16/8/9 46/8/9 39/8/9
f 48/8/9 12/8/9 11/8/9
f 48/8/9 13/8/9 12/8/9
f 46/8/9 16/8/9 13/8/9
f 48/8/9 46/8/9 13/8/9
f 42/8/9 46/8/9 48/8/9
f 46/8/9 42/8/9 44/8/9
f 58/9/10 55/9/10 57/9/10
f 55/9/10 58/9/10 59/9/10
f 59/9/10 58/9/10 60/9/10
f 59/9/10 60/9/10 61/9/10
f 61/9/10 60/9/10 62/9/10
f 61/9/10 62/9/10 49/9/10

