# Created by Kenney (www.kenney.nl)

mtllib table-display-planet.mtl

g table-display-planet

v -0.0625 0.1 0.1375 1 1 1
v -0.0625 0.1 0.3625 1 1 1
v -0.08446699 0.1 0.08446699 1 1 1
v -0.08446699 0.1 0.415533 1 1 1
v -0.1375 0.1 0.0625 1 1 1
v -0.1375 0.1 0.4375 1 1 1
v -0.3625 0.1 0.0625 1 1 1
v -0.3625 0.1 0.4375 1 1 1
v -0.415533 0.1 0.08446699 1 1 1
v -0.415533 0.1 0.415533 1 1 1
v -0.4375 0.1 0.1375 1 1 1
v -0.4375 0.1 0.3625 1 1 1
v 0 0 0.4 1 1 1
v 0 0 0.1 1 1 1
v -0.02928932 0 0.4707107 1 1 1
v -0.02928932 0 0.02928932 1 1 1
v -0.1 0 0.5 1 1 1
v -0.1 0 0 1 1 1
v -0.4 0 0.5 1 1 1
v -0.4 0 0 1 1 1
v -0.4707107 0 0.4707107 1 1 1
v -0.4707107 0 0.02928932 1 1 1
v -0.5 0 0.4 1 1 1
v -0.5 0 0.1 1 1 1

vn 0 1 0
vn 0 -1 0
vn -0.1785947 0.5687689 -0.8028735
vn 0.1785947 0.5687689 -0.8028735
vn -0.1388743 0.5617903 -0.81554
vn 0.1388743 0.5617903 -0.81554
vn 0.8028735 0.5687689 -0.1785947
vn 0.8028735 0.5687689 0.1785947
vn 0.81554 0.5617903 -0.1388743
vn 0.81554 0.5617903 0.1388743
vn 0.1785947 0.5687689 0.8028735
vn -0.1785947 0.5687689 0.8028735
vn 0.1388743 0.5617903 0.81554
vn -0.1388743 0.5617903 0.81554
vn -0.8028735 0.5687689 -0.1785947
vn -0.81554 0.5617903 -0.1388743
vn -0.8028735 0.5687689 0.1785947
vn -0.81554 0.5617903 0.1388743
vn -0.5574661 0.6151936 0.5574661
vn 0.5574661 0.6151936 0.5574661
vn 0.5574661 0.6151936 -0.5574661
vn -0.5574661 0.6151936 -0.5574661

vt 0.34375 0.225
vt 0.21875 0.025
vt 0.21875 0.225

usemtl colormap

f 3/1/1 2/1/1 1/1/1
f 2/1/1 3/1/1 4/1/1
f 4/1/1 3/1/1 5/1/1
f 4/1/1 5/1/1 6/1/1
f 6/1/1 5/1/1 7/1/1
f 6/1/1 7/1/1 8/1/1
f 8/1/1 7/1/1 9/1/1
f 8/1/1 9/1/1 10/1/1
f 10/1/1 9/1/1 11/1/1
f 10/1/1 11/1/1 12/1/1
f 15/2/2 14/2/2 13/2/2
f 14/2/2 15/2/2 16/2/2
f 16/2/2 15/2/2 17/2/2
f 16/2/2 17/2/2 18/2/2
f 18/2/2 17/2/2 19/2/2
f 18/2/2 19/2/2 20/2/2
f 20/2/2 19/2/2 21/2/2
f 20/2/2 21/2/2 22/2/2
f 22/2/2 21/2/2 23/2/2
f 22/2/2 23/2/2 24/2/2
f 7/3/5 18/2/4 20/2/3
f 18/2/4 7/3/5 5/3/6
f 1/3/9 13/2/8 14/2/7
f 13/2/8 1/3/9 2/3/10
f 6/3/13 19/2/12 17/2/11
f 19/2/12 6/3/13 8/3/14
f 23/2/17 11/3/16 24/2/15
f 11/3/16 23/2/17 12/3/18
f 8/3/14 21/2/19 19/2/12
f 21/2/19 8/3/14 10/3/19
f 4/3/20 13/2/8 2/3/10
f 13/2/8 4/3/20 15/2/20
f 5/3/6 16/2/21 18/2/4
f 16/2/21 5/3/6 3/3/21
f 4/3/20 17/2/11 15/2/20
f 17/2/11 4/3/20 6/3/13
f 23/2/17 10/3/19 12/3/18
f 10/3/19 23/2/17 21/2/19
f 24/2/15 9/3/22 22/2/22
f 9/3/22 24/2/15 11/3/16
f 3/3/21 14/2/7 16/2/21
f 14/2/7 3/3/21 1/3/9
f 9/3/22 20/2/3 22/2/22
f 20/2/3 9/3/22 7/3/5

g table-display-planet




usemtl colormap

f 3/1/1 2/1/1 1/1/1
f 2/1/1 3/1/1 4/1/1
f 4/1/1 3/1/1 5/1/1
f 4/1/1 5/1/1 6/1/1
f 6/1/1 5/1/1 7/1/1
f 6/1/1 7/1/1 8/1/1
f 8/1/1 7/1/1 9/1/1
f 8/1/1 9/1/1 10/1/1
f 10/1/1 9/1/1 11/1/1
f 10/1/1 11/1/1 12/1/1
f 15/2/2 14/2/2 13/2/2
f 14/2/2 15/2/2 16/2/2
f 16/2/2 15/2/2 17/2/2
f 16/2/2 17/2/2 18/2/2
f 18/2/2 17/2/2 19/2/2
f 18/2/2 19/2/2 20/2/2
f 20/2/2 19/2/2 21/2/2
f 20/2/2 21/2/2 22/2/2
f 22/2/2 21/2/2 23/2/2
f 22/2/2 23/2/2 24/2/2
f 7/3/5 18/2/4 20/2/3
f 18/2/4 7/3/5 5/3/6
f 1/3/9 13/2/8 14/2/7
f 13/2/8 1/3/9 2/3/10
f 6/3/13 19/2/12 17/2/11
f 19/2/12 6/3/13 8/3/14
f 23/2/17 11/3/16 24/2/15
f 11/3/16 23/2/17 12/3/18
f 8/3/14 21/2/19 19/2/12
f 21/2/19 8/3/14 10/3/19
f 4/3/20 13/2/8 2/3/10
f 13/2/8 4/3/20 15/2/20
f 5/3/6 16/2/21 18/2/4
f 16/2/21 5/3/6 3/3/21
f 4/3/20 17/2/11 15/2/20
f 17/2/11 4/3/20 6/3/13
f 23/2/17 10/3/19 12/3/18
f 10/3/19 23/2/17 21/2/19
f 24/2/15 9/3/22 22/2/22
f 9/3/22 24/2/15 11/3/16
f 3/3/21 14/2/7 16/2/21
f 14/2/7 3/3/21 1/3/9
f 9/3/22 20/2/3 22/2/22
f 20/2/3 9/3/22 7/3/5

g planet

v -0.2915627 0.3809017 0.2084373 1 1 1
v -0.25 0.4 0.25 1 1 1
v -0.3087785 0.3809017 0.25 1 1 1
v -0.2084373 0.3809017 0.2915627 1 1 1
v -0.25 0.3809017 0.3087785 1 1 1
v -0.25 0.3809017 0.1912215 1 1 1
v -0.2084373 0.3809017 0.2084373 1 1 1
v -0.1912215 0.3809017 0.25 1 1 1
v -0.25 0.2 0.25 1 1 1
v -0.25 0.2190983 0.1912215 1 1 1
v -0.2915627 0.2190983 0.2084373 1 1 1
v -0.2915627 0.3809017 0.2915627 1 1 1
v -0.2915627 0.2190983 0.2915627 1 1 1
v -0.3087785 0.2190983 0.25 1 1 1
v -0.25 0.2190983 0.3087785 1 1 1
v -0.1912215 0.2190983 0.25 1 1 1
v -0.2084373 0.2190983 0.2084373 1 1 1
v -0.2084373 0.2190983 0.2915627 1 1 1
v -0.3172498 0.3309017 0.1827502 1 1 1
v -0.3451056 0.3309017 0.25 1 1 1
v -0.25 0.2690983 0.3451056 1 1 1
v -0.3172498 0.2690983 0.3172498 1 1 1
v -0.25 0.3309017 0.3451056 1 1 1
v -0.3172498 0.3309017 0.3172498 1 1 1
v -0.1548944 0.3309017 0.25 1 1 1
v -0.1548944 0.2690983 0.25 1 1 1
v -0.1827502 0.3309017 0.3172498 1 1 1
v -0.1827502 0.2690983 0.3172498 1 1 1
v -0.3172498 0.2690983 0.1827502 1 1 1
v -0.25 0.2690983 0.1548944 1 1 1
v -0.25 0.3309017 0.1548944 1 1 1
v -0.1827502 0.2690983 0.1827502 1 1 1
v -0.1827502 0.3309017 0.1827502 1 1 1
v -0.3451056 0.2690983 0.25 1 1 1

vn -0.4480222 0.7736616 -0.4480222
vn -0.6335991 0.7736616 0
vn 0.4480222 0.7736616 0.4480222
vn 0 0.7736616 0.6335991
vn 0 0.7736616 -0.6335991
vn 0.4480222 0.7736616 -0.4480222
vn 0.6335991 0.7736616 0
vn 0 -0.7736616 -0.6335991
vn -0.4480222 -0.7736616 -0.4480222
vn -0.4480222 0.7736616 0.4480222
vn -0.4480222 -0.7736616 0.4480222
vn -0.6335991 -0.7736616 0
vn 0 -0.7736616 0.6335991
vn 0.6335991 -0.7736616 0
vn 0.4480222 -0.7736616 -0.4480222
vn 0.4480222 -0.7736616 0.4480222
vn -0.6769574 0.2888899 -0.6769574
vn -0.9573624 0.2888899 0
vn 0 -0.2888899 0.9573624
vn -0.6769574 -0.2888899 0.6769574
vn 0 0.2888899 0.9573624
vn -0.6769574 0.2888899 0.6769574
vn 0.9573624 0.2888899 0
vn 0.9573624 -0.2888899 0
vn 0.6769574 0.2888899 0.6769574
vn 0.6769574 -0.2888899 0.6769574
vn -0.6769574 -0.2888899 -0.6769574
vn 0 -0.2888899 -0.9573624
vn 0 0.2888899 -0.9573624
vn 0.6769574 -0.2888899 -0.6769574
vn 0.6769574 0.2888899 -0.6769574
vn -0.9573624 -0.2888899 0

vt 0.71875 0.3559017
vt 0.71875 0.375
vt 0.71875 0.275
vt 0.71875 0.3059017

usemtl colormap

f 27/4/24 26/5/1 25/4/23
f 29/4/26 28/4/25 26/5/1
f 26/5/1 31/4/28 30/4/27
f 26/5/1 32/4/29 31/4/28
f 25/4/23 26/5/1 30/4/27
f 35/6/31 34/6/30 33/6/2
f 36/4/32 29/4/26 26/5/1
f 27/4/24 36/4/32 26/5/1
f 38/6/34 33/6/2 37/6/33
f 37/6/33 33/6/2 39/6/35
f 33/6/2 41/6/37 40/6/36
f 38/6/34 35/6/31 33/6/2
f 26/5/1 28/4/25 32/4/29
f 34/6/30 41/6/37 33/6/2
f 33/6/2 40/6/36 42/6/38
f 33/6/2 42/6/38 39/6/35
f 44/7/40 25/4/23 43/7/39
f 25/4/23 44/7/40 27/4/24
f 47/7/43 46/6/42 45/6/41
f 46/6/42 47/7/43 48/7/44
f 51/7/47 50/6/46 49/7/45
f 50/6/46 51/7/47 52/6/48
f 28/4/25 47/7/43 51/7/47
f 47/7/43 28/4/25 29/4/26
f 43/7/39 54/6/50 53/6/49
f 54/6/50 43/7/39 55/7/51
f 52/6/48 40/6/36 50/6/46
f 40/6/36 52/6/48 42/6/38
f 55/7/51 56/6/52 54/6/50
f 56/6/52 55/7/51 57/7/53
f 48/7/44 27/4/24 44/7/40
f 27/4/24 48/7/44 36/4/32
f 37/6/33 58/6/54 38/6/34
f 58/6/54 37/6/33 46/6/42
f 25/4/23 55/7/51 43/7/39
f 55/7/51 25/4/23 30/4/27
f 54/6/50 41/6/37 34/6/30
f 41/6/37 54/6/50 56/6/52
f 52/6/48 39/6/35 42/6/38
f 39/6/35 52/6/48 45/6/41
f 30/4/27 57/7/53 55/7/51
f 57/7/53 30/4/27 31/4/28
f 51/7/47 45/6/41 52/6/48
f 45/6/41 51/7/47 47/7/43
f 31/4/28 49/7/45 57/7/53
f 49/7/45 31/4/28 32/4/29
f 49/7/45 56/6/52 57/7/53
f 56/6/52 49/7/45 50/6/46
f 45/6/41 37/6/33 39/6/35
f 37/6/33 45/6/41 46/6/42
f 46/6/42 44/7/40 58/6/54
f 44/7/40 46/6/42 48/7/44
f 50/6/46 41/6/37 56/6/52
f 41/6/37 50/6/46 40/6/36
f 53/6/49 34/6/30 35/6/31
f 34/6/30 53/6/49 54/6/50
f 28/4/25 49/7/45 32/4/29
f 49/7/45 28/4/25 51/7/47
f 35/6/31 58/6/54 53/6/49
f 58/6/54 35/6/31 38/6/34
f 58/6/54 43/7/39 53/6/49
f 43/7/39 58/6/54 44/7/40
f 29/4/26 48/7/44 47/7/43
f 48/7/44 29/4/26 36/4/32

g planet-ring

v -0.05681483 0.3517638 0.25 1 1 1
v -0.1133975 0.3366026 0.3914214 1 1 1
v -0.1133975 0.3366026 0.1085786 1 1 1
v -0.1244123 0.3336511 0.25 1 1 1
v -0.1611961 0.323795 0.1580634 1 1 1
v -0.1611961 0.323795 0.3419366 1 1 1
v -0.25 0.3 0.05 1 1 1
v -0.25 0.3 0.119982 1 1 1
v -0.25 0.3 0.45 1 1 1
v -0.25 0.3 0.380018 1 1 1
v -0.3388039 0.2762051 0.3419366 1 1 1
v -0.3866025 0.2633975 0.1085786 1 1 1
v -0.3866025 0.2633975 0.3914214 1 1 1
v -0.3388039 0.2762051 0.1580634 1 1 1
v -0.3755877 0.2663489 0.25 1 1 1
v -0.4431852 0.2482362 0.25 1 1 1

vn -0.258819 0.9659258 0
vn 0.258819 -0.9659258 0

vt 0.71875 0.3457107
vt 0.71875 0.340009
vt 0.71875 0.3209683

usemtl colormap

f 61/8/55 60/8/55 59/5/55
f 60/8/55 61/8/55 62/9/55
f 62/9/55 61/8/55 63/10/55
f 64/10/55 60/8/55 62/9/55
f 63/10/55 61/8/55 65/6/55
f 63/10/55 65/6/55 66/6/55
f 60/8/55 64/10/55 67/6/55
f 67/6/55 64/10/55 68/6/55
f 67/6/55 68/6/55 69/6/55
f 66/6/55 65/6/55 70/6/55
f 67/6/55 69/6/55 71/6/55
f 66/6/55 70/6/55 72/6/55
f 71/6/55 69/6/55 73/6/55
f 72/6/55 70/6/55 73/6/55
f 71/6/55 73/6/55 70/6/55
f 71/6/55 70/6/55 74/6/55
f 59/5/56 60/8/56 61/8/56
f 62/9/56 61/8/56 60/8/56
f 62/9/56 60/8/56 64/10/56
f 63/10/56 61/8/56 62/9/56
f 65/6/56 61/8/56 63/10/56
f 66/6/56 65/6/56 63/10/56
f 67/6/56 64/10/56 60/8/56
f 68/6/56 64/10/56 67/6/56
f 69/6/56 68/6/56 67/6/56
f 70/6/56 65/6/56 66/6/56
f 71/6/56 69/6/56 67/6/56
f 72/6/56 70/6/56 66/6/56
f 73/6/56 69/6/56 71/6/56
f 73/6/56 70/6/56 72/6/56
f 70/6/56 73/6/56 71/6/56
f 74/6/56 70/6/56 71/6/56

