# Created by Kenney (www.kenney.nl)

mtllib table-display-small.mtl

g table-display-small

v -0.2292893 0.02582181 0.3836516 1 1 1
v -0.2292893 0.07411809 0.3965926 1 1 1
v -0.1792893 0.01288085 0.4319479 1 1 1
v -0.1792893 0.06117714 0.4448889 1 1 1
v -0.2292893 0.05170371 0.287059 1 1 1
v -0.2292893 0.1 0.3 1 1 1
v 0.1792893 0.01288085 0.4319479 1 1 1
v 0.1792893 0.06117714 0.4448889 1 1 1
v 0.2292893 0.02582181 0.3836516 1 1 1
v 0.2292893 0.07411809 0.3965926 1 1 1
v 0.2292893 0.05170371 0.287059 1 1 1
v 0.2292893 0.1 0.3 1 1 1
v 0.075 0.08705904 0.3482963 1 1 1
v 0.1 0.08705904 0.3482963 1 1 1
v 0.075 0.1112072 0.3547668 1 1 1
v 0.1 0.1112072 0.3547668 1 1 1
v 0.1 0.07411809 0.3965926 1 1 1
v 0.075 0.07411809 0.3965926 1 1 1
v 0.1 0.09826624 0.4030631 1 1 1
v 0.075 0.09826624 0.4030631 1 1 1
v 0.125 0.1047367 0.3789149 1 1 1
v 0.125 0.08058857 0.3724444 1 1 1
v -0.025 0.08705904 0.3482963 1 1 1
v 0.025 0.08705904 0.3482963 1 1 1
v -0.025 0.1112072 0.3547668 1 1 1
v 0.025 0.1112072 0.3547668 1 1 1
v -0.025 0.07411809 0.3965926 1 1 1
v -0.025 0.09826624 0.4030631 1 1 1
v 0.025 0.07411809 0.3965926 1 1 1
v 0.025 0.09826624 0.4030631 1 1 1
v -0.075 0.08705904 0.3482963 1 1 1
v -0.075 0.1112072 0.3547668 1 1 1
v -0.1 0.08705904 0.3482963 1 1 1
v -0.1 0.1112072 0.3547668 1 1 1
v -0.1 0.07411809 0.3965926 1 1 1
v -0.1 0.09826624 0.4030631 1 1 1
v -0.075 0.07411809 0.3965926 1 1 1
v -0.075 0.09826624 0.4030631 1 1 1
v -0.125 0.1047367 0.3789149 1 1 1
v -0.125 0.08058857 0.3724444 1 1 1
v -0.35 0 0.2 1 1 1
v -0.25 0 0.3 1 1 1
v -0.4207107 -0.3 0.2707107 1 1 1
v -0.3207107 -0.3 0.3707107 1 1 1
v -0.3207107 -0.3 -0.3707107 1 1 1
v -0.25 0 -0.3 1 1 1
v -0.4207107 -0.3 -0.2707107 1 1 1
v -0.35 0 -0.2 1 1 1
v 0.4207107 -0.3 0.2707107 1 1 1
v 0.3207107 -0.3 0.3707107 1 1 1
v 0.35 0 0.2 1 1 1
v 0.25 0 0.3 1 1 1
v 0.3207107 -0.3 -0.3707107 1 1 1
v 0.4207107 -0.3 -0.2707107 1 1 1
v 0.25 0 -0.3 1 1 1
v 0.35 0 -0.2 1 1 1
v -0.35 0 -0.2 1 1 1
v -0.35 0.1 -0.2 1 1 1
v -0.35 0 0.2 1 1 1
v -0.35 0.1 0.2 1 1 1
v -0.25 0.1 0.3 1 1 1
v -0.25 0.1 -0.3 1 1 1
v 0.25 0.1 0.3 1 1 1
v 0.25 0.1 -0.3 1 1 1
v 0.35 0.1 0.2 1 1 1
v 0.35 0 0.2 1 1 1
v 0.35 0.1 -0.2 1 1 1
v 0.35 0 -0.2 1 1 1
v -0.3853554 -0.3 0.2353553 1 1 1
v -0.2792893 0 0.1292893 1 1 1
v -0.35 -0.3 0.2 1 1 1
v -0.25 -0.3 0.3 1 1 1
v -0.2853554 -0.3 0.3353553 1 1 1
v -0.1792893 0 0.2292893 1 1 1
v -0.35 -0.3 -0.2 1 1 1
v -0.3853554 -0.3 -0.2353553 1 1 1
v -0.2792893 0 -0.1292893 1 1 1
v -0.2853554 -0.3 -0.3353553 1 1 1
v -0.25 -0.3 -0.3 1 1 1
v -0.1792893 0 -0.2292893 1 1 1
v 0.2792893 0 0.1292893 1 1 1
v 0.35 -0.3 0.2 1 1 1
v 0.3853554 -0.3 0.2353553 1 1 1
v 0.2853554 -0.3 0.3353553 1 1 1
v 0.1792893 0 0.2292893 1 1 1
v 0.25 -0.3 0.3 1 1 1
v 0.2853554 -0.3 -0.3353553 1 1 1
v 0.25 -0.3 -0.3 1 1 1
v 0.1792893 0 -0.2292893 1 1 1
v 0.3853554 -0.3 -0.2353553 1 1 1
v 0.2792893 0 -0.1292893 1 1 1
v 0.35 -0.3 -0.2 1 1 1
v -0.25 0.1 0.1585786 1 1 1
v -0.2085786 0.1 0.2 1 1 1
v -0.25 0.1 -0.1585786 1 1 1
v 0.2085786 0.1 0.2 1 1 1
v -0.2085786 0.1 -0.2 1 1 1
v 0.2085786 0.1 -0.2 1 1 1
v 0.25 0.1 0.1585786 1 1 1
v 0.25 0.1 -0.1585786 1 1 1
v -0.25 0.05 -0.1585786 1 1 1
v -0.25 0.05 0.1585786 1 1 1
v -0.2085786 0.05 -0.2 1 1 1
v -0.2085786 0.05 0.2 1 1 1
v 0.25 0.05 -0.1585786 1 1 1
v 0.25 0.05 0.1585786 1 1 1
v 0.2085786 0.05 -0.2 1 1 1
v 0.2085786 0.05 0.2 1 1 1
v -0.2853553 -0.3 -0.3353553 1 1 1
v -0.2146446 0 -0.2646447 1 1 1
v -0.3853553 -0.3 -0.2353553 1 1 1
v -0.3146446 0 -0.1646447 1 1 1
v -0.3853553 -0.3 0.2353553 1 1 1
v -0.3146446 0 0.1646447 1 1 1
v -0.2146446 0 0.2646447 1 1 1
v -0.2853553 -0.3 0.3353553 1 1 1
v 0.3853553 -0.3 -0.2353553 1 1 1
v 0.2853553 -0.3 -0.3353553 1 1 1
v 0.3853553 -0.3 0.2353553 1 1 1
v 0.2853553 -0.3 0.3353553 1 1 1
v 0.2146446 0 -0.2646447 1 1 1
v 0.2146446 0 0.2646447 1 1 1
v 0.3146446 0 0.1646447 1 1 1
v 0.3146446 0 -0.1646447 1 1 1

vn -0.9238795 -0.09904575 0.3696438
vn -0.3826835 -0.2391177 0.8923991
vn -1 0 0
vn 0.3826835 -0.2391177 0.8923991
vn 0.9238795 -0.09904575 0.3696438
vn 1 0 0
vn -0.7071068 0.1830127 -0.6830127
vn 0 0.258819 -0.9659258
vn 0 -0.258819 0.9659258
vn -0.7071068 -0.1830127 0.6830127
vn 0 0.9659258 0.258819
vn 0.7071068 -0.1830127 0.6830127
vn 0.7071068 0.1830127 -0.6830127
vn -0.6708205 0.3162278 0.6708204
vn -0.6708204 0.3162277 -0.6708204
vn 0.6708204 0.3162277 0.6708204
vn 0.6708204 0.3162277 -0.6708204
vn -0.9238795 0 -0.3826834
vn -0.9238795 0 0.3826834
vn -0.3826834 0 0.9238795
vn -0.3826834 0 -0.9238795
vn 0.3826834 0 0.9238795
vn 0.3826834 0 -0.9238795
vn 0.9238795 0 0.3826834
vn 0.9238795 0 -0.3826834
vn 0 -0.9659258 -0.258819
vn -0.7071068 0 -0.7071068
vn 0.7071068 0 0.7071068
vn 0 -1 0
vn -0.7071068 0 0.7071068
vn 0.7071068 0 -0.7071068
vn 0 1 0
vn -0.3888488 0.2971966 -0.8720497
vn -0.3368022 0.2904905 -0.8956448
vn -0.8720497 0.2971966 -0.3888488
vn -0.8956448 0.2904905 -0.3368022
vn -0.8720498 0.2971967 0.3888488
vn -0.8956448 0.2904905 0.3368022
vn -0.3368022 0.2904905 0.8956447
vn -0.3888488 0.2971966 0.8720497
vn 0.3888488 0.2971966 -0.8720497
vn 0.3368022 0.2904905 -0.8956448
vn 0.3888488 0.2971966 0.8720497
vn 0.3368022 0.2904905 0.8956448
vn 0.8956448 0.2904905 0.3368022
vn 0.8720497 0.2971966 0.3888488
vn 0.8720497 0.2971966 -0.3888488
vn 0.8956448 0.2904905 -0.3368022

vt 0.21875 0.3047086
vt 0.21875 0.4155827
vt 0.21875 0.275
vt 0.21875 0.3858741
vt 0.21875 0.3641259
vt 0.21875 0.475
vt 0.21875 0.344783
vt 0.21875 0.4052169
vt 0.21875 0.4401085
vt 0.21875 0.3098915
vt 0.34375 0.05470863
vt 0.34375 0.1141259
vt 0.34375 0.025
vt 0.34375 0.225
vt 0.34375 0.1655827
vt 0.34375 0.1358741
vt 0.71875 0.475
vt 0.71875 0.375
vt 0.21875 0.025
vt 0.21875 0.225

usemtl colormap

f 3/3/2 2/2/1 1/1/1
f 2/2/1 3/3/2 4/4/2
f 1/1/1 6/6/3 5/5/3
f 6/6/3 1/1/1 2/2/1
f 8/4/4 3/3/2 7/3/4
f 3/3/2 8/4/4 4/4/2
f 10/2/5 7/3/4 9/1/5
f 7/3/4 10/2/5 8/4/4
f 12/6/6 9/1/5 11/5/6
f 9/1/5 12/6/6 10/2/5
f 15/6/7 14/7/8 13/7/7
f 14/7/8 15/6/7 16/6/8
f 19/8/9 18/3/10 17/3/9
f 18/3/10 19/8/9 20/8/10
f 18/3/10 15/6/7 13/7/7
f 15/6/7 18/3/10 20/8/10
f 16/6/11 19/8/11 21/9/11
f 19/8/11 16/6/11 15/6/11
f 19/8/11 15/6/11 20/8/11
f 21/9/12 17/3/12 22/10/12
f 17/3/12 21/9/12 19/8/12
f 16/6/13 22/10/13 14/7/13
f 22/10/13 16/6/13 21/9/13
f 25/6/7 24/7/13 23/7/7
f 24/7/13 25/6/7 26/6/13
f 29/3/12 28/8/10 27/3/10
f 28/8/10 29/3/12 30/8/12
f 26/6/13 29/3/12 24/7/13
f 29/3/12 26/6/13 30/8/12
f 27/3/10 25/6/7 23/7/7
f 25/6/7 27/3/10 28/8/10
f 25/6/11 30/8/11 26/6/11
f 30/8/11 25/6/11 28/8/11
f 33/7/8 32/6/13 31/7/13
f 32/6/13 33/7/8 34/6/8
f 37/3/12 36/8/9 35/3/9
f 36/8/9 37/3/12 38/8/12
f 32/6/13 37/3/12 31/7/13
f 37/3/12 32/6/13 38/8/12
f 34/6/11 38/8/11 32/6/11
f 38/8/11 34/6/11 36/8/11
f 36/8/11 34/6/11 39/9/11
f 35/3/10 39/9/10 40/10/10
f 39/9/10 35/3/10 36/8/10
f 40/10/7 34/6/7 33/7/7
f 34/6/7 40/10/7 39/9/7
f 43/3/14 42/6/14 41/6/14
f 42/6/14 43/3/14 44/3/14
f 47/3/15 46/6/15 45/3/15
f 46/6/15 47/3/15 48/6/15
f 51/6/16 50/3/16 49/3/16
f 50/3/16 51/6/16 52/6/16
f 55/6/17 54/3/17 53/3/17
f 54/3/17 55/6/17 56/6/17
f 59/3/19 58/6/18 57/3/18
f 58/6/18 59/3/19 60/6/19
f 42/3/20 60/6/19 59/3/19
f 60/6/19 42/3/20 61/6/20
f 57/3/18 62/6/21 46/3/21
f 62/6/21 57/3/18 58/6/18
f 63/6/22 42/3/20 52/3/22
f 42/3/20 63/6/22 61/6/20
f 62/6/21 55/3/23 46/3/21
f 55/3/23 62/6/21 64/6/23
f 63/6/22 66/3/24 65/6/24
f 66/3/24 63/6/22 52/3/22
f 67/6/25 55/3/23 64/6/23
f 55/3/23 67/6/25 68/3/25
f 65/6/24 68/3/25 67/6/25
f 68/3/25 65/6/24 66/3/24
f 7/13/26 11/12/26 9/11/26
f 11/12/26 7/13/26 5/12/26
f 5/12/26 7/13/26 3/13/26
f 5/12/26 3/13/26 1/11/26
f 6/14/11 10/15/11 12/14/11
f 10/15/11 6/14/11 8/16/11
f 8/16/11 6/14/11 4/16/11
f 4/16/11 6/14/11 2/15/11
f 41/14/27 69/13/27 43/13/27
f 70/14/27 69/13/27 41/14/27
f 69/13/27 70/14/27 71/13/27
f 74/14/28 73/13/28 72/13/28
f 73/13/28 74/14/28 44/13/28
f 44/13/28 74/14/28 42/14/28
f 44/13/29 69/13/29 73/13/29
f 69/13/29 44/13/29 43/13/29
f 77/14/30 76/13/30 75/13/30
f 76/13/30 77/14/30 47/13/30
f 47/13/30 77/14/30 48/14/30
f 46/14/31 78/13/31 45/13/31
f 78/13/31 46/14/31 79/13/31
f 79/13/31 46/14/31 80/14/31
f 76/13/29 45/13/29 78/13/29
f 45/13/29 76/13/29 47/13/29
f 51/14/31 82/13/31 81/14/31
f 82/13/31 51/14/31 83/13/31
f 83/13/31 51/14/31 49/13/31
f 50/13/29 83/13/29 49/13/29
f 83/13/29 50/13/29 84/13/29
f 86/13/30 52/14/30 85/14/30
f 52/14/30 86/13/30 84/13/30
f 52/14/30 84/13/30 50/13/30
f 87/13/27 55/14/27 53/13/27
f 55/14/27 87/13/27 88/13/27
f 55/14/27 88/13/27 89/14/27
f 90/13/29 53/13/29 54/13/29
f 53/13/29 90/13/29 87/13/29
f 56/14/28 90/13/28 54/13/28
f 91/14/28 90/13/28 56/14/28
f 90/13/28 91/14/28 92/13/28
f 52/13/29 68/13/29 66/13/29
f 68/13/29 52/13/29 55/13/29
f 55/13/29 52/13/29 42/13/29
f 55/13/29 42/13/29 46/13/29
f 46/13/29 42/13/29 59/13/29
f 46/13/29 59/13/29 57/13/29
f 61/14/32 58/14/32 60/14/32
f 93/14/32 58/14/32 61/14/32
f 61/14/32 94/14/32 93/14/32
f 95/14/32 58/14/32 93/14/32
f 61/14/32 96/14/32 94/14/32
f 95/14/32 62/14/32 58/14/32
f 97/14/32 62/14/32 95/14/32
f 98/14/32 62/14/32 97/14/32
f 63/14/32 96/14/32 61/14/32
f 98/14/32 64/14/32 62/14/32
f 63/14/32 99/14/32 96/14/32
f 63/14/32 100/14/32 99/14/32
f 64/14/32 98/14/32 100/14/32
f 63/14/32 64/14/32 100/14/32
f 65/14/32 64/14/32 63/14/32
f 64/14/32 65/14/32 67/14/32
f 93/17/25 101/18/24 95/17/24
f 101/18/24 93/17/25 102/18/25
f 95/17/24 103/18/22 97/17/22
f 103/18/22 95/17/24 101/18/24
f 94/17/23 102/18/25 93/17/25
f 102/18/25 94/17/23 104/18/23
f 107/18/32 106/18/32 105/18/32
f 106/18/32 107/18/32 108/18/32
f 108/18/32 107/18/32 103/18/32
f 108/18/32 103/18/32 104/18/32
f 104/18/32 103/18/32 101/18/32
f 104/18/32 101/18/32 102/18/32
f 98/17/20 103/18/22 107/18/20
f 103/18/22 98/17/20 97/17/22
f 94/17/23 108/18/21 104/18/23
f 108/18/21 94/17/23 96/17/21
f 106/18/18 100/17/19 105/18/19
f 100/17/19 106/18/18 99/17/18
f 105/18/19 98/17/20 107/18/20
f 98/17/20 105/18/19 100/17/19
f 108/18/21 99/17/18 106/18/18
f 99/17/18 108/18/21 96/17/21
f 111/19/35 110/20/34 109/19/33
f 110/20/34 111/19/35 112/20/36
f 113/19/37 112/20/36 111/19/35
f 112/20/36 113/19/37 114/20/38
f 113/19/37 115/20/39 114/20/38
f 115/20/39 113/19/37 116/19/40
f 119/19/29 118/19/29 117/19/29
f 118/19/29 119/19/29 120/19/29
f 118/19/29 120/19/29 109/19/29
f 109/19/29 120/19/29 116/19/29
f 109/19/29 116/19/29 111/19/29
f 111/19/29 116/19/29 113/19/29
f 109/19/33 121/20/42 118/19/41
f 121/20/42 109/19/33 110/20/34
f 120/19/43 115/20/39 116/19/40
f 115/20/39 120/19/43 122/20/44
f 122/20/44 119/19/46 123/20/45
f 119/19/46 122/20/44 120/19/43
f 124/20/48 119/19/46 117/19/47
f 119/19/46 124/20/48 123/20/45
f 121/20/42 117/19/47 118/19/41
f 117/19/47 121/20/42 124/20/48

g table-display-small




usemtl colormap

f 3/3/2 2/2/1 1/1/1
f 2/2/1 3/3/2 4/4/2
f 1/1/1 6/6/3 5/5/3
f 6/6/3 1/1/1 2/2/1
f 8/4/4 3/3/2 7/3/4
f 3/3/2 8/4/4 4/4/2
f 10/2/5 7/3/4 9/1/5
f 7/3/4 10/2/5 8/4/4
f 12/6/6 9/1/5 11/5/6
f 9/1/5 12/6/6 10/2/5
f 15/6/7 14/7/8 13/7/7
f 14/7/8 15/6/7 16/6/8
f 19/8/9 18/3/10 17/3/9
f 18/3/10 19/8/9 20/8/10
f 18/3/10 15/6/7 13/7/7
f 15/6/7 18/3/10 20/8/10
f 16/6/11 19/8/11 21/9/11
f 19/8/11 16/6/11 15/6/11
f 19/8/11 15/6/11 20/8/11
f 21/9/12 17/3/12 22/10/12
f 17/3/12 21/9/12 19/8/12
f 16/6/13 22/10/13 14/7/13
f 22/10/13 16/6/13 21/9/13
f 25/6/7 24/7/13 23/7/7
f 24/7/13 25/6/7 26/6/13
f 29/3/12 28/8/10 27/3/10
f 28/8/10 29/3/12 30/8/12
f 26/6/13 29/3/12 24/7/13
f 29/3/12 26/6/13 30/8/12
f 27/3/10 25/6/7 23/7/7
f 25/6/7 27/3/10 28/8/10
f 25/6/11 30/8/11 26/6/11
f 30/8/11 25/6/11 28/8/11
f 33/7/8 32/6/13 31/7/13
f 32/6/13 33/7/8 34/6/8
f 37/3/12 36/8/9 35/3/9
f 36/8/9 37/3/12 38/8/12
f 32/6/13 37/3/12 31/7/13
f 37/3/12 32/6/13 38/8/12
f 34/6/11 38/8/11 32/6/11
f 38/8/11 34/6/11 36/8/11
f 36/8/11 34/6/11 39/9/11
f 35/3/10 39/9/10 40/10/10
f 39/9/10 35/3/10 36/8/10
f 40/10/7 34/6/7 33/7/7
f 34/6/7 40/10/7 39/9/7
f 43/3/14 42/6/14 41/6/14
f 42/6/14 43/3/14 44/3/14
f 47/3/15 46/6/15 45/3/15
f 46/6/15 47/3/15 48/6/15
f 51/6/16 50/3/16 49/3/16
f 50/3/16 51/6/16 52/6/16
f 55/6/17 54/3/17 53/3/17
f 54/3/17 55/6/17 56/6/17
f 59/3/19 58/6/18 57/3/18
f 58/6/18 59/3/19 60/6/19
f 42/3/20 60/6/19 59/3/19
f 60/6/19 42/3/20 61/6/20
f 57/3/18 62/6/21 46/3/21
f 62/6/21 57/3/18 58/6/18
f 63/6/22 42/3/20 52/3/22
f 42/3/20 63/6/22 61/6/20
f 62/6/21 55/3/23 46/3/21
f 55/3/23 62/6/21 64/6/23
f 63/6/22 66/3/24 65/6/24
f 66/3/24 63/6/22 52/3/22
f 67/6/25 55/3/23 64/6/23
f 55/3/23 67/6/25 68/3/25
f 65/6/24 68/3/25 67/6/25
f 68/3/25 65/6/24 66/3/24
f 7/13/26 11/12/26 9/11/26
f 11/12/26 7/13/26 5/12/26
f 5/12/26 7/13/26 3/13/26
f 5/12/26 3/13/26 1/11/26
f 6/14/11 10/15/11 12/14/11
f 10/15/11 6/14/11 8/16/11
f 8/16/11 6/14/11 4/16/11
f 4/16/11 6/14/11 2/15/11
f 41/14/27 69/13/27 43/13/27
f 70/14/27 69/13/27 41/14/27
f 69/13/27 70/14/27 71/13/27
f 74/14/28 73/13/28 72/13/28
f 73/13/28 74/14/28 44/13/28
f 44/13/28 74/14/28 42/14/28
f 44/13/29 69/13/29 73/13/29
f 69/13/29 44/13/29 43/13/29
f 77/14/30 76/13/30 75/13/30
f 76/13/30 77/14/30 47/13/30
f 47/13/30 77/14/30 48/14/30
f 46/14/31 78/13/31 45/13/31
f 78/13/31 46/14/31 79/13/31
f 79/13/31 46/14/31 80/14/31
f 76/13/29 45/13/29 78/13/29
f 45/13/29 76/13/29 47/13/29
f 51/14/31 82/13/31 81/14/31
f 82/13/31 51/14/31 83/13/31
f 83/13/31 51/14/31 49/13/31
f 50/13/29 83/13/29 49/13/29
f 83/13/29 50/13/29 84/13/29
f 86/13/30 52/14/30 85/14/30
f 52/14/30 86/13/30 84/13/30
f 52/14/30 84/13/30 50/13/30
f 87/13/27 55/14/27 53/13/27
f 55/14/27 87/13/27 88/13/27
f 55/14/27 88/13/27 89/14/27
f 90/13/29 53/13/29 54/13/29
f 53/13/29 90/13/29 87/13/29
f 56/14/28 90/13/28 54/13/28
f 91/14/28 90/13/28 56/14/28
f 90/13/28 91/14/28 92/13/28
f 52/13/29 68/13/29 66/13/29
f 68/13/29 52/13/29 55/13/29
f 55/13/29 52/13/29 42/13/29
f 55/13/29 42/13/29 46/13/29
f 46/13/29 42/13/29 59/13/29
f 46/13/29 59/13/29 57/13/29
f 61/14/32 58/14/32 60/14/32
f 93/14/32 58/14/32 61/14/32
f 61/14/32 94/14/32 93/14/32
f 95/14/32 58/14/32 93/14/32
f 61/14/32 96/14/32 94/14/32
f 95/14/32 62/14/32 58/14/32
f 97/14/32 62/14/32 95/14/32
f 98/14/32 62/14/32 97/14/32
f 63/14/32 96/14/32 61/14/32
f 98/14/32 64/14/32 62/14/32
f 63/14/32 99/14/32 96/14/32
f 63/14/32 100/14/32 99/14/32
f 64/14/32 98/14/32 100/14/32
f 63/14/32 64/14/32 100/14/32
f 65/14/32 64/14/32 63/14/32
f 64/14/32 65/14/32 67/14/32
f 93/17/25 101/18/24 95/17/24
f 101/18/24 93/17/25 102/18/25
f 95/17/24 103/18/22 97/17/22
f 103/18/22 95/17/24 101/18/24
f 94/17/23 102/18/25 93/17/25
f 102/18/25 94/17/23 104/18/23
f 107/18/32 106/18/32 105/18/32
f 106/18/32 107/18/32 108/18/32
f 108/18/32 107/18/32 103/18/32
f 108/18/32 103/18/32 104/18/32
f 104/18/32 103/18/32 101/18/32
f 104/18/32 101/18/32 102/18/32
f 98/17/20 103/18/22 107/18/20
f 103/18/22 98/17/20 97/17/22
f 94/17/23 108/18/21 104/18/23
f 108/18/21 94/17/23 96/17/21
f 106/18/18 100/17/19 105/18/19
f 100/17/19 106/18/18 99/17/18
f 105/18/19 98/17/20 107/18/20
f 98/17/20 105/18/19 100/17/19
f 108/18/21 99/17/18 106/18/18
f 99/17/18 108/18/21 96/17/21
f 111/19/35 110/20/34 109/19/33
f 110/20/34 111/19/35 112/20/36
f 113/19/37 112/20/36 111/19/35
f 112/20/36 113/19/37 114/20/38
f 113/19/37 115/20/39 114/20/38
f 115/20/39 113/19/37 116/19/40
f 119/19/29 118/19/29 117/19/29
f 118/19/29 119/19/29 120/19/29
f 118/19/29 120/19/29 109/19/29
f 109/19/29 120/19/29 116/19/29
f 109/19/29 116/19/29 111/19/29
f 111/19/29 116/19/29 113/19/29
f 109/19/33 121/20/42 118/19/41
f 121/20/42 109/19/33 110/20/34
f 120/19/43 115/20/39 116/19/40
f 115/20/39 120/19/43 122/20/44
f 122/20/44 119/19/46 123/20/45
f 119/19/46 122/20/44 120/19/43
f 124/20/48 119/19/46 117/19/47
f 119/19/46 124/20/48 123/20/45
f 121/20/42 117/19/47 118/19/41
f 117/19/47 121/20/42 124/20/48

g planet

v -0.0415627 0.2809017 -0.0415627 1 1 1
v 0 0.3 0 1 1 1
v -0.05877852 0.2809017 0 1 1 1
v 0.0415627 0.2809017 0.0415627 1 1 1
v 0 0.2809017 0.05877852 1 1 1
v 0 0.2809017 -0.05877852 1 1 1
v 0.0415627 0.2809017 -0.0415627 1 1 1
v 0.05877852 0.2809017 0 1 1 1
v 0 0.1 0 1 1 1
v 0 0.1190983 -0.05877852 1 1 1
v -0.0415627 0.1190983 -0.0415627 1 1 1
v -0.0415627 0.2809017 0.0415627 1 1 1
v -0.0415627 0.1190983 0.0415627 1 1 1
v -0.05877852 0.1190983 0 1 1 1
v 0 0.1190983 0.05877852 1 1 1
v 0.05877852 0.1190983 0 1 1 1
v 0.0415627 0.1190983 -0.0415627 1 1 1
v 0.0415627 0.1190983 0.0415627 1 1 1
v -0.06724985 0.2309017 -0.06724985 1 1 1
v -0.09510566 0.2309017 0 1 1 1
v 0 0.1690983 0.09510566 1 1 1
v -0.06724985 0.1690983 0.06724985 1 1 1
v 0 0.2309017 0.09510566 1 1 1
v -0.06724985 0.2309017 0.06724985 1 1 1
v 0.09510566 0.2309017 0 1 1 1
v 0.09510566 0.1690983 0 1 1 1
v 0.06724985 0.2309017 0.06724985 1 1 1
v 0.06724985 0.1690983 0.06724985 1 1 1
v -0.06724985 0.1690983 -0.06724985 1 1 1
v 0 0.1690983 -0.09510566 1 1 1
v 0 0.2309017 -0.09510566 1 1 1
v 0.06724985 0.1690983 -0.06724985 1 1 1
v 0.06724985 0.2309017 -0.06724985 1 1 1
v -0.09510566 0.1690983 0 1 1 1

vn -0.4480222 0.7736616 -0.4480222
vn -0.6335991 0.7736616 0
vn 0.4480222 0.7736616 0.4480222
vn 0 0.7736616 0.6335991
vn 0 0.7736616 -0.6335991
vn 0.4480222 0.7736616 -0.4480222
vn 0.6335991 0.7736616 0
vn 0 -0.7736616 -0.6335991
vn -0.4480222 -0.7736616 -0.4480222
vn -0.4480222 0.7736616 0.4480222
vn -0.4480222 -0.7736616 0.4480222
vn -0.6335991 -0.7736616 0
vn 0 -0.7736616 0.6335991
vn 0.6335991 -0.7736616 0
vn 0.4480222 -0.7736616 -0.4480222
vn 0.4480222 -0.7736616 0.4480222
vn -0.6769574 0.2888899 -0.6769574
vn -0.9573624 0.2888899 0
vn 0 -0.2888899 0.9573624
vn -0.6769574 -0.2888899 0.6769574
vn 0 0.2888899 0.9573624
vn -0.6769574 0.2888899 0.6769574
vn 0.9573624 0.2888899 0
vn 0.9573624 -0.2888899 0
vn 0.6769574 0.2888899 0.6769574
vn 0.6769574 -0.2888899 0.6769574
vn -0.6769574 -0.2888899 -0.6769574
vn 0 -0.2888899 -0.9573624
vn 0 0.2888899 -0.9573624
vn 0.6769574 -0.2888899 -0.6769574
vn 0.6769574 0.2888899 -0.6769574
vn -0.9573624 -0.2888899 0

vt 0.71875 0.3559017
vt 0.71875 0.275
vt 0.71875 0.3059017

usemtl colormap

f 127/21/50 126/18/32 125/21/49
f 129/21/52 128/21/51 126/18/32
f 126/18/32 131/21/54 130/21/53
f 126/18/32 132/21/55 131/21/54
f 125/21/49 126/18/32 130/21/53
f 135/22/57 134/22/56 133/22/29
f 136/21/58 129/21/52 126/18/32
f 127/21/50 136/21/58 126/18/32
f 138/22/60 133/22/29 137/22/59
f 137/22/59 133/22/29 139/22/61
f 133/22/29 141/22/63 140/22/62
f 138/22/60 135/22/57 133/22/29
f 126/18/32 128/21/51 132/21/55
f 134/22/56 141/22/63 133/22/29
f 133/22/29 140/22/62 142/22/64
f 133/22/29 142/22/64 139/22/61
f 144/23/66 125/21/49 143/23/65
f 125/21/49 144/23/66 127/21/50
f 147/23/69 146/22/68 145/22/67
f 146/22/68 147/23/69 148/23/70
f 151/23/73 150/22/72 149/23/71
f 150/22/72 151/23/73 152/22/74
f 128/21/51 147/23/69 151/23/73
f 147/23/69 128/21/51 129/21/52
f 143/23/65 154/22/76 153/22/75
f 154/22/76 143/23/65 155/23/77
f 152/22/74 140/22/62 150/22/72
f 140/22/62 152/22/74 142/22/64
f 155/23/77 156/22/78 154/22/76
f 156/22/78 155/23/77 157/23/79
f 148/23/70 127/21/50 144/23/66
f 127/21/50 148/23/70 136/21/58
f 137/22/59 158/22/80 138/22/60
f 158/22/80 137/22/59 146/22/68
f 125/21/49 155/23/77 143/23/65
f 155/23/77 125/21/49 130/21/53
f 154/22/76 141/22/63 134/22/56
f 141/22/63 154/22/76 156/22/78
f 152/22/74 139/22/61 142/22/64
f 139/22/61 152/22/74 145/22/67
f 130/21/53 157/23/79 155/23/77
f 157/23/79 130/21/53 131/21/54
f 151/23/73 145/22/67 152/22/74
f 145/22/67 151/23/73 147/23/69
f 131/21/54 149/23/71 157/23/79
f 149/23/71 131/21/54 132/21/55
f 149/23/71 156/22/78 157/23/79
f 156/22/78 149/23/71 150/22/72
f 145/22/67 137/22/59 139/22/61
f 137/22/59 145/22/67 146/22/68
f 146/22/68 144/23/66 158/22/80
f 144/23/66 146/22/68 148/23/70
f 150/22/72 141/22/63 156/22/78
f 141/22/63 150/22/72 140/22/62
f 153/22/75 134/22/56 135/22/57
f 134/22/56 153/22/75 154/22/76
f 128/21/51 149/23/71 132/21/55
f 149/23/71 128/21/51 151/23/73
f 135/22/57 158/22/80 153/22/75
f 158/22/80 135/22/57 138/22/60
f 158/22/80 143/23/65 153/22/75
f 143/23/65 158/22/80 144/23/66
f 129/21/52 148/23/70 147/23/69
f 148/23/70 129/21/52 136/21/58

g planet-ring

v 0.1931852 0.2517638 0 1 1 1
v 0.1366025 0.2366025 0.1414214 1 1 1
v 0.1366025 0.2366025 -0.1414214 1 1 1
v 0.1255877 0.2336511 0 1 1 1
v 0.08880393 0.2237949 -0.0919366 1 1 1
v 0.08880393 0.2237949 0.0919366 1 1 1
v 0 0.2 -0.2 1 1 1
v 0 0.2 -0.130018 1 1 1
v 0 0.2 0.2 1 1 1
v 0 0.2 0.130018 1 1 1
v -0.08880393 0.1762051 0.0919366 1 1 1
v -0.1366025 0.1633975 -0.1414214 1 1 1
v -0.1366025 0.1633975 0.1414214 1 1 1
v -0.08880393 0.1762051 -0.0919366 1 1 1
v -0.1255877 0.1663489 0 1 1 1
v -0.1931852 0.1482362 0 1 1 1

vn -0.258819 0.9659258 0
vn 0.258819 -0.9659258 0

vt 0.71875 0.3457107
vt 0.71875 0.340009
vt 0.71875 0.3209683

usemtl colormap

f 161/24/81 160/24/81 159/18/81
f 160/24/81 161/24/81 162/25/81
f 162/25/81 161/24/81 163/26/81
f 164/26/81 160/24/81 162/25/81
f 163/26/81 161/24/81 165/22/81
f 163/26/81 165/22/81 166/22/81
f 160/24/81 164/26/81 167/22/81
f 167/22/81 164/26/81 168/22/81
f 167/22/81 168/22/81 169/22/81
f 166/22/81 165/22/81 170/22/81
f 167/22/81 169/22/81 171/22/81
f 166/22/81 170/22/81 172/22/81
f 171/22/81 169/22/81 173/22/81
f 172/22/81 170/22/81 173/22/81
f 171/22/81 173/22/81 170/22/81
f 171/22/81 170/22/81 174/22/81
f 159/18/82 160/24/82 161/24/82
f 162/25/82 161/24/82 160/24/82
f 162/25/82 160/24/82 164/26/82
f 163/26/82 161/24/82 162/25/82
f 165/22/82 161/24/82 163/26/82
f 166/22/82 165/22/82 163/26/82
f 167/22/82 164/26/82 160/24/82
f 168/22/82 164/26/82 167/22/82
f 169/22/82 168/22/82 167/22/82
f 170/22/82 165/22/82 166/22/82
f 171/22/82 169/22/82 167/22/82
f 172/22/82 170/22/82 166/22/82
f 173/22/82 169/22/82 171/22/82
f 173/22/82 170/22/82 172/22/82
f 170/22/82 173/22/82 171/22/82
f 174/22/82 170/22/82 171/22/82

