# Created by Kenney (www.kenney.nl)

mtllib table-inset.mtl

g table-inset

v -0.55 0 0.2 1 1 1
v -0.45 0 0.3 1 1 1
v -0.6207107 -0.3 0.2707107 1 1 1
v -0.5207107 -0.3 0.3707107 1 1 1
v -0.5207107 -0.3 -0.3707107 1 1 1
v -0.45 0 -0.3 1 1 1
v -0.6207107 -0.3 -0.2707107 1 1 1
v -0.55 0 -0.2 1 1 1
v 0.6207107 -0.3 0.2707107 1 1 1
v 0.5207107 -0.3 0.3707107 1 1 1
v 0.55 0 0.2 1 1 1
v 0.45 0 0.3 1 1 1
v 0.5207107 -0.3 -0.3707107 1 1 1
v 0.6207107 -0.3 -0.2707107 1 1 1
v 0.45 0 -0.3 1 1 1
v 0.55 0 -0.2 1 1 1
v 0.55 0.1 0.2 1 1 1
v 0.45 0.1 0.3 1 1 1
v 0.45 0.1 -0.3 1 1 1
v 0.55 0.1 -0.2 1 1 1
v -0.45 0.1 0.3 1 1 1
v -0.55 0.1 -0.2 1 1 1
v -0.55 0.1 0.2 1 1 1
v -0.45 0.1 -0.3 1 1 1
v -0.5853553 -0.3 0.2353553 1 1 1
v -0.4792893 0 0.1292893 1 1 1
v -0.55 -0.3 0.2 1 1 1
v -0.45 -0.3 0.3 1 1 1
v -0.4853553 -0.3 0.3353553 1 1 1
v -0.3792893 0 0.2292893 1 1 1
v -0.55 -0.3 -0.2 1 1 1
v -0.5853553 -0.3 -0.2353553 1 1 1
v -0.4792893 0 -0.1292893 1 1 1
v -0.4853553 -0.3 -0.3353553 1 1 1
v -0.45 -0.3 -0.3 1 1 1
v -0.3792893 0 -0.2292893 1 1 1
v 0.4792893 0 0.1292893 1 1 1
v 0.55 -0.3 0.2 1 1 1
v 0.5853553 -0.3 0.2353553 1 1 1
v 0.4853553 -0.3 0.3353553 1 1 1
v 0.3792893 0 0.2292893 1 1 1
v 0.45 -0.3 0.3 1 1 1
v 0.4853553 -0.3 -0.3353553 1 1 1
v 0.45 -0.3 -0.3 1 1 1
v 0.3792893 0 -0.2292893 1 1 1
v 0.5853553 -0.3 -0.2353553 1 1 1
v 0.4792893 0 -0.1292893 1 1 1
v 0.55 -0.3 -0.2 1 1 1
v -0.45 0.1 0.1585786 1 1 1
v -0.4085786 0.1 0.2 1 1 1
v -0.45 0.1 -0.1585786 1 1 1
v 0.4085786 0.1 0.2 1 1 1
v -0.4085786 0.1 -0.2 1 1 1
v 0.4085786 0.1 -0.2 1 1 1
v 0.45 0.1 0.1585786 1 1 1
v 0.45 0.1 -0.1585786 1 1 1
v 0.45 0.05 -0.1585786 1 1 1
v 0.45 0.05 0.1585786 1 1 1
v 0.4085786 0.05 -0.2 1 1 1
v 0.4085786 0.05 0.2 1 1 1
v -0.4085786 0.05 -0.2 1 1 1
v -0.4085786 0.05 0.2 1 1 1
v -0.45 0.05 -0.1585786 1 1 1
v -0.45 0.05 0.1585786 1 1 1
v 0.4853553 -0.3 -0.3353553 1 1 1
v 0.4853553 -0.3 0.3353553 1 1 1
v -0.4853553 -0.3 -0.3353553 1 1 1
v -0.4853553 -0.3 0.3353553 1 1 1
v -0.4146447 0 -0.2646447 1 1 1
v -0.5146446 0 -0.1646447 1 1 1
v -0.5146446 0 0.1646447 1 1 1
v 0.5146446 0 0.1646447 1 1 1
v 0.4146447 0 0.2646447 1 1 1
v -0.4146447 0 0.2646447 1 1 1
v 0.5146446 0 -0.1646447 1 1 1
v 0.4146447 0 -0.2646447 1 1 1

vn -0.6708205 0.3162278 0.6708204
vn -0.6708204 0.3162277 -0.6708204
vn 0.6708204 0.3162277 0.6708204
vn 0.6708204 0.3162277 -0.6708204
vn 0.9238795 0 0.3826834
vn 0.3826834 0 0.9238795
vn 0.3826834 0 -0.9238795
vn 0.9238795 0 -0.3826834
vn -0.3826834 0 0.9238795
vn -0.9238795 0 -0.3826834
vn -0.9238795 0 0.3826834
vn -0.3826834 0 -0.9238795
vn -0.7071068 0 -0.7071068
vn 0.7071068 0 0.7071068
vn 0 -1 0
vn -0.7071068 0 0.7071068
vn 0.7071068 0 -0.7071068
vn 0 1 0
vn -0.3888488 0.2971966 -0.8720497
vn -0.3368022 0.2904905 -0.8956448
vn -0.8720497 0.2971966 -0.3888488
vn -0.8956448 0.2904905 -0.3368022
vn -0.8720498 0.2971967 0.3888488
vn -0.8956448 0.2904905 0.3368022
vn 0.8956448 0.2904905 0.3368022
vn 0.8720497 0.2971966 0.3888488
vn 0.3368022 0.2904905 0.8956448
vn 0.3888488 0.2971966 0.8720497
vn -0.3888488 0.2971966 0.8720497
vn -0.3368022 0.2904905 0.8956447
vn 0.8720497 0.2971966 -0.3888488
vn 0.8956448 0.2904905 -0.3368022
vn 0.3888488 0.2971966 -0.8720497
vn 0.3368022 0.2904905 -0.8956448

vt 0.21875 0.475
vt 0.21875 0.275
vt 0.34375 0.025
vt 0.34375 0.225
vt 0.34375 0.125
vt 0.21875 0.125
vt 0.21875 0.225
vt 0.21875 0.025

usemtl colormap

f 3/2/1 2/1/1 1/1/1
f 2/1/1 3/2/1 4/2/1
f 7/2/2 6/1/2 5/2/2
f 6/1/2 7/2/2 8/1/2
f 11/1/3 10/2/3 9/2/3
f 10/2/3 11/1/3 12/1/3
f 15/1/4 14/2/4 13/2/4
f 14/2/4 15/1/4 16/1/4
f 18/1/6 11/2/5 17/1/5
f 11/2/5 18/1/6 12/2/6
f 20/1/8 15/2/7 19/1/7
f 15/2/7 20/1/8 16/2/8
f 18/1/6 2/2/9 12/2/6
f 2/2/9 18/1/6 21/1/9
f 1/2/11 22/1/10 8/2/10
f 22/1/10 1/2/11 23/1/11
f 17/1/5 16/2/8 20/1/8
f 16/2/8 17/1/5 11/2/5
f 2/2/9 23/1/11 1/2/11
f 23/1/11 2/2/9 21/1/9
f 8/2/10 24/1/12 6/2/12
f 24/1/12 8/2/10 22/1/10
f 24/1/12 15/2/7 6/2/12
f 15/2/7 24/1/12 19/1/7
f 1/4/13 25/3/13 3/3/13
f 26/4/13 25/3/13 1/4/13
f 25/3/13 26/4/13 27/3/13
f 30/4/14 29/3/14 28/3/14
f 29/3/14 30/4/14 4/3/14
f 4/3/14 30/4/14 2/4/14
f 4/3/15 25/3/15 29/3/15
f 25/3/15 4/3/15 3/3/15
f 33/4/16 32/3/16 31/3/16
f 32/3/16 33/4/16 7/3/16
f 7/3/16 33/4/16 8/4/16
f 6/4/17 34/3/17 5/3/17
f 34/3/17 6/4/17 35/3/17
f 35/3/17 6/4/17 36/4/17
f 32/3/15 5/3/15 34/3/15
f 5/3/15 32/3/15 7/3/15
f 11/4/17 38/3/17 37/4/17
f 38/3/17 11/4/17 39/3/17
f 39/3/17 11/4/17 9/3/17
f 10/3/15 39/3/15 9/3/15
f 39/3/15 10/3/15 40/3/15
f 42/3/16 12/4/16 41/4/16
f 12/4/16 42/3/16 40/3/16
f 12/4/16 40/3/16 10/3/16
f 43/3/13 15/4/13 13/3/13
f 15/4/13 43/3/13 44/3/13
f 15/4/13 44/3/13 45/4/13
f 46/3/15 13/3/15 14/3/15
f 13/3/15 46/3/15 43/3/15
f 16/4/14 46/3/14 14/3/14
f 47/4/14 46/3/14 16/4/14
f 46/3/14 47/4/14 48/3/14
f 21/4/18 22/4/18 23/4/18
f 49/4/18 22/4/18 21/4/18
f 21/4/18 50/4/18 49/4/18
f 51/4/18 22/4/18 49/4/18
f 21/4/18 52/4/18 50/4/18
f 51/4/18 24/4/18 22/4/18
f 53/4/18 24/4/18 51/4/18
f 54/4/18 24/4/18 53/4/18
f 18/4/18 52/4/18 21/4/18
f 54/4/18 19/4/18 24/4/18
f 18/4/18 55/4/18 52/4/18
f 18/4/18 56/4/18 55/4/18
f 19/4/18 54/4/18 56/4/18
f 18/4/18 19/4/18 56/4/18
f 17/4/18 19/4/18 18/4/18
f 19/4/18 17/4/18 20/4/18
f 59/5/18 58/5/18 57/5/18
f 58/5/18 59/5/18 60/5/18
f 60/5/18 59/5/18 61/5/18
f 60/5/18 61/5/18 62/5/18
f 62/5/18 61/5/18 63/5/18
f 62/5/18 63/5/18 64/5/18
f 12/3/15 16/3/15 11/3/15
f 16/3/15 12/3/15 15/3/15
f 15/3/15 12/3/15 2/3/15
f 15/3/15 2/3/15 6/3/15
f 6/3/15 2/3/15 1/3/15
f 6/3/15 1/3/15 8/3/15
f 58/6/10 56/7/11 57/6/11
f 56/7/11 58/6/10 55/7/10
f 49/7/8 63/6/5 51/7/5
f 63/6/5 49/7/8 64/6/8
f 51/7/5 61/6/6 53/7/6
f 61/6/6 51/7/5 63/6/5
f 56/7/11 59/6/9 57/6/11
f 59/6/9 56/7/11 54/7/9
f 54/7/9 61/6/6 59/6/9
f 61/6/6 54/7/9 53/7/6
f 50/7/7 64/6/8 49/7/8
f 64/6/8 50/7/7 62/6/7
f 50/7/7 60/6/12 62/6/7
f 60/6/12 50/7/7 52/7/12
f 52/7/12 58/6/10 60/6/12
f 58/6/10 52/7/12 55/7/10
f 39/8/15 65/8/15 46/8/15
f 65/8/15 39/8/15 66/8/15
f 65/8/15 66/8/15 67/8/15
f 67/8/15 66/8/15 68/8/15
f 67/8/15 68/8/15 32/8/15
f 32/8/15 68/8/15 25/8/15
f 32/8/21 69/7/20 67/8/19
f 69/7/20 32/8/21 70/7/22
f 25/8/23 70/7/22 32/8/21
f 70/7/22 25/8/23 71/7/24
f 73/7/27 39/8/26 72/7/25
f 39/8/26 73/7/27 66/8/28
f 66/8/28 74/7/30 68/8/29
f 74/7/30 66/8/28 73/7/27
f 75/7/32 39/8/26 46/8/31
f 39/8/26 75/7/32 72/7/25
f 76/7/34 46/8/31 65/8/33
f 46/8/31 76/7/34 75/7/32
f 67/8/19 76/7/34 65/8/33
f 76/7/34 67/8/19 69/7/20
f 25/8/23 74/7/30 71/7/24
f 74/7/30 25/8/23 68/8/29

g table-inset




usemtl colormap

f 3/2/1 2/1/1 1/1/1
f 2/1/1 3/2/1 4/2/1
f 7/2/2 6/1/2 5/2/2
f 6/1/2 7/2/2 8/1/2
f 11/1/3 10/2/3 9/2/3
f 10/2/3 11/1/3 12/1/3
f 15/1/4 14/2/4 13/2/4
f 14/2/4 15/1/4 16/1/4
f 18/1/6 11/2/5 17/1/5
f 11/2/5 18/1/6 12/2/6
f 20/1/8 15/2/7 19/1/7
f 15/2/7 20/1/8 16/2/8
f 18/1/6 2/2/9 12/2/6
f 2/2/9 18/1/6 21/1/9
f 1/2/11 22/1/10 8/2/10
f 22/1/10 1/2/11 23/1/11
f 17/1/5 16/2/8 20/1/8
f 16/2/8 17/1/5 11/2/5
f 2/2/9 23/1/11 1/2/11
f 23/1/11 2/2/9 21/1/9
f 8/2/10 24/1/12 6/2/12
f 24/1/12 8/2/10 22/1/10
f 24/1/12 15/2/7 6/2/12
f 15/2/7 24/1/12 19/1/7
f 1/4/13 25/3/13 3/3/13
f 26/4/13 25/3/13 1/4/13
f 25/3/13 26/4/13 27/3/13
f 30/4/14 29/3/14 28/3/14
f 29/3/14 30/4/14 4/3/14
f 4/3/14 30/4/14 2/4/14
f 4/3/15 25/3/15 29/3/15
f 25/3/15 4/3/15 3/3/15
f 33/4/16 32/3/16 31/3/16
f 32/3/16 33/4/16 7/3/16
f 7/3/16 33/4/16 8/4/16
f 6/4/17 34/3/17 5/3/17
f 34/3/17 6/4/17 35/3/17
f 35/3/17 6/4/17 36/4/17
f 32/3/15 5/3/15 34/3/15
f 5/3/15 32/3/15 7/3/15
f 11/4/17 38/3/17 37/4/17
f 38/3/17 11/4/17 39/3/17
f 39/3/17 11/4/17 9/3/17
f 10/3/15 39/3/15 9/3/15
f 39/3/15 10/3/15 40/3/15
f 42/3/16 12/4/16 41/4/16
f 12/4/16 42/3/16 40/3/16
f 12/4/16 40/3/16 10/3/16
f 43/3/13 15/4/13 13/3/13
f 15/4/13 43/3/13 44/3/13
f 15/4/13 44/3/13 45/4/13
f 46/3/15 13/3/15 14/3/15
f 13/3/15 46/3/15 43/3/15
f 16/4/14 46/3/14 14/3/14
f 47/4/14 46/3/14 16/4/14
f 46/3/14 47/4/14 48/3/14
f 21/4/18 22/4/18 23/4/18
f 49/4/18 22/4/18 21/4/18
f 21/4/18 50/4/18 49/4/18
f 51/4/18 22/4/18 49/4/18
f 21/4/18 52/4/18 50/4/18
f 51/4/18 24/4/18 22/4/18
f 53/4/18 24/4/18 51/4/18
f 54/4/18 24/4/18 53/4/18
f 18/4/18 52/4/18 21/4/18
f 54/4/18 19/4/18 24/4/18
f 18/4/18 55/4/18 52/4/18
f 18/4/18 56/4/18 55/4/18
f 19/4/18 54/4/18 56/4/18
f 18/4/18 19/4/18 56/4/18
f 17/4/18 19/4/18 18/4/18
f 19/4/18 17/4/18 20/4/18
f 59/5/18 58/5/18 57/5/18
f 58/5/18 59/5/18 60/5/18
f 60/5/18 59/5/18 61/5/18
f 60/5/18 61/5/18 62/5/18
f 62/5/18 61/5/18 63/5/18
f 62/5/18 63/5/18 64/5/18
f 12/3/15 16/3/15 11/3/15
f 16/3/15 12/3/15 15/3/15
f 15/3/15 12/3/15 2/3/15
f 15/3/15 2/3/15 6/3/15
f 6/3/15 2/3/15 1/3/15
f 6/3/15 1/3/15 8/3/15
f 58/6/10 56/7/11 57/6/11
f 56/7/11 58/6/10 55/7/10
f 49/7/8 63/6/5 51/7/5
f 63/6/5 49/7/8 64/6/8
f 51/7/5 61/6/6 53/7/6
f 61/6/6 51/7/5 63/6/5
f 56/7/11 59/6/9 57/6/11
f 59/6/9 56/7/11 54/7/9
f 54/7/9 61/6/6 59/6/9
f 61/6/6 54/7/9 53/7/6
f 50/7/7 64/6/8 49/7/8
f 64/6/8 50/7/7 62/6/7
f 50/7/7 60/6/12 62/6/7
f 60/6/12 50/7/7 52/7/12
f 52/7/12 58/6/10 60/6/12
f 58/6/10 52/7/12 55/7/10
f 39/8/15 65/8/15 46/8/15
f 65/8/15 39/8/15 66/8/15
f 65/8/15 66/8/15 67/8/15
f 67/8/15 66/8/15 68/8/15
f 67/8/15 68/8/15 32/8/15
f 32/8/15 68/8/15 25/8/15
f 32/8/21 69/7/20 67/8/19
f 69/7/20 32/8/21 70/7/22
f 25/8/23 70/7/22 32/8/21
f 70/7/22 25/8/23 71/7/24
f 73/7/27 39/8/26 72/7/25
f 39/8/26 73/7/27 66/8/28
f 66/8/28 74/7/30 68/8/29
f 74/7/30 66/8/28 73/7/27
f 75/7/32 39/8/26 46/8/31
f 39/8/26 75/7/32 72/7/25
f 76/7/34 46/8/31 65/8/33
f 46/8/31 76/7/34 75/7/32
f 67/8/19 76/7/34 65/8/33
f 76/7/34 67/8/19 69/7/20
f 25/8/23 74/7/30 71/7/24
f 74/7/30 25/8/23 68/8/29

