# Created by Kenney (www.kenney.nl)

mtllib wall-window-shutters.mtl

g wall-window-shutters

v -0.3 0 -0.05 1 1 1
v -0.3 0.4 -0.05 1 1 1
v -0.3 0 0.05 1 1 1
v -0.3 0.4 0.05 1 1 1
v 0.3 0.4 -0.05 1 1 1
v 0.3 0 -0.05 1 1 1
v 0.3 0.4 0.05 1 1 1
v 0.3 0 0.05 1 1 1
v -0.25 0.35 -0.05 1 1 1
v -0.25 0.05 -0.05 1 1 1
v -0.25 0.35 0.05 1 1 1
v -0.25 0.05 0.05 1 1 1
v 0.25 0.05 -0.05 1 1 1
v 0.25 0.05 0.05 1 1 1
v 0.25 0.35 -0.05 1 1 1
v 0.25 0.35 0.05 1 1 1
v 0.25 0.1461132 -0.02071068 1 1 1
v -0.25 0.1461132 -0.02071068 1 1 1
v 0.25 0.1461132 0.05 1 1 1
v -0.25 0.1461132 0.05 1 1 1
v 0.25 0.2422263 -0.02071068 1 1 1
v -0.25 0.2422263 -0.02071068 1 1 1
v 0.25 0.2538868 0.05 1 1 1
v -0.25 0.2538868 0.05 1 1 1
v 0.25 0.35 -0.02071068 1 1 1
v -0.25 0.35 -0.02071068 1 1 1

vn -1 0 0
vn 1 0 0
vn 0 -1 0
vn 0 1 0
vn 0 0 1
vn 0 0 -1
vn 0 0.5926037 0.8054941
vn 0 -0.5926037 -0.8054941

vt 0.21875 0.025
vt 0.21875 0.225
vt 0.21875 0.2
vt 0.21875 0.05
vt 0.34375 0.225
vt 0.34375 0.025

usemtl colormap

f 3/1/1 2/2/1 1/1/1
f 2/2/1 3/1/1 4/2/1
f 7/2/2 6/1/2 5/2/2
f 6/1/2 7/2/2 8/1/2
f 3/1/3 6/1/3 8/1/3
f 6/1/3 3/1/3 1/1/3
f 2/2/4 7/2/4 5/2/4
f 7/2/4 2/2/4 4/2/4
f 11/3/2 10/4/2 9/3/2
f 10/4/2 11/3/2 12/4/2
f 10/4/4 14/4/4 13/4/4
f 14/4/4 10/4/4 12/4/4
f 14/4/1 15/3/1 13/4/1
f 15/3/1 14/4/1 16/3/1
f 11/3/3 15/3/3 16/3/3
f 15/3/3 11/3/3 9/3/3
f 8/1/5 14/4/5 3/1/5
f 14/4/5 8/1/5 7/2/5
f 12/4/5 3/1/5 14/4/5
f 14/4/5 7/2/5 16/3/5
f 3/1/5 12/4/5 4/2/5
f 16/3/5 7/2/5 11/3/5
f 4/2/5 12/4/5 11/3/5
f 4/2/5 11/3/5 7/2/5
f 10/4/6 2/2/6 9/3/6
f 9/3/6 2/2/6 15/3/6
f 10/4/6 1/1/6 2/2/6
f 5/2/6 15/3/6 2/2/6
f 1/1/6 10/4/6 6/1/6
f 5/2/6 13/4/6 15/3/6
f 6/1/6 13/4/6 5/2/6
f 13/4/6 6/1/6 10/4/6
f 17/6/7 12/5/7 14/5/7
f 12/5/7 17/6/7 18/6/7
f 14/5/8 12/5/8 17/6/8
f 18/6/8 17/6/8 12/5/8
f 21/6/7 20/5/7 19/5/7
f 20/5/7 21/6/7 22/6/7
f 19/5/8 20/5/8 21/6/8
f 22/6/8 21/6/8 20/5/8
f 25/6/7 24/5/7 23/5/7
f 24/5/7 25/6/7 26/6/7
f 23/5/8 24/5/8 25/6/8
f 26/6/8 25/6/8 24/5/8

g wall-window-shutters




usemtl colormap

f 3/1/1 2/2/1 1/1/1
f 2/2/1 3/1/1 4/2/1
f 7/2/2 6/1/2 5/2/2
f 6/1/2 7/2/2 8/1/2
f 3/1/3 6/1/3 8/1/3
f 6/1/3 3/1/3 1/1/3
f 2/2/4 7/2/4 5/2/4
f 7/2/4 2/2/4 4/2/4
f 11/3/2 10/4/2 9/3/2
f 10/4/2 11/3/2 12/4/2
f 10/4/4 14/4/4 13/4/4
f 14/4/4 10/4/4 12/4/4
f 14/4/1 15/3/1 13/4/1
f 15/3/1 14/4/1 16/3/1
f 11/3/3 15/3/3 16/3/3
f 15/3/3 11/3/3 9/3/3
f 8/1/5 14/4/5 3/1/5
f 14/4/5 8/1/5 7/2/5
f 12/4/5 3/1/5 14/4/5
f 14/4/5 7/2/5 16/3/5
f 3/1/5 12/4/5 4/2/5
f 16/3/5 7/2/5 11/3/5
f 4/2/5 12/4/5 11/3/5
f 4/2/5 11/3/5 7/2/5
f 10/4/6 2/2/6 9/3/6
f 9/3/6 2/2/6 15/3/6
f 10/4/6 1/1/6 2/2/6
f 5/2/6 15/3/6 2/2/6
f 1/1/6 10/4/6 6/1/6
f 5/2/6 13/4/6 15/3/6
f 6/1/6 13/4/6 5/2/6
f 13/4/6 6/1/6 10/4/6
f 17/6/7 12/5/7 14/5/7
f 12/5/7 17/6/7 18/6/7
f 14/5/8 12/5/8 17/6/8
f 18/6/8 17/6/8 12/5/8
f 21/6/7 20/5/7 19/5/7
f 20/5/7 21/6/7 22/6/7
f 19/5/8 20/5/8 21/6/8
f 22/6/8 21/6/8 20/5/8
f 25/6/7 24/5/7 23/5/7
f 24/5/7 25/6/7 26/6/7
f 23/5/8 24/5/8 25/6/8
f 26/6/8 25/6/8 24/5/8

