# Created by Kenney (www.kenney.nl)

mtllib wall-pillar.mtl

g wall-pillar

v -0.5 0.2 -0.1 1 1 1
v 0.5 0.2 -0.1 1 1 1
v -0.5 0.7 -0.1 1 1 1
v 0.5 0.7 -0.1 1 1 1
v -0.5 0 -0.15 1 1 1
v -0.5 0.2 -0.15 1 1 1
v -0.5 0 0.15 1 1 1
v -0.5 0.2 0.1 1 1 1
v -0.5 0.2 0.15 1 1 1
v -0.5 0.7 0.1 1 1 1
v -0.5 1 0.15 1 1 1
v -0.5 0.8 0.15 1 1 1
v -0.5 1 -0.15 1 1 1
v -0.5 0.8 -0.15 1 1 1
v 0.5 1 -0.15 1 1 1
v 0.5 0.8 -0.15 1 1 1
v 0.5 1 0.15 1 1 1
v 0.5 0.7 0.1 1 1 1
v 0.5 0.8 0.15 1 1 1
v 0.5 0.2 0.1 1 1 1
v 0.5 0 0.15 1 1 1
v 0.5 0.2 0.15 1 1 1
v 0.5 0 -0.15 1 1 1
v 0.5 0.2 -0.15 1 1 1
v -0.1 0 -0.25 1 1 1
v 0.1 0 -0.25 1 1 1
v -0.1 1 -0.25 1 1 1
v 0.1 1 -0.25 1 1 1
v -0.1707107 0 -0.2207107 1 1 1
v -0.1707107 1 -0.2207107 1 1 1
v -0.2 0 -0.15 1 1 1
v -0.2 1 -0.15 1 1 1
v 0.1707107 1 -0.2207107 1 1 1
v 0.1707107 0 -0.2207107 1 1 1
v 0.2 1 -0.15 1 1 1
v 0.2 0 -0.15 1 1 1
v 0.2 1 -0.09999999 1 1 1
v 0.2 0 -0.09999999 1 1 1
v -0.2 0 -0.09999999 1 1 1
v -0.2 1 -0.09999999 1 1 1
v 0.1 0 0.25 1 1 1
v -0.1 0 0.25 1 1 1
v 0.1 1 0.25 1 1 1
v -0.1 1 0.25 1 1 1
v -0.2 0 0.09999999 1 1 1
v -0.2 1 0.09999999 1 1 1
v -0.2 0 0.15 1 1 1
v -0.2 1 0.15 1 1 1
v -0.1707107 0 0.2207107 1 1 1
v -0.1707107 1 0.2207107 1 1 1
v 0.2 1 0.09999999 1 1 1
v 0.2 0 0.09999999 1 1 1
v 0.2 1 0.15 1 1 1
v 0.2 0 0.15 1 1 1
v 0.1707107 0 0.2207107 1 1 1
v 0.1707107 1 0.2207107 1 1 1

vn 0 0 -1
vn -1 0 0
vn 1 0 0
vn 0 0 1
vn 0 -1 0
vn 0 1 0
vn 0 -0.2297529 0.973249
vn 0 -0.4472136 -0.8944272
vn 0 -0.2297529 -0.973249
vn 0 -0.4472136 0.8944272
vn -0.1950903 0 -0.9807853
vn 0.1950903 0 -0.9807853
vn -0.7071068 0 -0.7071068
vn -0.9807853 0 -0.1950903
vn 0.7071068 0 -0.7071068
vn 0.9807853 0 -0.1950903
vn 0.1950903 0 0.9807853
vn -0.1950903 0 0.9807853
vn -0.9807853 0 0.1950903
vn -0.7071068 0 0.7071068
vn 0.9807853 0 0.1950903
vn 0.7071068 0 0.7071068

vt 0.21875 0.065
vt 0.21875 0.165
vt 0.21875 0.025
vt 0.21875 0.225
vt 0.21875 0.185
vt 0.34375 0.025
vt 0.34375 0.065
vt 0.34375 0.185
vt 0.34375 0.225
vt 0.34375 0.165

usemtl colormap

f 3/2/1 2/1/1 1/1/1
f 2/1/1 3/2/1 4/2/1
f 7/3/2 6/1/2 5/3/2
f 6/1/2 7/3/2 1/1/2
f 1/1/2 7/3/2 3/2/2
f 3/2/2 7/3/2 8/1/2
f 8/1/2 7/3/2 9/1/2
f 10/2/2 3/2/2 8/1/2
f 11/4/2 3/2/2 10/2/2
f 11/4/2 10/2/2 12/5/2
f 13/4/2 3/2/2 11/4/2
f 3/2/2 13/4/2 14/5/2
f 17/4/3 16/5/3 15/4/3
f 16/5/3 17/4/3 4/2/3
f 4/2/3 17/4/3 2/1/3
f 2/1/3 17/4/3 18/2/3
f 18/2/3 17/4/3 19/5/3
f 20/1/3 2/1/3 18/2/3
f 21/3/3 2/1/3 20/1/3
f 21/3/3 20/1/3 22/1/3
f 23/3/3 2/1/3 21/3/3
f 2/1/3 23/3/3 24/1/3
f 18/2/4 8/1/4 20/1/4
f 8/1/4 18/2/4 10/2/4
f 7/6/5 23/6/5 21/6/5
f 23/6/5 7/6/5 5/6/5
f 6/7/1 23/6/1 5/6/1
f 23/6/1 6/7/1 24/7/1
f 22/7/4 7/6/4 21/6/4
f 7/6/4 22/7/4 9/7/4
f 6/7/6 2/7/6 24/7/6
f 2/7/6 6/7/6 1/7/6
f 17/9/4 12/8/7 19/8/7
f 12/8/7 17/9/4 11/9/4
f 14/8/9 4/10/8 3/10/8
f 4/10/8 14/8/9 16/8/9
f 19/8/7 10/10/10 18/10/10
f 10/10/10 19/8/7 12/8/7
f 13/9/1 16/8/9 14/8/9
f 16/8/9 13/9/1 15/9/1
f 13/9/6 17/9/6 15/9/6
f 17/9/6 13/9/6 11/9/6
f 8/7/6 22/7/6 20/7/6
f 22/7/6 8/7/6 9/7/6
f 27/9/11 26/6/12 25/6/11
f 26/6/12 27/9/11 28/9/12
f 31/6/14 30/9/13 29/6/13
f 30/9/13 31/6/14 32/9/14
f 35/9/16 34/6/15 33/9/15
f 34/6/15 35/9/16 36/6/16
f 37/9/3 36/6/16 35/9/16
f 36/6/16 37/9/3 38/6/3
f 31/6/5 34/6/5 36/6/5
f 34/6/5 31/6/5 26/6/5
f 26/6/5 31/6/5 25/6/5
f 25/6/5 31/6/5 29/6/5
f 39/6/2 32/9/14 31/6/14
f 32/9/14 39/6/2 40/9/2
f 30/9/13 25/6/11 29/6/13
f 25/6/11 30/9/13 27/9/11
f 28/9/12 34/6/15 26/6/12
f 34/6/15 28/9/12 33/9/15
f 33/9/6 32/9/6 35/9/6
f 32/9/6 33/9/6 28/9/6
f 32/9/6 28/9/6 27/9/6
f 32/9/6 27/9/6 30/9/6
f 43/9/17 42/6/18 41/6/17
f 42/6/18 43/9/17 44/9/18
f 47/6/19 46/9/2 45/6/2
f 46/9/2 47/6/19 48/9/19
f 49/6/20 48/9/19 47/6/19
f 48/9/19 49/6/20 50/9/20
f 44/9/18 49/6/20 42/6/18
f 49/6/20 44/9/18 50/9/20
f 53/9/21 52/6/3 51/9/3
f 52/6/3 53/9/21 54/6/21
f 55/6/5 47/6/5 54/6/5
f 47/6/5 55/6/5 41/6/5
f 47/6/5 41/6/5 42/6/5
f 47/6/5 42/6/5 49/6/5
f 56/9/22 54/6/21 53/9/21
f 54/6/21 56/9/22 55/6/22
f 56/9/22 41/6/17 55/6/22
f 41/6/17 56/9/22 43/9/17
f 48/9/6 56/9/6 53/9/6
f 56/9/6 48/9/6 43/9/6
f 43/9/6 48/9/6 44/9/6
f 44/9/6 48/9/6 50/9/6

g wall-pillar




usemtl colormap

f 3/2/1 2/1/1 1/1/1
f 2/1/1 3/2/1 4/2/1
f 7/3/2 6/1/2 5/3/2
f 6/1/2 7/3/2 1/1/2
f 1/1/2 7/3/2 3/2/2
f 3/2/2 7/3/2 8/1/2
f 8/1/2 7/3/2 9/1/2
f 10/2/2 3/2/2 8/1/2
f 11/4/2 3/2/2 10/2/2
f 11/4/2 10/2/2 12/5/2
f 13/4/2 3/2/2 11/4/2
f 3/2/2 13/4/2 14/5/2
f 17/4/3 16/5/3 15/4/3
f 16/5/3 17/4/3 4/2/3
f 4/2/3 17/4/3 2/1/3
f 2/1/3 17/4/3 18/2/3
f 18/2/3 17/4/3 19/5/3
f 20/1/3 2/1/3 18/2/3
f 21/3/3 2/1/3 20/1/3
f 21/3/3 20/1/3 22/1/3
f 23/3/3 2/1/3 21/3/3
f 2/1/3 23/3/3 24/1/3
f 18/2/4 8/1/4 20/1/4
f 8/1/4 18/2/4 10/2/4
f 7/6/5 23/6/5 21/6/5
f 23/6/5 7/6/5 5/6/5
f 6/7/1 23/6/1 5/6/1
f 23/6/1 6/7/1 24/7/1
f 22/7/4 7/6/4 21/6/4
f 7/6/4 22/7/4 9/7/4
f 6/7/6 2/7/6 24/7/6
f 2/7/6 6/7/6 1/7/6
f 17/9/4 12/8/7 19/8/7
f 12/8/7 17/9/4 11/9/4
f 14/8/9 4/10/8 3/10/8
f 4/10/8 14/8/9 16/8/9
f 19/8/7 10/10/10 18/10/10
f 10/10/10 19/8/7 12/8/7
f 13/9/1 16/8/9 14/8/9
f 16/8/9 13/9/1 15/9/1
f 13/9/6 17/9/6 15/9/6
f 17/9/6 13/9/6 11/9/6
f 8/7/6 22/7/6 20/7/6
f 22/7/6 8/7/6 9/7/6
f 27/9/11 26/6/12 25/6/11
f 26/6/12 27/9/11 28/9/12
f 31/6/14 30/9/13 29/6/13
f 30/9/13 31/6/14 32/9/14
f 35/9/16 34/6/15 33/9/15
f 34/6/15 35/9/16 36/6/16
f 37/9/3 36/6/16 35/9/16
f 36/6/16 37/9/3 38/6/3
f 31/6/5 34/6/5 36/6/5
f 34/6/5 31/6/5 26/6/5
f 26/6/5 31/6/5 25/6/5
f 25/6/5 31/6/5 29/6/5
f 39/6/2 32/9/14 31/6/14
f 32/9/14 39/6/2 40/9/2
f 30/9/13 25/6/11 29/6/13
f 25/6/11 30/9/13 27/9/11
f 28/9/12 34/6/15 26/6/12
f 34/6/15 28/9/12 33/9/15
f 33/9/6 32/9/6 35/9/6
f 32/9/6 33/9/6 28/9/6
f 32/9/6 28/9/6 27/9/6
f 32/9/6 27/9/6 30/9/6
f 43/9/17 42/6/18 41/6/17
f 42/6/18 43/9/17 44/9/18
f 47/6/19 46/9/2 45/6/2
f 46/9/2 47/6/19 48/9/19
f 49/6/20 48/9/19 47/6/19
f 48/9/19 49/6/20 50/9/20
f 44/9/18 49/6/20 42/6/18
f 49/6/20 44/9/18 50/9/20
f 53/9/21 52/6/3 51/9/3
f 52/6/3 53/9/21 54/6/21
f 55/6/5 47/6/5 54/6/5
f 47/6/5 55/6/5 41/6/5
f 47/6/5 41/6/5 42/6/5
f 47/6/5 42/6/5 49/6/5
f 56/9/22 54/6/21 53/9/21
f 54/6/21 56/9/22 55/6/22
f 56/9/22 41/6/17 55/6/22
f 41/6/17 56/9/22 43/9/17
f 48/9/6 56/9/6 53/9/6
f 56/9/6 48/9/6 43/9/6
f 43/9/6 48/9/6 44/9/6
f 44/9/6 48/9/6 50/9/6

