# Created by Kenney (www.kenney.nl)

mtllib wall-banner.mtl

g wall-banner

v 0.5 1 -0.15 1 1 1
v 0.5 0.8 -0.15 1 1 1
v 0.5 1 0.15 1 1 1
v 0.5 0.7 -0.1 1 1 1
v 0.5 0.45 -0.1 1 1 1
v 0.5 0.2 -0.1 1 1 1
v 0.5 0.7 0.1 1 1 1
v 0.5 0.8 0.15 1 1 1
v 0.5 0.2 0.1 1 1 1
v 0.5 0.45 0.1 1 1 1
v 0.5 0 0.15 1 1 1
v 0.5 0.2 0.15 1 1 1
v 0.5 0 -0.15 1 1 1
v 0.5 0.2 -0.15 1 1 1
v -0.5 0 -0.15 1 1 1
v -0.5 0.2 -0.15 1 1 1
v -0.5 0 0.15 1 1 1
v -0.5 0.2 -0.1 1 1 1
v -0.5 0.45 -0.1 1 1 1
v -0.5 0.7 -0.1 1 1 1
v -0.5 0.2 0.1 1 1 1
v -0.5 0.2 0.15 1 1 1
v -0.5 0.7 0.1 1 1 1
v -0.5 0.45 0.1 1 1 1
v -0.5 1 0.15 1 1 1
v -0.5 0.8 0.15 1 1 1
v -0.5 1 -0.15 1 1 1
v -0.5 0.8 -0.15 1 1 1

vn 1 0 0
vn -1 0 0
vn 0 0 -1
vn 0 0 1
vn 0 -1 0
vn 0 1 0
vn 0 -0.2297529 0.973249
vn 0 -0.2297529 -0.973249
vn 0 -0.4472136 -0.8944272
vn 0 -0.4472136 0.8944272

vt 0.21875 0.225
vt 0.21875 0.185
vt 0.21875 0.165
vt 0.21875 0.115
vt 0.21875 0.065
vt 0.21875 0.025
vt 0.34375 0.025
vt 0.34375 0.065
vt 0.34375 0.185
vt 0.34375 0.225
vt 0.34375 0.165
vt 0.21875 0.325
vt 0.21875 0.425

usemtl colormap

f 3/1/1 2/2/1 1/1/1
f 2/2/1 3/1/1 4/3/1
f 4/3/1 3/1/1 5/4/1
f 5/4/1 3/1/1 6/5/1
f 6/5/1 3/1/1 7/3/1
f 7/3/1 3/1/1 8/2/1
f 9/5/1 6/5/1 7/3/1
f 9/5/1 7/3/1 10/4/1
f 11/6/1 6/5/1 9/5/1
f 11/6/1 9/5/1 12/5/1
f 13/6/1 6/5/1 11/6/1
f 6/5/1 13/6/1 14/5/1
f 17/6/2 16/5/2 15/6/2
f 16/5/2 17/6/2 18/5/2
f 18/5/2 17/6/2 19/4/2
f 19/4/2 17/6/2 20/3/2
f 20/3/2 17/6/2 21/5/2
f 21/5/2 17/6/2 22/5/2
f 23/3/2 20/3/2 21/5/2
f 23/3/2 21/5/2 24/4/2
f 25/1/2 20/3/2 23/3/2
f 25/1/2 23/3/2 26/2/2
f 27/1/2 20/3/2 25/1/2
f 20/3/2 27/1/2 28/2/2
f 20/3/3 5/4/3 19/4/3
f 5/4/3 20/3/3 4/3/3
f 7/3/4 24/4/4 10/4/4
f 24/4/4 7/3/4 23/3/4
f 17/7/5 13/7/5 11/7/5
f 13/7/5 17/7/5 15/7/5
f 16/8/3 13/7/3 15/7/3
f 13/7/3 16/8/3 14/8/3
f 12/8/4 17/7/4 11/7/4
f 17/7/4 12/8/4 22/8/4
f 21/8/6 12/8/6 9/8/6
f 12/8/6 21/8/6 22/8/6
f 16/8/6 6/8/6 14/8/6
f 6/8/6 16/8/6 18/8/6
f 3/10/4 26/9/7 8/9/7
f 26/9/7 3/10/4 25/10/4
f 27/10/3 2/9/8 28/9/8
f 2/9/8 27/10/3 1/10/3
f 28/9/8 4/11/9 20/11/9
f 4/11/9 28/9/8 2/9/8
f 8/9/7 23/11/10 7/11/10
f 23/11/10 8/9/7 26/9/7
f 27/10/6 3/10/6 1/10/6
f 3/10/6 27/10/6 25/10/6
f 19/13/3 6/12/3 18/12/3
f 6/12/3 19/13/3 5/13/3
f 10/13/4 21/12/4 9/12/4
f 21/12/4 10/13/4 24/13/4

g wall-banner




usemtl colormap

f 3/1/1 2/2/1 1/1/1
f 2/2/1 3/1/1 4/3/1
f 4/3/1 3/1/1 5/4/1
f 5/4/1 3/1/1 6/5/1
f 6/5/1 3/1/1 7/3/1
f 7/3/1 3/1/1 8/2/1
f 9/5/1 6/5/1 7/3/1
f 9/5/1 7/3/1 10/4/1
f 11/6/1 6/5/1 9/5/1
f 11/6/1 9/5/1 12/5/1
f 13/6/1 6/5/1 11/6/1
f 6/5/1 13/6/1 14/5/1
f 17/6/2 16/5/2 15/6/2
f 16/5/2 17/6/2 18/5/2
f 18/5/2 17/6/2 19/4/2
f 19/4/2 17/6/2 20/3/2
f 20/3/2 17/6/2 21/5/2
f 21/5/2 17/6/2 22/5/2
f 23/3/2 20/3/2 21/5/2
f 23/3/2 21/5/2 24/4/2
f 25/1/2 20/3/2 23/3/2
f 25/1/2 23/3/2 26/2/2
f 27/1/2 20/3/2 25/1/2
f 20/3/2 27/1/2 28/2/2
f 20/3/3 5/4/3 19/4/3
f 5/4/3 20/3/3 4/3/3
f 7/3/4 24/4/4 10/4/4
f 24/4/4 7/3/4 23/3/4
f 17/7/5 13/7/5 11/7/5
f 13/7/5 17/7/5 15/7/5
f 16/8/3 13/7/3 15/7/3
f 13/7/3 16/8/3 14/8/3
f 12/8/4 17/7/4 11/7/4
f 17/7/4 12/8/4 22/8/4
f 21/8/6 12/8/6 9/8/6
f 12/8/6 21/8/6 22/8/6
f 16/8/6 6/8/6 14/8/6
f 6/8/6 16/8/6 18/8/6
f 3/10/4 26/9/7 8/9/7
f 26/9/7 3/10/4 25/10/4
f 27/10/3 2/9/8 28/9/8
f 2/9/8 27/10/3 1/10/3
f 28/9/8 4/11/9 20/11/9
f 4/11/9 28/9/8 2/9/8
f 8/9/7 23/11/10 7/11/10
f 23/11/10 8/9/7 26/9/7
f 27/10/6 3/10/6 1/10/6
f 3/10/6 27/10/6 25/10/6
f 19/13/3 6/12/3 18/12/3
f 6/12/3 19/13/3 5/13/3
f 10/13/4 21/12/4 9/12/4
f 21/12/4 10/13/4 24/13/4

