# Created by Kenney (www.kenney.nl)

mtllib wall-window-frame.mtl

g wall-window-frame

v -0.3 0 -0.05 1 1 1
v -0.3 0.4 -0.05 1 1 1
v -0.3 0 0.05 1 1 1
v -0.3 0.4 0.05 1 1 1
v 0.3 0.4 -0.05 1 1 1
v 0.3 0 -0.05 1 1 1
v 0.3 0.4 0.05 1 1 1
v 0.3 0 0.05 1 1 1
v -0.25 0.35 -0.05 1 1 1
v -0.25 0.05 -0.05 1 1 1
v -0.25 0.35 0.05 1 1 1
v -0.25 0.05 0.05 1 1 1
v 0.25 0.175 0 1 1 1
v -0.25 0.175 0 1 1 1
v 0.25 0.225 0 1 1 1
v -0.25 0.225 0 1 1 1
v 0.25 0.05 -0.05 1 1 1
v 0.25 0.05 0.05 1 1 1
v 0.25 0.35 -0.05 1 1 1
v 0.25 0.35 0.05 1 1 1

vn -1 0 0
vn 1 0 0
vn 0 -1 0
vn 0 1 0
vn 0 0 1
vn 0 0 -1

vt 0.34375 0.025
vt 0.34375 0.225
vt 0.34375 0.2
vt 0.34375 0.05
vt 0.34375 0.1125
vt 0.34375 0.1375

usemtl colormap

f 3/1/1 2/2/1 1/1/1
f 2/2/1 3/1/1 4/2/1
f 7/2/2 6/1/2 5/2/2
f 6/1/2 7/2/2 8/1/2
f 3/1/3 6/1/3 8/1/3
f 6/1/3 3/1/3 1/1/3
f 2/2/4 7/2/4 5/2/4
f 7/2/4 2/2/4 4/2/4
f 11/3/2 10/4/2 9/3/2
f 10/4/2 11/3/2 12/4/2
f 15/6/5 14/5/5 13/5/5
f 14/5/5 15/6/5 16/6/5
f 13/5/6 14/5/6 15/6/6
f 16/6/6 15/6/6 14/5/6
f 10/4/4 18/4/4 17/4/4
f 18/4/4 10/4/4 12/4/4
f 18/4/1 19/3/1 17/4/1
f 19/3/1 18/4/1 20/3/1
f 11/3/3 19/3/3 20/3/3
f 19/3/3 11/3/3 9/3/3
f 8/1/5 18/4/5 3/1/5
f 18/4/5 8/1/5 7/2/5
f 12/4/5 3/1/5 18/4/5
f 18/4/5 7/2/5 20/3/5
f 3/1/5 12/4/5 4/2/5
f 20/3/5 7/2/5 11/3/5
f 4/2/5 12/4/5 11/3/5
f 4/2/5 11/3/5 7/2/5
f 10/4/6 2/2/6 9/3/6
f 9/3/6 2/2/6 19/3/6
f 10/4/6 1/1/6 2/2/6
f 5/2/6 19/3/6 2/2/6
f 1/1/6 10/4/6 6/1/6
f 5/2/6 17/4/6 19/3/6
f 6/1/6 17/4/6 5/2/6
f 17/4/6 6/1/6 10/4/6

g wall-window-frame




usemtl colormap

f 3/1/1 2/2/1 1/1/1
f 2/2/1 3/1/1 4/2/1
f 7/2/2 6/1/2 5/2/2
f 6/1/2 7/2/2 8/1/2
f 3/1/3 6/1/3 8/1/3
f 6/1/3 3/1/3 1/1/3
f 2/2/4 7/2/4 5/2/4
f 7/2/4 2/2/4 4/2/4
f 11/3/2 10/4/2 9/3/2
f 10/4/2 11/3/2 12/4/2
f 15/6/5 14/5/5 13/5/5
f 14/5/5 15/6/5 16/6/5
f 13/5/6 14/5/6 15/6/6
f 16/6/6 15/6/6 14/5/6
f 10/4/4 18/4/4 17/4/4
f 18/4/4 10/4/4 12/4/4
f 18/4/1 19/3/1 17/4/1
f 19/3/1 18/4/1 20/3/1
f 11/3/3 19/3/3 20/3/3
f 19/3/3 11/3/3 9/3/3
f 8/1/5 18/4/5 3/1/5
f 18/4/5 8/1/5 7/2/5
f 12/4/5 3/1/5 18/4/5
f 18/4/5 7/2/5 20/3/5
f 3/1/5 12/4/5 4/2/5
f 20/3/5 7/2/5 11/3/5
f 4/2/5 12/4/5 11/3/5
f 4/2/5 11/3/5 7/2/5
f 10/4/6 2/2/6 9/3/6
f 9/3/6 2/2/6 19/3/6
f 10/4/6 1/1/6 2/2/6
f 5/2/6 19/3/6 2/2/6
f 1/1/6 10/4/6 6/1/6
f 5/2/6 17/4/6 19/3/6
f 6/1/6 17/4/6 5/2/6
f 17/4/6 6/1/6 10/4/6

