# Created by Kenney (www.kenney.nl)

mtllib wall-door-edge-banner.mtl

g wall-door-edge-banner

v -0.5 0.8 -0.15 1 1 1
v 0.5 0.8 -0.15 1 1 1
v -0.5 1 -0.15 1 1 1
v 0.5 1 -0.15 1 1 1
v 0.5 0.8 0.15 1 1 1
v -0.5 0.8 0.15 1 1 1
v 0.5 1 0.15 1 1 1
v -0.5 1 0.15 1 1 1
v -0.4 0.2 0.1 1 1 1
v -0.4 0.2 0.15 1 1 1
v -0.5 0.2 0.1 1 1 1
v -0.5 0.2 0.15 1 1 1
v -0.5 0.7 -0.1 1 1 1
v -0.4 0.7 -0.1 1 1 1
v 0.5 0.7 -0.1 1 1 1
v 0.5 0.7 0.1 1 1 1
v -0.4 0.7 0.1 1 1 1
v -0.5 0.7 0.1 1 1 1
v -0.4 0 0.15 1 1 1
v -0.4 0 -0.15 1 1 1
v -0.5 0 0.15 1 1 1
v -0.5 0 -0.15 1 1 1
v -0.4 0.2 -0.15 1 1 1
v -0.4 0.2 -0.1 1 1 1
v -0.5 0.2 -0.15 1 1 1
v -0.5 0.2 -0.1 1 1 1
v -0.5 0.45 -0.1 1 1 1
v -0.5 0.45 0.1 1 1 1
v -0.4 0.45 0.1 1 1 1
v -0.4 0.45 -0.1 1 1 1
v -0.4 0.75 -0.15 1 1 1
v -0.4 0.75 0.15 1 1 1
v -0.35 0.8 -0.15 1 1 1
v -0.35 0.8 0.15 1 1 1
v -0.3 0.7 -0.15 1 1 1
v -0.3 0 -0.15 1 1 1
v -0.3 0.7 0.15 1 1 1
v -0.3 0 0.15 1 1 1
v 0.5 0.7 0.15 1 1 1
v 0.5 0.7 -0.15 1 1 1

vn 0 -0.2297529 -0.973249
vn 0 0 -1
vn 0 -0.2297529 0.973249
vn 0 0 1
vn 0 1 0
vn 0 -0.4472136 -0.8944272
vn 0 -0.4472136 0.8944272
vn 0 -1 0
vn -1 0 0
vn 1 0 0
vn -0.9238795 0.3826834 0
vn -0.3826834 0.9238795 0

vt 0.34375 0.185
vt 0.34375 0.225
vt 0.34375 0.065
vt 0.34375 0.165
vt 0.34375 0.025
vt 0.21875 0.025
vt 0.21875 0.065
vt 0.21875 0.115
vt 0.21875 0.165
vt 0.21875 0.225
vt 0.21875 0.185
vt 0.21875 0.275
vt 0.21875 0.4625
vt 0.21875 0.475
vt 0.21875 0.45
vt 0.21875 0.325
vt 0.21875 0.425

usemtl colormap

f 3/2/2 2/1/1 1/1/1
f 2/1/1 3/2/2 4/2/2
f 7/2/4 6/1/3 5/1/3
f 6/1/3 7/2/4 8/2/4
f 11/3/5 10/3/5 9/3/5
f 10/3/5 11/3/5 12/3/5
f 1/1/1 14/4/6 13/4/6
f 14/4/6 1/1/1 15/4/6
f 15/4/6 1/1/1 2/1/1
f 5/1/3 17/4/7 16/4/7
f 17/4/7 5/1/3 18/4/7
f 18/4/7 5/1/3 6/1/3
f 21/5/8 20/5/8 19/5/8
f 20/5/8 21/5/8 22/5/8
f 25/3/5 24/3/5 23/3/5
f 24/3/5 25/3/5 26/3/5
f 10/3/4 21/5/4 19/5/4
f 21/5/4 10/3/4 12/3/4
f 3/2/5 7/2/5 4/2/5
f 7/2/5 3/2/5 8/2/5
f 25/3/2 20/5/2 22/5/2
f 20/5/2 25/3/2 23/3/2
f 21/6/9 25/7/9 22/6/9
f 25/7/9 21/6/9 26/7/9
f 26/7/9 21/6/9 27/8/9
f 27/8/9 21/6/9 13/9/9
f 13/9/9 21/6/9 11/7/9
f 11/7/9 21/6/9 12/7/9
f 18/9/9 13/9/9 11/7/9
f 18/9/9 11/7/9 28/8/9
f 8/10/9 13/9/9 18/9/9
f 8/10/9 18/9/9 6/11/9
f 3/10/9 13/9/9 8/10/9
f 13/9/9 3/10/9 1/11/9
f 17/9/4 28/8/4 29/8/4
f 28/8/4 17/9/4 18/9/4
f 7/10/10 2/11/10 4/10/10
f 2/11/10 7/10/10 5/11/10
f 13/9/2 30/8/2 27/8/2
f 30/8/2 13/9/2 14/9/2
f 19/12/9 31/13/11 20/12/9
f 31/13/11 19/12/9 32/13/11
f 31/13/11 34/14/12 33/14/12
f 34/14/12 31/13/11 32/13/11
f 37/15/10 36/12/10 35/15/10
f 36/12/10 37/15/10 38/12/10
f 19/12/8 36/12/8 38/12/8
f 36/12/8 19/12/8 20/12/8
f 5/14/4 37/15/4 39/15/4
f 37/15/4 5/14/4 32/13/4
f 32/13/4 5/14/4 34/14/4
f 19/12/4 37/15/4 32/13/4
f 37/15/4 19/12/4 38/12/4
f 33/14/12 5/14/5 2/14/5
f 5/14/5 33/14/12 34/14/12
f 5/14/10 40/15/10 2/14/10
f 40/15/10 5/14/10 39/15/10
f 31/13/2 36/12/2 20/12/2
f 36/12/2 31/13/2 35/15/2
f 35/15/2 31/13/2 40/15/2
f 40/15/2 31/13/2 2/14/2
f 2/14/2 31/13/2 33/14/2
f 37/15/8 40/15/8 39/15/8
f 40/15/8 37/15/8 35/15/8
f 27/17/2 24/16/2 26/16/2
f 24/16/2 27/17/2 30/17/2
f 29/17/4 11/16/4 9/16/4
f 11/16/4 29/17/4 28/17/4

g wall-door-edge-banner




usemtl colormap

f 3/2/2 2/1/1 1/1/1
f 2/1/1 3/2/2 4/2/2
f 7/2/4 6/1/3 5/1/3
f 6/1/3 7/2/4 8/2/4
f 11/3/5 10/3/5 9/3/5
f 10/3/5 11/3/5 12/3/5
f 1/1/1 14/4/6 13/4/6
f 14/4/6 1/1/1 15/4/6
f 15/4/6 1/1/1 2/1/1
f 5/1/3 17/4/7 16/4/7
f 17/4/7 5/1/3 18/4/7
f 18/4/7 5/1/3 6/1/3
f 21/5/8 20/5/8 19/5/8
f 20/5/8 21/5/8 22/5/8
f 25/3/5 24/3/5 23/3/5
f 24/3/5 25/3/5 26/3/5
f 10/3/4 21/5/4 19/5/4
f 21/5/4 10/3/4 12/3/4
f 3/2/5 7/2/5 4/2/5
f 7/2/5 3/2/5 8/2/5
f 25/3/2 20/5/2 22/5/2
f 20/5/2 25/3/2 23/3/2
f 21/6/9 25/7/9 22/6/9
f 25/7/9 21/6/9 26/7/9
f 26/7/9 21/6/9 27/8/9
f 27/8/9 21/6/9 13/9/9
f 13/9/9 21/6/9 11/7/9
f 11/7/9 21/6/9 12/7/9
f 18/9/9 13/9/9 11/7/9
f 18/9/9 11/7/9 28/8/9
f 8/10/9 13/9/9 18/9/9
f 8/10/9 18/9/9 6/11/9
f 3/10/9 13/9/9 8/10/9
f 13/9/9 3/10/9 1/11/9
f 17/9/4 28/8/4 29/8/4
f 28/8/4 17/9/4 18/9/4
f 7/10/10 2/11/10 4/10/10
f 2/11/10 7/10/10 5/11/10
f 13/9/2 30/8/2 27/8/2
f 30/8/2 13/9/2 14/9/2
f 19/12/9 31/13/11 20/12/9
f 31/13/11 19/12/9 32/13/11
f 31/13/11 34/14/12 33/14/12
f 34/14/12 31/13/11 32/13/11
f 37/15/10 36/12/10 35/15/10
f 36/12/10 37/15/10 38/12/10
f 19/12/8 36/12/8 38/12/8
f 36/12/8 19/12/8 20/12/8
f 5/14/4 37/15/4 39/15/4
f 37/15/4 5/14/4 32/13/4
f 32/13/4 5/14/4 34/14/4
f 19/12/4 37/15/4 32/13/4
f 37/15/4 19/12/4 38/12/4
f 33/14/12 5/14/5 2/14/5
f 5/14/5 33/14/12 34/14/12
f 5/14/10 40/15/10 2/14/10
f 40/15/10 5/14/10 39/15/10
f 31/13/2 36/12/2 20/12/2
f 36/12/2 31/13/2 35/15/2
f 35/15/2 31/13/2 40/15/2
f 40/15/2 31/13/2 2/14/2
f 2/14/2 31/13/2 33/14/2
f 37/15/8 40/15/8 39/15/8
f 40/15/8 37/15/8 35/15/8
f 27/17/2 24/16/2 26/16/2
f 24/16/2 27/17/2 30/17/2
f 29/17/4 11/16/4 9/16/4
f 11/16/4 29/17/4 28/17/4

