# Created by Kenney (www.kenney.nl)

mtllib wall-window.mtl

g wall-window

v 0.5 1 -0.15 1 1 1
v 0.5 0.8 -0.15 1 1 1
v 0.5 1 0.15 1 1 1
v 0.5 0.7 -0.1 1 1 1
v 0.5 0.2 -0.1 1 1 1
v 0.5 0.7 0.1 1 1 1
v 0.5 0.8 0.15 1 1 1
v 0.5 0.2 0.1 1 1 1
v 0.5 0 0.15 1 1 1
v 0.5 0.2 0.15 1 1 1
v 0.5 0 -0.15 1 1 1
v 0.5 0.2 -0.15 1 1 1
v -0.5 0 -0.15 1 1 1
v -0.5 0.2 -0.15 1 1 1
v -0.5 0 0.15 1 1 1
v -0.5 0.2 -0.1 1 1 1
v -0.5 0.7 -0.1 1 1 1
v -0.5 0.2 0.1 1 1 1
v -0.5 0.2 0.15 1 1 1
v -0.5 0.7 0.1 1 1 1
v -0.5 1 0.15 1 1 1
v -0.5 0.8 0.15 1 1 1
v -0.5 1 -0.15 1 1 1
v -0.5 0.8 -0.15 1 1 1
v 0.3 0.2 -0.1 1 1 1
v 0.3 0.7 -0.1 1 1 1
v -0.3 0.2 0.1 1 1 1
v -0.3 0.7 0.1 1 1 1
v 0.3 0.2 0.1 1 1 1
v 0.3 0.7 0.1 1 1 1
v -0.3 0.2 -0.1 1 1 1
v -0.3 0.7 -0.1 1 1 1
v 0.3 0.7 0.15 1 1 1
v 0.3 0.7 -0.15 1 1 1
v -0.3 0.7 0.15 1 1 1
v -0.3 0.7 -0.15 1 1 1
v -0.3 0.3 -0.15 1 1 1
v -0.3 0.3 0.15 1 1 1
v 0.3 0.3 -0.15 1 1 1
v 0.3 0.3 0.15 1 1 1
v 0.35 0.8 -0.15 1 1 1
v 0.35 0.8 0.15 1 1 1
v -0.35 0.8 -0.15 1 1 1
v -0.35 0.8 0.15 1 1 1
v 0.4 0.75 -0.15 1 1 1
v 0.4 0.75 0.15 1 1 1
v -0.4 0.25 -0.15 1 1 1
v -0.4 0.75 -0.15 1 1 1
v -0.4 0.25 0.15 1 1 1
v -0.4 0.75 0.15 1 1 1
v 0.35 0.2 0.15 1 1 1
v -0.35 0.2 0.15 1 1 1
v 0.4 0.25 0.15 1 1 1
v -0.35 0.2 -0.15 1 1 1
v 0.35 0.2 -0.15 1 1 1
v 0.4 0.25 -0.15 1 1 1

vn 1 0 0
vn -1 0 0
vn 0 0 -1
vn 0 0 1
vn 0 -1 0
vn 0 1 0
vn 0 -0.2297529 0.973249
vn 0 -0.2297529 -0.973249
vn 0 -0.4472136 -0.8944272
vn 0 -0.4472136 0.8944272
vn 0.3826834 0.9238795 0
vn -0.3826834 0.9238795 0
vn 0.9238795 0.3826834 0
vn -0.9238795 -0.3826834 0
vn -0.9238795 0.3826834 0
vn 0.9238795 -0.3826834 0
vn 0.3826834 -0.9238795 0
vn -0.3826834 -0.9238795 0

vt 0.21875 0.225
vt 0.21875 0.185
vt 0.21875 0.165
vt 0.21875 0.065
vt 0.21875 0.025
vt 0.34375 0.025
vt 0.34375 0.065
vt 0.34375 0.185
vt 0.34375 0.225
vt 0.34375 0.165
vt 0.21875 0.4416667
vt 0.21875 0.3083333
vt 0.21875 0.475
vt 0.21875 0.4583333
vt 0.21875 0.2916667
vt 0.21875 0.275

usemtl colormap

f 3/1/1 2/2/1 1/1/1
f 2/2/1 3/1/1 4/3/1
f 4/3/1 3/1/1 5/4/1
f 5/4/1 3/1/1 6/3/1
f 6/3/1 3/1/1 7/2/1
f 8/4/1 5/4/1 6/3/1
f 9/5/1 5/4/1 8/4/1
f 9/5/1 8/4/1 10/4/1
f 11/5/1 5/4/1 9/5/1
f 5/4/1 11/5/1 12/4/1
f 15/5/2 14/4/2 13/5/2
f 14/4/2 15/5/2 16/4/2
f 16/4/2 15/5/2 17/3/2
f 17/3/2 15/5/2 18/4/2
f 18/4/2 15/5/2 19/4/2
f 20/3/2 17/3/2 18/4/2
f 21/1/2 17/3/2 20/3/2
f 21/1/2 20/3/2 22/2/2
f 23/1/2 17/3/2 21/1/2
f 17/3/2 23/1/2 24/2/2
f 25/4/3 4/3/3 5/4/3
f 4/3/3 25/4/3 26/3/3
f 27/4/4 20/3/4 18/4/4
f 20/3/4 27/4/4 28/3/4
f 6/3/4 29/4/4 8/4/4
f 29/4/4 6/3/4 30/3/4
f 17/3/3 31/4/3 16/4/3
f 31/4/3 17/3/3 32/3/3
f 15/6/5 11/6/5 9/6/5
f 11/6/5 15/6/5 13/6/5
f 14/7/3 11/6/3 13/6/3
f 11/6/3 14/7/3 12/7/3
f 10/7/4 15/6/4 9/6/4
f 15/6/4 10/7/4 19/7/4
f 29/7/6 10/7/6 8/7/6
f 10/7/6 29/7/6 19/7/6
f 19/7/6 29/7/6 27/7/6
f 19/7/6 27/7/6 18/7/6
f 14/7/6 5/7/6 12/7/6
f 5/7/6 14/7/6 25/7/6
f 25/7/6 14/7/6 31/7/6
f 31/7/6 14/7/6 16/7/6
f 3/9/4 22/8/7 7/8/7
f 22/8/7 3/9/4 21/9/4
f 23/9/3 2/8/8 24/8/8
f 2/8/8 23/9/3 1/9/3
f 24/8/8 32/10/9 17/10/9
f 32/10/9 24/8/8 26/10/9
f 26/10/9 24/8/8 4/10/9
f 4/10/9 24/8/8 2/8/8
f 7/8/7 30/10/10 6/10/10
f 30/10/10 7/8/7 28/10/10
f 28/10/10 7/8/7 20/10/10
f 20/10/10 7/8/7 22/8/7
f 23/9/6 3/9/6 1/9/6
f 3/9/6 23/9/6 21/9/6
f 35/11/5 34/11/5 33/11/5
f 34/11/5 35/11/5 36/11/5
f 35/11/1 37/12/1 36/11/1
f 37/12/1 35/11/1 38/12/1
f 37/12/6 40/12/6 39/12/6
f 40/12/6 37/12/6 38/12/6
f 40/12/2 34/11/2 39/12/2
f 34/11/2 40/12/2 33/11/2
f 43/13/12 42/13/11 41/13/11
f 42/13/11 43/13/12 44/13/12
f 42/13/11 45/14/13 41/13/11
f 45/14/13 42/13/11 46/14/13
f 49/15/14 48/14/15 47/15/14
f 48/14/15 49/15/14 50/14/15
f 50/14/15 43/13/12 48/14/15
f 43/13/12 50/14/15 44/13/12
f 53/15/4 52/16/4 51/16/4
f 52/16/4 53/15/4 49/15/4
f 49/15/4 53/15/4 40/12/4
f 40/12/4 53/15/4 46/14/4
f 38/12/4 49/15/4 40/12/4
f 40/12/4 46/14/4 33/11/4
f 49/15/4 38/12/4 50/14/4
f 33/11/4 46/14/4 35/11/4
f 50/14/4 38/12/4 35/11/4
f 50/14/4 35/11/4 46/14/4
f 50/14/4 46/14/4 42/13/4
f 50/14/4 42/13/4 44/13/4
f 47/15/3 55/16/3 54/16/3
f 55/16/3 47/15/3 56/15/3
f 56/15/3 47/15/3 37/12/3
f 37/12/3 47/15/3 48/14/3
f 39/12/3 56/15/3 37/12/3
f 37/12/3 48/14/3 36/11/3
f 56/15/3 39/12/3 45/14/3
f 36/11/3 48/14/3 34/11/3
f 45/14/3 39/12/3 34/11/3
f 45/14/3 34/11/3 48/14/3
f 45/14/3 48/14/3 43/13/3
f 45/14/3 43/13/3 41/13/3
f 46/14/13 56/15/16 45/14/13
f 56/15/16 46/14/13 53/15/16
f 53/15/16 55/16/17 56/15/16
f 55/16/17 53/15/16 51/16/17
f 52/16/18 55/16/17 51/16/17
f 55/16/17 52/16/18 54/16/18
f 52/16/18 47/15/14 54/16/18
f 47/15/14 52/16/18 49/15/14

g wall-window




usemtl colormap

f 3/1/1 2/2/1 1/1/1
f 2/2/1 3/1/1 4/3/1
f 4/3/1 3/1/1 5/4/1
f 5/4/1 3/1/1 6/3/1
f 6/3/1 3/1/1 7/2/1
f 8/4/1 5/4/1 6/3/1
f 9/5/1 5/4/1 8/4/1
f 9/5/1 8/4/1 10/4/1
f 11/5/1 5/4/1 9/5/1
f 5/4/1 11/5/1 12/4/1
f 15/5/2 14/4/2 13/5/2
f 14/4/2 15/5/2 16/4/2
f 16/4/2 15/5/2 17/3/2
f 17/3/2 15/5/2 18/4/2
f 18/4/2 15/5/2 19/4/2
f 20/3/2 17/3/2 18/4/2
f 21/1/2 17/3/2 20/3/2
f 21/1/2 20/3/2 22/2/2
f 23/1/2 17/3/2 21/1/2
f 17/3/2 23/1/2 24/2/2
f 25/4/3 4/3/3 5/4/3
f 4/3/3 25/4/3 26/3/3
f 27/4/4 20/3/4 18/4/4
f 20/3/4 27/4/4 28/3/4
f 6/3/4 29/4/4 8/4/4
f 29/4/4 6/3/4 30/3/4
f 17/3/3 31/4/3 16/4/3
f 31/4/3 17/3/3 32/3/3
f 15/6/5 11/6/5 9/6/5
f 11/6/5 15/6/5 13/6/5
f 14/7/3 11/6/3 13/6/3
f 11/6/3 14/7/3 12/7/3
f 10/7/4 15/6/4 9/6/4
f 15/6/4 10/7/4 19/7/4
f 29/7/6 10/7/6 8/7/6
f 10/7/6 29/7/6 19/7/6
f 19/7/6 29/7/6 27/7/6
f 19/7/6 27/7/6 18/7/6
f 14/7/6 5/7/6 12/7/6
f 5/7/6 14/7/6 25/7/6
f 25/7/6 14/7/6 31/7/6
f 31/7/6 14/7/6 16/7/6
f 3/9/4 22/8/7 7/8/7
f 22/8/7 3/9/4 21/9/4
f 23/9/3 2/8/8 24/8/8
f 2/8/8 23/9/3 1/9/3
f 24/8/8 32/10/9 17/10/9
f 32/10/9 24/8/8 26/10/9
f 26/10/9 24/8/8 4/10/9
f 4/10/9 24/8/8 2/8/8
f 7/8/7 30/10/10 6/10/10
f 30/10/10 7/8/7 28/10/10
f 28/10/10 7/8/7 20/10/10
f 20/10/10 7/8/7 22/8/7
f 23/9/6 3/9/6 1/9/6
f 3/9/6 23/9/6 21/9/6
f 35/11/5 34/11/5 33/11/5
f 34/11/5 35/11/5 36/11/5
f 35/11/1 37/12/1 36/11/1
f 37/12/1 35/11/1 38/12/1
f 37/12/6 40/12/6 39/12/6
f 40/12/6 37/12/6 38/12/6
f 40/12/2 34/11/2 39/12/2
f 34/11/2 40/12/2 33/11/2
f 43/13/12 42/13/11 41/13/11
f 42/13/11 43/13/12 44/13/12
f 42/13/11 45/14/13 41/13/11
f 45/14/13 42/13/11 46/14/13
f 49/15/14 48/14/15 47/15/14
f 48/14/15 49/15/14 50/14/15
f 50/14/15 43/13/12 48/14/15
f 43/13/12 50/14/15 44/13/12
f 53/15/4 52/16/4 51/16/4
f 52/16/4 53/15/4 49/15/4
f 49/15/4 53/15/4 40/12/4
f 40/12/4 53/15/4 46/14/4
f 38/12/4 49/15/4 40/12/4
f 40/12/4 46/14/4 33/11/4
f 49/15/4 38/12/4 50/14/4
f 33/11/4 46/14/4 35/11/4
f 50/14/4 38/12/4 35/11/4
f 50/14/4 35/11/4 46/14/4
f 50/14/4 46/14/4 42/13/4
f 50/14/4 42/13/4 44/13/4
f 47/15/3 55/16/3 54/16/3
f 55/16/3 47/15/3 56/15/3
f 56/15/3 47/15/3 37/12/3
f 37/12/3 47/15/3 48/14/3
f 39/12/3 56/15/3 37/12/3
f 37/12/3 48/14/3 36/11/3
f 56/15/3 39/12/3 45/14/3
f 36/11/3 48/14/3 34/11/3
f 45/14/3 39/12/3 34/11/3
f 45/14/3 34/11/3 48/14/3
f 45/14/3 48/14/3 43/13/3
f 45/14/3 43/13/3 41/13/3
f 46/14/13 56/15/16 45/14/13
f 56/15/16 46/14/13 53/15/16
f 53/15/16 55/16/17 56/15/16
f 55/16/17 53/15/16 51/16/17
f 52/16/18 55/16/17 51/16/17
f 55/16/17 52/16/18 54/16/18
f 52/16/18 47/15/14 54/16/18
f 47/15/14 52/16/18 49/15/14

