# Created by Kenney (www.kenney.nl)

mtllib wall.mtl

g wall

v 0.5 1 -0.15 1 1 1
v 0.5 0.8 -0.15 1 1 1
v 0.5 1 0.15 1 1 1
v 0.5 0.7 -0.1 1 1 1
v 0.5 0.2 -0.1 1 1 1
v 0.5 0.7 0.1 1 1 1
v 0.5 0.8 0.15 1 1 1
v 0.5 0.2 0.1 1 1 1
v 0.5 0 0.15 1 1 1
v 0.5 0.2 0.15 1 1 1
v 0.5 0 -0.15 1 1 1
v 0.5 0.2 -0.15 1 1 1
v -0.5 0 -0.15 1 1 1
v -0.5 0.2 -0.15 1 1 1
v -0.5 0 0.15 1 1 1
v -0.5 0.2 -0.1 1 1 1
v -0.5 0.7 -0.1 1 1 1
v -0.5 0.2 0.1 1 1 1
v -0.5 0.2 0.15 1 1 1
v -0.5 0.7 0.1 1 1 1
v -0.5 1 0.15 1 1 1
v -0.5 0.8 0.15 1 1 1
v -0.5 1 -0.15 1 1 1
v -0.5 0.8 -0.15 1 1 1

vn 1 0 0
vn -1 0 0
vn 0 0 -1
vn 0 0 1
vn 0 -1 0
vn 0 1 0
vn 0 -0.2297529 0.973249
vn 0 -0.2297529 -0.973249
vn 0 -0.4472136 -0.8944272
vn 0 -0.4472136 0.8944272

vt 0.21875 0.225
vt 0.21875 0.185
vt 0.21875 0.165
vt 0.21875 0.065
vt 0.21875 0.025
vt 0.34375 0.025
vt 0.34375 0.065
vt 0.34375 0.185
vt 0.34375 0.225
vt 0.34375 0.165

usemtl colormap

f 3/1/1 2/2/1 1/1/1
f 2/2/1 3/1/1 4/3/1
f 4/3/1 3/1/1 5/4/1
f 5/4/1 3/1/1 6/3/1
f 6/3/1 3/1/1 7/2/1
f 8/4/1 5/4/1 6/3/1
f 9/5/1 5/4/1 8/4/1
f 9/5/1 8/4/1 10/4/1
f 11/5/1 5/4/1 9/5/1
f 5/4/1 11/5/1 12/4/1
f 15/5/2 14/4/2 13/5/2
f 14/4/2 15/5/2 16/4/2
f 16/4/2 15/5/2 17/3/2
f 17/3/2 15/5/2 18/4/2
f 18/4/2 15/5/2 19/4/2
f 20/3/2 17/3/2 18/4/2
f 21/1/2 17/3/2 20/3/2
f 21/1/2 20/3/2 22/2/2
f 23/1/2 17/3/2 21/1/2
f 17/3/2 23/1/2 24/2/2
f 17/3/3 5/4/3 16/4/3
f 5/4/3 17/3/3 4/3/3
f 6/3/4 18/4/4 8/4/4
f 18/4/4 6/3/4 20/3/4
f 15/6/5 11/6/5 9/6/5
f 11/6/5 15/6/5 13/6/5
f 14/7/3 11/6/3 13/6/3
f 11/6/3 14/7/3 12/7/3
f 10/7/4 15/6/4 9/6/4
f 15/6/4 10/7/4 19/7/4
f 18/7/6 10/7/6 8/7/6
f 10/7/6 18/7/6 19/7/6
f 14/7/6 5/7/6 12/7/6
f 5/7/6 14/7/6 16/7/6
f 3/9/4 22/8/7 7/8/7
f 22/8/7 3/9/4 21/9/4
f 23/9/3 2/8/8 24/8/8
f 2/8/8 23/9/3 1/9/3
f 24/8/8 4/10/9 17/10/9
f 4/10/9 24/8/8 2/8/8
f 7/8/7 20/10/10 6/10/10
f 20/10/10 7/8/7 22/8/7
f 23/9/6 3/9/6 1/9/6
f 3/9/6 23/9/6 21/9/6

g wall




usemtl colormap

f 3/1/1 2/2/1 1/1/1
f 2/2/1 3/1/1 4/3/1
f 4/3/1 3/1/1 5/4/1
f 5/4/1 3/1/1 6/3/1
f 6/3/1 3/1/1 7/2/1
f 8/4/1 5/4/1 6/3/1
f 9/5/1 5/4/1 8/4/1
f 9/5/1 8/4/1 10/4/1
f 11/5/1 5/4/1 9/5/1
f 5/4/1 11/5/1 12/4/1
f 15/5/2 14/4/2 13/5/2
f 14/4/2 15/5/2 16/4/2
f 16/4/2 15/5/2 17/3/2
f 17/3/2 15/5/2 18/4/2
f 18/4/2 15/5/2 19/4/2
f 20/3/2 17/3/2 18/4/2
f 21/1/2 17/3/2 20/3/2
f 21/1/2 20/3/2 22/2/2
f 23/1/2 17/3/2 21/1/2
f 17/3/2 23/1/2 24/2/2
f 17/3/3 5/4/3 16/4/3
f 5/4/3 17/3/3 4/3/3
f 6/3/4 18/4/4 8/4/4
f 18/4/4 6/3/4 20/3/4
f 15/6/5 11/6/5 9/6/5
f 11/6/5 15/6/5 13/6/5
f 14/7/3 11/6/3 13/6/3
f 11/6/3 14/7/3 12/7/3
f 10/7/4 15/6/4 9/6/4
f 15/6/4 10/7/4 19/7/4
f 18/7/6 10/7/6 8/7/6
f 10/7/6 18/7/6 19/7/6
f 14/7/6 5/7/6 12/7/6
f 5/7/6 14/7/6 16/7/6
f 3/9/4 22/8/7 7/8/7
f 22/8/7 3/9/4 21/9/4
f 23/9/3 2/8/8 24/8/8
f 2/8/8 23/9/3 1/9/3
f 24/8/8 4/10/9 17/10/9
f 4/10/9 24/8/8 2/8/8
f 7/8/7 20/10/10 6/10/10
f 20/10/10 7/8/7 22/8/7
f 23/9/6 3/9/6 1/9/6
f 3/9/6 23/9/6 21/9/6

