# Created by Kenney (www.kenney.nl)

mtllib wall-door-wide-banner.mtl

g wall-door-wide-banner

v 0.5 0.45 0.1 1 1 1
v 0.4 0.45 0.1 1 1 1
v 0.5 0.7 0.1 1 1 1
v 0.4 0.7 0.1 1 1 1
v 0.5 1 -0.15 1 1 1
v 0.5 0.8 -0.15 1 1 1
v 0.5 1 0.15 1 1 1
v 0.5 0.7 -0.1 1 1 1
v 0.5 0.45 -0.1 1 1 1
v 0.5 0.2 -0.1 1 1 1
v 0.5 0.8 0.15 1 1 1
v 0.5 0.2 0.1 1 1 1
v 0.5 0 0.15 1 1 1
v 0.5 0.2 0.15 1 1 1
v 0.5 0 -0.15 1 1 1
v 0.5 0.2 -0.15 1 1 1
v -0.5 0 -0.15 1 1 1
v -0.5 0.2 -0.15 1 1 1
v -0.5 0 0.15 1 1 1
v -0.5 0.2 -0.1 1 1 1
v -0.5 0.45 -0.1 1 1 1
v -0.5 0.7 -0.1 1 1 1
v -0.5 0.2 0.1 1 1 1
v -0.5 0.2 0.15 1 1 1
v -0.5 0.7 0.1 1 1 1
v -0.5 0.45 0.1 1 1 1
v -0.5 1 0.15 1 1 1
v -0.5 0.8 0.15 1 1 1
v -0.5 1 -0.15 1 1 1
v -0.5 0.8 -0.15 1 1 1
v -0.4 0.45 -0.1 1 1 1
v -0.4 0.7 -0.1 1 1 1
v -0.4 0.45 0.1 1 1 1
v -0.4 0.7 0.1 1 1 1
v 0.4 0.45 -0.1 1 1 1
v 0.4 0.7 -0.1 1 1 1
v 0.4 0 -0.15 1 1 1
v 0.4 0.2 -0.15 1 1 1
v -0.4 0.2 0.1 1 1 1
v -0.4 0.2 0.15 1 1 1
v -0.4 0 0.15 1 1 1
v -0.4 0 -0.15 1 1 1
v -0.4 0.2 -0.15 1 1 1
v -0.4 0.2 -0.1 1 1 1
v 0.4 0 0.15 1 1 1
v 0.4 0.2 0.1 1 1 1
v 0.4 0.2 0.15 1 1 1
v 0.4 0.2 -0.1 1 1 1
v 0.3 0.7 0.15 1 1 1
v 0.3 0.7 -0.15 1 1 1
v -0.3 0.7 0.15 1 1 1
v -0.3 0.7 -0.15 1 1 1
v 0.4 0.75 -0.15 1 1 1
v 0.4 0.75 0.15 1 1 1
v 0.35 0.8 -0.15 1 1 1
v 0.35 0.8 0.15 1 1 1
v -0.35 0.8 -0.15 1 1 1
v -0.35 0.8 0.15 1 1 1
v -0.4 0.75 -0.15 1 1 1
v -0.4 0.75 0.15 1 1 1
v -0.3 0 -0.15 1 1 1
v 0.3 0 -0.15 1 1 1
v -0.3 0 0.15 1 1 1
v 0.3 0 0.15 1 1 1

vn 0 0 1
vn 1 0 0
vn -1 0 0
vn 0 0 -1
vn 0 -0.2297529 -0.973249
vn 0 -0.2297529 0.973249
vn 0 1 0
vn 0 -0.4472136 -0.8944272
vn 0 -0.4472136 0.8944272
vn 0 -1 0
vn 0.9238795 0.3826834 0
vn 0.3826834 0.9238795 0
vn -0.3826834 0.9238795 0
vn -0.9238795 0.3826834 0

vt 0.21875 0.115
vt 0.21875 0.165
vt 0.21875 0.225
vt 0.21875 0.185
vt 0.21875 0.065
vt 0.21875 0.025
vt 0.34375 0.185
vt 0.34375 0.225
vt 0.34375 0.025
vt 0.34375 0.065
vt 0.34375 0.165
vt 0.21875 0.45
vt 0.21875 0.4625
vt 0.21875 0.475
vt 0.21875 0.275
vt 0.21875 0.325
vt 0.21875 0.425

usemtl colormap

f 3/2/1 2/1/1 1/1/1
f 2/1/1 3/2/1 4/2/1
f 7/3/2 6/4/2 5/3/2
f 6/4/2 7/3/2 8/2/2
f 8/2/2 7/3/2 9/1/2
f 9/1/2 7/3/2 10/5/2
f 10/5/2 7/3/2 3/2/2
f 3/2/2 7/3/2 11/4/2
f 12/5/2 10/5/2 3/2/2
f 12/5/2 3/2/2 1/1/2
f 13/6/2 10/5/2 12/5/2
f 13/6/2 12/5/2 14/5/2
f 15/6/2 10/5/2 13/6/2
f 10/5/2 15/6/2 16/5/2
f 19/6/3 18/5/3 17/6/3
f 18/5/3 19/6/3 20/5/3
f 20/5/3 19/6/3 21/1/3
f 21/1/3 19/6/3 22/2/3
f 22/2/3 19/6/3 23/5/3
f 23/5/3 19/6/3 24/5/3
f 25/2/3 22/2/3 23/5/3
f 25/2/3 23/5/3 26/1/3
f 27/3/3 22/2/3 25/2/3
f 27/3/3 25/2/3 28/4/3
f 29/3/3 22/2/3 27/3/3
f 22/2/3 29/3/3 30/4/3
f 22/2/4 31/1/4 21/1/4
f 31/1/4 22/2/4 32/2/4
f 34/2/1 26/1/1 33/1/1
f 26/1/1 34/2/1 25/2/1
f 36/2/4 9/1/4 35/1/4
f 9/1/4 36/2/4 8/2/4
f 29/8/4 6/7/5 30/7/5
f 6/7/5 29/8/4 5/8/4
f 7/8/1 28/7/6 11/7/6
f 28/7/6 7/8/1 27/8/1
f 38/10/4 15/9/4 37/9/4
f 15/9/4 38/10/4 16/10/4
f 23/10/7 40/10/7 39/10/7
f 40/10/7 23/10/7 24/10/7
f 30/7/5 32/11/8 22/11/8
f 32/11/8 30/7/5 36/11/8
f 36/11/8 30/7/5 8/11/8
f 8/11/8 30/7/5 6/7/5
f 11/7/6 4/11/9 3/11/9
f 4/11/9 11/7/6 34/11/9
f 34/11/9 11/7/6 25/11/9
f 25/11/9 11/7/6 28/7/6
f 19/9/10 42/9/10 41/9/10
f 42/9/10 19/9/10 17/9/10
f 18/10/7 44/10/7 43/10/7
f 44/10/7 18/10/7 20/10/7
f 40/10/1 19/9/1 41/9/1
f 19/9/1 40/10/1 24/10/1
f 29/8/7 7/8/7 5/8/7
f 7/8/7 29/8/7 27/8/7
f 45/9/10 15/9/10 13/9/10
f 15/9/10 45/9/10 37/9/10
f 18/10/4 42/9/4 17/9/4
f 42/9/4 18/10/4 43/10/4
f 46/10/7 14/10/7 12/10/7
f 14/10/7 46/10/7 47/10/7
f 14/10/1 45/9/1 13/9/1
f 45/9/1 14/10/1 47/10/1
f 38/10/7 10/10/7 16/10/7
f 10/10/7 38/10/7 48/10/7
f 51/12/10 50/12/10 49/12/10
f 50/12/10 51/12/10 52/12/10
f 55/14/12 54/13/11 53/13/11
f 54/13/11 55/14/12 56/14/12
f 57/14/13 56/14/12 55/14/12
f 56/14/12 57/14/13 58/14/13
f 41/15/3 59/13/14 42/15/3
f 59/13/14 41/15/3 60/13/14
f 59/13/4 61/15/4 42/15/4
f 61/15/4 59/13/4 52/12/4
f 52/12/4 59/13/4 50/12/4
f 53/13/4 50/12/4 59/13/4
f 53/13/4 59/13/4 57/14/4
f 53/13/4 57/14/4 55/14/4
f 37/15/4 50/12/4 53/13/4
f 50/12/4 37/15/4 62/15/4
f 59/13/14 58/14/13 57/14/13
f 58/14/13 59/13/14 60/13/14
f 51/12/2 61/15/2 52/12/2
f 61/15/2 51/12/2 63/15/2
f 54/13/11 37/15/2 53/13/11
f 37/15/2 54/13/11 45/15/2
f 41/15/10 61/15/10 63/15/10
f 61/15/10 41/15/10 42/15/10
f 54/13/1 64/15/1 45/15/1
f 64/15/1 54/13/1 49/12/1
f 49/12/1 54/13/1 51/12/1
f 60/13/1 51/12/1 54/13/1
f 60/13/1 54/13/1 56/14/1
f 60/13/1 56/14/1 58/14/1
f 41/15/1 51/12/1 60/13/1
f 51/12/1 41/15/1 63/15/1
f 64/15/3 50/12/3 62/15/3
f 50/12/3 64/15/3 49/12/3
f 64/15/10 37/15/10 45/15/10
f 37/15/10 64/15/10 62/15/10
f 35/17/4 10/16/4 48/16/4
f 10/16/4 35/17/4 9/17/4
f 1/17/1 46/16/1 12/16/1
f 46/16/1 1/17/1 2/17/1
f 21/17/4 44/16/4 20/16/4
f 44/16/4 21/17/4 31/17/4
f 33/17/1 23/16/1 39/16/1
f 23/16/1 33/17/1 26/17/1

g wall-door-wide-banner




usemtl colormap

f 3/2/1 2/1/1 1/1/1
f 2/1/1 3/2/1 4/2/1
f 7/3/2 6/4/2 5/3/2
f 6/4/2 7/3/2 8/2/2
f 8/2/2 7/3/2 9/1/2
f 9/1/2 7/3/2 10/5/2
f 10/5/2 7/3/2 3/2/2
f 3/2/2 7/3/2 11/4/2
f 12/5/2 10/5/2 3/2/2
f 12/5/2 3/2/2 1/1/2
f 13/6/2 10/5/2 12/5/2
f 13/6/2 12/5/2 14/5/2
f 15/6/2 10/5/2 13/6/2
f 10/5/2 15/6/2 16/5/2
f 19/6/3 18/5/3 17/6/3
f 18/5/3 19/6/3 20/5/3
f 20/5/3 19/6/3 21/1/3
f 21/1/3 19/6/3 22/2/3
f 22/2/3 19/6/3 23/5/3
f 23/5/3 19/6/3 24/5/3
f 25/2/3 22/2/3 23/5/3
f 25/2/3 23/5/3 26/1/3
f 27/3/3 22/2/3 25/2/3
f 27/3/3 25/2/3 28/4/3
f 29/3/3 22/2/3 27/3/3
f 22/2/3 29/3/3 30/4/3
f 22/2/4 31/1/4 21/1/4
f 31/1/4 22/2/4 32/2/4
f 34/2/1 26/1/1 33/1/1
f 26/1/1 34/2/1 25/2/1
f 36/2/4 9/1/4 35/1/4
f 9/1/4 36/2/4 8/2/4
f 29/8/4 6/7/5 30/7/5
f 6/7/5 29/8/4 5/8/4
f 7/8/1 28/7/6 11/7/6
f 28/7/6 7/8/1 27/8/1
f 38/10/4 15/9/4 37/9/4
f 15/9/4 38/10/4 16/10/4
f 23/10/7 40/10/7 39/10/7
f 40/10/7 23/10/7 24/10/7
f 30/7/5 32/11/8 22/11/8
f 32/11/8 30/7/5 36/11/8
f 36/11/8 30/7/5 8/11/8
f 8/11/8 30/7/5 6/7/5
f 11/7/6 4/11/9 3/11/9
f 4/11/9 11/7/6 34/11/9
f 34/11/9 11/7/6 25/11/9
f 25/11/9 11/7/6 28/7/6
f 19/9/10 42/9/10 41/9/10
f 42/9/10 19/9/10 17/9/10
f 18/10/7 44/10/7 43/10/7
f 44/10/7 18/10/7 20/10/7
f 40/10/1 19/9/1 41/9/1
f 19/9/1 40/10/1 24/10/1
f 29/8/7 7/8/7 5/8/7
f 7/8/7 29/8/7 27/8/7
f 45/9/10 15/9/10 13/9/10
f 15/9/10 45/9/10 37/9/10
f 18/10/4 42/9/4 17/9/4
f 42/9/4 18/10/4 43/10/4
f 46/10/7 14/10/7 12/10/7
f 14/10/7 46/10/7 47/10/7
f 14/10/1 45/9/1 13/9/1
f 45/9/1 14/10/1 47/10/1
f 38/10/7 10/10/7 16/10/7
f 10/10/7 38/10/7 48/10/7
f 51/12/10 50/12/10 49/12/10
f 50/12/10 51/12/10 52/12/10
f 55/14/12 54/13/11 53/13/11
f 54/13/11 55/14/12 56/14/12
f 57/14/13 56/14/12 55/14/12
f 56/14/12 57/14/13 58/14/13
f 41/15/3 59/13/14 42/15/3
f 59/13/14 41/15/3 60/13/14
f 59/13/4 61/15/4 42/15/4
f 61/15/4 59/13/4 52/12/4
f 52/12/4 59/13/4 50/12/4
f 53/13/4 50/12/4 59/13/4
f 53/13/4 59/13/4 57/14/4
f 53/13/4 57/14/4 55/14/4
f 37/15/4 50/12/4 53/13/4
f 50/12/4 37/15/4 62/15/4
f 59/13/14 58/14/13 57/14/13
f 58/14/13 59/13/14 60/13/14
f 51/12/2 61/15/2 52/12/2
f 61/15/2 51/12/2 63/15/2
f 54/13/11 37/15/2 53/13/11
f 37/15/2 54/13/11 45/15/2
f 41/15/10 61/15/10 63/15/10
f 61/15/10 41/15/10 42/15/10
f 54/13/1 64/15/1 45/15/1
f 64/15/1 54/13/1 49/12/1
f 49/12/1 54/13/1 51/12/1
f 60/13/1 51/12/1 54/13/1
f 60/13/1 54/13/1 56/14/1
f 60/13/1 56/14/1 58/14/1
f 41/15/1 51/12/1 60/13/1
f 51/12/1 41/15/1 63/15/1
f 64/15/3 50/12/3 62/15/3
f 50/12/3 64/15/3 49/12/3
f 64/15/10 37/15/10 45/15/10
f 37/15/10 64/15/10 62/15/10
f 35/17/4 10/16/4 48/16/4
f 10/16/4 35/17/4 9/17/4
f 1/17/1 46/16/1 12/16/1
f 46/16/1 1/17/1 2/17/1
f 21/17/4 44/16/4 20/16/4
f 44/16/4 21/17/4 31/17/4
f 33/17/1 23/16/1 39/16/1
f 23/16/1 33/17/1 26/17/1

