# Created by Kenney (www.kenney.nl)

mtllib wall-door.mtl

g wall-door

v 0.5 0.2 0.1 1 1 1
v 0.3 0.2 0.1 1 1 1
v 0.5 0.7 0.1 1 1 1
v 0.3 0.7 0.1 1 1 1
v 0.5 1 -0.15 1 1 1
v 0.5 0.8 -0.15 1 1 1
v 0.5 1 0.15 1 1 1
v 0.5 0.7 -0.1 1 1 1
v 0.5 0.2 -0.1 1 1 1
v 0.5 0.8 0.15 1 1 1
v 0.5 0 0.15 1 1 1
v 0.5 0.2 0.15 1 1 1
v 0.5 0 -0.15 1 1 1
v 0.5 0.2 -0.15 1 1 1
v -0.5 0 -0.15 1 1 1
v -0.5 0.2 -0.15 1 1 1
v -0.5 0 0.15 1 1 1
v -0.5 0.2 -0.1 1 1 1
v -0.5 0.7 -0.1 1 1 1
v -0.5 0.2 0.1 1 1 1
v -0.5 0.2 0.15 1 1 1
v -0.5 0.7 0.1 1 1 1
v -0.5 1 0.15 1 1 1
v -0.5 0.8 0.15 1 1 1
v -0.5 1 -0.15 1 1 1
v -0.5 0.8 -0.15 1 1 1
v -0.3 0.2 -0.1 1 1 1
v -0.3 0.7 -0.1 1 1 1
v 0.3 0.2 -0.1 1 1 1
v 0.3 0.7 -0.1 1 1 1
v -0.3 0.2 0.1 1 1 1
v -0.3 0.7 0.1 1 1 1
v 0.3 0 -0.15 1 1 1
v 0.3 0.2 -0.15 1 1 1
v -0.3 0.2 0.15 1 1 1
v -0.3 0 0.15 1 1 1
v -0.3 0 -0.15 1 1 1
v -0.3 0.2 -0.15 1 1 1
v 0.3 0 0.15 1 1 1
v 0.3 0.2 0.15 1 1 1
v -0.2 0.7 -0.15 1 1 1
v -0.2 0 -0.15 1 1 1
v -0.2 0.7 0.15 1 1 1
v -0.2 0 0.15 1 1 1
v 0.2 0 -0.15 1 1 1
v 0.2 0.7 -0.15 1 1 1
v 0.2 0 0.15 1 1 1
v 0.2 0.7 0.15 1 1 1
v 0.3 0.75 -0.15 1 1 1
v 0.3 0.75 0.15 1 1 1
v 0.25 0.8 -0.15 1 1 1
v 0.25 0.8 0.15 1 1 1
v -0.3 0.75 0.15 1 1 1
v -0.25 0.8 0.15 1 1 1
v -0.25 0.8 -0.15 1 1 1
v -0.3 0.75 -0.15 1 1 1

vn 0 0 1
vn 1 0 0
vn -1 0 0
vn 0 0 -1
vn 0 -0.2297529 -0.973249
vn 0 -0.2297529 0.973249
vn 0 1 0
vn 0 -0.4472136 -0.8944272
vn 0 -0.4472136 0.8944272
vn 0 -1 0
vn 0.9238795 0.3826834 0
vn 0.3826834 0.9238795 0
vn -0.3826834 0.9238795 0
vn -0.9238795 0.3826834 0

vt 0.21875 0.065
vt 0.21875 0.165
vt 0.21875 0.225
vt 0.21875 0.185
vt 0.21875 0.025
vt 0.34375 0.185
vt 0.34375 0.225
vt 0.34375 0.025
vt 0.34375 0.065
vt 0.34375 0.165
vt 0.21875 0.45
vt 0.21875 0.275
vt 0.21875 0.4625
vt 0.21875 0.475

usemtl colormap

f 3/2/1 2/1/1 1/1/1
f 2/1/1 3/2/1 4/2/1
f 7/3/2 6/4/2 5/3/2
f 6/4/2 7/3/2 8/2/2
f 8/2/2 7/3/2 9/1/2
f 9/1/2 7/3/2 3/2/2
f 3/2/2 7/3/2 10/4/2
f 1/1/2 9/1/2 3/2/2
f 11/5/2 9/1/2 1/1/2
f 11/5/2 1/1/2 12/1/2
f 13/5/2 9/1/2 11/5/2
f 9/1/2 13/5/2 14/1/2
f 17/5/3 16/1/3 15/5/3
f 16/1/3 17/5/3 18/1/3
f 18/1/3 17/5/3 19/2/3
f 19/2/3 17/5/3 20/1/3
f 20/1/3 17/5/3 21/1/3
f 22/2/3 19/2/3 20/1/3
f 23/3/3 19/2/3 22/2/3
f 23/3/3 22/2/3 24/4/3
f 25/3/3 19/2/3 23/3/3
f 19/2/3 25/3/3 26/4/3
f 19/2/4 27/1/4 18/1/4
f 27/1/4 19/2/4 28/2/4
f 30/2/4 9/1/4 29/1/4
f 9/1/4 30/2/4 8/2/4
f 32/2/1 20/1/1 31/1/1
f 20/1/1 32/2/1 22/2/1
f 25/7/4 6/6/5 26/6/5
f 6/6/5 25/7/4 5/7/4
f 7/7/1 24/6/6 10/6/6
f 24/6/6 7/7/1 23/7/1
f 34/9/4 13/8/4 33/8/4
f 13/8/4 34/9/4 14/9/4
f 20/9/7 35/9/7 31/9/7
f 35/9/7 20/9/7 21/9/7
f 26/6/5 28/10/8 19/10/8
f 28/10/8 26/6/5 30/10/8
f 30/10/8 26/6/5 8/10/8
f 8/10/8 26/6/5 6/6/5
f 10/6/6 4/10/9 3/10/9
f 4/10/9 10/6/6 32/10/9
f 32/10/9 10/6/6 22/10/9
f 22/10/9 10/6/6 24/6/6
f 17/8/10 37/8/10 36/8/10
f 37/8/10 17/8/10 15/8/10
f 16/9/7 27/9/7 38/9/7
f 27/9/7 16/9/7 18/9/7
f 35/9/1 17/8/1 36/8/1
f 17/8/1 35/9/1 21/9/1
f 25/7/7 7/7/7 5/7/7
f 7/7/7 25/7/7 23/7/7
f 39/8/10 13/8/10 11/8/10
f 13/8/10 39/8/10 33/8/10
f 16/9/4 37/8/4 15/8/4
f 37/8/4 16/9/4 38/9/4
f 2/9/7 12/9/7 1/9/7
f 12/9/7 2/9/7 40/9/7
f 12/9/1 39/8/1 11/8/1
f 39/8/1 12/9/1 40/9/1
f 34/9/7 9/9/7 14/9/7
f 9/9/7 34/9/7 29/9/7
f 43/11/2 42/12/2 41/11/2
f 42/12/2 43/11/2 44/12/2
f 36/12/10 42/12/10 44/12/10
f 42/12/10 36/12/10 37/12/10
f 47/12/3 46/11/3 45/12/3
f 46/11/3 47/12/3 48/11/3
f 47/12/10 33/12/10 39/12/10
f 33/12/10 47/12/10 45/12/10
f 51/14/12 50/13/11 49/13/11
f 50/13/11 51/14/12 52/14/12
f 50/13/11 33/12/2 49/13/11
f 33/12/2 50/13/11 39/12/2
f 50/13/1 47/12/1 39/12/1
f 47/12/1 50/13/1 48/11/1
f 48/11/1 50/13/1 43/11/1
f 53/13/1 43/11/1 50/13/1
f 53/13/1 50/13/1 52/14/1
f 53/13/1 52/14/1 54/14/1
f 36/12/1 43/11/1 53/13/1
f 43/11/1 36/12/1 44/12/1
f 55/14/13 52/14/12 51/14/12
f 52/14/12 55/14/13 54/14/13
f 43/11/10 46/11/10 48/11/10
f 46/11/10 43/11/10 41/11/10
f 56/13/4 42/12/4 37/12/4
f 42/12/4 56/13/4 41/11/4
f 41/11/4 56/13/4 46/11/4
f 49/13/4 46/11/4 56/13/4
f 49/13/4 56/13/4 55/14/4
f 49/13/4 55/14/4 51/14/4
f 33/12/4 46/11/4 49/13/4
f 46/11/4 33/12/4 45/12/4
f 36/12/3 56/13/14 37/12/3
f 56/13/14 36/12/3 53/13/14
f 56/13/14 54/14/13 55/14/13
f 54/14/13 56/13/14 53/13/14

g wall-door




usemtl colormap

f 3/2/1 2/1/1 1/1/1
f 2/1/1 3/2/1 4/2/1
f 7/3/2 6/4/2 5/3/2
f 6/4/2 7/3/2 8/2/2
f 8/2/2 7/3/2 9/1/2
f 9/1/2 7/3/2 3/2/2
f 3/2/2 7/3/2 10/4/2
f 1/1/2 9/1/2 3/2/2
f 11/5/2 9/1/2 1/1/2
f 11/5/2 1/1/2 12/1/2
f 13/5/2 9/1/2 11/5/2
f 9/1/2 13/5/2 14/1/2
f 17/5/3 16/1/3 15/5/3
f 16/1/3 17/5/3 18/1/3
f 18/1/3 17/5/3 19/2/3
f 19/2/3 17/5/3 20/1/3
f 20/1/3 17/5/3 21/1/3
f 22/2/3 19/2/3 20/1/3
f 23/3/3 19/2/3 22/2/3
f 23/3/3 22/2/3 24/4/3
f 25/3/3 19/2/3 23/3/3
f 19/2/3 25/3/3 26/4/3
f 19/2/4 27/1/4 18/1/4
f 27/1/4 19/2/4 28/2/4
f 30/2/4 9/1/4 29/1/4
f 9/1/4 30/2/4 8/2/4
f 32/2/1 20/1/1 31/1/1
f 20/1/1 32/2/1 22/2/1
f 25/7/4 6/6/5 26/6/5
f 6/6/5 25/7/4 5/7/4
f 7/7/1 24/6/6 10/6/6
f 24/6/6 7/7/1 23/7/1
f 34/9/4 13/8/4 33/8/4
f 13/8/4 34/9/4 14/9/4
f 20/9/7 35/9/7 31/9/7
f 35/9/7 20/9/7 21/9/7
f 26/6/5 28/10/8 19/10/8
f 28/10/8 26/6/5 30/10/8
f 30/10/8 26/6/5 8/10/8
f 8/10/8 26/6/5 6/6/5
f 10/6/6 4/10/9 3/10/9
f 4/10/9 10/6/6 32/10/9
f 32/10/9 10/6/6 22/10/9
f 22/10/9 10/6/6 24/6/6
f 17/8/10 37/8/10 36/8/10
f 37/8/10 17/8/10 15/8/10
f 16/9/7 27/9/7 38/9/7
f 27/9/7 16/9/7 18/9/7
f 35/9/1 17/8/1 36/8/1
f 17/8/1 35/9/1 21/9/1
f 25/7/7 7/7/7 5/7/7
f 7/7/7 25/7/7 23/7/7
f 39/8/10 13/8/10 11/8/10
f 13/8/10 39/8/10 33/8/10
f 16/9/4 37/8/4 15/8/4
f 37/8/4 16/9/4 38/9/4
f 2/9/7 12/9/7 1/9/7
f 12/9/7 2/9/7 40/9/7
f 12/9/1 39/8/1 11/8/1
f 39/8/1 12/9/1 40/9/1
f 34/9/7 9/9/7 14/9/7
f 9/9/7 34/9/7 29/9/7
f 43/11/2 42/12/2 41/11/2
f 42/12/2 43/11/2 44/12/2
f 36/12/10 42/12/10 44/12/10
f 42/12/10 36/12/10 37/12/10
f 47/12/3 46/11/3 45/12/3
f 46/11/3 47/12/3 48/11/3
f 47/12/10 33/12/10 39/12/10
f 33/12/10 47/12/10 45/12/10
f 51/14/12 50/13/11 49/13/11
f 50/13/11 51/14/12 52/14/12
f 50/13/11 33/12/2 49/13/11
f 33/12/2 50/13/11 39/12/2
f 50/13/1 47/12/1 39/12/1
f 47/12/1 50/13/1 48/11/1
f 48/11/1 50/13/1 43/11/1
f 53/13/1 43/11/1 50/13/1
f 53/13/1 50/13/1 52/14/1
f 53/13/1 52/14/1 54/14/1
f 36/12/1 43/11/1 53/13/1
f 43/11/1 36/12/1 44/12/1
f 55/14/13 52/14/12 51/14/12
f 52/14/12 55/14/13 54/14/13
f 43/11/10 46/11/10 48/11/10
f 46/11/10 43/11/10 41/11/10
f 56/13/4 42/12/4 37/12/4
f 42/12/4 56/13/4 41/11/4
f 41/11/4 56/13/4 46/11/4
f 49/13/4 46/11/4 56/13/4
f 49/13/4 56/13/4 55/14/4
f 49/13/4 55/14/4 51/14/4
f 33/12/4 46/11/4 49/13/4
f 46/11/4 33/12/4 45/12/4
f 36/12/3 56/13/14 37/12/3
f 56/13/14 36/12/3 53/13/14
f 56/13/14 54/14/13 55/14/13
f 54/14/13 56/13/14 53/13/14

