# Created by Kenney (www.kenney.nl)

mtllib wall-corner-banner.mtl

g wall-corner-banner

v -0.15 0.7 -0.4 1 1 1
v -0.15 0.45 -0.4 1 1 1
v -0.15 0.7 0.15 1 1 1
v -0.15 0.45 0.15 1 1 1
v -0.35 0.45 0.2900544 1 1 1
v -0.35 0.7 0.2900544 1 1 1
v -0.3324423 0.45 0.3324423 1 1 1
v -0.3324423 0.7 0.3324423 1 1 1
v -0.2900544 0.45 0.35 1 1 1
v -0.2900544 0.7 0.35 1 1 1
v 0.4 0.45 0.35 1 1 1
v 0.4 0.7 0.35 1 1 1
v 0.4 0.45 0.15 1 1 1
v 0.4 0.7 0.15 1 1 1
v 0.4 1 0.1 1 1 1
v 0.4 0.8 0.1 1 1 1
v 0.4 1 0.4 1 1 1
v 0.4 0.2 0.15 1 1 1
v 0.4 0.8 0.4 1 1 1
v 0.4 0.2 0.35 1 1 1
v 0.4 0 0.4 1 1 1
v 0.4 0.2 0.4 1 1 1
v 0.4 0 0.1 1 1 1
v 0.4 0.2 0.1 1 1 1
v -0.1 1 -0.4 1 1 1
v -0.4 1 -0.4 1 1 1
v -0.1 0.8 -0.4 1 1 1
v -0.4 0.8 -0.4 1 1 1
v -0.35 0.7 -0.4 1 1 1
v -0.35 0.45 -0.4 1 1 1
v -0.15 0.2 -0.4 1 1 1
v -0.35 0.2 -0.4 1 1 1
v -0.1 0.2 -0.4 1 1 1
v -0.4 0.2 -0.4 1 1 1
v -0.1 0 -0.4 1 1 1
v -0.4 0 -0.4 1 1 1
v -0.2900544 0.2 0.35 1 1 1
v -0.3 0.2 0.4 1 1 1
v -0.3324423 0.2 0.3324423 1 1 1
v -0.3707107 0.2 0.3707107 1 1 1
v -0.35 0.2 0.2900544 1 1 1
v -0.4 0.2 0.3 1 1 1
v -0.4 0.8 0.3280652 1 1 1
v -0.4 1 0.3280652 1 1 1
v -0.3280652 0.8 0.4 1 1 1
v -0.3789308 0.8 0.3789308 1 1 1
v -0.3280652 1 0.4 1 1 1
v -0.3789308 1 0.3789308 1 1 1
v -0.3 0 0.4 1 1 1
v -0.3707107 0 0.3707107 1 1 1
v -0.4 0 0.3 1 1 1
v -0.1 0.8 0.1 1 1 1
v -0.1 0 0.1 1 1 1
v -0.1 0.2 0.1 1 1 1
v -0.1 1 0.1 1 1 1
v -0.15 0.2 0.15 1 1 1
v -0.15 0.45 -0.4 1 1 1
v -0.15 0.2 -0.4 1 1 1
v -0.15 0.45 0.15 1 1 1
v -0.15 0.2 0.15 1 1 1
v 0.4 0.2 0.15 1 1 1
v 0.4 0.45 0.15 1 1 1

vn 1 0 0
vn -0.9807853 0 0.1950903
vn -0.7071068 0 0.7071068
vn -0.1950903 0 0.9807853
vn 0 0 1
vn 0 0 -1
vn -1 0 0
vn 0 1 0
vn -0.8944272 -0.4472136 0
vn -0.973249 -0.2297529 0
vn -0.8624316 -0.4855617 0.1429746
vn -0.947485 -0.2492321 0.2003884
vn -0.1429746 -0.4855617 0.8624316
vn -0.5908507 -0.549355 0.5908507
vn -0.2003884 -0.2492321 0.947485
vn -0.6810099 -0.2691675 0.6810099
vn 0 -0.2297529 0.973249
vn 0 -0.4472136 -0.8944272
vn 0 -0.2567772 -0.9664707
vn 0 -0.2297529 -0.973249
vn 0 -1 0
vn 0 -0.4472136 0.8944272
vn 0.973249 -0.2297529 0
vn 0.9664707 -0.2567772 0
vn 0.8944272 -0.4472136 0

vt 0.21875 0.165
vt 0.21875 0.115
vt 0.21875 0.225
vt 0.21875 0.185
vt 0.21875 0.065
vt 0.21875 0.025
vt 0.34375 0.065
vt 0.34375 0.165
vt 0.34375 0.185
vt 0.34375 0.225
vt 0.34375 0.025
vt 0.21875 0.425
vt 0.21875 0.325

usemtl colormap

f 3/1/1 2/2/1 1/1/1
f 2/2/1 3/1/1 4/2/1
f 7/2/3 6/1/2 5/2/2
f 6/1/2 7/2/3 8/1/3
f 10/1/4 7/2/3 9/2/4
f 7/2/3 10/1/4 8/1/3
f 12/1/5 9/2/4 11/2/5
f 9/2/4 12/1/5 10/1/4
f 3/1/6 13/2/6 4/2/6
f 13/2/6 3/1/6 14/1/6
f 17/3/1 16/4/1 15/3/1
f 16/4/1 17/3/1 14/1/1
f 14/1/1 17/3/1 13/2/1
f 13/2/1 17/3/1 18/5/1
f 18/5/1 17/3/1 12/1/1
f 12/1/1 17/3/1 19/4/1
f 20/5/1 18/5/1 12/1/1
f 20/5/1 12/1/1 11/2/1
f 21/6/1 18/5/1 20/5/1
f 21/6/1 20/5/1 22/5/1
f 23/6/1 18/5/1 21/6/1
f 18/5/1 23/6/1 24/5/1
f 27/4/6 26/3/6 25/3/6
f 27/4/6 28/4/6 26/3/6
f 1/1/6 28/4/6 27/4/6
f 1/1/6 29/1/6 28/4/6
f 2/2/6 29/1/6 1/1/6
f 2/2/6 30/2/6 29/1/6
f 31/5/6 30/2/6 2/2/6
f 30/2/6 31/5/6 32/5/6
f 33/5/6 32/5/6 31/5/6
f 33/5/6 34/5/6 32/5/6
f 35/6/6 34/5/6 33/5/6
f 34/5/6 35/6/6 36/6/6
f 5/2/2 29/1/7 30/2/7
f 29/1/7 5/2/2 6/1/2
f 37/7/8 22/7/8 20/7/8
f 22/7/8 37/7/8 38/7/8
f 38/7/8 37/7/8 39/7/8
f 38/7/8 39/7/8 40/7/8
f 40/7/8 39/7/8 41/7/8
f 40/7/8 41/7/8 32/7/8
f 40/7/8 32/7/8 34/7/8
f 40/7/8 34/7/8 42/7/8
f 6/8/11 28/9/10 29/8/9
f 28/9/10 6/8/11 43/9/12
f 43/9/12 26/10/7 28/9/10
f 26/10/7 43/9/12 44/10/2
f 45/9/15 8/8/14 10/8/13
f 8/8/14 45/9/15 46/9/16
f 8/8/14 43/9/12 6/8/11
f 43/9/12 8/8/14 46/9/16
f 17/10/5 45/9/15 19/9/17
f 45/9/15 17/10/5 47/10/4
f 47/10/4 46/9/16 45/9/15
f 46/9/16 47/10/4 48/10/3
f 46/9/16 44/10/2 43/9/12
f 44/10/2 46/9/16 48/10/3
f 38/7/4 50/11/3 49/11/4
f 50/11/3 38/7/4 40/7/3
f 50/11/3 42/7/2 51/11/2
f 42/7/2 50/11/3 40/7/3
f 52/9/19 14/8/18 3/8/18
f 14/8/18 52/9/19 16/9/20
f 49/11/21 23/11/21 21/11/21
f 23/11/21 49/11/21 53/11/21
f 53/11/21 49/11/21 35/11/21
f 35/11/21 49/11/21 36/11/21
f 36/11/21 49/11/21 50/11/21
f 36/11/21 50/11/21 51/11/21
f 54/7/6 23/11/6 53/11/6
f 23/11/6 54/7/6 24/7/6
f 19/9/17 10/8/13 12/8/22
f 10/8/13 19/9/17 45/9/15
f 55/10/6 16/9/20 52/9/19
f 16/9/20 55/10/6 15/10/6
f 22/7/5 49/11/4 21/11/5
f 49/11/4 22/7/5 38/7/4
f 55/10/8 17/10/8 15/10/8
f 17/10/8 55/10/8 47/10/8
f 47/10/8 55/10/8 25/10/8
f 47/10/8 25/10/8 26/10/8
f 47/10/8 26/10/8 48/10/8
f 48/10/8 26/10/8 44/10/8
f 51/11/2 34/7/7 36/11/7
f 34/7/7 51/11/2 42/7/2
f 54/7/8 18/7/8 24/7/8
f 18/7/8 54/7/8 56/7/8
f 56/7/8 54/7/8 33/7/8
f 56/7/8 33/7/8 31/7/8
f 54/7/1 35/11/1 33/7/1
f 35/11/1 54/7/1 53/11/1
f 55/10/1 27/9/23 25/10/1
f 27/9/23 55/10/1 52/9/24
f 52/9/24 1/8/25 27/9/23
f 1/8/25 52/9/24 3/8/25
f 59/12/1 58/13/1 57/12/1
f 58/13/1 59/12/1 60/13/1
f 11/12/5 37/13/4 20/13/5
f 37/13/4 11/12/5 9/12/4
f 59/12/6 61/13/6 60/13/6
f 61/13/6 59/12/6 62/12/6
f 9/12/4 39/13/3 37/13/4
f 39/13/3 9/12/4 7/12/3
f 39/13/3 5/12/2 41/13/2
f 5/12/2 39/13/3 7/12/3
f 41/13/2 30/12/7 32/13/7
f 30/12/7 41/13/2 5/12/2

g wall-corner-banner




usemtl colormap

f 3/1/1 2/2/1 1/1/1
f 2/2/1 3/1/1 4/2/1
f 7/2/3 6/1/2 5/2/2
f 6/1/2 7/2/3 8/1/3
f 10/1/4 7/2/3 9/2/4
f 7/2/3 10/1/4 8/1/3
f 12/1/5 9/2/4 11/2/5
f 9/2/4 12/1/5 10/1/4
f 3/1/6 13/2/6 4/2/6
f 13/2/6 3/1/6 14/1/6
f 17/3/1 16/4/1 15/3/1
f 16/4/1 17/3/1 14/1/1
f 14/1/1 17/3/1 13/2/1
f 13/2/1 17/3/1 18/5/1
f 18/5/1 17/3/1 12/1/1
f 12/1/1 17/3/1 19/4/1
f 20/5/1 18/5/1 12/1/1
f 20/5/1 12/1/1 11/2/1
f 21/6/1 18/5/1 20/5/1
f 21/6/1 20/5/1 22/5/1
f 23/6/1 18/5/1 21/6/1
f 18/5/1 23/6/1 24/5/1
f 27/4/6 26/3/6 25/3/6
f 27/4/6 28/4/6 26/3/6
f 1/1/6 28/4/6 27/4/6
f 1/1/6 29/1/6 28/4/6
f 2/2/6 29/1/6 1/1/6
f 2/2/6 30/2/6 29/1/6
f 31/5/6 30/2/6 2/2/6
f 30/2/6 31/5/6 32/5/6
f 33/5/6 32/5/6 31/5/6
f 33/5/6 34/5/6 32/5/6
f 35/6/6 34/5/6 33/5/6
f 34/5/6 35/6/6 36/6/6
f 5/2/2 29/1/7 30/2/7
f 29/1/7 5/2/2 6/1/2
f 37/7/8 22/7/8 20/7/8
f 22/7/8 37/7/8 38/7/8
f 38/7/8 37/7/8 39/7/8
f 38/7/8 39/7/8 40/7/8
f 40/7/8 39/7/8 41/7/8
f 40/7/8 41/7/8 32/7/8
f 40/7/8 32/7/8 34/7/8
f 40/7/8 34/7/8 42/7/8
f 6/8/11 28/9/10 29/8/9
f 28/9/10 6/8/11 43/9/12
f 43/9/12 26/10/7 28/9/10
f 26/10/7 43/9/12 44/10/2
f 45/9/15 8/8/14 10/8/13
f 8/8/14 45/9/15 46/9/16
f 8/8/14 43/9/12 6/8/11
f 43/9/12 8/8/14 46/9/16
f 17/10/5 45/9/15 19/9/17
f 45/9/15 17/10/5 47/10/4
f 47/10/4 46/9/16 45/9/15
f 46/9/16 47/10/4 48/10/3
f 46/9/16 44/10/2 43/9/12
f 44/10/2 46/9/16 48/10/3
f 38/7/4 50/11/3 49/11/4
f 50/11/3 38/7/4 40/7/3
f 50/11/3 42/7/2 51/11/2
f 42/7/2 50/11/3 40/7/3
f 52/9/19 14/8/18 3/8/18
f 14/8/18 52/9/19 16/9/20
f 49/11/21 23/11/21 21/11/21
f 23/11/21 49/11/21 53/11/21
f 53/11/21 49/11/21 35/11/21
f 35/11/21 49/11/21 36/11/21
f 36/11/21 49/11/21 50/11/21
f 36/11/21 50/11/21 51/11/21
f 54/7/6 23/11/6 53/11/6
f 23/11/6 54/7/6 24/7/6
f 19/9/17 10/8/13 12/8/22
f 10/8/13 19/9/17 45/9/15
f 55/10/6 16/9/20 52/9/19
f 16/9/20 55/10/6 15/10/6
f 22/7/5 49/11/4 21/11/5
f 49/11/4 22/7/5 38/7/4
f 55/10/8 17/10/8 15/10/8
f 17/10/8 55/10/8 47/10/8
f 47/10/8 55/10/8 25/10/8
f 47/10/8 25/10/8 26/10/8
f 47/10/8 26/10/8 48/10/8
f 48/10/8 26/10/8 44/10/8
f 51/11/2 34/7/7 36/11/7
f 34/7/7 51/11/2 42/7/2
f 54/7/8 18/7/8 24/7/8
f 18/7/8 54/7/8 56/7/8
f 56/7/8 54/7/8 33/7/8
f 56/7/8 33/7/8 31/7/8
f 54/7/1 35/11/1 33/7/1
f 35/11/1 54/7/1 53/11/1
f 55/10/1 27/9/23 25/10/1
f 27/9/23 55/10/1 52/9/24
f 52/9/24 1/8/25 27/9/23
f 1/8/25 52/9/24 3/8/25
f 59/12/1 58/13/1 57/12/1
f 58/13/1 59/12/1 60/13/1
f 11/12/5 37/13/4 20/13/5
f 37/13/4 11/12/5 9/12/4
f 59/12/6 61/13/6 60/13/6
f 61/13/6 59/12/6 62/12/6
f 9/12/4 39/13/3 37/13/4
f 39/13/3 9/12/4 7/12/3
f 39/13/3 5/12/2 41/13/2
f 5/12/2 39/13/3 7/12/3
f 41/13/2 30/12/7 32/13/7
f 30/12/7 41/13/2 5/12/2

