# Created by Kenney (www.kenney.nl)

mtllib wall-door-edge.mtl

g wall-door-edge

v -0.5 0.8 -0.15 1 1 1
v 0.5 0.8 -0.15 1 1 1
v -0.5 1 -0.15 1 1 1
v 0.5 1 -0.15 1 1 1
v 0.5 0.8 0.15 1 1 1
v -0.5 0.8 0.15 1 1 1
v 0.5 1 0.15 1 1 1
v -0.5 1 0.15 1 1 1
v -0.4 0.2 0.1 1 1 1
v -0.4 0.2 0.15 1 1 1
v -0.5 0.2 0.1 1 1 1
v -0.5 0.2 0.15 1 1 1
v -0.5 0.7 -0.1 1 1 1
v -0.4 0.7 -0.1 1 1 1
v 0.5 0.7 -0.1 1 1 1
v 0.5 0.7 0.1 1 1 1
v -0.4 0.7 0.1 1 1 1
v -0.5 0.7 0.1 1 1 1
v -0.4 0 0.15 1 1 1
v -0.4 0 -0.15 1 1 1
v -0.5 0 0.15 1 1 1
v -0.5 0 -0.15 1 1 1
v -0.4 0.2 -0.15 1 1 1
v -0.4 0.2 -0.1 1 1 1
v -0.5 0.2 -0.15 1 1 1
v -0.5 0.2 -0.1 1 1 1
v -0.4 0.75 -0.15 1 1 1
v -0.4 0.75 0.15 1 1 1
v -0.35 0.8 -0.15 1 1 1
v -0.35 0.8 0.15 1 1 1
v -0.3 0.7 -0.15 1 1 1
v -0.3 0 -0.15 1 1 1
v -0.3 0.7 0.15 1 1 1
v -0.3 0 0.15 1 1 1
v 0.5 0.7 0.15 1 1 1
v 0.5 0.7 -0.15 1 1 1

vn 0 -0.2297529 -0.973249
vn 0 0 -1
vn 0 -0.2297529 0.973249
vn 0 0 1
vn 0 1 0
vn 0 -0.4472136 -0.8944272
vn 0 -0.4472136 0.8944272
vn 0 -1 0
vn -1 0 0
vn 1 0 0
vn -0.9238795 0.3826834 0
vn -0.3826834 0.9238795 0

vt 0.34375 0.185
vt 0.34375 0.225
vt 0.34375 0.065
vt 0.34375 0.165
vt 0.34375 0.025
vt 0.21875 0.025
vt 0.21875 0.065
vt 0.21875 0.165
vt 0.21875 0.225
vt 0.21875 0.185
vt 0.21875 0.275
vt 0.21875 0.4625
vt 0.21875 0.475
vt 0.21875 0.45

usemtl colormap

f 3/2/2 2/1/1 1/1/1
f 2/1/1 3/2/2 4/2/2
f 7/2/4 6/1/3 5/1/3
f 6/1/3 7/2/4 8/2/4
f 11/3/5 10/3/5 9/3/5
f 10/3/5 11/3/5 12/3/5
f 1/1/1 14/4/6 13/4/6
f 14/4/6 1/1/1 15/4/6
f 15/4/6 1/1/1 2/1/1
f 5/1/3 17/4/7 16/4/7
f 17/4/7 5/1/3 18/4/7
f 18/4/7 5/1/3 6/1/3
f 21/5/8 20/5/8 19/5/8
f 20/5/8 21/5/8 22/5/8
f 25/3/5 24/3/5 23/3/5
f 24/3/5 25/3/5 26/3/5
f 10/3/4 21/5/4 19/5/4
f 21/5/4 10/3/4 12/3/4
f 3/2/5 7/2/5 4/2/5
f 7/2/5 3/2/5 8/2/5
f 25/3/2 20/5/2 22/5/2
f 20/5/2 25/3/2 23/3/2
f 21/6/9 25/7/9 22/6/9
f 25/7/9 21/6/9 26/7/9
f 26/7/9 21/6/9 13/8/9
f 13/8/9 21/6/9 11/7/9
f 11/7/9 21/6/9 12/7/9
f 18/8/9 13/8/9 11/7/9
f 8/9/9 13/8/9 18/8/9
f 8/9/9 18/8/9 6/10/9
f 3/9/9 13/8/9 8/9/9
f 13/8/9 3/9/9 1/10/9
f 13/8/2 24/7/2 26/7/2
f 24/7/2 13/8/2 14/8/2
f 17/8/4 11/7/4 9/7/4
f 11/7/4 17/8/4 18/8/4
f 7/9/10 2/10/10 4/9/10
f 2/10/10 7/9/10 5/10/10
f 19/11/9 27/12/11 20/11/9
f 27/12/11 19/11/9 28/12/11
f 27/12/11 30/13/12 29/13/12
f 30/13/12 27/12/11 28/12/11
f 33/14/10 32/11/10 31/14/10
f 32/11/10 33/14/10 34/11/10
f 19/11/8 32/11/8 34/11/8
f 32/11/8 19/11/8 20/11/8
f 5/13/4 33/14/4 35/14/4
f 33/14/4 5/13/4 28/12/4
f 28/12/4 5/13/4 30/13/4
f 19/11/4 33/14/4 28/12/4
f 33/14/4 19/11/4 34/11/4
f 29/13/12 5/13/5 2/13/5
f 5/13/5 29/13/12 30/13/12
f 5/13/10 36/14/10 2/13/10
f 36/14/10 5/13/10 35/14/10
f 27/12/2 32/11/2 20/11/2
f 32/11/2 27/12/2 31/14/2
f 31/14/2 27/12/2 36/14/2
f 36/14/2 27/12/2 2/13/2
f 2/13/2 27/12/2 29/13/2
f 33/14/8 36/14/8 35/14/8
f 36/14/8 33/14/8 31/14/8

g wall-door-edge




usemtl colormap

f 3/2/2 2/1/1 1/1/1
f 2/1/1 3/2/2 4/2/2
f 7/2/4 6/1/3 5/1/3
f 6/1/3 7/2/4 8/2/4
f 11/3/5 10/3/5 9/3/5
f 10/3/5 11/3/5 12/3/5
f 1/1/1 14/4/6 13/4/6
f 14/4/6 1/1/1 15/4/6
f 15/4/6 1/1/1 2/1/1
f 5/1/3 17/4/7 16/4/7
f 17/4/7 5/1/3 18/4/7
f 18/4/7 5/1/3 6/1/3
f 21/5/8 20/5/8 19/5/8
f 20/5/8 21/5/8 22/5/8
f 25/3/5 24/3/5 23/3/5
f 24/3/5 25/3/5 26/3/5
f 10/3/4 21/5/4 19/5/4
f 21/5/4 10/3/4 12/3/4
f 3/2/5 7/2/5 4/2/5
f 7/2/5 3/2/5 8/2/5
f 25/3/2 20/5/2 22/5/2
f 20/5/2 25/3/2 23/3/2
f 21/6/9 25/7/9 22/6/9
f 25/7/9 21/6/9 26/7/9
f 26/7/9 21/6/9 13/8/9
f 13/8/9 21/6/9 11/7/9
f 11/7/9 21/6/9 12/7/9
f 18/8/9 13/8/9 11/7/9
f 8/9/9 13/8/9 18/8/9
f 8/9/9 18/8/9 6/10/9
f 3/9/9 13/8/9 8/9/9
f 13/8/9 3/9/9 1/10/9
f 13/8/2 24/7/2 26/7/2
f 24/7/2 13/8/2 14/8/2
f 17/8/4 11/7/4 9/7/4
f 11/7/4 17/8/4 18/8/4
f 7/9/10 2/10/10 4/9/10
f 2/10/10 7/9/10 5/10/10
f 19/11/9 27/12/11 20/11/9
f 27/12/11 19/11/9 28/12/11
f 27/12/11 30/13/12 29/13/12
f 30/13/12 27/12/11 28/12/11
f 33/14/10 32/11/10 31/14/10
f 32/11/10 33/14/10 34/11/10
f 19/11/8 32/11/8 34/11/8
f 32/11/8 19/11/8 20/11/8
f 5/13/4 33/14/4 35/14/4
f 33/14/4 5/13/4 28/12/4
f 28/12/4 5/13/4 30/13/4
f 19/11/4 33/14/4 28/12/4
f 33/14/4 19/11/4 34/11/4
f 29/13/12 5/13/5 2/13/5
f 5/13/5 29/13/12 30/13/12
f 5/13/10 36/14/10 2/13/10
f 36/14/10 5/13/10 35/14/10
f 27/12/2 32/11/2 20/11/2
f 32/11/2 27/12/2 31/14/2
f 31/14/2 27/12/2 36/14/2
f 36/14/2 27/12/2 2/13/2
f 2/13/2 27/12/2 29/13/2
f 33/14/8 36/14/8 35/14/8
f 36/14/8 33/14/8 31/14/8

