# Created by Kenney (www.kenney.nl)

mtllib wall-window-banner.mtl

g wall-window-banner

v 0.5 1 -0.15 1 1 1
v 0.5 0.8 -0.15 1 1 1
v 0.5 1 0.15 1 1 1
v 0.5 0.7 -0.1 1 1 1
v 0.5 0.45 -0.1 1 1 1
v 0.5 0.2 -0.1 1 1 1
v 0.5 0.7 0.1 1 1 1
v 0.5 0.8 0.15 1 1 1
v 0.5 0.2 0.1 1 1 1
v 0.5 0.45 0.1 1 1 1
v 0.5 0 0.15 1 1 1
v 0.5 0.2 0.15 1 1 1
v 0.5 0 -0.15 1 1 1
v 0.5 0.2 -0.15 1 1 1
v -0.5 0 -0.15 1 1 1
v -0.5 0.2 -0.15 1 1 1
v -0.5 0 0.15 1 1 1
v -0.5 0.2 -0.1 1 1 1
v -0.5 0.45 -0.1 1 1 1
v -0.5 0.7 -0.1 1 1 1
v -0.5 0.2 0.1 1 1 1
v -0.5 0.2 0.15 1 1 1
v -0.5 0.7 0.1 1 1 1
v -0.5 0.45 0.1 1 1 1
v -0.5 1 0.15 1 1 1
v -0.5 0.8 0.15 1 1 1
v -0.5 1 -0.15 1 1 1
v -0.5 0.8 -0.15 1 1 1
v 0.3 0.45 0.1 1 1 1
v 0.3 0.7 0.1 1 1 1
v -0.3 0.45 -0.1 1 1 1
v -0.3 0.7 -0.1 1 1 1
v -0.3 0.45 0.1 1 1 1
v -0.3 0.7 0.1 1 1 1
v 0.3 0.45 -0.1 1 1 1
v 0.3 0.7 -0.1 1 1 1
v 0.3 0.7 0.15 1 1 1
v 0.3 0.7 -0.15 1 1 1
v -0.3 0.7 0.15 1 1 1
v -0.3 0.7 -0.15 1 1 1
v -0.3 0.3 -0.15 1 1 1
v -0.3 0.3 0.15 1 1 1
v 0.3 0.3 -0.15 1 1 1
v 0.3 0.3 0.15 1 1 1
v 0.35 0.8 -0.15 1 1 1
v 0.35 0.8 0.15 1 1 1
v -0.35 0.8 -0.15 1 1 1
v -0.35 0.8 0.15 1 1 1
v 0.4 0.75 -0.15 1 1 1
v 0.4 0.75 0.15 1 1 1
v -0.4 0.25 -0.15 1 1 1
v -0.4 0.75 -0.15 1 1 1
v -0.4 0.25 0.15 1 1 1
v -0.4 0.75 0.15 1 1 1
v 0.35 0.2 0.15 1 1 1
v -0.35 0.2 0.15 1 1 1
v 0.4 0.25 0.15 1 1 1
v -0.35 0.2 -0.15 1 1 1
v 0.35 0.2 -0.15 1 1 1
v 0.4 0.25 -0.15 1 1 1
v 0.3 0.2 -0.1 1 1 1
v 0.3 0.2 0.1 1 1 1
v -0.3 0.2 -0.1 1 1 1
v -0.3 0.2 0.1 1 1 1

vn 1 0 0
vn -1 0 0
vn 0 0 1
vn 0 0 -1
vn 0 -1 0
vn 0 1 0
vn 0 -0.2297529 0.973249
vn 0 -0.2297529 -0.973249
vn 0 -0.4472136 -0.8944272
vn 0 -0.4472136 0.8944272
vn 0.3826834 0.9238795 0
vn -0.3826834 0.9238795 0
vn 0.9238795 0.3826834 0
vn -0.9238795 -0.3826834 0
vn -0.9238795 0.3826834 0
vn 0.9238795 -0.3826834 0
vn 0.3826834 -0.9238795 0
vn -0.3826834 -0.9238795 0

vt 0.21875 0.225
vt 0.21875 0.185
vt 0.21875 0.165
vt 0.21875 0.115
vt 0.21875 0.065
vt 0.21875 0.025
vt 0.34375 0.025
vt 0.34375 0.065
vt 0.34375 0.185
vt 0.34375 0.225
vt 0.34375 0.165
vt 0.21875 0.4416667
vt 0.21875 0.3083333
vt 0.21875 0.475
vt 0.21875 0.4583333
vt 0.21875 0.2916667
vt 0.21875 0.275
vt 0.21875 0.325
vt 0.21875 0.425

usemtl colormap

f 3/1/1 2/2/1 1/1/1
f 2/2/1 3/1/1 4/3/1
f 4/3/1 3/1/1 5/4/1
f 5/4/1 3/1/1 6/5/1
f 6/5/1 3/1/1 7/3/1
f 7/3/1 3/1/1 8/2/1
f 9/5/1 6/5/1 7/3/1
f 9/5/1 7/3/1 10/4/1
f 11/6/1 6/5/1 9/5/1
f 11/6/1 9/5/1 12/5/1
f 13/6/1 6/5/1 11/6/1
f 6/5/1 13/6/1 14/5/1
f 17/6/2 16/5/2 15/6/2
f 16/5/2 17/6/2 18/5/2
f 18/5/2 17/6/2 19/4/2
f 19/4/2 17/6/2 20/3/2
f 20/3/2 17/6/2 21/5/2
f 21/5/2 17/6/2 22/5/2
f 23/3/2 20/3/2 21/5/2
f 23/3/2 21/5/2 24/4/2
f 25/1/2 20/3/2 23/3/2
f 25/1/2 23/3/2 26/2/2
f 27/1/2 20/3/2 25/1/2
f 20/3/2 27/1/2 28/2/2
f 7/3/3 29/4/3 10/4/3
f 29/4/3 7/3/3 30/3/3
f 20/3/4 31/4/4 19/4/4
f 31/4/4 20/3/4 32/3/4
f 34/3/3 24/4/3 33/4/3
f 24/4/3 34/3/3 23/3/3
f 36/3/4 5/4/4 35/4/4
f 5/4/4 36/3/4 4/3/4
f 17/7/5 13/7/5 11/7/5
f 13/7/5 17/7/5 15/7/5
f 16/8/4 13/7/4 15/7/4
f 13/7/4 16/8/4 14/8/4
f 12/8/3 17/7/3 11/7/3
f 17/7/3 12/8/3 22/8/3
f 21/8/6 12/8/6 9/8/6
f 12/8/6 21/8/6 22/8/6
f 16/8/6 6/8/6 14/8/6
f 6/8/6 16/8/6 18/8/6
f 3/10/3 26/9/7 8/9/7
f 26/9/7 3/10/3 25/10/3
f 27/10/4 2/9/8 28/9/8
f 2/9/8 27/10/4 1/10/4
f 28/9/8 32/11/9 20/11/9
f 32/11/9 28/9/8 36/11/9
f 36/11/9 28/9/8 4/11/9
f 4/11/9 28/9/8 2/9/8
f 8/9/7 30/11/10 7/11/10
f 30/11/10 8/9/7 34/11/10
f 34/11/10 8/9/7 23/11/10
f 23/11/10 8/9/7 26/9/7
f 27/10/6 3/10/6 1/10/6
f 3/10/6 27/10/6 25/10/6
f 39/12/5 38/12/5 37/12/5
f 38/12/5 39/12/5 40/12/5
f 39/12/1 41/13/1 40/12/1
f 41/13/1 39/12/1 42/13/1
f 41/13/6 44/13/6 43/13/6
f 44/13/6 41/13/6 42/13/6
f 44/13/2 38/12/2 43/13/2
f 38/12/2 44/13/2 37/12/2
f 47/14/12 46/14/11 45/14/11
f 46/14/11 47/14/12 48/14/12
f 46/14/11 49/15/13 45/14/11
f 49/15/13 46/14/11 50/15/13
f 53/16/14 52/15/15 51/16/14
f 52/15/15 53/16/14 54/15/15
f 54/15/15 47/14/12 52/15/15
f 47/14/12 54/15/15 48/14/12
f 57/16/3 56/17/3 55/17/3
f 56/17/3 57/16/3 53/16/3
f 53/16/3 57/16/3 44/13/3
f 44/13/3 57/16/3 50/15/3
f 42/13/3 53/16/3 44/13/3
f 44/13/3 50/15/3 37/12/3
f 53/16/3 42/13/3 54/15/3
f 37/12/3 50/15/3 39/12/3
f 54/15/3 42/13/3 39/12/3
f 54/15/3 39/12/3 50/15/3
f 54/15/3 50/15/3 46/14/3
f 54/15/3 46/14/3 48/14/3
f 51/16/4 59/17/4 58/17/4
f 59/17/4 51/16/4 60/16/4
f 60/16/4 51/16/4 41/13/4
f 41/13/4 51/16/4 52/15/4
f 43/13/4 60/16/4 41/13/4
f 41/13/4 52/15/4 40/12/4
f 60/16/4 43/13/4 49/15/4
f 40/12/4 52/15/4 38/12/4
f 49/15/4 43/13/4 38/12/4
f 49/15/4 38/12/4 52/15/4
f 49/15/4 52/15/4 47/14/4
f 49/15/4 47/14/4 45/14/4
f 50/15/13 60/16/16 49/15/13
f 60/16/16 50/15/13 57/16/16
f 57/16/16 59/17/17 60/16/16
f 59/17/17 57/16/16 55/17/17
f 56/17/18 59/17/17 55/17/17
f 59/17/17 56/17/18 58/17/18
f 56/17/18 51/16/14 58/17/18
f 51/16/14 56/17/18 53/16/14
f 35/19/4 6/18/4 61/18/4
f 6/18/4 35/19/4 5/19/4
f 10/19/3 62/18/3 9/18/3
f 62/18/3 10/19/3 29/19/3
f 19/19/4 63/18/4 18/18/4
f 63/18/4 19/19/4 31/19/4
f 33/19/3 21/18/3 64/18/3
f 21/18/3 33/19/3 24/19/3

g wall-window-banner




usemtl colormap

f 3/1/1 2/2/1 1/1/1
f 2/2/1 3/1/1 4/3/1
f 4/3/1 3/1/1 5/4/1
f 5/4/1 3/1/1 6/5/1
f 6/5/1 3/1/1 7/3/1
f 7/3/1 3/1/1 8/2/1
f 9/5/1 6/5/1 7/3/1
f 9/5/1 7/3/1 10/4/1
f 11/6/1 6/5/1 9/5/1
f 11/6/1 9/5/1 12/5/1
f 13/6/1 6/5/1 11/6/1
f 6/5/1 13/6/1 14/5/1
f 17/6/2 16/5/2 15/6/2
f 16/5/2 17/6/2 18/5/2
f 18/5/2 17/6/2 19/4/2
f 19/4/2 17/6/2 20/3/2
f 20/3/2 17/6/2 21/5/2
f 21/5/2 17/6/2 22/5/2
f 23/3/2 20/3/2 21/5/2
f 23/3/2 21/5/2 24/4/2
f 25/1/2 20/3/2 23/3/2
f 25/1/2 23/3/2 26/2/2
f 27/1/2 20/3/2 25/1/2
f 20/3/2 27/1/2 28/2/2
f 7/3/3 29/4/3 10/4/3
f 29/4/3 7/3/3 30/3/3
f 20/3/4 31/4/4 19/4/4
f 31/4/4 20/3/4 32/3/4
f 34/3/3 24/4/3 33/4/3
f 24/4/3 34/3/3 23/3/3
f 36/3/4 5/4/4 35/4/4
f 5/4/4 36/3/4 4/3/4
f 17/7/5 13/7/5 11/7/5
f 13/7/5 17/7/5 15/7/5
f 16/8/4 13/7/4 15/7/4
f 13/7/4 16/8/4 14/8/4
f 12/8/3 17/7/3 11/7/3
f 17/7/3 12/8/3 22/8/3
f 21/8/6 12/8/6 9/8/6
f 12/8/6 21/8/6 22/8/6
f 16/8/6 6/8/6 14/8/6
f 6/8/6 16/8/6 18/8/6
f 3/10/3 26/9/7 8/9/7
f 26/9/7 3/10/3 25/10/3
f 27/10/4 2/9/8 28/9/8
f 2/9/8 27/10/4 1/10/4
f 28/9/8 32/11/9 20/11/9
f 32/11/9 28/9/8 36/11/9
f 36/11/9 28/9/8 4/11/9
f 4/11/9 28/9/8 2/9/8
f 8/9/7 30/11/10 7/11/10
f 30/11/10 8/9/7 34/11/10
f 34/11/10 8/9/7 23/11/10
f 23/11/10 8/9/7 26/9/7
f 27/10/6 3/10/6 1/10/6
f 3/10/6 27/10/6 25/10/6
f 39/12/5 38/12/5 37/12/5
f 38/12/5 39/12/5 40/12/5
f 39/12/1 41/13/1 40/12/1
f 41/13/1 39/12/1 42/13/1
f 41/13/6 44/13/6 43/13/6
f 44/13/6 41/13/6 42/13/6
f 44/13/2 38/12/2 43/13/2
f 38/12/2 44/13/2 37/12/2
f 47/14/12 46/14/11 45/14/11
f 46/14/11 47/14/12 48/14/12
f 46/14/11 49/15/13 45/14/11
f 49/15/13 46/14/11 50/15/13
f 53/16/14 52/15/15 51/16/14
f 52/15/15 53/16/14 54/15/15
f 54/15/15 47/14/12 52/15/15
f 47/14/12 54/15/15 48/14/12
f 57/16/3 56/17/3 55/17/3
f 56/17/3 57/16/3 53/16/3
f 53/16/3 57/16/3 44/13/3
f 44/13/3 57/16/3 50/15/3
f 42/13/3 53/16/3 44/13/3
f 44/13/3 50/15/3 37/12/3
f 53/16/3 42/13/3 54/15/3
f 37/12/3 50/15/3 39/12/3
f 54/15/3 42/13/3 39/12/3
f 54/15/3 39/12/3 50/15/3
f 54/15/3 50/15/3 46/14/3
f 54/15/3 46/14/3 48/14/3
f 51/16/4 59/17/4 58/17/4
f 59/17/4 51/16/4 60/16/4
f 60/16/4 51/16/4 41/13/4
f 41/13/4 51/16/4 52/15/4
f 43/13/4 60/16/4 41/13/4
f 41/13/4 52/15/4 40/12/4
f 60/16/4 43/13/4 49/15/4
f 40/12/4 52/15/4 38/12/4
f 49/15/4 43/13/4 38/12/4
f 49/15/4 38/12/4 52/15/4
f 49/15/4 52/15/4 47/14/4
f 49/15/4 47/14/4 45/14/4
f 50/15/13 60/16/16 49/15/13
f 60/16/16 50/15/13 57/16/16
f 57/16/16 59/17/17 60/16/16
f 59/17/17 57/16/16 55/17/17
f 56/17/18 59/17/17 55/17/17
f 59/17/17 56/17/18 58/17/18
f 56/17/18 51/16/14 58/17/18
f 51/16/14 56/17/18 53/16/14
f 35/19/4 6/18/4 61/18/4
f 6/18/4 35/19/4 5/19/4
f 10/19/3 62/18/3 9/18/3
f 62/18/3 10/19/3 29/19/3
f 19/19/4 63/18/4 18/18/4
f 63/18/4 19/19/4 31/19/4
f 33/19/3 21/18/3 64/18/3
f 21/18/3 33/19/3 24/19/3

